<?xml version="1.0" encoding="utf-8"?>
<svg version="1.1" xmlns:xlink="http://www.w3.org/1999/xlink" width="28px" height="28px" xmlns="http://www.w3.org/2000/svg">
  <g transform="matrix(1 0 0 1 -224 -1113 )">
    <path d="M 238 1113  C 245.84 1113  252 1119.16  252 1127  C 252 1134.84  245.84 1141  238 1141  C 230.16 1141  224 1134.84  224 1127  C 224 1119.16  230.16 1113  238 1113  Z " fill-rule="nonzero" fill="#000000" stroke="none" />
    <path d="M 238 1113.5  C 245.56 1113.5  251.5 1119.44  251.5 1127  C 251.5 1134.56  245.56 1140.5  238 1140.5  C 230.44 1140.5  224.5 1134.56  224.5 1127  C 224.5 1119.44  230.44 1113.5  238 1113.5  Z " stroke-width="1" stroke="#797979" fill="none" />
  </g>
</svg>