<?xml version="1.0" encoding="utf-8"?>
<svg version="1.1" xmlns:xlink="http://www.w3.org/1999/xlink" width="8px" height="16px" xmlns="http://www.w3.org/2000/svg">
  <g transform="matrix(1 0 0 1 -225 -116 )">
    <path d="M 7.67676767676768 8.38888888888887  C 7.87878787878789 8.16666666666661  7.87878787878789 7.83333333333339  7.67676767676768 7.61111111111113  L 1.11111111111111 0.388888888888869  C 0.909090909090909 0.166666666666606  0.606060606060603 0.166666666666606  0.404040404040405 0.388888888888869  C 0.202020202020197 0.611111111111131  0.202020202020197 0.944444444444525  0.404040404040405 1.16666666666661  L 6.61616161616162 8  L 0.404040404040405 14.8333333333334  C 0.202020202020197 15.0555555555555  0.202020202020197 15.3888888888889  0.404040404040405 15.6111111111111  C 0.505050505050504 15.7222222222223  0.606060606060603 15.7777777777777  0.757575757575761 15.7777777777777  C 0.909090909090909 15.7777777777777  1.01010101010101 15.7222222222223  1.11111111111111 15.6111111111111  L 7.67676767676768 8.38888888888887  Z " fill-rule="nonzero" fill="#ffffff" stroke="none" transform="matrix(1 0 0 1 225 116 )" />
  </g>
</svg>