<?xml version="1.0" encoding="utf-8"?>
<svg version="1.1" xmlns:xlink="http://www.w3.org/1999/xlink" width="10px" height="10px" xmlns="http://www.w3.org/2000/svg">
  <g transform="matrix(1 0 0 1 -474 -114 )">
    <path d="M 9.33392857142857 1.29821428571429  L 5.63125 5  L 9.33392857142857 8.70178571428571  C 9.41775592625286 8.78561306911  9.4648496438215 8.89930736076678  9.4648496438215 9.01785714285714  C 9.4648496438215 9.26472428442848  9.26472428442848 9.4648496438215  9.01785714285714 9.4648496438215  C 8.89930736076678 9.4648496438215  8.78561306911 9.41775592625286  8.70178571428571 9.33392857142857  L 5 5.63125  L 1.29821428571429 9.33392857142857  C 1.21438693089 9.41775592625286  1.10069263923322 9.4648496438215  0.982142857142857 9.4648496438215  C 0.735275715571518 9.4648496438215  0.535150356178504 9.26472428442848  0.535150356178504 9.01785714285714  C 0.535150356178504 8.89930736076678  0.582244073747144 8.78561306911  0.666071428571429 8.70178571428571  L 4.36875 5  L 0.666071428571429 1.29821428571429  C 0.582244073747144 1.21438693089  0.535150356178504 1.10069263923322  0.535150356178504 0.982142857142857  C 0.535150356178504 0.735275715571518  0.735275715571518 0.535150356178504  0.982142857142857 0.535150356178504  C 1.10069263923322 0.535150356178504  1.21438693089 0.582244073747144  1.29821428571429 0.666071428571429  L 5 4.36875  L 8.70178571428571 0.666071428571429  C 8.78561306911 0.582244073747145  8.89930736076678 0.535150356178504  9.01785714285714 0.535150356178504  C 9.26472428442848 0.535150356178504  9.4648496438215 0.735275715571518  9.4648496438215 0.982142857142857  C 9.4648496438215 1.10069263923322  9.41775592625286 1.21438693089  9.33392857142857 1.29821428571429  Z " fill-rule="nonzero" fill="#ffffff" stroke="none" transform="matrix(1 0 0 1 474 114 )" />
  </g>
</svg>