<?xml version="1.0" encoding="utf-8"?>
<svg version="1.1" xmlns:xlink="http://www.w3.org/1999/xlink" width="12px" height="12px" viewBox="228 545  12 12" xmlns="http://www.w3.org/2000/svg">
  <path d="M 234 545  C 237.36 545  240 547.64  240 551  C 240 554.36  237.36 557  234 557  C 230.64 557  228 554.36  228 551  C 228 547.64  230.64 545  234 545  Z " fill-rule="nonzero" fill="#f0f0f0" stroke="none" />
  <path d="M 234 545.5  C 237.08 545.5  239.5 547.92  239.5 551  C 239.5 554.08  237.08 556.5  234 556.5  C 230.92 556.5  228.5 554.08  228.5 551  C 228.5 547.92  230.92 545.5  234 545.5  Z " stroke-width="1" stroke="#797979" fill="none" />
  <path d="M 234 554  C 232.32 554  231 552.68  231 551  C 231 549.32  232.32 548  234 548  C 235.68 548  237 549.32  237 551  C 237 552.68  235.68 554  234 554  " fill-rule="nonzero" fill="#797979" stroke="none" />
</svg>