<?xml version="1.0" encoding="utf-8"?>
<svg version="1.1" xmlns:xlink="http://www.w3.org/1999/xlink" width="12px" height="12px" viewBox="228 2468  12 12" xmlns="http://www.w3.org/2000/svg">
  <path d="M 234 2468  C 237.36 2468  240 2470.64  240 2474  C 240 2477.36  237.36 2480  234 2480  C 230.64 2480  228 2477.36  228 2474  C 228 2470.64  230.64 2468  234 2468  Z " fill-rule="nonzero" fill="#f0f0f0" stroke="none" />
  <path d="M 234 2468.5  C 237.08 2468.5  239.5 2470.92  239.5 2474  C 239.5 2477.08  237.08 2479.5  234 2479.5  C 230.92 2479.5  228.5 2477.08  228.5 2474  C 228.5 2470.92  230.92 2468.5  234 2468.5  Z " stroke-width="1" stroke="#797979" fill="none" />
  <path d="M 234 2477  C 232.32 2477  231 2475.68  231 2474  C 231 2472.32  232.32 2471  234 2471  C 235.68 2471  237 2472.32  237 2474  C 237 2475.68  235.68 2477  234 2477  " fill-rule="nonzero" fill="#797979" stroke="none" />
</svg>