<?xml version="1.0" encoding="utf-8"?>
<svg version="1.1" xmlns:xlink="http://www.w3.org/1999/xlink" width="12px" height="12px" viewBox="228 582  12 12" xmlns="http://www.w3.org/2000/svg">
  <path d="M 234 582  C 237.36 582  240 584.64  240 588  C 240 591.36  237.36 594  234 594  C 230.64 594  228 591.36  228 588  C 228 584.64  230.64 582  234 582  Z " fill-rule="nonzero" fill="#f0f0f0" stroke="none" />
  <path d="M 234 582.5  C 237.08 582.5  239.5 584.92  239.5 588  C 239.5 591.08  237.08 593.5  234 593.5  C 230.92 593.5  228.5 591.08  228.5 588  C 228.5 584.92  230.92 582.5  234 582.5  Z " stroke-width="1" stroke="#797979" fill="none" />
  <path d="M 234 591  C 232.32 591  231 589.68  231 588  C 231 586.32  232.32 585  234 585  C 235.68 585  237 586.32  237 588  C 237 589.68  235.68 591  234 591  " fill-rule="nonzero" fill="#797979" stroke="none" />
</svg>