<?xml version="1.0" encoding="utf-8"?>
<svg version="1.1" xmlns:xlink="http://www.w3.org/1999/xlink" width="12px" height="12px" viewBox="300 2843  12 12" xmlns="http://www.w3.org/2000/svg">
  <path d="M 306 2843  C 309.36 2843  312 2845.64  312 2849  C 312 2852.36  309.36 2855  306 2855  C 302.64 2855  300 2852.36  300 2849  C 300 2845.64  302.64 2843  306 2843  Z " fill-rule="nonzero" fill="#ffffff" stroke="none" />
  <path d="M 306 2843.5  C 309.08 2843.5  311.5 2845.92  311.5 2849  C 311.5 2852.08  309.08 2854.5  306 2854.5  C 302.92 2854.5  300.5 2852.08  300.5 2849  C 300.5 2845.92  302.92 2843.5  306 2843.5  Z " stroke-width="1" stroke="#797979" fill="none" />
  <path d="M 306 2852  C 304.32 2852  303 2850.68  303 2849  C 303 2847.32  304.32 2846  306 2846  C 307.68 2846  309 2847.32  309 2849  C 309 2850.68  307.68 2852  306 2852  " fill-rule="nonzero" fill="#797979" stroke="none" />
</svg>