<?xml version="1.0" encoding="utf-8"?>
<svg version="1.1" xmlns:xlink="http://www.w3.org/1999/xlink" width="12px" height="12px" viewBox="201 1935  12 12" xmlns="http://www.w3.org/2000/svg">
  <path d="M 207 1935  C 210.36 1935  213 1937.64  213 1941  C 213 1944.36  210.36 1947  207 1947  C 203.64 1947  201 1944.36  201 1941  C 201 1937.64  203.64 1935  207 1935  Z " fill-rule="nonzero" fill="#ffffff" stroke="none" />
  <path d="M 207 1935.5  C 210.08 1935.5  212.5 1937.92  212.5 1941  C 212.5 1944.08  210.08 1946.5  207 1946.5  C 203.92 1946.5  201.5 1944.08  201.5 1941  C 201.5 1937.92  203.92 1935.5  207 1935.5  Z " stroke-width="1" stroke="#797979" fill="none" />
  <path d="M 207 1944  C 205.32 1944  204 1942.68  204 1941  C 204 1939.32  205.32 1938  207 1938  C 208.68 1938  210 1939.32  210 1941  C 210 1942.68  208.68 1944  207 1944  " fill-rule="nonzero" fill="#797979" stroke="none" />
</svg>