<?xml version="1.0" encoding="utf-8"?>
<svg version="1.1" xmlns:xlink="http://www.w3.org/1999/xlink" width="63px" height="63px" xmlns="http://www.w3.org/2000/svg">
  <g transform="matrix(1 0 0 1 -149 -565 )">
    <path d="M 11.4545454545455 45.8181818181818  L 17.1818181818182 45.8181818181818  L 17.1818181818182 51.5454545454545  L 11.4545454545455 51.5454545454545  L 11.4545454545455 45.8181818181818  Z M 11.4545454545455 11.4545454545455  L 17.1818181818182 11.4545454545455  L 17.1818181818182 17.1818181818182  L 11.4545454545455 17.1818181818182  L 11.4545454545455 11.4545454545455  Z M 45.8181818181818 11.4545454545455  L 51.5454545454545 11.4545454545455  L 51.5454545454545 17.1818181818182  L 45.8181818181818 17.1818181818182  L 45.8181818181818 11.4545454545455  Z M 6 40  L 6 57  L 23 57  L 23 40  L 6 40  Z M 6 6  L 6 23  L 23 23  L 23 6  L 6 6  Z M 40 6  L 40 23  L 57 23  L 57 6  L 40 6  Z M 0 34  L 29 34  L 29 63  L 0 63  L 0 34  Z M 45.8181818181818 57.2727272727273  L 51.5454545454545 57.2727272727273  L 51.5454545454545 63  L 45.8181818181818 63  L 45.8181818181818 57.2727272727273  Z M 57.2727272727273 57.2727272727273  L 63 57.2727272727273  L 63 63  L 57.2727272727273 63  L 57.2727272727273 57.2727272727273  Z M 57.2727272727273 34.3636363636364  L 63 34.3636363636364  L 63 51  L 45.8181818181818 51  L 45.8181818181818 45.8181818181818  L 40 45.8181818181818  L 40 63  L 34 63  L 34 34  L 51.5454545454545 34  L 51.5454545454545 40.0909090909091  L 57.2727272727273 40.0909090909091  L 57.2727272727273 34.3636363636364  Z M 0 0  L 29 0  L 29 29  L 0 29  L 0 0  Z M 34 0  L 63 0  L 63 29  L 34 29  L 34 0  Z " fill-rule="nonzero" fill="#000000" stroke="none" transform="matrix(1 0 0 1 149 565 )" />
  </g>
</svg>