<?xml version="1.0" encoding="utf-8"?>
<svg version="1.1" xmlns:xlink="http://www.w3.org/1999/xlink" width="8px" height="8px" xmlns="http://www.w3.org/2000/svg">
  <g transform="matrix(1 0 0 1 -244 -653 )">
    <path d="M 248 653  C 250.24 653  252 654.76  252 657  C 252 659.24  250.24 661  248 661  C 245.76 661  244 659.24  244 657  C 244 654.76  245.76 653  248 653  Z " fill-rule="nonzero" fill="#ffffff" stroke="none" />
    <path d="M 248 653.5  C 249.96 653.5  251.5 655.04  251.5 657  C 251.5 658.96  249.96 660.5  248 660.5  C 246.04 660.5  244.5 658.96  244.5 657  C 244.5 655.04  246.04 653.5  248 653.5  Z " stroke-width="1" stroke="#797979" fill="none" />
  </g>
</svg>