<?xml version="1.0" encoding="utf-8"?>
<svg version="1.1" xmlns:xlink="http://www.w3.org/1999/xlink" width="8px" height="8px" xmlns="http://www.w3.org/2000/svg">
  <g transform="matrix(1 0 0 1 -274 -653 )">
    <path d="M 278 653  C 280.24 653  282 654.76  282 657  C 282 659.24  280.24 661  278 661  C 275.76 661  274 659.24  274 657  C 274 654.76  275.76 653  278 653  Z " fill-rule="nonzero" fill="#555555" stroke="none" />
    <path d="M 278 653.5  C 279.96 653.5  281.5 655.04  281.5 657  C 281.5 658.96  279.96 660.5  278 660.5  C 276.04 660.5  274.5 658.96  274.5 657  C 274.5 655.04  276.04 653.5  278 653.5  Z " stroke-width="1" stroke="#797979" fill="none" />
  </g>
</svg>