<?xml version="1.0" encoding="utf-8"?>
<svg version="1.1" xmlns:xlink="http://www.w3.org/1999/xlink" width="12px" height="12px" viewBox="204 1225  12 12" xmlns="http://www.w3.org/2000/svg">
  <path d="M 210 1225  C 213.36 1225  216 1227.64  216 1231  C 216 1234.36  213.36 1237  210 1237  C 206.64 1237  204 1234.36  204 1231  C 204 1227.64  206.64 1225  210 1225  Z " fill-rule="nonzero" fill="#f0f0f0" stroke="none" />
  <path d="M 210 1225.5  C 213.08 1225.5  215.5 1227.92  215.5 1231  C 215.5 1234.08  213.08 1236.5  210 1236.5  C 206.92 1236.5  204.5 1234.08  204.5 1231  C 204.5 1227.92  206.92 1225.5  210 1225.5  Z " stroke-width="1" stroke="#797979" fill="none" />
  <path d="M 210 1234  C 208.32 1234  207 1232.68  207 1231  C 207 1229.32  208.32 1228  210 1228  C 211.68 1228  213 1229.32  213 1231  C 213 1232.68  211.68 1234  210 1234  " fill-rule="nonzero" fill="#797979" stroke="none" />
</svg>