<?xml version="1.0" encoding="utf-8"?>
<svg version="1.1" xmlns:xlink="http://www.w3.org/1999/xlink" width="12px" height="12px" viewBox="1039 2140  12 12" xmlns="http://www.w3.org/2000/svg">
  <path d="M 1045 2140  C 1048.36 2140  1051 2142.64  1051 2146  C 1051 2149.36  1048.36 2152  1045 2152  C 1041.64 2152  1039 2149.36  1039 2146  C 1039 2142.64  1041.64 2140  1045 2140  Z " fill-rule="nonzero" fill="#f0f0f0" stroke="none" />
  <path d="M 1045 2140.5  C 1048.08 2140.5  1050.5 2142.92  1050.5 2146  C 1050.5 2149.08  1048.08 2151.5  1045 2151.5  C 1041.92 2151.5  1039.5 2149.08  1039.5 2146  C 1039.5 2142.92  1041.92 2140.5  1045 2140.5  Z " stroke-width="1" stroke="#797979" fill="none" />
  <path d="M 1045 2149  C 1043.32 2149  1042 2147.68  1042 2146  C 1042 2144.32  1043.32 2143  1045 2143  C 1046.68 2143  1048 2144.32  1048 2146  C 1048 2147.68  1046.68 2149  1045 2149  " fill-rule="nonzero" fill="#797979" stroke="none" />
</svg>