<?xml version="1.0" encoding="utf-8"?>
<svg version="1.1" xmlns:xlink="http://www.w3.org/1999/xlink" width="12px" height="12px" viewBox="926 2140  12 12" xmlns="http://www.w3.org/2000/svg">
  <path d="M 932 2140  C 935.36 2140  938 2142.64  938 2146  C 938 2149.36  935.36 2152  932 2152  C 928.64 2152  926 2149.36  926 2146  C 926 2142.64  928.64 2140  932 2140  Z " fill-rule="nonzero" fill="#f0f0f0" stroke="none" />
  <path d="M 932 2140.5  C 935.08 2140.5  937.5 2142.92  937.5 2146  C 937.5 2149.08  935.08 2151.5  932 2151.5  C 928.92 2151.5  926.5 2149.08  926.5 2146  C 926.5 2142.92  928.92 2140.5  932 2140.5  Z " stroke-width="1" stroke="#797979" fill="none" />
  <path d="M 932 2149  C 930.32 2149  929 2147.68  929 2146  C 929 2144.32  930.32 2143  932 2143  C 933.68 2143  935 2144.32  935 2146  C 935 2147.68  933.68 2149  932 2149  " fill-rule="nonzero" fill="#797979" stroke="none" />
</svg>