<?xml version="1.0" encoding="utf-8"?>
<svg version="1.1" xmlns:xlink="http://www.w3.org/1999/xlink" width="12px" height="12px" viewBox="926 2138.5  12 12" xmlns="http://www.w3.org/2000/svg">
  <path d="M 932 2138.5  C 935.36 2138.5  938 2141.14  938 2144.5  C 938 2147.86  935.36 2150.5  932 2150.5  C 928.64 2150.5  926 2147.86  926 2144.5  C 926 2141.14  928.64 2138.5  932 2138.5  Z " fill-rule="nonzero" fill="#f0f0f0" stroke="none" />
  <path d="M 932 2139  C 935.08 2139  937.5 2141.42  937.5 2144.5  C 937.5 2147.58  935.08 2150  932 2150  C 928.92 2150  926.5 2147.58  926.5 2144.5  C 926.5 2141.42  928.92 2139  932 2139  Z " stroke-width="1" stroke="#797979" fill="none" />
  <path d="M 932 2147.5  C 930.32 2147.5  929 2146.18  929 2144.5  C 929 2142.82  930.32 2141.5  932 2141.5  C 933.68 2141.5  935 2142.82  935 2144.5  C 935 2146.18  933.68 2147.5  932 2147.5  " fill-rule="nonzero" fill="#797979" stroke="none" />
</svg>