<?xml version="1.0" encoding="utf-8"?>
<svg version="1.1" xmlns:xlink="http://www.w3.org/1999/xlink" width="12px" height="12px" viewBox="1039 2930.5  12 12" xmlns="http://www.w3.org/2000/svg">
  <path d="M 1045 2930.5  C 1048.36 2930.5  1051 2933.14  1051 2936.5  C 1051 2939.86  1048.36 2942.5  1045 2942.5  C 1041.64 2942.5  1039 2939.86  1039 2936.5  C 1039 2933.14  1041.64 2930.5  1045 2930.5  Z " fill-rule="nonzero" fill="#f0f0f0" stroke="none" />
  <path d="M 1045 2931  C 1048.08 2931  1050.5 2933.42  1050.5 2936.5  C 1050.5 2939.58  1048.08 2942  1045 2942  C 1041.92 2942  1039.5 2939.58  1039.5 2936.5  C 1039.5 2933.42  1041.92 2931  1045 2931  Z " stroke-width="1" stroke="#797979" fill="none" />
  <path d="M 1045 2939.5  C 1043.32 2939.5  1042 2938.18  1042 2936.5  C 1042 2934.82  1043.32 2933.5  1045 2933.5  C 1046.68 2933.5  1048 2934.82  1048 2936.5  C 1048 2938.18  1046.68 2939.5  1045 2939.5  " fill-rule="nonzero" fill="#797979" stroke="none" />
</svg>