<?xml version="1.0" encoding="utf-8"?>
<svg version="1.1" xmlns:xlink="http://www.w3.org/1999/xlink" width="12px" height="12px" viewBox="1039 1348.5  12 12" xmlns="http://www.w3.org/2000/svg">
  <path d="M 1045 1348.5  C 1048.36 1348.5  1051 1351.14  1051 1354.5  C 1051 1357.86  1048.36 1360.5  1045 1360.5  C 1041.64 1360.5  1039 1357.86  1039 1354.5  C 1039 1351.14  1041.64 1348.5  1045 1348.5  Z " fill-rule="nonzero" fill="#ffffff" stroke="none" />
  <path d="M 1045 1349  C 1048.08 1349  1050.5 1351.42  1050.5 1354.5  C 1050.5 1357.58  1048.08 1360  1045 1360  C 1041.92 1360  1039.5 1357.58  1039.5 1354.5  C 1039.5 1351.42  1041.92 1349  1045 1349  Z " stroke-width="1" stroke="#797979" fill="none" />
  <path d="M 1045 1357.5  C 1043.32 1357.5  1042 1356.18  1042 1354.5  C 1042 1352.82  1043.32 1351.5  1045 1351.5  C 1046.68 1351.5  1048 1352.82  1048 1354.5  C 1048 1356.18  1046.68 1357.5  1045 1357.5  " fill-rule="nonzero" fill="#797979" stroke="none" />
</svg>