<?xml version="1.0" encoding="utf-8"?>
<svg version="1.1" xmlns:xlink="http://www.w3.org/1999/xlink" width="12px" height="12px" viewBox="1039 2138.5  12 12" xmlns="http://www.w3.org/2000/svg">
  <path d="M 1045 2138.5  C 1048.36 2138.5  1051 2141.14  1051 2144.5  C 1051 2147.86  1048.36 2150.5  1045 2150.5  C 1041.64 2150.5  1039 2147.86  1039 2144.5  C 1039 2141.14  1041.64 2138.5  1045 2138.5  Z " fill-rule="nonzero" fill="#ffffff" stroke="none" />
  <path d="M 1045 2139  C 1048.08 2139  1050.5 2141.42  1050.5 2144.5  C 1050.5 2147.58  1048.08 2150  1045 2150  C 1041.92 2150  1039.5 2147.58  1039.5 2144.5  C 1039.5 2141.42  1041.92 2139  1045 2139  Z " stroke-width="1" stroke="#797979" fill="none" />
  <path d="M 1045 2147.5  C 1043.32 2147.5  1042 2146.18  1042 2144.5  C 1042 2142.82  1043.32 2141.5  1045 2141.5  C 1046.68 2141.5  1048 2142.82  1048 2144.5  C 1048 2146.18  1046.68 2147.5  1045 2147.5  " fill-rule="nonzero" fill="#797979" stroke="none" />
</svg>