<?xml version="1.0" encoding="utf-8"?>
<svg version="1.1" xmlns:xlink="http://www.w3.org/1999/xlink" width="12px" height="12px" viewBox="926 1348.5  12 12" xmlns="http://www.w3.org/2000/svg">
  <path d="M 932 1348.5  C 935.36 1348.5  938 1351.14  938 1354.5  C 938 1357.86  935.36 1360.5  932 1360.5  C 928.64 1360.5  926 1357.86  926 1354.5  C 926 1351.14  928.64 1348.5  932 1348.5  Z " fill-rule="nonzero" fill="#f0f0f0" stroke="none" />
  <path d="M 932 1349  C 935.08 1349  937.5 1351.42  937.5 1354.5  C 937.5 1357.58  935.08 1360  932 1360  C 928.92 1360  926.5 1357.58  926.5 1354.5  C 926.5 1351.42  928.92 1349  932 1349  Z " stroke-width="1" stroke="#797979" fill="none" />
  <path d="M 932 1357.5  C 930.32 1357.5  929 1356.18  929 1354.5  C 929 1352.82  930.32 1351.5  932 1351.5  C 933.68 1351.5  935 1352.82  935 1354.5  C 935 1356.18  933.68 1357.5  932 1357.5  " fill-rule="nonzero" fill="#797979" stroke="none" />
</svg>