<?xml version="1.0" encoding="utf-8"?>
<svg version="1.1" xmlns:xlink="http://www.w3.org/1999/xlink" width="18px" height="17px" xmlns="http://www.w3.org/2000/svg">
  <g transform="matrix(1 0 0 1 -1336 -247 )">
    <path d="M 17.850958354522 6.4065384302099  C 17.7916316611417 6.2293829434622  17.6369580738931 6.10057873746247  17.451119131783 6.07357289596085  L 11.8745380217054 5.29119745071553  L 9.36495892506458 0.315888141438868  C 9.28032710534187 0.149312905514714  9.10861805771898 0.0442498286181699  8.92090218501289 0.0441845354125899  C 8.73368334883719 0.0441845354125899  8.56151727958659 0.148937741632291  8.47731585322998 0.319161677078159  L 6.00066469043928 5.30943572540311  L 0.42408358036177 6.12828773646432  C 0.238337506778396 6.15549948044981  0.0837586833345085 6.28422477735242  0.0242443741602074 6.46125327071342  C -0.0345555183462409 6.638491934781  0.0167179906976571 6.83350124907447  0.152663317829462 6.9602339065234  L 4.19950662118862 10.8290875449779  L 3.26341244031006 16.3080539648519  C 3.23048450645992 16.4927750148843  3.30810034935401 16.6774960484761  3.46192085994833 16.7859904312374  C 3.61432695645638 16.8963836071533  3.81682242091901 16.9103736497898  3.98312303462532 16.8219993397102  L 8.96135651886306 14.220004700606  L 13.9546427534884 16.7930051598592  C 14.0247972451847 16.8288312839997  14.1025304454119 16.8475188111945  14.1813993773159 16.8475188111945  C 14.4535681736953 16.8475188111945  14.6749553743306 16.629591554693  14.6776461560724 16.3590276123729  C 14.678341779737 16.3210756651765  14.6732669383778 16.283236971772  14.6625933726098 16.2467920530698  L 13.6982752578812 10.8000933486861  L 17.7187762108528 6.90972789990481  C 17.8617775297158 6.7792540494734  17.909758230491 6.58424475162065  17.8504879462532 6.40700607111231  Z M 12.8247441695091 10.2824067808453  C 12.7071444010336 10.3946423565892  12.6558708919897 10.5569162816084  12.6850356423773 10.7163843283316  L 13.5251684051679 15.4681577843662  L 9.18902967235144 13.235137571543  C 9.04394057903669 13.1608978033372  8.87171646695817 13.1608978033372  8.72662737364342 13.235137571543  L 4.40460060775193 15.4938784285779  L 5.21556863669253 10.7346226030192  C 5.24097018708011 10.5756222136392  5.19016708630489 10.416154166916  5.072567301292 10.303918607613  L 1.56527176434107 6.94526916747511  L 6.40426711317829 6.23631447832331  C 6.56561399069768 6.21106147501396  6.70532251782944 6.11332299741603  6.77494158552973 5.96835204883873  L 8.92466538501291 1.63652668304699  L 11.104024326615 5.95759614367532  C 11.1774065777778 6.10256709225261  11.3166447131783 6.19983791250737  11.4779915906977 6.22555857315985  L 16.3212205312662 6.90551906601993  L 12.8247441695091 10.2819391399429  Z " fill-rule="nonzero" fill="#000000" stroke="none" transform="matrix(1 0 0 1 1336 247 )" />
  </g>
</svg>