<?xml version="1.0" encoding="utf-8"?>
<svg version="1.1" xmlns:xlink="http://www.w3.org/1999/xlink" width="22px" height="22px" xmlns="http://www.w3.org/2000/svg">
  <g transform="matrix(1 0 0 1 -1009 -135 )">
    <path d="M 20.5346428571429 2.85607142857143  L 12.38875 11  L 20.5346428571429 19.1439285714286  C 20.7190630377563 19.328348752042  20.8226692164073 19.5784761936869  20.8226692164073 19.8392857142857  C 20.8226692164073 20.3823934257427  20.3823934257427 20.8226692164073  19.8392857142857 20.8226692164073  C 19.5784761936869 20.8226692164073  19.328348752042 20.7190630377563  19.1439285714286 20.5346428571429  L 11 12.38875  L 2.85607142857143 20.5346428571429  C 2.671651247958 20.7190630377563  2.42152380631309 20.8226692164073  2.16071428571429 20.8226692164073  C 1.61760657425734 20.8226692164073  1.17733078359271 20.3823934257427  1.17733078359271 19.8392857142857  C 1.17733078359271 19.5784761936869  1.28093696224372 19.328348752042  1.46535714285714 19.1439285714286  L 9.61125 11  L 1.46535714285714 2.85607142857143  C 1.28093696224372 2.671651247958  1.17733078359271 2.42152380631309  1.17733078359271 2.16071428571429  C 1.17733078359271 1.61760657425734  1.61760657425734 1.17733078359271  2.16071428571429 1.17733078359271  C 2.42152380631309 1.17733078359271  2.671651247958 1.28093696224372  2.85607142857143 1.46535714285714  L 11 9.61125  L 19.1439285714286 1.46535714285714  C 19.328348752042 1.28093696224372  19.5784761936869 1.17733078359271  19.8392857142857 1.17733078359271  C 20.3823934257427 1.17733078359271  20.8226692164073 1.61760657425734  20.8226692164073 2.16071428571429  C 20.8226692164073 2.42152380631309  20.7190630377563 2.671651247958  20.5346428571429 2.85607142857143  Z " fill-rule="nonzero" fill="#ffffff" stroke="none" transform="matrix(1 0 0 1 1009 135 )" />
  </g>
</svg>