<?xml version="1.0" encoding="utf-8"?>
<svg version="1.1" xmlns:xlink="http://www.w3.org/1999/xlink" width="98px" height="96px" xmlns="http://www.w3.org/2000/svg">
  <g transform="matrix(1 0 0 1 -923 -607 )">
    <path d="M 17.8181818181818 69.8181818181818  L 26.7272727272727 69.8181818181818  L 26.7272727272727 78.5454545454545  L 17.8181818181818 78.5454545454545  L 17.8181818181818 69.8181818181818  Z M 17.8181818181818 17.4545454545454  L 26.7272727272727 17.4545454545454  L 26.7272727272727 26.1818181818182  L 17.8181818181818 26.1818181818182  L 17.8181818181818 17.4545454545454  Z M 71.2727272727273 17.4545454545454  L 80.1818181818182 17.4545454545454  L 80.1818181818182 26.1818181818182  L 71.2727272727273 26.1818181818182  L 71.2727272727273 17.4545454545454  Z M 9 61  L 9 87  L 36 87  L 36 61  L 9 61  Z M 9 9  L 9 35  L 36 35  L 36 9  L 9 9  Z M 62 9  L 62 35  L 89 35  L 89 9  L 62 9  Z M 0 52  L 45 52  L 45 96  L 0 96  L 0 52  Z M 71.2727272727273 87.2727272727273  L 80.1818181818182 87.2727272727273  L 80.1818181818182 96  L 71.2727272727273 96  L 71.2727272727273 87.2727272727273  Z M 89.0909090909091 87.2727272727273  L 98 87.2727272727273  L 98 96  L 89.0909090909091 96  L 89.0909090909091 87.2727272727273  Z M 89.0909090909091 52.3636363636364  L 98 52.3636363636364  L 98 78  L 71.2727272727273 78  L 71.2727272727273 69.8181818181818  L 62 69.8181818181818  L 62 96  L 53 96  L 53 52  L 80.1818181818182 52  L 80.1818181818182 61.0909090909091  L 89.0909090909091 61.0909090909091  L 89.0909090909091 52.3636363636364  Z M 0 0  L 45 0  L 45 44  L 0 44  L 0 0  Z M 53 0  L 98 0  L 98 44  L 53 44  L 53 0  Z " fill-rule="nonzero" fill="#ffffff" stroke="none" transform="matrix(1 0 0 1 923 607 )" />
  </g>
</svg>