<?xml version="1.0" encoding="utf-8"?>
<svg version="1.1" xmlns:xlink="http://www.w3.org/1999/xlink" width="362px" height="97px" xmlns="http://www.w3.org/2000/svg">
  <defs>
    <mask fill="white" id="clip96">
      <path d="M 0 97  L 0 14  L 340.963855421687 14  L 350 0.891566265060249  L 356.626506024096 14  L 362 14  L 362 97  L 0 97  Z " fill-rule="evenodd" />
    </mask>
  </defs>
  <g transform="matrix(1 0 0 1 -200 -135 )">
    <path d="M 0 97  L 0 14  L 340.963855421687 14  L 350 0.891566265060249  L 356.626506024096 14  L 362 14  L 362 97  L 0 97  Z " fill-rule="nonzero" fill="#ffffff" stroke="none" transform="matrix(1 0 0 1 200 135 )" />
    <path d="M 0 97  L 0 14  L 340.963855421687 14  L 350 0.891566265060249  L 356.626506024096 14  L 362 14  L 362 97  L 0 97  Z " stroke-width="2" stroke="#797979" fill="none" transform="matrix(1 0 0 1 200 135 )" mask="url(#clip96)" />
  </g>
</svg>