<?xml version="1.0" encoding="utf-8"?>
<svg version="1.1" xmlns:xlink="http://www.w3.org/1999/xlink" width="9px" height="9px" xmlns="http://www.w3.org/2000/svg">
  <g transform="matrix(1 0 0 1 -266 -1749 )">
    <path d="M 8.999111140625 0.414210718749969  C 8.99932556660476 0.359124659825707  8.98844280296821 0.304559690302695  8.96711203125 0.25377073437496  C 8.90350517693536 0.0999727797989697  8.75310786748988 0  8.58667814062499 0.000888859375002291  L 3.66548151562498 0.000888859375002291  C 3.65769284332089 0.000444517305140835  3.6498930905319 0.000222210937522505  3.64209175371468 0.000222210937522505  C 3.41529311307229 0.000222210937522505  3.23143648808968 0.184078835920084  3.23143648808968 0.410877476562477  C 3.23143648808968 0.637676117204871  3.41529311307229 0.821532742187525  3.64209175371468 0.821532742187525  C 3.6498930905319 0.821532742187525  3.65769284332089 0.821310435819907  3.66548151562498 0.820866093750045  L 7.59870559375 0.820866093750045  L 0.17668953125002 8.24332657812502  C 0.0999147632511856 8.32021910026733  0.0567930328631922 8.42443708987961  0.0567930328631922 8.53309630468745  C 0.0567930328631922 8.75959416930126  0.240405830698736 8.94320696713676  0.4669036953125 8.94320696713676  C 0.57578070948523 8.94320696713676  0.680189202028347 8.89991267876965  0.75711785937498 8.82286603124998  L 8.177800609375 1.40084996875004  L 8.177800609375 5.33362962499997  C 8.177800609375 5.56042826564236  8.3616572343576 5.74428489062502  8.588455875 5.74428489062502  C 8.81525451564239 5.74428489062502  8.999111140625 5.56042826564236  8.999111140625 5.33362962499997  L 8.999111140625 0.414210718749969  Z " fill-rule="nonzero" fill="#000000" stroke="none" transform="matrix(1 0 0 1 266 1749 )" />
  </g>
</svg>