<?xml version="1.0" encoding="utf-8"?>
<svg version="1.1" xmlns:xlink="http://www.w3.org/1999/xlink" width="11px" height="20px" xmlns="http://www.w3.org/2000/svg">
  <g transform="matrix(1 0 0 1 -867 -418 )">
    <path d="M 10.5555555555556 10.4861111111111  C 10.8333333333333 10.2083333333333  10.8333333333333 9.79166666666674  10.5555555555556 9.51388888888891  L 1.52777777777777 0.486111111111086  C 1.25 0.208333333333258  0.833333333333329 0.208333333333258  0.555555555555557 0.486111111111086  C 0.277777777777771 0.763888888888914  0.277777777777771 1.18055555555566  0.555555555555557 1.45833333333326  L 9.09722222222223 10  L 0.555555555555557 18.5416666666667  C 0.277777777777771 18.8194444444443  0.277777777777771 19.2361111111111  0.555555555555557 19.5138888888889  C 0.694444444444443 19.6527777777778  0.833333333333329 19.7222222222222  1.04166666666667 19.7222222222222  C 1.25 19.7222222222222  1.38888888888889 19.6527777777778  1.52777777777777 19.5138888888889  L 10.5555555555556 10.4861111111111  Z " fill-rule="nonzero" fill="#000000" stroke="none" transform="matrix(1 0 0 1 867 418 )" />
  </g>
</svg>