<?xml version="1.0" encoding="utf-8"?>
<svg version="1.1" xmlns:xlink="http://www.w3.org/1999/xlink" width="25px" height="25px" xmlns="http://www.w3.org/2000/svg">
  <g transform="matrix(1 0 0 1 -177 -585 )">
    <path d="M 15.4459635416667 15.4459635416667  C 16.259765625 14.6321614583333  16.6666666666667 13.6501736111111  16.6666666666667 12.5  C 16.6666666666667 11.3498263888889  16.259765625 10.3678385416667  15.4459635416667 9.55403645833333  C 14.6321614583333 8.740234375  13.6501736111111 8.33333333333333  12.5 8.33333333333333  C 11.3498263888889 8.33333333333333  10.3678385416667 8.740234375  9.55403645833333 9.55403645833333  C 8.740234375 10.3678385416667  8.33333333333333 11.3498263888889  8.33333333333333 12.5  C 8.33333333333333 13.6501736111111  8.740234375 14.6321614583333  9.55403645833333 15.4459635416667  C 10.3678385416667 16.259765625  11.3498263888889 16.6666666666667  12.5 16.6666666666667  C 13.6501736111111 16.6666666666667  14.6321614583333 16.259765625  15.4459635416667 15.4459635416667  Z M 17.041015625 7.958984375  C 18.2888454861111 9.20681423611111  18.9127604166667 10.7204861111111  18.9127604166667 12.5  C 18.9127604166667 14.2795138888889  18.2888454861111 15.7931857638889  17.041015625 17.041015625  C 15.7931857638889 18.2888454861111  14.2795138888889 18.9127604166667  12.5 18.9127604166667  C 10.7204861111111 18.9127604166667  9.20681423611111 18.2888454861111  7.958984375 17.041015625  C 6.71115451388889 15.7931857638889  6.08723958333333 14.2795138888889  6.08723958333333 12.5  C 6.08723958333333 10.7204861111111  6.71115451388889 9.20681423611111  7.958984375 7.958984375  C 9.20681423611111 6.71115451388889  10.7204861111111 6.08723958333333  12.5 6.08723958333333  C 14.2795138888889 6.08723958333333  15.7931857638889 6.71115451388889  17.041015625 7.958984375  Z M 20.2311197916667 4.76888020833333  C 20.5240885416667 5.06184895833333  20.6705729166667 5.41449652777778  20.6705729166667 5.82682291666667  C 20.6705729166667 6.23914930555556  20.5240885416667 6.591796875  20.2311197916667 6.884765625  C 19.9381510416667 7.177734375  19.5855034722222 7.32421875  19.1731770833333 7.32421875  C 18.7608506944444 7.32421875  18.408203125 7.177734375  18.115234375 6.884765625  C 17.822265625 6.591796875  17.67578125 6.23914930555556  17.67578125 5.82682291666667  C 17.67578125 5.41449652777778  17.822265625 5.06184895833333  18.115234375 4.76888020833333  C 18.408203125 4.47591145833333  18.7608506944444 4.32942708333333  19.1731770833333 4.32942708333333  C 19.5855034722222 4.32942708333333  19.9381510416667 4.47591145833333  20.2311197916667 4.76888020833333  Z M 13.7451171875 2.23795572916667  C 12.9909939236111 2.24338107638889  12.5759548611111 2.24609375  12.5 2.24609375  C 12.4240451388889 2.24609375  12.0090060763889 2.24338107638889  11.2548828125 2.23795572916667  C 10.5007595486111 2.23253038194444  9.92838541666667 2.23253038194444  9.53776041666667 2.23795572916667  C 9.14713541666667 2.24338107638889  8.62358940972222 2.25965711805556  7.96712239583333 2.28678385416667  C 7.31065538194445 2.31391059027778  6.75184461805556 2.3681640625  6.29069010416667 2.44954427083333  C 5.82953559027778 2.53092447916667  5.44162326388889 2.63129340277778  5.126953125 2.75065104166667  C 4.58441840277778 2.96766493055556  4.10698784722222 3.28233506944444  3.69466145833333 3.69466145833333  C 3.28233506944444 4.10698784722222  2.96766493055556 4.58441840277778  2.75065104166667 5.126953125  C 2.63129340277778 5.44162326388889  2.53092447916667 5.82953559027778  2.44954427083333 6.29069010416667  C 2.3681640625 6.75184461805556  2.31391059027778 7.31065538194444  2.28678385416667 7.96712239583333  C 2.25965711805556 8.62358940972222  2.24338107638889 9.14713541666667  2.23795572916667 9.53776041666667  C 2.23253038194444 9.92838541666667  2.23253038194444 10.5007595486111  2.23795572916667 11.2548828125  C 2.24338107638889 12.0090060763889  2.24609375 12.4240451388889  2.24609375 12.5  C 2.24609375 12.5759548611111  2.24338107638889 12.9909939236111  2.23795572916667 13.7451171875  C 2.23253038194444 14.4992404513889  2.23253038194444 15.0716145833333  2.23795572916667 15.4622395833333  C 2.24338107638889 15.8528645833333  2.25965711805556 16.3764105902778  2.28678385416667 17.0328776041667  C 2.31391059027778 17.6893446180556  2.3681640625 18.2481553819444  2.44954427083333 18.7093098958333  C 2.53092447916667 19.1704644097222  2.63129340277778 19.5583767361111  2.75065104166667 19.873046875  C 2.96766493055556 20.4155815972222  3.28233506944444 20.8930121527778  3.69466145833333 21.3053385416667  C 4.10698784722222 21.7176649305556  4.58441840277778 22.0323350694444  5.126953125 22.2493489583333  C 5.44162326388889 22.3687065972222  5.82953559027778 22.4690755208333  6.29069010416667 22.5504557291667  C 6.75184461805556 22.6318359375  7.31065538194445 22.6860894097222  7.96712239583333 22.7132161458333  C 8.62358940972222 22.7403428819444  9.14713541666667 22.7566189236111  9.53776041666667 22.7620442708333  C 9.92838541666667 22.7674696180556  10.5007595486111 22.7674696180556  11.2548828125 22.7620442708333  C 12.0090060763889 22.7566189236111  12.4240451388889 22.75390625  12.5 22.75390625  C 12.5759548611111 22.75390625  12.9909939236111 22.7566189236111  13.7451171875 22.7620442708333  C 14.4992404513889 22.7674696180556  15.0716145833333 22.7674696180556  15.4622395833333 22.7620442708333  C 15.8528645833333 22.7566189236111  16.3764105902778 22.7403428819444  17.0328776041667 22.7132161458333  C 17.6893446180556 22.6860894097222  18.2481553819444 22.6318359375  18.7093098958333 22.5504557291667  C 19.1704644097222 22.4690755208333  19.5583767361111 22.3687065972222  19.873046875 22.2493489583333  C 20.4155815972222 22.0323350694444  20.8930121527778 21.7176649305556  21.3053385416667 21.3053385416667  C 21.7176649305556 20.8930121527778  22.0323350694444 20.4155815972222  22.2493489583333 19.873046875  C 22.3687065972222 19.5583767361111  22.4690755208333 19.1704644097222  22.5504557291667 18.7093098958333  C 22.6318359375 18.2481553819444  22.6860894097222 17.6893446180556  22.7132161458333 17.0328776041667  C 22.7403428819444 16.3764105902778  22.7566189236111 15.8528645833333  22.7620442708333 15.4622395833333  C 22.7674696180556 15.0716145833333  22.7674696180556 14.4992404513889  22.7620442708333 13.7451171875  C 22.7566189236111 12.9909939236111  22.75390625 12.5759548611111  22.75390625 12.5  C 22.75390625 12.4240451388889  22.7566189236111 12.0090060763889  22.7620442708333 11.2548828125  C 22.7674696180556 10.5007595486111  22.7674696180556 9.92838541666667  22.7620442708333 9.53776041666667  C 22.7566189236111 9.14713541666667  22.7403428819444 8.62358940972222  22.7132161458333 7.96712239583333  C 22.6860894097222 7.31065538194444  22.6318359375 6.75184461805556  22.5504557291667 6.29069010416667  C 22.4690755208333 5.82953559027778  22.3687065972222 5.44162326388889  22.2493489583333 5.126953125  C 22.0323350694444 4.58441840277778  21.7176649305556 4.10698784722222  21.3053385416667 3.69466145833333  C 20.8930121527778 3.28233506944444  20.4155815972222 2.96766493055556  19.873046875 2.75065104166667  C 19.5583767361111 2.63129340277778  19.1704644097222 2.53092447916667  18.7093098958333 2.44954427083333  C 18.2481553819444 2.3681640625  17.6893446180556 2.31391059027778  17.0328776041667 2.28678385416667  C 16.3764105902778 2.25965711805556  15.8528645833333 2.24338107638889  15.4622395833333 2.23795572916667  C 15.0716145833333 2.23253038194444  14.4992404513889 2.23253038194444  13.7451171875 2.23795572916667  Z M 24.9186197916667 7.34049479166667  C 24.9728732638889 8.29535590277778  25 10.0151909722222  25 12.5  C 25 14.9848090277778  24.9728732638889 16.7046440972222  24.9186197916667 17.6595052083333  C 24.8101128472222 19.9164496527778  24.1373697916667 21.6634114583333  22.900390625 22.900390625  C 21.6634114583333 24.1373697916667  19.9164496527778 24.8101128472222  17.6595052083333 24.9186197916667  C 16.7046440972222 24.9728732638889  14.9848090277778 25  12.5 25  C 10.0151909722222 25  8.29535590277778 24.9728732638889  7.34049479166667 24.9186197916667  C 5.08355034722222 24.8101128472222  3.33658854166667 24.1373697916667  2.099609375 22.900390625  C 0.862630208333333 21.6634114583333  0.189887152777778 19.9164496527778  0.0813802083333333 17.6595052083333  C 0.0271267361111111 16.7046440972222  0 14.9848090277778  0 12.5  C 0 10.0151909722222  0.0271267361111111 8.29535590277778  0.0813802083333333 7.34049479166667  C 0.189887152777778 5.08355034722222  0.862630208333333 3.33658854166667  2.099609375 2.099609375  C 3.33658854166667 0.862630208333334  5.08355034722222 0.189887152777776  7.34049479166667 0.0813802083333343  C 8.29535590277778 0.0271267361111077  10.0151909722222 0  12.5 0  C 14.9848090277778 0  16.7046440972222 0.0271267361111077  17.6595052083333 0.0813802083333343  C 19.9164496527778 0.189887152777776  21.6634114583333 0.862630208333334  22.900390625 2.099609375  C 24.1373697916667 3.33658854166667  24.8101128472222 5.08355034722222  24.9186197916667 7.34049479166667  Z " fill-rule="nonzero" fill="#000000" stroke="none" transform="matrix(1 0 0 1 177 585 )" />
  </g>
</svg>