<?xml version="1.0" encoding="utf-8"?>
<svg version="1.1" xmlns:xlink="http://www.w3.org/1999/xlink" width="25px" height="25px" xmlns="http://www.w3.org/2000/svg">
  <g transform="matrix(1 0 0 1 -100 -585 )">
    <path d="M 15.4575892857143 18.7639508928571  C 16.0528273809524 19.0987723214286  16.4295014880952 18.9220610119048  16.5876116071429 18.2338169642857  L 18.6383928571429 8.56584821428572  C 18.7220982142857 8.15662202380952  18.6732700892857 7.86365327380952  18.4919084821429 7.68694196428572  C 18.310546875 7.5102306547619  18.0710565476191 7.47767857142857  17.7734375 7.58928571428572  L 5.71986607142857 12.2349330357143  C 5.45014880952381 12.3372395833333  5.26646205357143 12.4534970238095  5.16880580357143 12.5837053571429  C 5.07114955357143 12.7139136904762  5.05952380952381 12.837146577381  5.13392857142857 12.9534040178571  C 5.20833333333333 13.0696614583333  5.35714285714286 13.1603422619048  5.58035714285714 13.2254464285714  L 8.66350446428571 14.1880580357143  L 15.8203125 9.68191964285714  C 16.015625 9.55171130952381  16.1644345238095 9.52380952380952  16.2667410714286 9.59821428571428  C 16.3318452380952 9.64471726190476  16.3132440476191 9.71447172619047  16.2109375 9.80747767857143  L 10.4213169642857 15.0390625  L 10.1981026785714 18.2198660714286  C 10.4120163690476 18.2198660714286  10.6212797619048 18.1175595238095  10.8258928571429 17.9129464285714  L 12.3325892857143 16.4620535714286  L 15.4575892857143 18.7639508928571  Z M 24.0094866071429 7.64508928571428  C 24.6698288690476 9.18898809523809  25 10.8072916666667  25 12.5  C 25 14.1927083333333  24.6698288690476 15.8110119047619  24.0094866071429 17.3549107142857  C 23.3491443452381 18.8988095238095  22.4609375 20.2287946428571  21.3448660714286 21.3448660714286  C 20.2287946428571 22.4609375  18.8988095238095 23.3491443452381  17.3549107142857 24.0094866071429  C 15.8110119047619 24.6698288690476  14.1927083333333 25  12.5 25  C 10.8072916666667 25  9.1889880952381 24.6698288690476  7.64508928571429 24.0094866071429  C 6.10119047619048 23.3491443452381  4.77120535714286 22.4609375  3.65513392857143 21.3448660714286  C 2.5390625 20.2287946428571  1.6508556547619 18.8988095238095  0.990513392857143 17.3549107142857  C 0.330171130952381 15.8110119047619  0 14.1927083333333  0 12.5  C 0 10.8072916666667  0.330171130952381 9.18898809523809  0.990513392857143 7.64508928571428  C 1.6508556547619 6.10119047619047  2.5390625 4.77120535714286  3.65513392857143 3.65513392857143  C 4.77120535714286 2.5390625  6.10119047619048 1.6508556547619  7.64508928571429 0.990513392857142  C 9.1889880952381 0.330171130952381  10.8072916666667 0  12.5 0  C 14.1927083333333 0  15.8110119047619 0.330171130952381  17.3549107142857 0.990513392857142  C 18.8988095238095 1.6508556547619  20.2287946428571 2.5390625  21.3448660714286 3.65513392857143  C 22.4609375 4.77120535714286  23.3491443452381 6.10119047619047  24.0094866071429 7.64508928571428  Z " fill-rule="nonzero" fill="#000000" stroke="none" transform="matrix(1 0 0 1 100 585 )" />
  </g>
</svg>