<?xml version="1.0" encoding="utf-8"?>
<svg version="1.1" xmlns:xlink="http://www.w3.org/1999/xlink" width="25px" height="21px" xmlns="http://www.w3.org/2000/svg">
  <g transform="matrix(1 0 0 1 -138 -587 )">
    <path d="M 22.0494923857868 3.3140625  C 23.0329949238579 3.2046875  24.0164974619289 2.93125  25 2.49375  C 24.2914551607445 3.565625  23.4348561759729 4.47890625  22.4302030456853 5.23359375  C 22.4407783417936 5.38671875  22.4460659898477 5.61640625  22.4460659898477 5.92265625  C 22.4460659898477 7.34453125  22.2451353637902 8.763671875  21.8432741116751 10.180078125  C 21.4414128595601 11.596484375  20.8306895093063 12.95546875  20.0111040609137 14.25703125  C 19.1915186125212 15.55859375  18.2159475465313 16.709765625  17.0843908629442 17.710546875  C 15.952834179357 18.711328125  14.5886209813875 19.509765625  12.9917512690355 20.105859375  C 11.3948815566836 20.701953125  9.68697123519459 21  7.86802030456853 21  C 5.00211505922166 21  2.37944162436548 20.20703125  0 18.62109375  C 0.370135363790186 18.66484375  0.782571912013536 18.68671875  1.23730964467005 18.68671875  C 3.61675126903553 18.68671875  5.73709813874788 17.93203125  7.59835025380711 16.42265625  C 6.48794416243655 16.40078125  5.49386632825719 16.048046875  4.61611675126904 15.364453125  C 3.73836717428088 14.680859375  3.13557529610829 13.80859375  2.80774111675127 12.74765625  C 3.15672588832487 12.80234375  3.47927241962775 12.8296875  3.7753807106599 12.8296875  C 4.23011844331641 12.8296875  4.67956852791878 12.76953125  5.12373096446701 12.64921875  C 3.93929780033841 12.39765625  2.95843908629442 11.787890625  2.18115482233503 10.819921875  C 1.40387055837563 9.851953125  1.01522842639594 8.728125  1.01522842639594 7.4484375  L 1.01522842639594 7.3828125  C 1.73434856175973 7.7984375  2.50634517766497 8.02265625  3.33121827411168 8.05546875  C 2.63324873096447 7.57421875  2.07804568527919 6.9453125  1.66560913705584 6.16875  C 1.25317258883249 5.3921875  1.04695431472081 4.55  1.04695431472081 3.6421875  C 1.04695431472081 2.6796875  1.27961082910322 1.78828125  1.74492385786802 0.967968750000001  C 3.02453468697124 2.59765625  4.58174703891709 3.901953125  6.41656091370558 4.880859375  C 8.25137478849408 5.859765625  10.2157360406091 6.40390625  12.3096446700508 6.51328125  C 12.2250423011844 6.09765625  12.1827411167513 5.69296875  12.1827411167513 5.29921875  C 12.1827411167513 3.83359375  12.682423857868 2.583984375  13.6817893401015 1.550390625  C 14.681154822335 0.516796875000001  15.8893824027073 0  17.3064720812183 0  C 18.787013536379 0  20.0348984771574 0.557812500000001  21.0501269035533 1.6734375  C 22.202834179357 1.44375  23.2868020304569 1.0171875  24.3020304568528 0.393750000000001  C 23.910744500846 1.6515625  23.1598984771574 2.625  22.0494923857868 3.3140625  Z " fill-rule="nonzero" fill="#000000" stroke="none" transform="matrix(1 0 0 1 138 587 )" />
  </g>
</svg>