<?xml version="1.0" encoding="utf-8"?>
<svg version="1.1" xmlns:xlink="http://www.w3.org/1999/xlink" width="25px" height="25px" xmlns="http://www.w3.org/2000/svg">
  <g transform="matrix(1 0 0 1 -215 -585 )">
    <path d="M 1.38346354166667 0  L 23.6165364583333 0  C 23.9963107638889 0  24.3218315972222 0.135633680555555  24.5930989583333 0.406901041666666  C 24.8643663194444 0.678168402777776  25 1.00368923611111  25 1.38346354166667  L 25 23.6165364583333  C 25 23.9963107638889  24.8643663194444 24.3218315972222  24.5930989583333 24.5930989583333  C 24.3218315972222 24.8643663194444  23.9963107638889 25  23.6165364583333 25  L 17.2526041666667 25  L 17.2526041666667 15.3157552083333  L 20.4915364583333 15.3157552083333  L 20.9798177083333 11.5397135416667  L 17.2526041666667 11.5397135416667  L 17.2526041666667 9.130859375  C 17.2526041666667 8.52322048611111  17.3800998263889 8.06749131944444  17.6350911458333 7.763671875  C 17.8900824652778 7.45985243055556  18.3865017361111 7.30794270833333  19.1243489583333 7.30794270833333  L 21.1100260416667 7.29166666666667  L 21.1100260416667 3.92252604166667  C 20.4264322916667 3.82486979166667  19.4607204861111 3.77604166666667  18.212890625 3.77604166666667  C 16.7371961805556 3.77604166666667  15.5571831597222 4.21006944444444  14.6728515625 5.078125  C 13.7885199652778 5.94618055555556  13.3463541666667 7.17230902777778  13.3463541666667 8.75651041666667  L 13.3463541666667 11.5397135416667  L 10.0911458333333 11.5397135416667  L 10.0911458333333 15.3157552083333  L 13.3463541666667 15.3157552083333  L 13.3463541666667 25  L 1.38346354166667 25  C 1.00368923611111 25  0.678168402777778 24.8643663194444  0.406901041666667 24.5930989583333  C 0.135633680555556 24.3218315972222  0 23.9963107638889  0 23.6165364583333  L 0 1.38346354166667  C 0 1.00368923611111  0.135633680555556 0.678168402777776  0.406901041666667 0.406901041666666  C 0.678168402777778 0.135633680555555  1.00368923611111 0  1.38346354166667 0  Z " fill-rule="nonzero" fill="#000000" stroke="none" transform="matrix(1 0 0 1 215 585 )" />
  </g>
</svg>