<?xml version="1.0" encoding="utf-8"?>
<svg version="1.1" xmlns:xlink="http://www.w3.org/1999/xlink" width="18px" height="17px" xmlns="http://www.w3.org/2000/svg">
  <g transform="matrix(1 0 0 1 -257 -1749 )">
    <path d="M 17.9587432142857 8.52447365899996  L 17.9597590535714 8.51963822999998  C 17.9514077830933 8.27741301349441  17.7427283771928 8.08516382414675  17.4881531071429 8.08516382414675  C 17.2335778370929 8.08516382414675  17.0248984311925 8.27741301349441  17.0165471607143 8.51963822999998  C 17.0165471607143 8.52544073800003  17.020102625 8.53027614999999  17.020102625 8.53607865800003  L 17.020102625 14.14323313  C 17.020102625 15.226367492  16.0956838571428 16.107864786  14.95742975 16  L 3.1426468392857 16  C 2.0037639869492 16.1062657836239  1.08109284170203 15.2274502612981  1 14.14323313  L 1 2.89555978199999  C 1.08137381599062 1.81168857102502  2.00412634945498 0.933444485679149  3.1426468392857 0.932378770000044  L 9.0391179642857 0.932378770000044  C 9.04267342857144 0.932378770000044  9.046228875 0.934312945  9.04978433928569 0.934312927999976  C 9.29984376934983 0.9207757596159  9.49533414574527 0.723785231611457  9.49533414574527 0.48534406700001  C 9.49533414574527 0.246902902388462  9.29984376934983 0.049912374384121  9.04978433928569 0.0363752060000443  C 9.04470510714287 0.0363752060000443  9.0401338214286 0.0387929120000224  9.03505458928572 0.0392764599999665  L 3.1426468392857 0.0392764599999665  C 1.48644041903328 0.0411415954337862  0.144308400018889 1.31885126993083  0.14234921428569 2.89555978199999  L 0.14234921428569 14.14323313  C 0.144307801906712 15.7200201996935  1.48635825579594 16.9978685180047  3.1426468392857 17  L 14.9579376785714 17  C 16.6144246169314 16.9981348638332  17.9567840376399 15.7202086953187  17.9587432142857 14.14323313  L 17.9587432142857 8.52447365899996  Z " fill-rule="nonzero" fill="#000000" stroke="none" transform="matrix(1 0 0 1 257 1749 )" />
  </g>
</svg>