<?xml version="1.0" encoding="utf-8"?>
<svg version="1.1" xmlns:xlink="http://www.w3.org/1999/xlink" width="8px" height="8px" xmlns="http://www.w3.org/2000/svg">
  <g transform="matrix(1 0 0 1 -719 -556 )">
    <path d="M 723 556  C 725.24 556  727 557.76  727 560  C 727 562.24  725.24 564  723 564  C 720.76 564  719 562.24  719 560  C 719 557.76  720.76 556  723 556  Z " fill-rule="nonzero" fill="#ffffff" stroke="none" />
    <path d="M 723 556.5  C 724.96 556.5  726.5 558.04  726.5 560  C 726.5 561.96  724.96 563.5  723 563.5  C 721.04 563.5  719.5 561.96  719.5 560  C 719.5 558.04  721.04 556.5  723 556.5  Z " stroke-width="1" stroke="#797979" fill="none" />
  </g>
</svg>