<?xml version="1.0" encoding="utf-8"?>
<svg version="1.1" xmlns:xlink="http://www.w3.org/1999/xlink" width="207px" height="89px" xmlns="http://www.w3.org/2000/svg">
  <g transform="matrix(1 0 0 1 -403 -208 )">
    <path d="M 404 211  A 2 2 0 0 1 406 209 L 607 209  A 2 2 0 0 1 609 211 L 609 294  A 2 2 0 0 1 607 296 L 406 296  A 2 2 0 0 1 404 294 L 404 211  Z " fill-rule="nonzero" fill="#ffffff" stroke="none" />
    <path d="M 403.5 211  A 2.5 2.5 0 0 1 406 208.5 L 607 208.5  A 2.5 2.5 0 0 1 609.5 211 L 609.5 294  A 2.5 2.5 0 0 1 607 296.5 L 406 296.5  A 2.5 2.5 0 0 1 403.5 294 L 403.5 211  Z " stroke-width="1" stroke-dasharray="3,1" stroke="#e4e4e4" fill="none" stroke-dashoffset="0.5" />
  </g>
</svg>