<?xml version="1.0" encoding="utf-8"?>
<svg version="1.1" xmlns:xlink="http://www.w3.org/1999/xlink" width="8px" height="15px" xmlns="http://www.w3.org/2000/svg">
  <g transform="matrix(1 0 0 1 -264 -151 )">
    <path d="M 7.67676767676768 7.86458333333331  C 7.87878787878789 7.65624999999994  7.87878787878789 7.34375000000006  7.67676767676768 7.13541666666669  L 1.11111111111111 0.364583333333314  C 0.909090909090909 0.156249999999943  0.606060606060603 0.156249999999943  0.404040404040405 0.364583333333314  C 0.202020202020197 0.572916666666686  0.202020202020197 0.885416666666742  0.404040404040405 1.09374999999994  L 6.61616161616162 7.5  L 0.404040404040405 13.9062500000001  C 0.202020202020197 14.1145833333333  0.202020202020197 14.4270833333333  0.404040404040405 14.6354166666667  C 0.505050505050504 14.7395833333334  0.606060606060603 14.7916666666666  0.757575757575761 14.7916666666666  C 0.909090909090909 14.7916666666666  1.01010101010101 14.7395833333334  1.11111111111111 14.6354166666667  L 7.67676767676768 7.86458333333331  Z " fill-rule="nonzero" fill="#ffffff" stroke="none" transform="matrix(1 0 0 1 264 151 )" />
  </g>
</svg>