<?xml version="1.0" encoding="utf-8"?>
<svg version="1.1" xmlns:xlink="http://www.w3.org/1999/xlink" width="24px" height="15px" xmlns="http://www.w3.org/2000/svg">
  <g transform="matrix(1 0 0 1 -491 -229 )">
    <path d="M 23.9848421052631 10.93  C 24.2677894736842 7.69333333333336  20.3621052631579 6.65333333333333  20.3621052631579 6.65333333333333  C 20.3621052631579 6.65333333333333  20.1970526315789 1.27833333333335  15.7726315789473 0.210000000000008  C 11.3482105263158 -0.858333333333334  9.21599999999999 3.75499999999999  9.17221052631578 3.88666666666666  C 9.12842105263157 4.01833333333332  8.91115789473684 3.95833333333336  8.91115789473684 3.95833333333336  C 8.55747368421052 3.62666666666666  6.99789473684211 2.86500000000004  5.35915789473682 3.84166666666662  C 3.7221052631579 4.81833333333334  4.31494736842105 6.67333333333335  4.31494736842105 6.67333333333335  C 4.31494736842105 6.67333333333335  1.88800000000001 6.47833333333331  0.643368421052646 10.1866666666667  C -0.599578947368418 13.8983333333334  3.76084210526314 14.95  3.76084210526314 14.95  L 11.0804210526316 14.95  L 11.0804210526316 11.0016666666667  L 9.61515789473684 11.0016666666667  L 9.48715789473684 11.0016666666667  L 9.38778947368421 11.0016666666667  L 9.38778947368421 10.995  C 9.30357894736843 10.995  9.23621052631579 10.9283333333334  9.23621052631579 10.8433333333333  C 9.23621052631579 10.7933333333333  9.26315789473682 10.75  9.30357894736843 10.7216666666667  L 12.3031578947368 7.60000000000005  C 12.3452631578947 7.55333333333333  12.4042105263158 7.52166666666668  12.4732631578947 7.52166666666668  C 12.544 7.52166666666668  12.6063157894737 7.5566666666667  12.6484210526316 7.6083333333333  L 15.6261052631579 10.705  C 15.6311578947368 10.7083333333333  15.6362105263158 10.7133333333334  15.6412631578947 10.7183333333333  L 15.6698947368421 10.7483333333334  L 15.6597894736842 10.7483333333334  C 15.674947368421 10.775  15.6850526315789 10.7983333333333  15.6850526315789 10.83  C 15.6850526315789 10.9233333333333  15.6092631578947 11  15.5132631578947 11  C 15.5098947368421 11  15.5098947368421 10.9966666666667  15.5065263157895 10.9966666666667  L 15.5065263157895 11.0033333333333  L 13.8930526315789 11.0033333333333  L 13.8930526315789 14.9516666666667  L 20.5372631578947 14.9516666666667  C 20.5372631578947 14.9516666666667  23.7052631578947 14.1666666666666  23.9848421052631 10.93  Z " fill-rule="nonzero" fill="#2589ff" stroke="none" transform="matrix(1 0 0 1 491 229 )" />
  </g>
</svg>