<?xml version="1.0" encoding="utf-8"?>
<svg version="1.1" xmlns:xlink="http://www.w3.org/1999/xlink" width="204px" height="85px" xmlns="http://www.w3.org/2000/svg">
  <g transform="matrix(1 0 0 1 -418 -970 )">
    <path d="M 418 970  L 622 970  L 622 1055  L 418 1055  L 418 970  " fill-rule="nonzero" fill="#cccccc" stroke="none" />
    <path d="M 424 976  L 616 976  L 616 1049  L 424 1049  L 424 976  " fill-rule="nonzero" fill="#ffffff" stroke="none" />
    <path d="M 530.455 995.5  C 526.885 995.5  524.08 992.695  524.08 989.125  C 524.08 985.555  526.885 982.75  530.455 982.75  C 534.025 982.75  536.83 985.555  536.83 989.125  C 536.83 992.695  534.025 995.5  530.455 995.5  " fill-rule="nonzero" fill="#cccccc" stroke="none" />
    <path d="M 426 1047  L 426 1009.05  L 473 991.8  L 538.8 1029.75  L 576.4 1002.15  L 614 1029.75  L 614 1047  L 426 1047  " fill-rule="nonzero" fill="#169bd5" stroke="none" />
  </g>
</svg>