<?xml version="1.0" encoding="utf-8"?>
<svg version="1.1" xmlns:xlink="http://www.w3.org/1999/xlink" width="12px" height="12px" viewBox="223 419  12 12" xmlns="http://www.w3.org/2000/svg">
  <path d="M 229 419  C 232.36 419  235 421.64  235 425  C 235 428.36  232.36 431  229 431  C 225.64 431  223 428.36  223 425  C 223 421.64  225.64 419  229 419  Z " fill-rule="nonzero" fill="#ffffff" stroke="none" />
  <path d="M 229 419.5  C 232.08 419.5  234.5 421.92  234.5 425  C 234.5 428.08  232.08 430.5  229 430.5  C 225.92 430.5  223.5 428.08  223.5 425  C 223.5 421.92  225.92 419.5  229 419.5  Z " stroke-width="1" stroke="#797979" fill="none" />
  <path d="M 229 428  C 227.32 428  226 426.68  226 425  C 226 423.32  227.32 422  229 422  C 230.68 422  232 423.32  232 425  C 232 426.68  230.68 428  229 428  " fill-rule="nonzero" fill="#797979" stroke="none" />
</svg>