<?xml version="1.0" encoding="utf-8"?>
<svg version="1.1" xmlns:xlink="http://www.w3.org/1999/xlink" width="207px" height="89px" xmlns="http://www.w3.org/2000/svg">
  <g transform="matrix(1 0 0 1 -225 -720 )">
    <path d="M 226 723  A 2 2 0 0 1 228 721 L 429 721  A 2 2 0 0 1 431 723 L 431 806  A 2 2 0 0 1 429 808 L 228 808  A 2 2 0 0 1 226 806 L 226 723  Z " fill-rule="nonzero" fill="#ffffff" stroke="none" />
    <path d="M 225.5 723  A 2.5 2.5 0 0 1 228 720.5 L 429 720.5  A 2.5 2.5 0 0 1 431.5 723 L 431.5 806  A 2.5 2.5 0 0 1 429 808.5 L 228 808.5  A 2.5 2.5 0 0 1 225.5 806 L 225.5 723  Z " stroke-width="1" stroke-dasharray="3,1" stroke="#e4e4e4" fill="none" stroke-dashoffset="0.5" />
  </g>
</svg>