<?xml version="1.0" encoding="utf-8"?>
<svg version="1.1" xmlns:xlink="http://www.w3.org/1999/xlink" width="207px" height="89px" xmlns="http://www.w3.org/2000/svg">
  <g transform="matrix(1 0 0 1 -225 -787 )">
    <path d="M 226 790  A 2 2 0 0 1 228 788 L 429 788  A 2 2 0 0 1 431 790 L 431 873  A 2 2 0 0 1 429 875 L 228 875  A 2 2 0 0 1 226 873 L 226 790  Z " fill-rule="nonzero" fill="#ffffff" stroke="none" />
    <path d="M 225.5 790  A 2.5 2.5 0 0 1 228 787.5 L 429 787.5  A 2.5 2.5 0 0 1 431.5 790 L 431.5 873  A 2.5 2.5 0 0 1 429 875.5 L 228 875.5  A 2.5 2.5 0 0 1 225.5 873 L 225.5 790  Z " stroke-width="1" stroke-dasharray="3,1" stroke="#e4e4e4" fill="none" stroke-dashoffset="0.5" />
  </g>
</svg>