<?xml version="1.0" encoding="utf-8"?>
<svg version="1.1" xmlns:xlink="http://www.w3.org/1999/xlink" width="12px" height="12px" viewBox="285 420  12 12" xmlns="http://www.w3.org/2000/svg">
  <path d="M 291 420  C 294.36 420  297 422.64  297 426  C 297 429.36  294.36 432  291 432  C 287.64 432  285 429.36  285 426  C 285 422.64  287.64 420  291 420  Z " fill-rule="nonzero" fill="#f0f0f0" stroke="none" />
  <path d="M 291 420.5  C 294.08 420.5  296.5 422.92  296.5 426  C 296.5 429.08  294.08 431.5  291 431.5  C 287.92 431.5  285.5 429.08  285.5 426  C 285.5 422.92  287.92 420.5  291 420.5  Z " stroke-width="1" stroke="#797979" fill="none" />
  <path d="M 291 429  C 289.32 429  288 427.68  288 426  C 288 424.32  289.32 423  291 423  C 292.68 423  294 424.32  294 426  C 294 427.68  292.68 429  291 429  " fill-rule="nonzero" fill="#797979" stroke="none" />
</svg>