<?xml version="1.0" encoding="utf-8"?>
<svg version="1.1" xmlns:xlink="http://www.w3.org/1999/xlink" width="12px" height="12px" viewBox="290 613  12 12" xmlns="http://www.w3.org/2000/svg">
  <path d="M 296 613  C 299.36 613  302 615.64  302 619  C 302 622.36  299.36 625  296 625  C 292.64 625  290 622.36  290 619  C 290 615.64  292.64 613  296 613  Z " fill-rule="nonzero" fill="#ffffff" stroke="none" />
  <path d="M 296 613.5  C 299.08 613.5  301.5 615.92  301.5 619  C 301.5 622.08  299.08 624.5  296 624.5  C 292.92 624.5  290.5 622.08  290.5 619  C 290.5 615.92  292.92 613.5  296 613.5  Z " stroke-width="1" stroke="#797979" fill="none" />
  <path d="M 296 622  C 294.32 622  293 620.68  293 619  C 293 617.32  294.32 616  296 616  C 297.68 616  299 617.32  299 619  C 299 620.68  297.68 622  296 622  " fill-rule="nonzero" fill="#797979" stroke="none" />
</svg>