<?xml version="1.0" encoding="utf-8"?>
<svg version="1.1" xmlns:xlink="http://www.w3.org/1999/xlink" width="20px" height="20px" xmlns="http://www.w3.org/2000/svg">
  <g transform="matrix(1 0 0 1 -716 -973 )">
    <path d="M 19.8452174629608 9.92248062015506  C 19.8350841628483 15.3960767874835  15.3980503896147 19.8295462417765  9.92444784632255 19.8352807714124  C 4.45287327404947 19.8308818591411  0.0196171604467281 15.394060164251  0.0196171604467281 9.92248382370946  C 0.0196171604467281 4.44779547204962  4.45772896004428 0.00968367245206991  9.93241731170406 0.00968367245206991  C 15.4071056633638 0.00968367245206991  19.8452174629614 4.44779547204962  19.8452174629614 9.92248382370946  Z M 18.0410510690111 9.92248062015506  C 18.0339547532857 5.44373978376399  14.403192766062 1.81572006610662  9.92444784632255 1.81200776736625  C 5.44755252593325 1.81539166774496  1.82010536343387 5.44558170404417  1.82010536343387 9.92247830330859  C 1.82010536343387 14.4017687738205  5.45128774571083 18.0329511560975  9.93057821622267 18.0329511560975  C 14.4098686867346 18.0329511560975  18.0410510690115 14.4017687738205  18.0410510690115 9.92247830330859  Z M 10.8274506007185 13.5283612871999  L 10.8262245306107 13.5283612871999  L 9.02267116203438 13.5283612871999  L 9.02267116203438 10.8236442790698  L 6.31795413454336 10.8236442790698  L 6.31795413454336 9.0213169612403  L 9.02389723214219 9.0213169612403  L 9.02389723214219 6.31843904859142  L 10.8274506007185 6.31843904859142  L 10.8274506007185 9.0213169612403  L 13.5333936983172 9.0213169612403  L 13.5333936983172 10.8236442790698  L 10.8274506007185 10.8236442790698  L 10.8274506007185 13.5283612871999  Z " fill-rule="nonzero" fill="#6468ef" stroke="none" transform="matrix(1 0 0 1 716 973 )" />
  </g>
</svg>