<?xml version="1.0" encoding="utf-8"?>
<svg version="1.1" xmlns:xlink="http://www.w3.org/1999/xlink" width="2px" height="7px" xmlns="http://www.w3.org/2000/svg">
  <g transform="matrix(1 0 0 1 -982 -1366 )">
    <path d="M 1.88888889583336 3.5  C 1.88888889583336 3.91481481481479  1.5333333333333 4.19135803009261  1 4.19135803009261  C 0.46666666666664 4.19135803009261  0.111111104166639 3.91481481481479  0.111111104166639 3.5  L 0.111111104166639 0.734567895833341  C 0.111111104166639 0.31975308101855  0.46666666666664 0.0432098657407273  1 0.0432098819444365  C 1.53333333333336 0.0432098981481456  1.88888889583336 0.319753097222259  1.88888889583336 0.734567895833341  L 1.88888889583336 3.5  Z M 1.62222222916665 6.74938271064817  C 1.44444445833335 6.88765431018522  1.26666666666665 6.95679011805556  1 6.95679011805556  C 0.91111110416665 6.95679011805556  0.733333333333348 6.95679011805556  0.644444437499999 6.88765432638893  C 0.555555541666649 6.88765432638893  0.46666666666664 6.81851851851851  0.377777770833347 6.74938271064817  C 0.199999999999989 6.61111111111111  0.111111104166639 6.47283949537034  0.111111104166639 6.26543210416666  C 0.111111104166639 6.19629629629632  0.111111104166639 6.05802469675926  0.199999999999989 5.98888888888892  C 0.288888895833338 5.9197530810185  0.288888895833338 5.85061728935187  0.377777770833347 5.78148148148144  C 0.46666666666664 5.7123456736111  0.555555541666649 5.64320988194447  0.644444437499999 5.64320988194447  C 0.822222208333358 5.57407407407404  1.08888887500001 5.57407407407404  1.3555555625 5.64320988194447  C 1.44444445833335 5.64320988194447  1.53333333333336 5.71234568981481  1.62222222916665 5.78148148148144  C 1.711111125 5.85061728935187  1.80000000000001 5.9197530810185  1.80000000000001 5.98888888888892  C 1.80000000000001 6.05802469675926  1.88888889583336 6.19629629629632  1.88888889583336 6.26543210416666  C 1.88888889583336 6.47283951157405  1.80000000000001 6.61111111111111  1.62222222916665 6.74938271064817  Z " fill-rule="nonzero" fill="#f59a23" stroke="none" transform="matrix(1 0 0 1 982 1366 )" />
  </g>
</svg>