<?xml version="1.0" encoding="utf-8"?>
<svg version="1.1" xmlns:xlink="http://www.w3.org/1999/xlink" width="15px" height="15px" xmlns="http://www.w3.org/2000/svg">
  <g transform="matrix(1 0 0 1 -975 -1362 )">
    <path d="M 14.9576271133475 7.5  C 14.9576271133475 11.6355932097458  11.6355932097458 14.9576271133474  7.5 14.9576271133474  C 3.3644067743644 14.9576271133474  0.0423728866525295 11.6355932256356  0.0423728866525295 7.5  C 0.0423728866525295 3.3644067743644  3.3644067743644 0.0423728866525721  7.5 0.0423728866525721  C 11.6355932256356 0.0423728866525721  14.9576271133475 3.36440679025424  14.9576271133475 7.5  Z M 13.6016949152542 7.5  C 13.6016949152542 4.11016949682201  10.8898305031779 1.3983050847458  7.5 1.3983050847458  C 4.11016949682205 1.3983050847458  1.39830508474576 4.11016949682201  1.39830508474576 7.5  C 1.39830508474576 10.889830503178  4.11016949682205 13.6016949152542  7.5 13.6016949152542  C 10.8898305031779 13.6016949152542  13.6016949152542 10.889830503178  13.6016949152542 7.5  Z " fill-rule="nonzero" fill="#f59a23" stroke="none" transform="matrix(1 0 0 1 975 1362 )" />
  </g>
</svg>