<?xml version="1.0" encoding="utf-8"?>
<svg version="1.1" xmlns:xlink="http://www.w3.org/1999/xlink" width="20px" height="20px" xmlns="http://www.w3.org/2000/svg">
  <g transform="matrix(1 0 0 1 -733 -1448 )">
    <path d="M 19.8452174629608 9.92248062015506  C 19.8350841628483 15.3960767874835  15.3980503896146 19.8295462417766  9.92444784632244 19.8352807714123  C 4.45287327404958 19.8308818591411  0.0196171604466144 15.394060164251  0.0196171604466144 9.9224838237094  C 0.0196171604466144 4.44779547204962  4.45772896004428 0.00968367245195623  9.93241731170406 0.00968367245195623  C 15.4071056633638 0.00968367245195623  19.8452174629615 4.44779547204962  19.8452174629615 9.9224838237094  Z M 18.0410510690112 9.92248062015506  C 18.0339547532858 5.44373978376393  14.4031927660621 1.81572006610668  9.92444784632244 1.81200776736614  C 5.44755252593313 1.81539166774496  1.82010536343387 5.44558170404412  1.82010536343387 9.92247830330871  C 1.82010536343387 14.4017687738205  5.45128774571094 18.0329511560974  9.93057821622278 18.0329511560974  C 14.4098686867346 18.0329511560974  18.0410510690115 14.4017687738205  18.0410510690115 9.92247830330871  Z M 10.8274506007185 10.8236442790699  C 10.8274506007185 10.8236442790699  10.8 8.29528299186995  10.8274506007185 10.8236442790699  L 9.02267116203438 10.8236442790699  L 6.31795413454347 10.8236442790699  L 6.31795413454347 9.02131696124025  L 9.02389723214219 9.02131696124025  L 10.8274506007185 9.02131696124025  L 13.5333936983172 9.02131696124025  L 13.5333936983172 10.8236442790699  L 10.8274506007185 10.8236442790699  Z " fill-rule="nonzero" fill="#6468ef" stroke="none" transform="matrix(1 0 0 1 733 1448 )" />
  </g>
</svg>