<?xml version="1.0" encoding="utf-8"?>
<svg version="1.1" xmlns:xlink="http://www.w3.org/1999/xlink" width="12px" height="12px" viewBox="861 810  12 12" xmlns="http://www.w3.org/2000/svg">
  <path d="M 867 810  C 870.36 810  873 812.64  873 816  C 873 819.36  870.36 822  867 822  C 863.64 822  861 819.36  861 816  C 861 812.64  863.64 810  867 810  Z " fill-rule="nonzero" fill="#f0f0f0" stroke="none" />
  <path d="M 867 810.5  C 870.08 810.5  872.5 812.92  872.5 816  C 872.5 819.08  870.08 821.5  867 821.5  C 863.92 821.5  861.5 819.08  861.5 816  C 861.5 812.92  863.92 810.5  867 810.5  Z " stroke-width="1" stroke="#797979" fill="none" />
  <path d="M 867 819  C 865.32 819  864 817.68  864 816  C 864 814.32  865.32 813  867 813  C 868.68 813  870 814.32  870 816  C 870 817.68  868.68 819  867 819  " fill-rule="nonzero" fill="#797979" stroke="none" />
</svg>