<?xml version="1.0" encoding="utf-8"?>
<svg version="1.1" xmlns:xlink="http://www.w3.org/1999/xlink" width="12px" height="12px" viewBox="957 1163  12 12" xmlns="http://www.w3.org/2000/svg">
  <path d="M 963 1163  C 966.36 1163  969 1165.64  969 1169  C 969 1172.36  966.36 1175  963 1175  C 959.64 1175  957 1172.36  957 1169  C 957 1165.64  959.64 1163  963 1163  Z " fill-rule="nonzero" fill="#f0f0f0" stroke="none" />
  <path d="M 963 1163.5  C 966.08 1163.5  968.5 1165.92  968.5 1169  C 968.5 1172.08  966.08 1174.5  963 1174.5  C 959.92 1174.5  957.5 1172.08  957.5 1169  C 957.5 1165.92  959.92 1163.5  963 1163.5  Z " stroke-width="1" stroke="#797979" fill="none" />
  <path d="M 963 1172  C 961.32 1172  960 1170.68  960 1169  C 960 1167.32  961.32 1166  963 1166  C 964.68 1166  966 1167.32  966 1169  C 966 1170.68  964.68 1172  963 1172  " fill-rule="nonzero" fill="#797979" stroke="none" />
</svg>