<?xml version="1.0" encoding="utf-8"?>
<svg version="1.1" xmlns:xlink="http://www.w3.org/1999/xlink" width="12px" height="12px" viewBox="923 811  12 12" xmlns="http://www.w3.org/2000/svg">
  <path d="M 929 811  C 932.36 811  935 813.64  935 817  C 935 820.36  932.36 823  929 823  C 925.64 823  923 820.36  923 817  C 923 813.64  925.64 811  929 811  Z " fill-rule="nonzero" fill="#ffffff" stroke="none" />
  <path d="M 929 811.5  C 932.08 811.5  934.5 813.92  934.5 817  C 934.5 820.08  932.08 822.5  929 822.5  C 925.92 822.5  923.5 820.08  923.5 817  C 923.5 813.92  925.92 811.5  929 811.5  Z " stroke-width="1" stroke="#797979" fill="none" />
  <path d="M 929 820  C 927.32 820  926 818.68  926 817  C 926 815.32  927.32 814  929 814  C 930.68 814  932 815.32  932 817  C 932 818.68  930.68 820  929 820  " fill-rule="nonzero" fill="#797979" stroke="none" />
</svg>