<?xml version="1.0" encoding="utf-8"?>
<svg version="1.1" xmlns:xlink="http://www.w3.org/1999/xlink" width="12px" height="12px" viewBox="951 3287  12 12" xmlns="http://www.w3.org/2000/svg">
  <path d="M 957 3287  C 960.36 3287  963 3289.64  963 3293  C 963 3296.36  960.36 3299  957 3299  C 953.64 3299  951 3296.36  951 3293  C 951 3289.64  953.64 3287  957 3287  Z " fill-rule="nonzero" fill="#ffffff" stroke="none" />
  <path d="M 957 3287.5  C 960.08 3287.5  962.5 3289.92  962.5 3293  C 962.5 3296.08  960.08 3298.5  957 3298.5  C 953.92 3298.5  951.5 3296.08  951.5 3293  C 951.5 3289.92  953.92 3287.5  957 3287.5  Z " stroke-width="1" stroke="#797979" fill="none" />
  <path d="M 957 3296  C 955.32 3296  954 3294.68  954 3293  C 954 3291.32  955.32 3290  957 3290  C 958.68 3290  960 3291.32  960 3293  C 960 3294.68  958.68 3296  957 3296  " fill-rule="nonzero" fill="#797979" stroke="none" />
</svg>