<?xml version="1.0" encoding="utf-8"?>
<svg version="1.1" xmlns:xlink="http://www.w3.org/1999/xlink" width="12px" height="12px" viewBox="871 3147  12 12" xmlns="http://www.w3.org/2000/svg">
  <path d="M 877 3147  C 880.36 3147  883 3149.64  883 3153  C 883 3156.36  880.36 3159  877 3159  C 873.64 3159  871 3156.36  871 3153  C 871 3149.64  873.64 3147  877 3147  Z " fill-rule="nonzero" fill="#f0f0f0" stroke="none" />
  <path d="M 877 3147.5  C 880.08 3147.5  882.5 3149.92  882.5 3153  C 882.5 3156.08  880.08 3158.5  877 3158.5  C 873.92 3158.5  871.5 3156.08  871.5 3153  C 871.5 3149.92  873.92 3147.5  877 3147.5  Z " stroke-width="1" stroke="#797979" fill="none" />
  <path d="M 877 3156  C 875.32 3156  874 3154.68  874 3153  C 874 3151.32  875.32 3150  877 3150  C 878.68 3150  880 3151.32  880 3153  C 880 3154.68  878.68 3156  877 3156  " fill-rule="nonzero" fill="#797979" stroke="none" />
</svg>