<?xml version="1.0" encoding="utf-8"?>
<svg version="1.1" xmlns:xlink="http://www.w3.org/1999/xlink" width="12px" height="12px" viewBox="861 1163  12 12" xmlns="http://www.w3.org/2000/svg">
  <path d="M 867 1163  C 870.36 1163  873 1165.64  873 1169  C 873 1172.36  870.36 1175  867 1175  C 863.64 1175  861 1172.36  861 1169  C 861 1165.64  863.64 1163  867 1163  Z " fill-rule="nonzero" fill="#f0f0f0" stroke="none" />
  <path d="M 867 1163.5  C 870.08 1163.5  872.5 1165.92  872.5 1169  C 872.5 1172.08  870.08 1174.5  867 1174.5  C 863.92 1174.5  861.5 1172.08  861.5 1169  C 861.5 1165.92  863.92 1163.5  867 1163.5  Z " stroke-width="1" stroke="#797979" fill="none" />
  <path d="M 867 1172  C 865.32 1172  864 1170.68  864 1169  C 864 1167.32  865.32 1166  867 1166  C 868.68 1166  870 1167.32  870 1169  C 870 1170.68  868.68 1172  867 1172  " fill-rule="nonzero" fill="#797979" stroke="none" />
</svg>