<?xml version="1.0" encoding="utf-8"?>
<svg version="1.1" xmlns:xlink="http://www.w3.org/1999/xlink" width="11px" height="20px" xmlns="http://www.w3.org/2000/svg">
  <g transform="matrix(1 0 0 1 -3335 -1588 )">
    <path d="M 10.1728515625 18.88671875  C 10.4693359375 18.5872395833334  10.4693359375 18.0924479166666  10.170703125 17.7907986111111  L 2.61894531249999 10.1627604166666  C 2.578125 10.1215277777778  2.55234374999998 10.0651041666666  2.55234374999998 10  C 2.55234374999998 9.93489583333337  2.578125 9.87847222222217  2.62109375 9.83506944444446  L 10.170703125 2.20920138888891  C 10.4693359375 1.90755208333337  10.4693359375 1.41276041666663  10.170703125 1.11111111111109  C 9.8720703125 0.809461805555543  9.38222656250002 0.809461805555543  9.08359374999998 1.11111111111109  L 0.829296875000011 9.45095486111109  C 0.530664062500023 9.75260416666663  0.530664062500023 10.2473958333334  0.829296875000011 10.5490451388889  C 0.831445312500023 10.5512152777778  0.831445312500023 10.5512152777778  0.833593749999977 10.5512152777778  L 9.08574218749999 18.88671875  C 9.38437499999998 19.1883680555555  9.87421875000001 19.1883680555555  10.1728515625 18.88671875  Z " fill-rule="nonzero" fill="#ffffff" stroke="none" transform="matrix(1 0 0 1 3335 1588 )" />
  </g>
</svg>