<?xml version="1.0" encoding="utf-8"?>
<svg version="1.1" xmlns:xlink="http://www.w3.org/1999/xlink" width="12px" height="12px" viewBox="970 847  12 12" xmlns="http://www.w3.org/2000/svg">
  <path d="M 976 847  C 979.36 847  982 849.64  982 853  C 982 856.36  979.36 859  976 859  C 972.64 859  970 856.36  970 853  C 970 849.64  972.64 847  976 847  Z " fill-rule="nonzero" fill="#ffffff" stroke="none" />
  <path d="M 976 847.5  C 979.08 847.5  981.5 849.92  981.5 853  C 981.5 856.08  979.08 858.5  976 858.5  C 972.92 858.5  970.5 856.08  970.5 853  C 970.5 849.92  972.92 847.5  976 847.5  Z " stroke-width="1" stroke="#797979" fill="none" />
  <path d="M 976 856  C 974.32 856  973 854.68  973 853  C 973 851.32  974.32 850  976 850  C 977.68 850  979 851.32  979 853  C 979 854.68  977.68 856  976 856  " fill-rule="nonzero" fill="#797979" stroke="none" />
</svg>