<?xml version="1.0" encoding="utf-8"?>
<svg version="1.1" xmlns:xlink="http://www.w3.org/1999/xlink" width="12px" height="12px" viewBox="842 3287  12 12" xmlns="http://www.w3.org/2000/svg">
  <path d="M 848 3287  C 851.36 3287  854 3289.64  854 3293  C 854 3296.36  851.36 3299  848 3299  C 844.64 3299  842 3296.36  842 3293  C 842 3289.64  844.64 3287  848 3287  Z " fill-rule="nonzero" fill="#f0f0f0" stroke="none" />
  <path d="M 848 3287.5  C 851.08 3287.5  853.5 3289.92  853.5 3293  C 853.5 3296.08  851.08 3298.5  848 3298.5  C 844.92 3298.5  842.5 3296.08  842.5 3293  C 842.5 3289.92  844.92 3287.5  848 3287.5  Z " stroke-width="1" stroke="#797979" fill="none" />
  <path d="M 848 3296  C 846.32 3296  845 3294.68  845 3293  C 845 3291.32  846.32 3290  848 3290  C 849.68 3290  851 3291.32  851 3293  C 851 3294.68  849.68 3296  848 3296  " fill-rule="nonzero" fill="#797979" stroke="none" />
</svg>