<?xml version="1.0" encoding="utf-8"?>
<svg version="1.1" xmlns:xlink="http://www.w3.org/1999/xlink" width="14px" height="14px" xmlns="http://www.w3.org/2000/svg">
  <g transform="matrix(1 0 0 1 -552 -228 )">
    <path d="M 2.75799999999999 11.242  C 3.88833333333329 12.372  5.30233333333333 12.958  7 13  C 8.69800000000001 12.9583333333333  10.112 12.3723333333333  11.242 11.242  C 12.372 10.1116666666667  12.958 8.69766666666667  13 7  C 12.9583333333333 5.30199999999999  12.3723333333333 3.888  11.242 2.75799999999999  C 10.1116666666667 1.62800000000003  8.69766666666667 1.04200000000002  7 0.999999999999972  C 5.30199999999999 1.04166666666668  3.888 1.62766666666668  2.75799999999999 2.75799999999999  C 1.62800000000003 3.88833333333329  1.04200000000002 5.30233333333333  0.999999999999972 7  C 1.04166666666668 8.69800000000001  1.62766666666668 10.112  2.75799999999999 11.242  Z M 11.9455 11.9455  C 10.6278333333333 13.2631666666667  8.97933333333334 13.948  7 14  C 5.02066666666666 13.948  3.37216666666665 13.2631666666667  2.05450000000001 11.9455  C 0.736833333333323 10.6278333333333  0.0519999999999854 8.97933333333334  0 7  C 0.0519999999999854 5.02066666666666  0.736833333333323 3.37216666666665  2.05450000000001 2.05450000000001  C 3.37216666666665 0.736833333333323  5.02066666666666 0.0519999999999854  7 0  C 8.97933333333334 0.0519999999999854  10.6278333333333 0.736833333333323  11.9455 2.05450000000001  C 13.2631666666667 3.37216666666665  13.948 5.02066666666666  14 7  C 13.948 8.97933333333334  13.2631666666667 10.6278333333333  11.9455 11.9455  Z M 6.14050000000002 3.1405  C 6.23416666666671 3.04683333333336  6.35399999999999 2.99999999999996  6.49999999999996 2.99999999999996  C 6.64599999999999 2.99999999999996  6.76583333333332 3.04683333333336  6.85950000000001 3.1405  C 6.9531666666667 3.23416666666665  7 3.35400000000003  7 3.5  L 7 7.50000000000004  C 7 7.64600000000001  6.9531666666667 7.76583333333329  6.85950000000001 7.85949999999998  C 6.76583333333332 7.95316666666668  6.64599999999999 7.99999999999997  6.49999999999996 7.99999999999997  C 6.35399999999999 7.99999999999997  6.23416666666671 7.95316666666668  6.14050000000002 7.85949999999998  C 6.04683333333332 7.76583333333334  6.00000000000003 7.64600000000001  6.00000000000003 7.50000000000004  L 6.00000000000003 3.5  C 6.00000000000003 3.35400000000003  6.04683333333332 3.23416666666665  6.14050000000002 3.1405  Z M 6.00000000000003 7.50000000000004  C 6.00000000000003 7.16666666666668  6.16666666666666 7  6.49999999999996 7  L 10.5 7  C 10.8333333333334 7  11 7.16666666666668  11 7.50000000000004  C 11 7.83333333333334  10.8333333333334 7.99999999999997  10.5 7.99999999999997  L 6.49999999999996 7.99999999999997  C 6.16666666666666 7.99999999999997  6.00000000000003 7.83333333333334  6.00000000000003 7.50000000000004  Z " fill-rule="nonzero" fill="#999999" stroke="none" transform="matrix(1 0 0 1 552 228 )" />
  </g>
</svg>