<?xml version="1.0" encoding="utf-8"?>
<svg version="1.1" xmlns:xlink="http://www.w3.org/1999/xlink" width="16px" height="16px" xmlns="http://www.w3.org/2000/svg">
  <g transform="matrix(1 0 0 1 -1361 -474 )">
    <path d="M 15.9945796785714 8  C 15.9945796785714 3.58472612499997  12.415273875 0.00542032142857352  8 0.00542032142857352  C 3.58472612499997 0.00542032142857352  0.00542032142857352 3.58472612499997  0.00542032142857352 8  C 0.00542032142857352 12.415273875  3.58472612499997 15.9945796785714  8 15.9945796785714  C 12.415273875 15.9945796785714  15.9945796785714 12.415273875  15.9945796785714 8  Z M 9.14208280357138 12.0891315714286  C 9.14208280357138 12.7198719285714  8.63074035714283 13.231214375  8 13.231214375  C 7.36925964285717 13.231214375  6.85791719642862 12.7198719285714  6.85791719642862 12.0891315714286  C 6.85791719642862 11.4583546607143  7.36925964285717 10.9470487678572  8 10.9470487678572  C 8.63074035714283 10.9470487678572  9.14208280357138 11.4583546785714  9.14208280357138 12.0891315714286  Z M 9.14208280357138 4.00271016071429  L 9.14208280357138 8  C 9.14208280357138 8.63074035714288  8.63074035714283 9.14208280357144  8 9.14208280357144  C 7.36925964285717 9.14208280357144  6.85791719642862 8.63074035714288  6.85791719642862 8  L 6.85791719642862 4.00271016071429  C 6.85791719642862 3.37193324999998  7.36925964285717 2.86062735714285  8 2.86062735714285  C 8.63074035714283 2.86062735714285  9.14208280357138 3.37193326785712  9.14208280357138 4.00271016071429  Z " fill-rule="nonzero" fill="#ffc82c" stroke="none" transform="matrix(1 0 0 1 1361 474 )" />
  </g>
</svg>