<?xml version="1.0" encoding="utf-8"?>
<svg version="1.1" xmlns:xlink="http://www.w3.org/1999/xlink" width="12px" height="12px" xmlns="http://www.w3.org/2000/svg">
  <g transform="matrix(1 0 0 1 -256 -2619 )">
    <path d="M 11.9803278688524 6.00655737295082  C 11.9803278688524 2.70371349199553  9.30284388095529 0.0262295040983531  6 0.0262295040983531  C 2.69715611904471 0.0262295040983531  0.0196721311475585 2.70371349199553  0.0196721311475585 6.00655737295082  C 0.0196721311475585 9.30940125390612  2.69715611904471 11.9868852418033  6 11.9868852418033  C 9.30284388095529 11.9868852418033  11.9803278688524 9.30940125390612  11.9803278688524 6.00655737295082  Z M 6.71270819262296 5.94864261885246  L 8.57563278688525 7.80663606147542  L 7.8919868852459 8.48860327868852  L 6.0290622909836 6.63050492213117  L 4.1661377090164 8.48849836475409  L 3.48249180737707 7.80653114754099  L 5.34541638934428 5.94864261885246  L 3.48249180737707 4.09075410245902  L 4.1661377090164 3.40878688524592  L 6.0290622909836 5.26688524180327  L 7.8919868852459 3.40889179918034  L 8.57563278688525 4.09085901639344  L 6.71270819262296 5.94864261885246  Z " fill-rule="nonzero" fill="#cccccc" stroke="none" transform="matrix(1 0 0 1 256 2619 )" />
  </g>
</svg>