<?xml version="1.0" encoding="utf-8"?>
<svg version="1.1" xmlns:xlink="http://www.w3.org/1999/xlink" width="12px" height="12px" viewBox="225 328  12 12" xmlns="http://www.w3.org/2000/svg">
  <path d="M 231 328  C 234.36 328  237 330.64  237 334  C 237 337.36  234.36 340  231 340  C 227.64 340  225 337.36  225 334  C 225 330.64  227.64 328  231 328  Z " fill-rule="nonzero" fill="#ffffff" stroke="none" />
  <path d="M 231 328.5  C 234.08 328.5  236.5 330.92  236.5 334  C 236.5 337.08  234.08 339.5  231 339.5  C 227.92 339.5  225.5 337.08  225.5 334  C 225.5 330.92  227.92 328.5  231 328.5  Z " stroke-width="1" stroke="#797979" fill="none" />
  <path d="M 231 337  C 229.32 337  228 335.68  228 334  C 228 332.32  229.32 331  231 331  C 232.68 331  234 332.32  234 334  C 234 335.68  232.68 337  231 337  " fill-rule="nonzero" fill="#797979" stroke="none" />
</svg>