<?xml version="1.0" encoding="utf-8"?>
<svg version="1.1" xmlns:xlink="http://www.w3.org/1999/xlink" width="12px" height="12px" viewBox="225 491  12 12" xmlns="http://www.w3.org/2000/svg">
  <path d="M 231 491  C 234.36 491  237 493.64  237 497  C 237 500.36  234.36 503  231 503  C 227.64 503  225 500.36  225 497  C 225 493.64  227.64 491  231 491  Z " fill-rule="nonzero" fill="#f0f0f0" stroke="none" />
  <path d="M 231 491.5  C 234.08 491.5  236.5 493.92  236.5 497  C 236.5 500.08  234.08 502.5  231 502.5  C 227.92 502.5  225.5 500.08  225.5 497  C 225.5 493.92  227.92 491.5  231 491.5  Z " stroke-width="1" stroke="#797979" fill="none" />
  <path d="M 231 500  C 229.32 500  228 498.68  228 497  C 228 495.32  229.32 494  231 494  C 232.68 494  234 495.32  234 497  C 234 498.68  232.68 500  231 500  " fill-rule="nonzero" fill="#797979" stroke="none" />
</svg>