<?xml version="1.0" encoding="utf-8"?>
<svg version="1.1" xmlns:xlink="http://www.w3.org/1999/xlink" width="12px" height="12px" viewBox="347 3  12 12" xmlns="http://www.w3.org/2000/svg">
  <path d="M 353 3  C 356.36 3  359 5.64  359 9  C 359 12.36  356.36 15  353 15  C 349.64 15  347 12.36  347 9  C 347 5.64  349.64 3  353 3  Z " fill-rule="nonzero" fill="#ffffff" stroke="none" />
  <path d="M 353 3.5  C 356.08 3.5  358.5 5.92  358.5 9  C 358.5 12.08  356.08 14.5  353 14.5  C 349.92 14.5  347.5 12.08  347.5 9  C 347.5 5.92  349.92 3.5  353 3.5  Z " stroke-width="1" stroke="#797979" fill="none" />
  <path d="M 353 12  C 351.32 12  350 10.68  350 9  C 350 7.32  351.32 6  353 6  C 354.68 6  356 7.32  356 9  C 356 10.68  354.68 12  353 12  " fill-rule="nonzero" fill="#797979" stroke="none" />
</svg>