<?xml version="1.0" encoding="utf-8"?>
<svg version="1.1" xmlns:xlink="http://www.w3.org/1999/xlink" width="12px" height="12px" viewBox="225 3  12 12" xmlns="http://www.w3.org/2000/svg">
  <path d="M 231 3  C 234.36 3  237 5.64  237 9  C 237 12.36  234.36 15  231 15  C 227.64 15  225 12.36  225 9  C 225 5.64  227.64 3  231 3  Z " fill-rule="nonzero" fill="#ffffff" stroke="none" />
  <path d="M 231 3.5  C 234.08 3.5  236.5 5.92  236.5 9  C 236.5 12.08  234.08 14.5  231 14.5  C 227.92 14.5  225.5 12.08  225.5 9  C 225.5 5.92  227.92 3.5  231 3.5  Z " stroke-width="1" stroke="#797979" fill="none" />
  <path d="M 231 12  C 229.32 12  228 10.68  228 9  C 228 7.32  229.32 6  231 6  C 232.68 6  234 7.32  234 9  C 234 10.68  232.68 12  231 12  " fill-rule="nonzero" fill="#797979" stroke="none" />
</svg>