<?xml version="1.0" encoding="utf-8"?>
<svg version="1.1" xmlns:xlink="http://www.w3.org/1999/xlink" width="12px" height="12px" viewBox="225 474  12 12" xmlns="http://www.w3.org/2000/svg">
  <path d="M 231 474  C 234.36 474  237 476.64  237 480  C 237 483.36  234.36 486  231 486  C 227.64 486  225 483.36  225 480  C 225 476.64  227.64 474  231 474  Z " fill-rule="nonzero" fill="#f0f0f0" stroke="none" />
  <path d="M 231 474.5  C 234.08 474.5  236.5 476.92  236.5 480  C 236.5 483.08  234.08 485.5  231 485.5  C 227.92 485.5  225.5 483.08  225.5 480  C 225.5 476.92  227.92 474.5  231 474.5  Z " stroke-width="1" stroke="#797979" fill="none" />
  <path d="M 231 483  C 229.32 483  228 481.68  228 480  C 228 478.32  229.32 477  231 477  C 232.68 477  234 478.32  234 480  C 234 481.68  232.68 483  231 483  " fill-rule="nonzero" fill="#797979" stroke="none" />
</svg>