<?xml version="1.0" encoding="utf-8"?>
<svg version="1.1" xmlns:xlink="http://www.w3.org/1999/xlink" width="12px" height="12px" viewBox="342 474  12 12" xmlns="http://www.w3.org/2000/svg">
  <path d="M 348 474  C 351.36 474  354 476.64  354 480  C 354 483.36  351.36 486  348 486  C 344.64 486  342 483.36  342 480  C 342 476.64  344.64 474  348 474  Z " fill-rule="nonzero" fill="#ffffff" stroke="none" />
  <path d="M 348 474.5  C 351.08 474.5  353.5 476.92  353.5 480  C 353.5 483.08  351.08 485.5  348 485.5  C 344.92 485.5  342.5 483.08  342.5 480  C 342.5 476.92  344.92 474.5  348 474.5  Z " stroke-width="1" stroke="#797979" fill="none" />
  <path d="M 348 483  C 346.32 483  345 481.68  345 480  C 345 478.32  346.32 477  348 477  C 349.68 477  351 478.32  351 480  C 351 481.68  349.68 483  348 483  " fill-rule="nonzero" fill="#797979" stroke="none" />
</svg>