<?xml version="1.0" encoding="utf-8"?>
<svg version="1.1" xmlns:xlink="http://www.w3.org/1999/xlink" width="12px" height="12px" viewBox="240 960  12 12" xmlns="http://www.w3.org/2000/svg">
  <path d="M 246 960  C 249.36 960  252 962.64  252 966  C 252 969.36  249.36 972  246 972  C 242.64 972  240 969.36  240 966  C 240 962.64  242.64 960  246 960  Z " fill-rule="nonzero" fill="#f0f0f0" stroke="none" />
  <path d="M 246 960.5  C 249.08 960.5  251.5 962.92  251.5 966  C 251.5 969.08  249.08 971.5  246 971.5  C 242.92 971.5  240.5 969.08  240.5 966  C 240.5 962.92  242.92 960.5  246 960.5  Z " stroke-width="1" stroke="#797979" fill="none" />
  <path d="M 246 969  C 244.32 969  243 967.68  243 966  C 243 964.32  244.32 963  246 963  C 247.68 963  249 964.32  249 966  C 249 967.68  247.68 969  246 969  " fill-rule="nonzero" fill="#797979" stroke="none" />
</svg>