<?xml version="1.0" encoding="utf-8"?>
<svg version="1.1" xmlns:xlink="http://www.w3.org/1999/xlink" width="12px" height="12px" viewBox="365 959  12 12" xmlns="http://www.w3.org/2000/svg">
  <path d="M 371 959  C 374.36 959  377 961.64  377 965  C 377 968.36  374.36 971  371 971  C 367.64 971  365 968.36  365 965  C 365 961.64  367.64 959  371 959  Z " fill-rule="nonzero" fill="#ffffff" stroke="none" />
  <path d="M 371 959.5  C 374.08 959.5  376.5 961.92  376.5 965  C 376.5 968.08  374.08 970.5  371 970.5  C 367.92 970.5  365.5 968.08  365.5 965  C 365.5 961.92  367.92 959.5  371 959.5  Z " stroke-width="1" stroke="#797979" fill="none" />
  <path d="M 371 968  C 369.32 968  368 966.68  368 965  C 368 963.32  369.32 962  371 962  C 372.68 962  374 963.32  374 965  C 374 966.68  372.68 968  371 968  " fill-rule="nonzero" fill="#797979" stroke="none" />
</svg>