<?xml version="1.0" encoding="utf-8"?>
<svg version="1.1" xmlns:xlink="http://www.w3.org/1999/xlink" width="12px" height="12px" viewBox="342 491  12 12" xmlns="http://www.w3.org/2000/svg">
  <path d="M 348 491  C 351.36 491  354 493.64  354 497  C 354 500.36  351.36 503  348 503  C 344.64 503  342 500.36  342 497  C 342 493.64  344.64 491  348 491  Z " fill-rule="nonzero" fill="#f0f0f0" stroke="none" />
  <path d="M 348 491.5  C 351.08 491.5  353.5 493.92  353.5 497  C 353.5 500.08  351.08 502.5  348 502.5  C 344.92 502.5  342.5 500.08  342.5 497  C 342.5 493.92  344.92 491.5  348 491.5  Z " stroke-width="1" stroke="#797979" fill="none" />
  <path d="M 348 500  C 346.32 500  345 498.68  345 497  C 345 495.32  346.32 494  348 494  C 349.68 494  351 495.32  351 497  C 351 498.68  349.68 500  348 500  " fill-rule="nonzero" fill="#797979" stroke="none" />
</svg>