<?xml version="1.0" encoding="utf-8"?>
<svg version="1.1" xmlns:xlink="http://www.w3.org/1999/xlink" width="12px" height="12px" viewBox="222 332  12 12" xmlns="http://www.w3.org/2000/svg">
  <path d="M 228 332  C 231.36 332  234 334.64  234 338  C 234 341.36  231.36 344  228 344  C 224.64 344  222 341.36  222 338  C 222 334.64  224.64 332  228 332  Z " fill-rule="nonzero" fill="#ffffff" stroke="none" />
  <path d="M 228 332.5  C 231.08 332.5  233.5 334.92  233.5 338  C 233.5 341.08  231.08 343.5  228 343.5  C 224.92 343.5  222.5 341.08  222.5 338  C 222.5 334.92  224.92 332.5  228 332.5  Z " stroke-width="1" stroke="#797979" fill="none" />
  <path d="M 228 341  C 226.32 341  225 339.68  225 338  C 225 336.32  226.32 335  228 335  C 229.68 335  231 336.32  231 338  C 231 339.68  229.68 341  228 341  " fill-rule="nonzero" fill="#797979" stroke="none" />
</svg>