<?xml version="1.0" encoding="utf-8"?>
<svg version="1.1" xmlns:xlink="http://www.w3.org/1999/xlink" width="12px" height="12px" viewBox="474 332  12 12" xmlns="http://www.w3.org/2000/svg">
  <path d="M 480 332  C 483.36 332  486 334.64  486 338  C 486 341.36  483.36 344  480 344  C 476.64 344  474 341.36  474 338  C 474 334.64  476.64 332  480 332  Z " fill-rule="nonzero" fill="#ffffff" stroke="none" />
  <path d="M 480 332.5  C 483.08 332.5  485.5 334.92  485.5 338  C 485.5 341.08  483.08 343.5  480 343.5  C 476.92 343.5  474.5 341.08  474.5 338  C 474.5 334.92  476.92 332.5  480 332.5  Z " stroke-width="1" stroke="#797979" fill="none" />
  <path d="M 480 341  C 478.32 341  477 339.68  477 338  C 477 336.32  478.32 335  480 335  C 481.68 335  483 336.32  483 338  C 483 339.68  481.68 341  480 341  " fill-rule="nonzero" fill="#797979" stroke="none" />
</svg>