<?xml version="1.0" encoding="utf-8"?>
<svg version="1.1" xmlns:xlink="http://www.w3.org/1999/xlink" width="12px" height="12px" viewBox="340 332  12 12" xmlns="http://www.w3.org/2000/svg">
  <path d="M 346 332  C 349.36 332  352 334.64  352 338  C 352 341.36  349.36 344  346 344  C 342.64 344  340 341.36  340 338  C 340 334.64  342.64 332  346 332  Z " fill-rule="nonzero" fill="#f0f0f0" stroke="none" />
  <path d="M 346 332.5  C 349.08 332.5  351.5 334.92  351.5 338  C 351.5 341.08  349.08 343.5  346 343.5  C 342.92 343.5  340.5 341.08  340.5 338  C 340.5 334.92  342.92 332.5  346 332.5  Z " stroke-width="1" stroke="#797979" fill="none" />
  <path d="M 346 341  C 344.32 341  343 339.68  343 338  C 343 336.32  344.32 335  346 335  C 347.68 335  349 336.32  349 338  C 349 339.68  347.68 341  346 341  " fill-rule="nonzero" fill="#797979" stroke="none" />
</svg>