<?xml version="1.0" encoding="utf-8"?>
<svg version="1.1" xmlns:xlink="http://www.w3.org/1999/xlink" width="12px" height="12px" viewBox="197 1528  12 12" xmlns="http://www.w3.org/2000/svg">
  <path d="M 203 1528  C 206.36 1528  209 1530.64  209 1534  C 209 1537.36  206.36 1540  203 1540  C 199.64 1540  197 1537.36  197 1534  C 197 1530.64  199.64 1528  203 1528  Z " fill-rule="nonzero" fill="#f0f0f0" stroke="none" />
  <path d="M 203 1528.5  C 206.08 1528.5  208.5 1530.92  208.5 1534  C 208.5 1537.08  206.08 1539.5  203 1539.5  C 199.92 1539.5  197.5 1537.08  197.5 1534  C 197.5 1530.92  199.92 1528.5  203 1528.5  Z " stroke-width="1" stroke="#797979" fill="none" />
  <path d="M 203 1537  C 201.32 1537  200 1535.68  200 1534  C 200 1532.32  201.32 1531  203 1531  C 204.68 1531  206 1532.32  206 1534  C 206 1535.68  204.68 1537  203 1537  " fill-rule="nonzero" fill="#797979" stroke="none" />
</svg>