<?xml version="1.0" encoding="utf-8"?>
<svg version="1.1" xmlns:xlink="http://www.w3.org/1999/xlink" width="12px" height="12px" viewBox="449 1528  12 12" xmlns="http://www.w3.org/2000/svg">
  <path d="M 455 1528  C 458.36 1528  461 1530.64  461 1534  C 461 1537.36  458.36 1540  455 1540  C 451.64 1540  449 1537.36  449 1534  C 449 1530.64  451.64 1528  455 1528  Z " fill-rule="nonzero" fill="#f0f0f0" stroke="none" />
  <path d="M 455 1528.5  C 458.08 1528.5  460.5 1530.92  460.5 1534  C 460.5 1537.08  458.08 1539.5  455 1539.5  C 451.92 1539.5  449.5 1537.08  449.5 1534  C 449.5 1530.92  451.92 1528.5  455 1528.5  Z " stroke-width="1" stroke="#797979" fill="none" />
  <path d="M 455 1537  C 453.32 1537  452 1535.68  452 1534  C 452 1532.32  453.32 1531  455 1531  C 456.68 1531  458 1532.32  458 1534  C 458 1535.68  456.68 1537  455 1537  " fill-rule="nonzero" fill="#797979" stroke="none" />
</svg>