<?xml version="1.0" encoding="utf-8"?>
<svg version="1.1" xmlns:xlink="http://www.w3.org/1999/xlink" width="12px" height="12px" viewBox="330 1340  12 12" xmlns="http://www.w3.org/2000/svg">
  <path d="M 336 1340  C 339.36 1340  342 1342.64  342 1346  C 342 1349.36  339.36 1352  336 1352  C 332.64 1352  330 1349.36  330 1346  C 330 1342.64  332.64 1340  336 1340  Z " fill-rule="nonzero" fill="#f0f0f0" stroke="none" />
  <path d="M 336 1340.5  C 339.08 1340.5  341.5 1342.92  341.5 1346  C 341.5 1349.08  339.08 1351.5  336 1351.5  C 332.92 1351.5  330.5 1349.08  330.5 1346  C 330.5 1342.92  332.92 1340.5  336 1340.5  Z " stroke-width="1" stroke="#797979" fill="none" />
  <path d="M 336 1349  C 334.32 1349  333 1347.68  333 1346  C 333 1344.32  334.32 1343  336 1343  C 337.68 1343  339 1344.32  339 1346  C 339 1347.68  337.68 1349  336 1349  " fill-rule="nonzero" fill="#797979" stroke="none" />
</svg>