<?xml version="1.0" encoding="utf-8"?>
<svg version="1.1" xmlns:xlink="http://www.w3.org/1999/xlink" width="12px" height="12px" viewBox="212 1340  12 12" xmlns="http://www.w3.org/2000/svg">
  <path d="M 218 1340  C 221.36 1340  224 1342.64  224 1346  C 224 1349.36  221.36 1352  218 1352  C 214.64 1352  212 1349.36  212 1346  C 212 1342.64  214.64 1340  218 1340  Z " fill-rule="nonzero" fill="#ffffff" stroke="none" />
  <path d="M 218 1340.5  C 221.08 1340.5  223.5 1342.92  223.5 1346  C 223.5 1349.08  221.08 1351.5  218 1351.5  C 214.92 1351.5  212.5 1349.08  212.5 1346  C 212.5 1342.92  214.92 1340.5  218 1340.5  Z " stroke-width="1" stroke="#797979" fill="none" />
  <path d="M 218 1349  C 216.32 1349  215 1347.68  215 1346  C 215 1344.32  216.32 1343  218 1343  C 219.68 1343  221 1344.32  221 1346  C 221 1347.68  219.68 1349  218 1349  " fill-rule="nonzero" fill="#797979" stroke="none" />
</svg>