<?xml version="1.0" encoding="utf-8"?>
<svg version="1.1" xmlns:xlink="http://www.w3.org/1999/xlink" width="12px" height="12px" viewBox="978 1528  12 12" xmlns="http://www.w3.org/2000/svg">
  <path d="M 984 1528  C 987.36 1528  990 1530.64  990 1534  C 990 1537.36  987.36 1540  984 1540  C 980.64 1540  978 1537.36  978 1534  C 978 1530.64  980.64 1528  984 1528  Z " fill-rule="nonzero" fill="#f0f0f0" stroke="none" />
  <path d="M 984 1528.5  C 987.08 1528.5  989.5 1530.92  989.5 1534  C 989.5 1537.08  987.08 1539.5  984 1539.5  C 980.92 1539.5  978.5 1537.08  978.5 1534  C 978.5 1530.92  980.92 1528.5  984 1528.5  Z " stroke-width="1" stroke="#797979" fill="none" />
  <path d="M 984 1537  C 982.32 1537  981 1535.68  981 1534  C 981 1532.32  982.32 1531  984 1531  C 985.68 1531  987 1532.32  987 1534  C 987 1535.68  985.68 1537  984 1537  " fill-rule="nonzero" fill="#797979" stroke="none" />
</svg>