<?xml version="1.0" encoding="utf-8"?>
<svg version="1.1" xmlns:xlink="http://www.w3.org/1999/xlink" width="12px" height="12px" viewBox="367 1673  12 12" xmlns="http://www.w3.org/2000/svg">
  <path d="M 373 1673  C 376.36 1673  379 1675.64  379 1679  C 379 1682.36  376.36 1685  373 1685  C 369.64 1685  367 1682.36  367 1679  C 367 1675.64  369.64 1673  373 1673  Z " fill-rule="nonzero" fill="#ffffff" stroke="none" />
  <path d="M 373 1673.5  C 376.08 1673.5  378.5 1675.92  378.5 1679  C 378.5 1682.08  376.08 1684.5  373 1684.5  C 369.92 1684.5  367.5 1682.08  367.5 1679  C 367.5 1675.92  369.92 1673.5  373 1673.5  Z " stroke-width="1" stroke="#797979" fill="none" />
  <path d="M 373 1682  C 371.32 1682  370 1680.68  370 1679  C 370 1677.32  371.32 1676  373 1676  C 374.68 1676  376 1677.32  376 1679  C 376 1680.68  374.68 1682  373 1682  " fill-rule="nonzero" fill="#797979" stroke="none" />
</svg>