<?xml version="1.0" encoding="utf-8"?>
<svg version="1.1" xmlns:xlink="http://www.w3.org/1999/xlink" width="12px" height="12px" viewBox="342 589  12 12" xmlns="http://www.w3.org/2000/svg">
  <path d="M 348 589  C 351.36 589  354 591.64  354 595  C 354 598.36  351.36 601  348 601  C 344.64 601  342 598.36  342 595  C 342 591.64  344.64 589  348 589  Z " fill-rule="nonzero" fill="#ffffff" stroke="none" />
  <path d="M 348 589.5  C 351.08 589.5  353.5 591.92  353.5 595  C 353.5 598.08  351.08 600.5  348 600.5  C 344.92 600.5  342.5 598.08  342.5 595  C 342.5 591.92  344.92 589.5  348 589.5  Z " stroke-width="1" stroke="#797979" fill="none" />
  <path d="M 348 598  C 346.32 598  345 596.68  345 595  C 345 593.32  346.32 592  348 592  C 349.68 592  351 593.32  351 595  C 351 596.68  349.68 598  348 598  " fill-rule="nonzero" fill="#797979" stroke="none" />
</svg>