<?xml version="1.0" encoding="utf-8"?>
<svg version="1.1" xmlns:xlink="http://www.w3.org/1999/xlink" width="12px" height="12px" viewBox="474 447  12 12" xmlns="http://www.w3.org/2000/svg">
  <path d="M 480 447  C 483.36 447  486 449.64  486 453  C 486 456.36  483.36 459  480 459  C 476.64 459  474 456.36  474 453  C 474 449.64  476.64 447  480 447  Z " fill-rule="nonzero" fill="#ffffff" stroke="none" />
  <path d="M 480 447.5  C 483.08 447.5  485.5 449.92  485.5 453  C 485.5 456.08  483.08 458.5  480 458.5  C 476.92 458.5  474.5 456.08  474.5 453  C 474.5 449.92  476.92 447.5  480 447.5  Z " stroke-width="1" stroke="#797979" fill="none" />
  <path d="M 480 456  C 478.32 456  477 454.68  477 453  C 477 451.32  478.32 450  480 450  C 481.68 450  483 451.32  483 453  C 483 454.68  481.68 456  480 456  " fill-rule="nonzero" fill="#797979" stroke="none" />
</svg>