<?xml version="1.0" encoding="utf-8"?>
<svg version="1.1" xmlns:xlink="http://www.w3.org/1999/xlink" width="12px" height="12px" viewBox="464 1117  12 12" xmlns="http://www.w3.org/2000/svg">
  <path d="M 470 1117  C 473.36 1117  476 1119.64  476 1123  C 476 1126.36  473.36 1129  470 1129  C 466.64 1129  464 1126.36  464 1123  C 464 1119.64  466.64 1117  470 1117  Z " fill-rule="nonzero" fill="#f0f0f0" stroke="none" />
  <path d="M 470 1117.5  C 473.08 1117.5  475.5 1119.92  475.5 1123  C 475.5 1126.08  473.08 1128.5  470 1128.5  C 466.92 1128.5  464.5 1126.08  464.5 1123  C 464.5 1119.92  466.92 1117.5  470 1117.5  Z " stroke-width="1" stroke="#797979" fill="none" />
  <path d="M 470 1126  C 468.32 1126  467 1124.68  467 1123  C 467 1121.32  468.32 1120  470 1120  C 471.68 1120  473 1121.32  473 1123  C 473 1124.68  471.68 1126  470 1126  " fill-rule="nonzero" fill="#797979" stroke="none" />
</svg>