<?xml version="1.0" encoding="utf-8"?>
<svg version="1.1" xmlns:xlink="http://www.w3.org/1999/xlink" width="12px" height="12px" viewBox="345 951  12 12" xmlns="http://www.w3.org/2000/svg">
  <path d="M 351 951  C 354.36 951  357 953.64  357 957  C 357 960.36  354.36 963  351 963  C 347.64 963  345 960.36  345 957  C 345 953.64  347.64 951  351 951  Z " fill-rule="nonzero" fill="#ffffff" stroke="none" />
  <path d="M 351 951.5  C 354.08 951.5  356.5 953.92  356.5 957  C 356.5 960.08  354.08 962.5  351 962.5  C 347.92 962.5  345.5 960.08  345.5 957  C 345.5 953.92  347.92 951.5  351 951.5  Z " stroke-width="1" stroke="#797979" fill="none" />
  <path d="M 351 960  C 349.32 960  348 958.68  348 957  C 348 955.32  349.32 954  351 954  C 352.68 954  354 955.32  354 957  C 354 958.68  352.68 960  351 960  " fill-rule="nonzero" fill="#797979" stroke="none" />
</svg>