<?xml version="1.0" encoding="utf-8"?>
<svg version="1.1" xmlns:xlink="http://www.w3.org/1999/xlink" width="12px" height="12px" viewBox="741 1117  12 12" xmlns="http://www.w3.org/2000/svg">
  <path d="M 747 1117  C 750.36 1117  753 1119.64  753 1123  C 753 1126.36  750.36 1129  747 1129  C 743.64 1129  741 1126.36  741 1123  C 741 1119.64  743.64 1117  747 1117  Z " fill-rule="nonzero" fill="#ffffff" stroke="none" />
  <path d="M 747 1117.5  C 750.08 1117.5  752.5 1119.92  752.5 1123  C 752.5 1126.08  750.08 1128.5  747 1128.5  C 743.92 1128.5  741.5 1126.08  741.5 1123  C 741.5 1119.92  743.92 1117.5  747 1117.5  Z " stroke-width="1" stroke="#797979" fill="none" />
  <path d="M 747 1126  C 745.32 1126  744 1124.68  744 1123  C 744 1121.32  745.32 1120  747 1120  C 748.68 1120  750 1121.32  750 1123  C 750 1124.68  748.68 1126  747 1126  " fill-rule="nonzero" fill="#797979" stroke="none" />
</svg>