<?xml version="1.0" encoding="utf-8"?>
<svg version="1.1" xmlns:xlink="http://www.w3.org/1999/xlink" width="12px" height="12px" viewBox="993 1117  12 12" xmlns="http://www.w3.org/2000/svg">
  <path d="M 999 1117  C 1002.36 1117  1005 1119.64  1005 1123  C 1005 1126.36  1002.36 1129  999 1129  C 995.64 1129  993 1126.36  993 1123  C 993 1119.64  995.64 1117  999 1117  Z " fill-rule="nonzero" fill="#ffffff" stroke="none" />
  <path d="M 999 1117.5  C 1002.08 1117.5  1004.5 1119.92  1004.5 1123  C 1004.5 1126.08  1002.08 1128.5  999 1128.5  C 995.92 1128.5  993.5 1126.08  993.5 1123  C 993.5 1119.92  995.92 1117.5  999 1117.5  Z " stroke-width="1" stroke="#797979" fill="none" />
  <path d="M 999 1126  C 997.32 1126  996 1124.68  996 1123  C 996 1121.32  997.32 1120  999 1120  C 1000.68 1120  1002 1121.32  1002 1123  C 1002 1124.68  1000.68 1126  999 1126  " fill-rule="nonzero" fill="#797979" stroke="none" />
</svg>