<?xml version="1.0" encoding="utf-8"?>
<svg version="1.1" xmlns:xlink="http://www.w3.org/1999/xlink" width="12px" height="12px" xmlns="http://www.w3.org/2000/svg">
  <g transform="matrix(1 0 0 1 -256 -2619 )">
    <path d="M 12 6  C 11.9962800865888 9.31216643673358  9.31216643673358 11.9962800865888  6 12  C 2.68629150101523 12  0 9.31370849898477  0 6  C 0 2.68629150101523  2.68629150101523 0  6 0  C 9.31370849898477 0  12 2.68629150101523  12 6  Z M 11.25 6  C 11.2466935230208 3.10187575589734  8.89812424410266 0.753306476979247  6 0.75  C 3.10050506338834 0.75  0.75 3.10050506338834  0.75 6  C 0.75 8.89949493661166  3.10050506338834 11.25  6 11.25  C 8.89949493661166 11.25  11.25 8.89949493661166  11.25 6  Z M 8.625 6.375  L 6 6.375  C 5.79289321881345 6.375  5.625 6.20710678118655  5.625 6  L 5.625 2.625  C 5.625 2.41789321881345  5.79289321881345 2.25  6 2.25  C 6.20710678118655 2.25  6.375 2.41789321881345  6.375 2.625  L 6.375 5.625  L 8.625 5.625  C 8.83210678118655 5.625  9 5.79289321881345  9 6  C 9 6.20710678118655  8.83210678118655 6.375  8.625 6.375  Z " fill-rule="nonzero" fill="#cccccc" stroke="none" transform="matrix(1 0 0 1 256 2619 )" />
  </g>
</svg>