<?xml version="1.0" encoding="utf-8"?>
<svg version="1.1" xmlns:xlink="http://www.w3.org/1999/xlink" width="12px" height="12px" viewBox="222 447  12 12" xmlns="http://www.w3.org/2000/svg">
  <path d="M 228 447  C 231.36 447  234 449.64  234 453  C 234 456.36  231.36 459  228 459  C 224.64 459  222 456.36  222 453  C 222 449.64  224.64 447  228 447  Z " fill-rule="nonzero" fill="#ffffff" stroke="none" />
  <path d="M 228 447.5  C 231.08 447.5  233.5 449.92  233.5 453  C 233.5 456.08  231.08 458.5  228 458.5  C 224.92 458.5  222.5 456.08  222.5 453  C 222.5 449.92  224.92 447.5  228 447.5  Z " stroke-width="1" stroke="#797979" fill="none" />
  <path d="M 228 456  C 226.32 456  225 454.68  225 453  C 225 451.32  226.32 450  228 450  C 229.68 450  231 451.32  231 453  C 231 454.68  229.68 456  228 456  " fill-rule="nonzero" fill="#797979" stroke="none" />
</svg>