<?xml version="1.0" encoding="utf-8"?>
<svg version="1.1" xmlns:xlink="http://www.w3.org/1999/xlink" width="12px" height="12px" viewBox="212 1117  12 12" xmlns="http://www.w3.org/2000/svg">
  <path d="M 218 1117  C 221.36 1117  224 1119.64  224 1123  C 224 1126.36  221.36 1129  218 1129  C 214.64 1129  212 1126.36  212 1123  C 212 1119.64  214.64 1117  218 1117  Z " fill-rule="nonzero" fill="#ffffff" stroke="none" />
  <path d="M 218 1117.5  C 221.08 1117.5  223.5 1119.92  223.5 1123  C 223.5 1126.08  221.08 1128.5  218 1128.5  C 214.92 1128.5  212.5 1126.08  212.5 1123  C 212.5 1119.92  214.92 1117.5  218 1117.5  Z " stroke-width="1" stroke="#797979" fill="none" />
  <path d="M 218 1126  C 216.32 1126  215 1124.68  215 1123  C 215 1121.32  216.32 1120  218 1120  C 219.68 1120  221 1121.32  221 1123  C 221 1124.68  219.68 1126  218 1126  " fill-rule="nonzero" fill="#797979" stroke="none" />
</svg>