<?xml version="1.0" encoding="utf-8"?>
<svg version="1.1" xmlns:xlink="http://www.w3.org/1999/xlink" width="12px" height="12px" viewBox="859 1117  12 12" xmlns="http://www.w3.org/2000/svg">
  <path d="M 865 1117  C 868.36 1117  871 1119.64  871 1123  C 871 1126.36  868.36 1129  865 1129  C 861.64 1129  859 1126.36  859 1123  C 859 1119.64  861.64 1117  865 1117  Z " fill-rule="nonzero" fill="#ffffff" stroke="none" />
  <path d="M 865 1117.5  C 868.08 1117.5  870.5 1119.92  870.5 1123  C 870.5 1126.08  868.08 1128.5  865 1128.5  C 861.92 1128.5  859.5 1126.08  859.5 1123  C 859.5 1119.92  861.92 1117.5  865 1117.5  Z " stroke-width="1" stroke="#797979" fill="none" />
  <path d="M 865 1126  C 863.32 1126  862 1124.68  862 1123  C 862 1121.32  863.32 1120  865 1120  C 866.68 1120  868 1121.32  868 1123  C 868 1124.68  866.68 1126  865 1126  " fill-rule="nonzero" fill="#797979" stroke="none" />
</svg>