<?xml version="1.0" encoding="utf-8"?>
<svg version="1.1" xmlns:xlink="http://www.w3.org/1999/xlink" width="12px" height="12px" viewBox="479 1673  12 12" xmlns="http://www.w3.org/2000/svg">
  <path d="M 485 1673  C 488.36 1673  491 1675.64  491 1679  C 491 1682.36  488.36 1685  485 1685  C 481.64 1685  479 1682.36  479 1679  C 479 1675.64  481.64 1673  485 1673  Z " fill-rule="nonzero" fill="#ffffff" stroke="none" />
  <path d="M 485 1673.5  C 488.08 1673.5  490.5 1675.92  490.5 1679  C 490.5 1682.08  488.08 1684.5  485 1684.5  C 481.92 1684.5  479.5 1682.08  479.5 1679  C 479.5 1675.92  481.92 1673.5  485 1673.5  Z " stroke-width="1" stroke="#797979" fill="none" />
  <path d="M 485 1682  C 483.32 1682  482 1680.68  482 1679  C 482 1677.32  483.32 1676  485 1676  C 486.68 1676  488 1677.32  488 1679  C 488 1680.68  486.68 1682  485 1682  " fill-rule="nonzero" fill="#797979" stroke="none" />
</svg>