<?xml version="1.0" encoding="utf-8"?>
<svg version="1.1" xmlns:xlink="http://www.w3.org/1999/xlink" width="12px" height="12px" viewBox="255 1673  12 12" xmlns="http://www.w3.org/2000/svg">
  <path d="M 261 1673  C 264.36 1673  267 1675.64  267 1679  C 267 1682.36  264.36 1685  261 1685  C 257.64 1685  255 1682.36  255 1679  C 255 1675.64  257.64 1673  261 1673  Z " fill-rule="nonzero" fill="#ffffff" stroke="none" />
  <path d="M 261 1673.5  C 264.08 1673.5  266.5 1675.92  266.5 1679  C 266.5 1682.08  264.08 1684.5  261 1684.5  C 257.92 1684.5  255.5 1682.08  255.5 1679  C 255.5 1675.92  257.92 1673.5  261 1673.5  Z " stroke-width="1" stroke="#797979" fill="none" />
  <path d="M 261 1682  C 259.32 1682  258 1680.68  258 1679  C 258 1677.32  259.32 1676  261 1676  C 262.68 1676  264 1677.32  264 1679  C 264 1680.68  262.68 1682  261 1682  " fill-rule="nonzero" fill="#797979" stroke="none" />
</svg>