<?xml version="1.0" encoding="utf-8"?>
<svg version="1.1" xmlns:xlink="http://www.w3.org/1999/xlink" width="12px" height="12px" viewBox="227 951  12 12" xmlns="http://www.w3.org/2000/svg">
  <path d="M 233 951  C 236.36 951  239 953.64  239 957  C 239 960.36  236.36 963  233 963  C 229.64 963  227 960.36  227 957  C 227 953.64  229.64 951  233 951  Z " fill-rule="nonzero" fill="#ffffff" stroke="none" />
  <path d="M 233 951.5  C 236.08 951.5  238.5 953.92  238.5 957  C 238.5 960.08  236.08 962.5  233 962.5  C 229.92 962.5  227.5 960.08  227.5 957  C 227.5 953.92  229.92 951.5  233 951.5  Z " stroke-width="1" stroke="#797979" fill="none" />
  <path d="M 233 960  C 231.32 960  230 958.68  230 957  C 230 955.32  231.32 954  233 954  C 234.68 954  236 955.32  236 957  C 236 958.68  234.68 960  233 960  " fill-rule="nonzero" fill="#797979" stroke="none" />
</svg>