<?xml version="1.0" encoding="utf-8"?>
<svg version="1.1" xmlns:xlink="http://www.w3.org/1999/xlink" width="16px" height="14px" xmlns="http://www.w3.org/2000/svg">
  <g transform="matrix(1 0 0 1 -252 -1711 )">
    <path d="M 4 4.75  C 4 5.14999999999998  3.73333332812501 5.41666667187508  3.33333332812501 5.41666667187508  C 2.93333332812497 5.41666667187508  2.66666665624999 5.14999999999998  2.66666665624999 4.75  C 2.66666665624999 2.14999999999998  4.73333332812501 0.0833333281249224  7.33333332812501 0.0833333281249224  C 9.33333332812501 0.0833333281249224  11.133333328125 1.41666665625007  11.8 3.35000000000002  C 11.866666671875 3.68333332812506  11.733333328125 4.08333332812492  11.333333328125 4.14999999999998  C 11 4.28333332812497  10.6 4.08333332812492  10.46666665625 3.75  C 10.066666671875 2.35000000000002  8.79999999999998 1.41666667187508  7.33333332812501 1.41666667187508  C 5.466666671875 1.41666667187508  4 2.88333332812499  4 4.75  Z M 16 6.75  C 16 8.94999999999993  14.2 10.75  12 10.75  C 11.6 10.75  11.333333328125 10.483333328125  11.333333328125 10.0833333281249  C 11.333333328125 9.68333332812495  11.6 9.41666665625007  12 9.41666665625007  C 13.466666671875 9.41666665625007  14.666666671875 8.21666665624991  14.666666671875 6.74999998437499  C 14.666666671875 5.28333331249996  13.466666671875 4.08333331250003  12 4.08333331250003  C 11.8 4.08333331250003  11.533333328125 4.08333331250003  11.333333328125 4.14999998437497  C 11 4.21666665624991  10.6 4.01666665624998  10.533333328125 3.68333331250005  C 10.46666665625 3.34999996875001  10.66666665625 2.94999998437504  11 2.88333331249999  C 11.333333328125 2.81666667187494  11.666666671875 2.75  12 2.75  C 14.2 2.75  16 4.55000000000007  16 6.75  Z M 6 10.0833333281249  C 6 10.483333328125  5.73333332812501 10.75  5.33333332812501 10.75  L 3.33333332812501 10.75  C 2.93333332812497 10.75  2.66666665624999 10.483333328125  2.66666665624999 10.0833333281249  C 2.66666665624999 9.68333332812495  2.93333332812497 9.41666665625007  3.33333332812501 9.41666665625007  L 5.33333332812501 9.41666665625007  C 5.73333332812501 9.41666665625007  6 9.68333332812495  6 10.0833333281249  Z M 12.666666671875 10.0833333281249  C 12.666666671875 10.483333328125  12.4 10.75  12 10.75  L 10.666666671875 10.75  C 10.266666671875 10.75  10 10.483333328125  10 10.0833333281249  C 10 9.68333332812495  10.266666671875 9.41666665625007  10.666666671875 9.41666665625007  L 12 9.41666665625007  C 12.4 9.41666665625007  12.666666671875 9.68333332812495  12.666666671875 10.0833333281249  Z M 4 10.083333359375  C 4 10.4833333593749  3.73333332812501 10.75  3.33333332812501 10.75  C 1.46666665625 10.75  0 9.28333332812485  0 7.41666667187496  C 0 5.55000001562496  1.466666671875 4.08333334374993  3.33333332812501 4.08333334374993  C 3.73333332812501 4.08333334374993  4 4.35000001562503  4 4.75000001562501  C 4 5.1500000156251  3.73333332812501 5.41666668749997  3.33333332812501 5.41666668749997  C 2.20000000000002 5.41666668749997  1.33333332812501 6.28333335937498  1.33333332812501 7.41666668749997  C 1.33333332812501 8.55000001562496  2.20000000000002 9.41666668749997  3.33333332812501 9.41666668749997  C 3.73333332812501 9.41666668749997  4 9.68333335937496  4 10.083333359375  Z M 8.66666667187499 12.75  C 8.66666667187499 13.1499999999999  8.40000000000001 13.416666671875  8 13.416666671875  C 7.59999999999999 13.416666671875  7.33333332812501 13.1499999999999  7.33333332812501 12.75  L 7.33333332812501 6.08333332812492  C 7.33333332812501 5.68333332812506  7.59999999999999 5.41666665625007  8 5.41666665625007  C 8.40000000000001 5.41666665625007  8.66666667187499 5.68333332812506  8.66666667187499 6.08333332812492  L 8.66666667187499 12.75  Z M 6.46666665625 8.54999999999995  C 6.33333332812501 8.68333332812495  6.20000000000002 8.75  6 8.75  C 5.79999999999998 8.75  5.66666667187499 8.68333332812495  5.533333328125 8.54999999999995  C 5.26666665624998 8.28333332812485  5.26666665624998 7.88333332812499  5.533333328125 7.61666667187501  L 7.533333328125 5.61666667187501  C 7.79999999999998 5.35000000000002  8.20000000000002 5.35000000000002  8.46666665625 5.61666667187501  C 8.73333331250001 5.88333334375  8.73333332812501 6.28333334375009  8.46666665625 6.55000000000007  L 6.46666665625 8.54999999999995  Z M 10.46666665625 8.54999999999995  C 10.333333328125 8.68333332812495  10.2 8.75  10 8.75  C 9.79999999999998 8.75  9.66666667187499 8.68333332812495  9.533333328125 8.54999999999995  L 7.533333328125 6.55000000000007  C 7.26666665624998 6.28333332812497  7.26666665624998 5.88333332812499  7.533333328125 5.61666667187501  C 7.79999999999998 5.35000001562503  8.20000000000002 5.35000000000002  8.46666665625 5.61666667187501  L 10.46666665625 7.61666667187501  C 10.733333328125 7.88333334374988  10.733333328125 8.28333334374997  10.46666665625 8.54999999999995  Z " fill-rule="nonzero" fill="#cccccc" stroke="none" transform="matrix(1 0 0 1 252 1711 )" />
  </g>
</svg>