<?xml version="1.0" encoding="utf-8"?>
<svg version="1.1" xmlns:xlink="http://www.w3.org/1999/xlink" width="12px" height="12px" viewBox="340 447  12 12" xmlns="http://www.w3.org/2000/svg">
  <path d="M 346 447  C 349.36 447  352 449.64  352 453  C 352 456.36  349.36 459  346 459  C 342.64 459  340 456.36  340 453  C 340 449.64  342.64 447  346 447  Z " fill-rule="nonzero" fill="#f0f0f0" stroke="none" />
  <path d="M 346 447.5  C 349.08 447.5  351.5 449.92  351.5 453  C 351.5 456.08  349.08 458.5  346 458.5  C 342.92 458.5  340.5 456.08  340.5 453  C 340.5 449.92  342.92 447.5  346 447.5  Z " stroke-width="1" stroke="#797979" fill="none" />
  <path d="M 346 456  C 344.32 456  343 454.68  343 453  C 343 451.32  344.32 450  346 450  C 347.68 450  349 451.32  349 453  C 349 454.68  347.68 456  346 456  " fill-rule="nonzero" fill="#797979" stroke="none" />
</svg>