<?xml version="1.0" encoding="utf-8"?>
<svg version="1.1" xmlns:xlink="http://www.w3.org/1999/xlink" width="12px" height="12px" viewBox="479 951  12 12" xmlns="http://www.w3.org/2000/svg">
  <path d="M 485 951  C 488.36 951  491 953.64  491 957  C 491 960.36  488.36 963  485 963  C 481.64 963  479 960.36  479 957  C 479 953.64  481.64 951  485 951  Z " fill-rule="nonzero" fill="#f0f0f0" stroke="none" />
  <path d="M 485 951.5  C 488.08 951.5  490.5 953.92  490.5 957  C 490.5 960.08  488.08 962.5  485 962.5  C 481.92 962.5  479.5 960.08  479.5 957  C 479.5 953.92  481.92 951.5  485 951.5  Z " stroke-width="1" stroke="#797979" fill="none" />
  <path d="M 485 960  C 483.32 960  482 958.68  482 957  C 482 955.32  483.32 954  485 954  C 486.68 954  488 955.32  488 957  C 488 958.68  486.68 960  485 960  " fill-rule="nonzero" fill="#797979" stroke="none" />
</svg>