<?xml version="1.0" encoding="utf-8"?>
<svg version="1.1" xmlns:xlink="http://www.w3.org/1999/xlink" width="17px" height="16px" xmlns="http://www.w3.org/2000/svg">
  <g transform="matrix(1 0 0 1 -749 -444 )">
    <path d="M 3.34899999999999 12.848  C 4.72154761904757 14.1394285714285  6.43854761904761 14.8091428571428  8.5 14.8571428571429  C 10.5618571428572 14.8095238095238  12.2788571428571 14.1398095238095  13.651 12.848  C 15.0231428571428 11.5561904761905  15.7347142857143 9.94019047619048  15.7857142857143 8  C 15.735119047619 6.05942857142855  15.0235476190476 4.44342857142857  13.651 3.15199999999999  C 12.2784523809524 1.86057142857146  10.5614523809524 1.19085714285717  8.5 1.14285714285711  C 6.43814285714284 1.1904761904762  4.72114285714285 1.8601904761905  3.34899999999999 3.15199999999999  C 1.97685714285718 4.44380952380948  1.26528571428574 6.05980952380952  1.21428571428568 8  C 1.26488095238097 9.94057142857145  1.9764523809524 11.5565714285714  3.34899999999999 12.848  Z M 14.50525 13.652  C 12.9052261904762 15.1579047619048  10.9034761904762 15.9405714285714  8.5 16  C 6.09652380952381 15.9405714285714  4.09477380952379 15.1579047619048  2.49475000000001 13.652  C 0.894726190476177 12.1460952380953  0.0631428571428394 10.2620952380952  0 8  C 0.0631428571428394 5.73790476190476  0.894726190476177 3.85390476190474  2.49475000000001 2.34800000000001  C 4.09477380952379 0.842095238095226  6.09652380952381 0.0594285714285547  8.5 0  C 10.9034761904762 0.0594285714285547  12.9052261904762 0.842095238095226  14.50525 2.34800000000001  C 16.1052738095238 3.85390476190474  16.9368571428572 5.73790476190476  17 8  C 16.9368571428572 10.2620952380952  16.1052738095238 12.1460952380953  14.50525 13.652  Z M 7.45632142857145 3.58914285714286  C 7.57005952380958 3.48209523809527  7.71557142857142 3.42857142857139  7.8928571428571 3.42857142857139  C 8.07014285714284 3.42857142857139  8.21565476190474 3.48209523809527  8.32939285714287 3.58914285714286  C 8.443130952381 3.69619047619045  8.5 3.83314285714289  8.5 4  L 8.5 8.57142857142861  C 8.5 8.73828571428572  8.443130952381 8.87523809523805  8.32939285714287 8.98228571428569  C 8.21565476190474 9.08933333333334  8.07014285714284 9.14285714285711  7.8928571428571 9.14285714285711  C 7.71557142857142 9.14285714285711  7.57005952380958 9.08933333333334  7.45632142857145 8.98228571428569  C 7.34258333333332 8.8752380952381  7.28571428571432 8.73828571428572  7.28571428571432 8.57142857142861  L 7.28571428571432 4  C 7.28571428571432 3.83314285714289  7.34258333333332 3.69619047619045  7.45632142857145 3.58914285714286  Z M 7.28571428571432 8.57142857142861  C 7.28571428571432 8.1904761904762  7.48809523809523 8  7.8928571428571 8  L 12.75 8  C 13.1547619047619 8  13.3571428571429 8.1904761904762  13.3571428571429 8.57142857142861  C 13.3571428571429 8.95238095238096  13.1547619047619 9.14285714285711  12.75 9.14285714285711  L 7.8928571428571 9.14285714285711  C 7.48809523809523 9.14285714285711  7.28571428571432 8.95238095238096  7.28571428571432 8.57142857142861  Z " fill-rule="nonzero" fill="#999999" stroke="none" transform="matrix(1 0 0 1 749 444 )" />
  </g>
</svg>