<?xml version="1.0" encoding="utf-8"?>
<svg version="1.1" xmlns:xlink="http://www.w3.org/1999/xlink" width="16px" height="15px" xmlns="http://www.w3.org/2000/svg">
  <g transform="matrix(1 0 0 1 -63 -98 )">
    <path d="M 4.69037081318681 12.2014556329284  L 7.44954917216118 10.3942646585695  L 7.68562178754578 10.2396538155646  L 7.96934373626374 10.2396538155646  L 13.1230735970696 10.2396538155646  C 13.6399744175824 10.2396538155646  14.0608418901099 9.82686230859202  14.0608418901099 9.31904466396758  L 14.0608419047619 1.95420086009898  C 14.0608419047619 1.4470902672065  13.6399744322344 1.0343135006748  13.1230736117216 1  L 1.87925497435896 1  C 1.36235415384616 1.03431348627981  0.94220637362637 1.44709025281151  0.94220637362637 1.95420084570398  L 0.94220637362637 9.31905939001346  C 0.94220637362637 9.82687704903281  1.36235415384616 10.2396685416105  1.87925497435896 10.2396685416105  L 3.75333720146521 10.2396685416105  L 4.6903858021978 10.2396685416105  L 4.6903858021978 11.1602629671614  L 4.6903858021978 12.2014556329284  Z M 3.75333720146521 13.9213686585696  L 3.75333720146521 11.1602629815565  L 1.87925497435896 11.1602629815565  C 0.844748630036626 11.1602629815565  0.00514276923077972 10.3361235663518  0.00514276923077972 9.31905939001346  L 0.00514276923077972 1.95420086009898  C 0.00514276923077972 0.937858490328393  0.844748630036626 0.113719060728763  1.87925497435896 0.113719060728763  L 13.1230586080586 0.113719060728763  C 14.1582846300366 0.113719060728763  14.9978905054945 0.937858475933401  14.9978905054945 1.95420086009898  L 14.9978905054945 9.31905940440845  C 14.9978905054945 10.3361235663518  14.1582846446886 11.1602629959514  13.1230586080586 11.1602629959514  L 7.96932874725275 11.1602629815565  L 3.75333720146521 13.9213686585696  Z " fill-rule="nonzero" fill="#ffffff" stroke="none" transform="matrix(1 0 0 1 63 98 )" />
  </g>
</svg>