<?xml version="1.0" encoding="utf-8"?>
<svg version="1.1" xmlns:xlink="http://www.w3.org/1999/xlink" width="12px" height="12px" viewBox="305 2175.5  12 12" xmlns="http://www.w3.org/2000/svg">
  <path d="M 311 2175.5  C 314.36 2175.5  317 2178.14  317 2181.5  C 317 2184.86  314.36 2187.5  311 2187.5  C 307.64 2187.5  305 2184.86  305 2181.5  C 305 2178.14  307.64 2175.5  311 2175.5  Z " fill-rule="nonzero" fill="#ffffff" stroke="none" />
  <path d="M 311 2176  C 314.08 2176  316.5 2178.42  316.5 2181.5  C 316.5 2184.58  314.08 2187  311 2187  C 307.92 2187  305.5 2184.58  305.5 2181.5  C 305.5 2178.42  307.92 2176  311 2176  Z " stroke-width="1" stroke="#797979" fill="none" />
  <path d="M 311 2184.5  C 309.32 2184.5  308 2183.18  308 2181.5  C 308 2179.82  309.32 2178.5  311 2178.5  C 312.68 2178.5  314 2179.82  314 2181.5  C 314 2183.18  312.68 2184.5  311 2184.5  " fill-rule="nonzero" fill="#797979" stroke="none" />
</svg>