<?xml version="1.0" encoding="utf-8"?>
<svg version="1.1" xmlns:xlink="http://www.w3.org/1999/xlink" width="12px" height="12px" viewBox="228 510.5  12 12" xmlns="http://www.w3.org/2000/svg">
  <path d="M 234 510.5  C 237.36 510.5  240 513.14  240 516.5  C 240 519.86  237.36 522.5  234 522.5  C 230.64 522.5  228 519.86  228 516.5  C 228 513.14  230.64 510.5  234 510.5  Z " fill-rule="nonzero" fill="#ffffff" stroke="none" />
  <path d="M 234 511  C 237.08 511  239.5 513.42  239.5 516.5  C 239.5 519.58  237.08 522  234 522  C 230.92 522  228.5 519.58  228.5 516.5  C 228.5 513.42  230.92 511  234 511  Z " stroke-width="1" stroke="#797979" fill="none" />
  <path d="M 234 519.5  C 232.32 519.5  231 518.18  231 516.5  C 231 514.82  232.32 513.5  234 513.5  C 235.68 513.5  237 514.82  237 516.5  C 237 518.18  235.68 519.5  234 519.5  " fill-rule="nonzero" fill="#797979" stroke="none" />
</svg>