<?xml version="1.0" encoding="utf-8"?>
<svg version="1.1" xmlns:xlink="http://www.w3.org/1999/xlink" width="12px" height="12px" viewBox="290 474.5  12 12" xmlns="http://www.w3.org/2000/svg">
  <path d="M 296 474.5  C 299.36 474.5  302 477.14  302 480.5  C 302 483.86  299.36 486.5  296 486.5  C 292.64 486.5  290 483.86  290 480.5  C 290 477.14  292.64 474.5  296 474.5  Z " fill-rule="nonzero" fill="#f0f0f0" stroke="none" />
  <path d="M 296 475  C 299.08 475  301.5 477.42  301.5 480.5  C 301.5 483.58  299.08 486  296 486  C 292.92 486  290.5 483.58  290.5 480.5  C 290.5 477.42  292.92 475  296 475  Z " stroke-width="1" stroke="#797979" fill="none" />
  <path d="M 296 483.5  C 294.32 483.5  293 482.18  293 480.5  C 293 478.82  294.32 477.5  296 477.5  C 297.68 477.5  299 478.82  299 480.5  C 299 482.18  297.68 483.5  296 483.5  " fill-rule="nonzero" fill="#797979" stroke="none" />
</svg>