<?xml version="1.0" encoding="utf-8"?>
<svg version="1.1" xmlns:xlink="http://www.w3.org/1999/xlink" width="12px" height="12px" viewBox="228 826.5  12 12" xmlns="http://www.w3.org/2000/svg">
  <path d="M 234 826.5  C 237.36 826.5  240 829.14  240 832.5  C 240 835.86  237.36 838.5  234 838.5  C 230.64 838.5  228 835.86  228 832.5  C 228 829.14  230.64 826.5  234 826.5  Z " fill-rule="nonzero" fill="#ffffff" stroke="none" />
  <path d="M 234 827  C 237.08 827  239.5 829.42  239.5 832.5  C 239.5 835.58  237.08 838  234 838  C 230.92 838  228.5 835.58  228.5 832.5  C 228.5 829.42  230.92 827  234 827  Z " stroke-width="1" stroke="#797979" fill="none" />
  <path d="M 234 835.5  C 232.32 835.5  231 834.18  231 832.5  C 231 830.82  232.32 829.5  234 829.5  C 235.68 829.5  237 830.82  237 832.5  C 237 834.18  235.68 835.5  234 835.5  " fill-rule="nonzero" fill="#797979" stroke="none" />
</svg>