<?xml version="1.0" encoding="utf-8"?>
<svg version="1.1" xmlns:xlink="http://www.w3.org/1999/xlink" width="12px" height="12px" viewBox="337 582  12 12" xmlns="http://www.w3.org/2000/svg">
  <path d="M 343 582  C 346.36 582  349 584.64  349 588  C 349 591.36  346.36 594  343 594  C 339.64 594  337 591.36  337 588  C 337 584.64  339.64 582  343 582  Z " fill-rule="nonzero" fill="#ffffff" stroke="none" />
  <path d="M 343 582.5  C 346.08 582.5  348.5 584.92  348.5 588  C 348.5 591.08  346.08 593.5  343 593.5  C 339.92 593.5  337.5 591.08  337.5 588  C 337.5 584.92  339.92 582.5  343 582.5  Z " stroke-width="1" stroke="#797979" fill="none" />
  <path d="M 343 591  C 341.32 591  340 589.68  340 588  C 340 586.32  341.32 585  343 585  C 344.68 585  346 586.32  346 588  C 346 589.68  344.68 591  343 591  " fill-rule="nonzero" fill="#797979" stroke="none" />
</svg>