<?xml version="1.0" encoding="utf-8"?>
<svg version="1.1" xmlns:xlink="http://www.w3.org/1999/xlink" width="12px" height="12px" viewBox="290 476  12 12" xmlns="http://www.w3.org/2000/svg">
  <path d="M 296 476  C 299.36 476  302 478.64  302 482  C 302 485.36  299.36 488  296 488  C 292.64 488  290 485.36  290 482  C 290 478.64  292.64 476  296 476  Z " fill-rule="nonzero" fill="#f0f0f0" stroke="none" />
  <path d="M 296 476.5  C 299.08 476.5  301.5 478.92  301.5 482  C 301.5 485.08  299.08 487.5  296 487.5  C 292.92 487.5  290.5 485.08  290.5 482  C 290.5 478.92  292.92 476.5  296 476.5  Z " stroke-width="1" stroke="#797979" fill="none" />
  <path d="M 296 485  C 294.32 485  293 483.68  293 482  C 293 480.32  294.32 479  296 479  C 297.68 479  299 480.32  299 482  C 299 483.68  297.68 485  296 485  " fill-rule="nonzero" fill="#797979" stroke="none" />
</svg>