<?xml version="1.0" encoding="utf-8"?>
<svg version="1.1" xmlns:xlink="http://www.w3.org/1999/xlink" width="12px" height="12px" viewBox="228 512  12 12" xmlns="http://www.w3.org/2000/svg">
  <path d="M 234 512  C 237.36 512  240 514.64  240 518  C 240 521.36  237.36 524  234 524  C 230.64 524  228 521.36  228 518  C 228 514.64  230.64 512  234 512  Z " fill-rule="nonzero" fill="#f0f0f0" stroke="none" />
  <path d="M 234 512.5  C 237.08 512.5  239.5 514.92  239.5 518  C 239.5 521.08  237.08 523.5  234 523.5  C 230.92 523.5  228.5 521.08  228.5 518  C 228.5 514.92  230.92 512.5  234 512.5  Z " stroke-width="1" stroke="#797979" fill="none" />
  <path d="M 234 521  C 232.32 521  231 519.68  231 518  C 231 516.32  232.32 515  234 515  C 235.68 515  237 516.32  237 518  C 237 519.68  235.68 521  234 521  " fill-rule="nonzero" fill="#797979" stroke="none" />
</svg>