<?xml version="1.0" encoding="utf-8"?>
<svg version="1.1" xmlns:xlink="http://www.w3.org/1999/xlink" width="12px" height="12px" viewBox="337 512  12 12" xmlns="http://www.w3.org/2000/svg">
  <path d="M 343 512  C 346.36 512  349 514.64  349 518  C 349 521.36  346.36 524  343 524  C 339.64 524  337 521.36  337 518  C 337 514.64  339.64 512  343 512  Z " fill-rule="nonzero" fill="#f0f0f0" stroke="none" />
  <path d="M 343 512.5  C 346.08 512.5  348.5 514.92  348.5 518  C 348.5 521.08  346.08 523.5  343 523.5  C 339.92 523.5  337.5 521.08  337.5 518  C 337.5 514.92  339.92 512.5  343 512.5  Z " stroke-width="1" stroke="#797979" fill="none" />
  <path d="M 343 521  C 341.32 521  340 519.68  340 518  C 340 516.32  341.32 515  343 515  C 344.68 515  346 516.32  346 518  C 346 519.68  344.68 521  343 521  " fill-rule="nonzero" fill="#797979" stroke="none" />
</svg>