<?xml version="1.0" encoding="utf-8"?>
<svg version="1.1" xmlns:xlink="http://www.w3.org/1999/xlink" width="12px" height="12px" viewBox="228 542  12 12" xmlns="http://www.w3.org/2000/svg">
  <path d="M 234 542  C 237.36 542  240 544.64  240 548  C 240 551.36  237.36 554  234 554  C 230.64 554  228 551.36  228 548  C 228 544.64  230.64 542  234 542  Z " fill-rule="nonzero" fill="#ffffff" stroke="none" />
  <path d="M 234 542.5  C 237.08 542.5  239.5 544.92  239.5 548  C 239.5 551.08  237.08 553.5  234 553.5  C 230.92 553.5  228.5 551.08  228.5 548  C 228.5 544.92  230.92 542.5  234 542.5  Z " stroke-width="1" stroke="#797979" fill="none" />
  <path d="M 234 551  C 232.32 551  231 549.68  231 548  C 231 546.32  232.32 545  234 545  C 235.68 545  237 546.32  237 548  C 237 549.68  235.68 551  234 551  " fill-rule="nonzero" fill="#797979" stroke="none" />
</svg>