<?xml version="1.0" encoding="utf-8"?>
<svg version="1.1" xmlns:xlink="http://www.w3.org/1999/xlink" width="12px" height="12px" viewBox="290 506  12 12" xmlns="http://www.w3.org/2000/svg">
  <path d="M 296 506  C 299.36 506  302 508.64  302 512  C 302 515.36  299.36 518  296 518  C 292.64 518  290 515.36  290 512  C 290 508.64  292.64 506  296 506  Z " fill-rule="nonzero" fill="#f0f0f0" stroke="none" />
  <path d="M 296 506.5  C 299.08 506.5  301.5 508.92  301.5 512  C 301.5 515.08  299.08 517.5  296 517.5  C 292.92 517.5  290.5 515.08  290.5 512  C 290.5 508.92  292.92 506.5  296 506.5  Z " stroke-width="1" stroke="#797979" fill="none" />
  <path d="M 296 515  C 294.32 515  293 513.68  293 512  C 293 510.32  294.32 509  296 509  C 297.68 509  299 510.32  299 512  C 299 513.68  297.68 515  296 515  " fill-rule="nonzero" fill="#797979" stroke="none" />
</svg>