<?xml version="1.0" encoding="utf-8"?>
<svg version="1.1" xmlns:xlink="http://www.w3.org/1999/xlink" width="12px" height="12px" viewBox="324 828  12 12" xmlns="http://www.w3.org/2000/svg">
  <path d="M 330 828  C 333.36 828  336 830.64  336 834  C 336 837.36  333.36 840  330 840  C 326.64 840  324 837.36  324 834  C 324 830.64  326.64 828  330 828  Z " fill-rule="nonzero" fill="#ffffff" stroke="none" />
  <path d="M 330 828.5  C 333.08 828.5  335.5 830.92  335.5 834  C 335.5 837.08  333.08 839.5  330 839.5  C 326.92 839.5  324.5 837.08  324.5 834  C 324.5 830.92  326.92 828.5  330 828.5  Z " stroke-width="1" stroke="#797979" fill="none" />
  <path d="M 330 837  C 328.32 837  327 835.68  327 834  C 327 832.32  328.32 831  330 831  C 331.68 831  333 832.32  333 834  C 333 835.68  331.68 837  330 837  " fill-rule="nonzero" fill="#797979" stroke="none" />
</svg>