<?xml version="1.0" encoding="utf-8"?>
<svg version="1.1" xmlns:xlink="http://www.w3.org/1999/xlink" width="12px" height="12px" viewBox="228 828  12 12" xmlns="http://www.w3.org/2000/svg">
  <path d="M 234 828  C 237.36 828  240 830.64  240 834  C 240 837.36  237.36 840  234 840  C 230.64 840  228 837.36  228 834  C 228 830.64  230.64 828  234 828  Z " fill-rule="nonzero" fill="#f0f0f0" stroke="none" />
  <path d="M 234 828.5  C 237.08 828.5  239.5 830.92  239.5 834  C 239.5 837.08  237.08 839.5  234 839.5  C 230.92 839.5  228.5 837.08  228.5 834  C 228.5 830.92  230.92 828.5  234 828.5  Z " stroke-width="1" stroke="#797979" fill="none" />
  <path d="M 234 837  C 232.32 837  231 835.68  231 834  C 231 832.32  232.32 831  234 831  C 235.68 831  237 832.32  237 834  C 237 835.68  235.68 837  234 837  " fill-rule="nonzero" fill="#797979" stroke="none" />
</svg>