<?xml version="1.0" encoding="utf-8"?>
<svg version="1.1" xmlns:xlink="http://www.w3.org/1999/xlink" width="12px" height="12px" viewBox="324 2468  12 12" xmlns="http://www.w3.org/2000/svg">
  <path d="M 330 2468  C 333.36 2468  336 2470.64  336 2474  C 336 2477.36  333.36 2480  330 2480  C 326.64 2480  324 2477.36  324 2474  C 324 2470.64  326.64 2468  330 2468  Z " fill-rule="nonzero" fill="#ffffff" stroke="none" />
  <path d="M 330 2468.5  C 333.08 2468.5  335.5 2470.92  335.5 2474  C 335.5 2477.08  333.08 2479.5  330 2479.5  C 326.92 2479.5  324.5 2477.08  324.5 2474  C 324.5 2470.92  326.92 2468.5  330 2468.5  Z " stroke-width="1" stroke="#797979" fill="none" />
  <path d="M 330 2477  C 328.32 2477  327 2475.68  327 2474  C 327 2472.32  328.32 2471  330 2471  C 331.68 2471  333 2472.32  333 2474  C 333 2475.68  331.68 2477  330 2477  " fill-rule="nonzero" fill="#797979" stroke="none" />
</svg>