<?xml version="1.0" encoding="utf-8"?>
<svg version="1.1" xmlns:xlink="http://www.w3.org/1999/xlink" width="12px" height="12px" viewBox="324 858  12 12" xmlns="http://www.w3.org/2000/svg">
  <path d="M 330 858  C 333.36 858  336 860.64  336 864  C 336 867.36  333.36 870  330 870  C 326.64 870  324 867.36  324 864  C 324 860.64  326.64 858  330 858  Z " fill-rule="nonzero" fill="#ffffff" stroke="none" />
  <path d="M 330 858.5  C 333.08 858.5  335.5 860.92  335.5 864  C 335.5 867.08  333.08 869.5  330 869.5  C 326.92 869.5  324.5 867.08  324.5 864  C 324.5 860.92  326.92 858.5  330 858.5  Z " stroke-width="1" stroke="#797979" fill="none" />
  <path d="M 330 867  C 328.32 867  327 865.68  327 864  C 327 862.32  328.32 861  330 861  C 331.68 861  333 862.32  333 864  C 333 865.68  331.68 867  330 867  " fill-rule="nonzero" fill="#797979" stroke="none" />
</svg>