<?xml version="1.0" encoding="utf-8"?>
<svg version="1.1" xmlns:xlink="http://www.w3.org/1999/xlink" width="12px" height="12px" viewBox="228 858  12 12" xmlns="http://www.w3.org/2000/svg">
  <path d="M 234 858  C 237.36 858  240 860.64  240 864  C 240 867.36  237.36 870  234 870  C 230.64 870  228 867.36  228 864  C 228 860.64  230.64 858  234 858  Z " fill-rule="nonzero" fill="#f0f0f0" stroke="none" />
  <path d="M 234 858.5  C 237.08 858.5  239.5 860.92  239.5 864  C 239.5 867.08  237.08 869.5  234 869.5  C 230.92 869.5  228.5 867.08  228.5 864  C 228.5 860.92  230.92 858.5  234 858.5  Z " stroke-width="1" stroke="#797979" fill="none" />
  <path d="M 234 867  C 232.32 867  231 865.68  231 864  C 231 862.32  232.32 861  234 861  C 235.68 861  237 862.32  237 864  C 237 865.68  235.68 867  234 867  " fill-rule="nonzero" fill="#797979" stroke="none" />
</svg>