<?xml version="1.0" encoding="utf-8"?>
<svg version="1.1" xmlns:xlink="http://www.w3.org/1999/xlink" width="12px" height="12px" viewBox="318 2982  12 12" xmlns="http://www.w3.org/2000/svg">
  <path d="M 324 2982  C 327.36 2982  330 2984.64  330 2988  C 330 2991.36  327.36 2994  324 2994  C 320.64 2994  318 2991.36  318 2988  C 318 2984.64  320.64 2982  324 2982  Z " fill-rule="nonzero" fill="#ffffff" stroke="none" />
  <path d="M 324 2982.5  C 327.08 2982.5  329.5 2984.92  329.5 2988  C 329.5 2991.08  327.08 2993.5  324 2993.5  C 320.92 2993.5  318.5 2991.08  318.5 2988  C 318.5 2984.92  320.92 2982.5  324 2982.5  Z " stroke-width="1" stroke="#797979" fill="none" />
  <path d="M 324 2991  C 322.32 2991  321 2989.68  321 2988  C 321 2986.32  322.32 2985  324 2985  C 325.68 2985  327 2986.32  327 2988  C 327 2989.68  325.68 2991  324 2991  " fill-rule="nonzero" fill="#797979" stroke="none" />
</svg>