<?xml version="1.0" encoding="utf-8"?>
<svg version="1.1" xmlns:xlink="http://www.w3.org/1999/xlink" width="12px" height="12px" viewBox="209 2982  12 12" xmlns="http://www.w3.org/2000/svg">
  <path d="M 215 2982  C 218.36 2982  221 2984.64  221 2988  C 221 2991.36  218.36 2994  215 2994  C 211.64 2994  209 2991.36  209 2988  C 209 2984.64  211.64 2982  215 2982  Z " fill-rule="nonzero" fill="#f0f0f0" stroke="none" />
  <path d="M 215 2982.5  C 218.08 2982.5  220.5 2984.92  220.5 2988  C 220.5 2991.08  218.08 2993.5  215 2993.5  C 211.92 2993.5  209.5 2991.08  209.5 2988  C 209.5 2984.92  211.92 2982.5  215 2982.5  Z " stroke-width="1" stroke="#797979" fill="none" />
  <path d="M 215 2991  C 213.32 2991  212 2989.68  212 2988  C 212 2986.32  213.32 2985  215 2985  C 216.68 2985  218 2986.32  218 2988  C 218 2989.68  216.68 2991  215 2991  " fill-rule="nonzero" fill="#797979" stroke="none" />
</svg>