<?xml version="1.0" encoding="utf-8"?>
<svg version="1.1" xmlns:xlink="http://www.w3.org/1999/xlink" width="12px" height="12px" viewBox="209 2177  12 12" xmlns="http://www.w3.org/2000/svg">
  <path d="M 215 2177  C 218.36 2177  221 2179.64  221 2183  C 221 2186.36  218.36 2189  215 2189  C 211.64 2189  209 2186.36  209 2183  C 209 2179.64  211.64 2177  215 2177  Z " fill-rule="nonzero" fill="#f0f0f0" stroke="none" />
  <path d="M 215 2177.5  C 218.08 2177.5  220.5 2179.92  220.5 2183  C 220.5 2186.08  218.08 2188.5  215 2188.5  C 211.92 2188.5  209.5 2186.08  209.5 2183  C 209.5 2179.92  211.92 2177.5  215 2177.5  Z " stroke-width="1" stroke="#797979" fill="none" />
  <path d="M 215 2186  C 213.32 2186  212 2184.68  212 2183  C 212 2181.32  213.32 2180  215 2180  C 216.68 2180  218 2181.32  218 2183  C 218 2184.68  216.68 2186  215 2186  " fill-rule="nonzero" fill="#797979" stroke="none" />
</svg>