<?xml version="1.0" encoding="utf-8"?>
<svg version="1.1" xmlns:xlink="http://www.w3.org/1999/xlink" width="12px" height="12px" viewBox="305 2177  12 12" xmlns="http://www.w3.org/2000/svg">
  <path d="M 311 2177  C 314.36 2177  317 2179.64  317 2183  C 317 2186.36  314.36 2189  311 2189  C 307.64 2189  305 2186.36  305 2183  C 305 2179.64  307.64 2177  311 2177  Z " fill-rule="nonzero" fill="#ffffff" stroke="none" />
  <path d="M 311 2177.5  C 314.08 2177.5  316.5 2179.92  316.5 2183  C 316.5 2186.08  314.08 2188.5  311 2188.5  C 307.92 2188.5  305.5 2186.08  305.5 2183  C 305.5 2179.92  307.92 2177.5  311 2177.5  Z " stroke-width="1" stroke="#797979" fill="none" />
  <path d="M 311 2186  C 309.32 2186  308 2184.68  308 2183  C 308 2181.32  309.32 2180  311 2180  C 312.68 2180  314 2181.32  314 2183  C 314 2184.68  312.68 2186  311 2186  " fill-rule="nonzero" fill="#797979" stroke="none" />
</svg>