<?xml version="1.0" encoding="utf-8"?>
<svg version="1.1" xmlns:xlink="http://www.w3.org/1999/xlink" width="12px" height="12px" viewBox="209 2984  12 12" xmlns="http://www.w3.org/2000/svg">
  <path d="M 215 2984  C 218.36 2984  221 2986.64  221 2990  C 221 2993.36  218.36 2996  215 2996  C 211.64 2996  209 2993.36  209 2990  C 209 2986.64  211.64 2984  215 2984  Z " fill-rule="nonzero" fill="#ffffff" stroke="none" />
  <path d="M 215 2984.5  C 218.08 2984.5  220.5 2986.92  220.5 2990  C 220.5 2993.08  218.08 2995.5  215 2995.5  C 211.92 2995.5  209.5 2993.08  209.5 2990  C 209.5 2986.92  211.92 2984.5  215 2984.5  Z " stroke-width="1" stroke="#797979" fill="none" />
  <path d="M 215 2993  C 213.32 2993  212 2991.68  212 2990  C 212 2988.32  213.32 2987  215 2987  C 216.68 2987  218 2988.32  218 2990  C 218 2991.68  216.68 2993  215 2993  " fill-rule="nonzero" fill="#797979" stroke="none" />
</svg>