<?xml version="1.0" encoding="utf-8"?>
<svg version="1.1" xmlns:xlink="http://www.w3.org/1999/xlink" width="12px" height="12px" viewBox="219 2551  12 12" xmlns="http://www.w3.org/2000/svg">
  <path d="M 225 2551  C 228.36 2551  231 2553.64  231 2557  C 231 2560.36  228.36 2563  225 2563  C 221.64 2563  219 2560.36  219 2557  C 219 2553.64  221.64 2551  225 2551  Z " fill-rule="nonzero" fill="#ffffff" stroke="none" />
  <path d="M 225 2551.5  C 228.08 2551.5  230.5 2553.92  230.5 2557  C 230.5 2560.08  228.08 2562.5  225 2562.5  C 221.92 2562.5  219.5 2560.08  219.5 2557  C 219.5 2553.92  221.92 2551.5  225 2551.5  Z " stroke-width="1" stroke="#797979" fill="none" />
  <path d="M 225 2560  C 223.32 2560  222 2558.68  222 2557  C 222 2555.32  223.32 2554  225 2554  C 226.68 2554  228 2555.32  228 2557  C 228 2558.68  226.68 2560  225 2560  " fill-rule="nonzero" fill="#797979" stroke="none" />
</svg>