<?xml version="1.0" encoding="utf-8"?>
<svg version="1.1" xmlns:xlink="http://www.w3.org/1999/xlink" width="12px" height="12px" viewBox="318 2984  12 12" xmlns="http://www.w3.org/2000/svg">
  <path d="M 324 2984  C 327.36 2984  330 2986.64  330 2990  C 330 2993.36  327.36 2996  324 2996  C 320.64 2996  318 2993.36  318 2990  C 318 2986.64  320.64 2984  324 2984  Z " fill-rule="nonzero" fill="#ffffff" stroke="none" />
  <path d="M 324 2984.5  C 327.08 2984.5  329.5 2986.92  329.5 2990  C 329.5 2993.08  327.08 2995.5  324 2995.5  C 320.92 2995.5  318.5 2993.08  318.5 2990  C 318.5 2986.92  320.92 2984.5  324 2984.5  Z " stroke-width="1" stroke="#797979" fill="none" />
  <path d="M 324 2993  C 322.32 2993  321 2991.68  321 2990  C 321 2988.32  322.32 2987  324 2987  C 325.68 2987  327 2988.32  327 2990  C 327 2991.68  325.68 2993  324 2993  " fill-rule="nonzero" fill="#797979" stroke="none" />
</svg>