<?xml version="1.0" encoding="utf-8"?>
<svg version="1.1" xmlns:xlink="http://www.w3.org/1999/xlink" width="12px" height="12px" viewBox="238 2842  12 12" xmlns="http://www.w3.org/2000/svg">
  <path d="M 244 2842  C 247.36 2842  250 2844.64  250 2848  C 250 2851.36  247.36 2854  244 2854  C 240.64 2854  238 2851.36  238 2848  C 238 2844.64  240.64 2842  244 2842  Z " fill-rule="nonzero" fill="#f0f0f0" stroke="none" />
  <path d="M 244 2842.5  C 247.08 2842.5  249.5 2844.92  249.5 2848  C 249.5 2851.08  247.08 2853.5  244 2853.5  C 240.92 2853.5  238.5 2851.08  238.5 2848  C 238.5 2844.92  240.92 2842.5  244 2842.5  Z " stroke-width="1" stroke="#797979" fill="none" />
  <path d="M 244 2851  C 242.32 2851  241 2849.68  241 2848  C 241 2846.32  242.32 2845  244 2845  C 245.68 2845  247 2846.32  247 2848  C 247 2849.68  245.68 2851  244 2851  " fill-rule="nonzero" fill="#797979" stroke="none" />
</svg>