<?xml version="1.0" encoding="utf-8"?>
<svg version="1.1" xmlns:xlink="http://www.w3.org/1999/xlink" width="17px" height="17px" xmlns="http://www.w3.org/2000/svg">
  <g transform="matrix(1 0 0 1 -356 -2453 )">
    <path d="M 17 8.5  C 17 7.888  16.507 7.395  15.895 7.395  L 9.605 7.395  L 9.605 1.105  C 9.605 0.493  9.112 0  8.5 0  C 7.888 0  7.395 0.493  7.395 1.105  L 7.395 7.395  L 1.105 7.395  C 0.493 7.395  0 7.888  0 8.5  C 0 9.112  0.493 9.605  1.105 9.605  L 7.395 9.605  L 7.395 15.895  C 7.395 16.507  7.888 17  8.5 17  C 9.112 17  9.605 16.507  9.605 15.895  L 9.605 9.605  L 15.895 9.605  C 16.507 9.605  17 9.112  17 8.5  Z " fill-rule="nonzero" fill="#6468ef" stroke="none" transform="matrix(1 0 0 1 356 2453 )" />
  </g>
</svg>