<?xml version="1.0" encoding="utf-8"?>
<svg version="1.1" xmlns:xlink="http://www.w3.org/1999/xlink" width="12px" height="12px" viewBox="228 473.5  12 12" xmlns="http://www.w3.org/2000/svg">
  <path d="M 234 473.5  C 237.36 473.5  240 476.14  240 479.5  C 240 482.86  237.36 485.5  234 485.5  C 230.64 485.5  228 482.86  228 479.5  C 228 476.14  230.64 473.5  234 473.5  Z " fill-rule="nonzero" fill="#ffffff" stroke="none" />
  <path d="M 234 474  C 237.08 474  239.5 476.42  239.5 479.5  C 239.5 482.58  237.08 485  234 485  C 230.92 485  228.5 482.58  228.5 479.5  C 228.5 476.42  230.92 474  234 474  Z " stroke-width="1" stroke="#797979" fill="none" />
  <path d="M 234 482.5  C 232.32 482.5  231 481.18  231 479.5  C 231 477.82  232.32 476.5  234 476.5  C 235.68 476.5  237 477.82  237 479.5  C 237 481.18  235.68 482.5  234 482.5  " fill-rule="nonzero" fill="#797979" stroke="none" />
</svg>