<?xml version="1.0" encoding="utf-8"?>
<svg version="1.1" xmlns:xlink="http://www.w3.org/1999/xlink" width="12px" height="12px" xmlns="http://www.w3.org/2000/svg">
  <g transform="matrix(1 0 0 1 -202 -474 )">
    <path d="M 6 0.041379310344837  C 2.7091446630772 0.041379310344837  0.041379310344837 2.7091446630772  0.041379310344837 6  C 0.041379310344837 9.2908553369228  2.7091446630772 11.9586206896552  6 11.9586206896552  C 9.2908553369228 11.9586206896552  11.9586206896552 9.2908553369228  11.9586206896552 6  C 11.9586206896552 2.7091446630772  9.2908553369228 0.041379310344837  6 0.041379310344837  Z M 6 11.1072  C 3.17937132566418 11.1072  0.8928 8.82062867433585  0.8928 6  C 0.8928 3.17937132566415  3.17937132566418 0.892800000000034  6 0.892800000000034  C 8.82062867433582 0.892800000000034  11.1072 3.17937132566415  11.1072 6  C 11.1072 8.82062867433585  8.82062867433582 11.1072  6 11.1072  Z M 6.21318160104968 3.00535674660498  C 6.14184560295125 3.00535674660498  6.07060174203928 3.01048090178522  6 3.02068965517242  C 5.95155086041749 3.01613693171564  5.90291500687329 3.01385681970996  5.85425242969986 3.01385681970996  C 4.99387658439106 3.01385681970996  4.29640415383778 3.7113292502632  4.29640415383778 4.57170509557204  C 4.29640415383778 4.59385232849088  4.29687643980482 4.61599704326902  4.29782068965518 4.63812413793105  L 5.07244137931035 4.63812413793105  C 5.07127551513976 4.61996439690649  5.07069213359492 4.60177194670077  5.07069213359492 4.5835748196379  C 5.07069213359492 4.11334815705095  5.4518861606631 3.73215412998277  5.92211282325009 3.73215412998277  C 5.9481161095796 3.73215412998277  5.97410574548052 3.7333453813621  6 3.73572413793104  C 6.45947586206897 3.73572413793104  6.85142068965516 3.96546206896551  6.85142068965516 4.50173793103447  C 6.85142068965516 4.90162758620693  6.61307586206896 5.08899310344825  6.22973793103447 5.35315862068967  C 5.77307741230015 5.61472844684297  5.48596486092229 6.09559177589888  5.47233103448277 6.62168275862066  L 5.47233103448277 6.91961379310342  L 6.24695172413794 6.91961379310342  L 6.24695172413794 6.68921379310348  C 6.24695172413794 6.22973793103447  6.41710344827586 6.09335172413796  6.88518620689654 5.73583448275865  C 7.36497832398625 5.48141152580724  7.67537837120543 4.99317287779072  7.70217931034482 4.45075862068966  C 7.67825079582759 3.64563211829834  7.01866360498265 3.00535674660498  6.21318160104968 3.00535674660498  Z M 5.35315862068967 8.1914482758621  C 5.35875731456864 8.51653372690007  5.62388703121646 8.77713663712655  5.94902068965519 8.77713663712655  C 6.27815502392628 8.77713663712655  6.54497111988518 8.51032054116765  6.54497111988518 8.18118620689652  C 6.54497111988518 8.17776532703567  6.54494166503853 8.17434451057982  6.5448827586207 8.170924137931  C 6.54494172750311 8.1675270163365  6.54497121360984 8.16412944694973  6.54497121360984 8.16073181358847  C 6.54497121360984 7.83639973760514  6.28204811717942 7.57347664117469  5.95771604119602 7.57347664117469  C 5.9433271597121 7.57347664117469  5.9289431389013 7.57400547403092  5.91459310344827 7.57506206896549  C 5.59066306589227 7.59358418542308  5.34109318608741 7.86787560992559  5.35315862068967 8.19211034482758  Z " fill-rule="nonzero" fill="#555555" stroke="none" transform="matrix(1 0 0 1 202 474 )" />
  </g>
</svg>