<?xml version="1.0" encoding="utf-8"?>
<svg version="1.1" xmlns:xlink="http://www.w3.org/1999/xlink" width="12px" height="12px" viewBox="337 510.5  12 12" xmlns="http://www.w3.org/2000/svg">
  <path d="M 343 510.5  C 346.36 510.5  349 513.14  349 516.5  C 349 519.86  346.36 522.5  343 522.5  C 339.64 522.5  337 519.86  337 516.5  C 337 513.14  339.64 510.5  343 510.5  Z " fill-rule="nonzero" fill="#f0f0f0" stroke="none" />
  <path d="M 343 511  C 346.08 511  348.5 513.42  348.5 516.5  C 348.5 519.58  346.08 522  343 522  C 339.92 522  337.5 519.58  337.5 516.5  C 337.5 513.42  339.92 511  343 511  Z " stroke-width="1" stroke="#797979" fill="none" />
  <path d="M 343 519.5  C 341.32 519.5  340 518.18  340 516.5  C 340 514.82  341.32 513.5  343 513.5  C 344.68 513.5  346 514.82  346 516.5  C 346 518.18  344.68 519.5  343 519.5  " fill-rule="nonzero" fill="#797979" stroke="none" />
</svg>