<?xml version="1.0" encoding="utf-8"?>
<svg version="1.1" xmlns:xlink="http://www.w3.org/1999/xlink" width="207px" height="89px" xmlns="http://www.w3.org/2000/svg">
  <g transform="matrix(1 0 0 1 -231 -545 )">
    <path d="M 232 548  A 2 2 0 0 1 234 546 L 435 546  A 2 2 0 0 1 437 548 L 437 631  A 2 2 0 0 1 435 633 L 234 633  A 2 2 0 0 1 232 631 L 232 548  Z " fill-rule="nonzero" fill="#ffffff" stroke="none" />
    <path d="M 231.5 548  A 2.5 2.5 0 0 1 234 545.5 L 435 545.5  A 2.5 2.5 0 0 1 437.5 548 L 437.5 631  A 2.5 2.5 0 0 1 435 633.5 L 234 633.5  A 2.5 2.5 0 0 1 231.5 631 L 231.5 548  Z " stroke-width="1" stroke-dasharray="3,1" stroke="#e4e4e4" fill="none" stroke-dashoffset="0.5" />
  </g>
</svg>