<?xml version="1.0" encoding="utf-8"?>
<svg version="1.1" xmlns:xlink="http://www.w3.org/1999/xlink" width="12px" height="12px" viewBox="324 826.5  12 12" xmlns="http://www.w3.org/2000/svg">
  <path d="M 330 826.5  C 333.36 826.5  336 829.14  336 832.5  C 336 835.86  333.36 838.5  330 838.5  C 326.64 838.5  324 835.86  324 832.5  C 324 829.14  326.64 826.5  330 826.5  Z " fill-rule="nonzero" fill="#f0f0f0" stroke="none" />
  <path d="M 330 827  C 333.08 827  335.5 829.42  335.5 832.5  C 335.5 835.58  333.08 838  330 838  C 326.92 838  324.5 835.58  324.5 832.5  C 324.5 829.42  326.92 827  330 827  Z " stroke-width="1" stroke="#797979" fill="none" />
  <path d="M 330 835.5  C 328.32 835.5  327 834.18  327 832.5  C 327 830.82  328.32 829.5  330 829.5  C 331.68 829.5  333 830.82  333 832.5  C 333 834.18  331.68 835.5  330 835.5  " fill-rule="nonzero" fill="#797979" stroke="none" />
</svg>