<?xml version="1.0" encoding="utf-8"?>
<svg version="1.1" xmlns:xlink="http://www.w3.org/1999/xlink" width="18px" height="18px" xmlns="http://www.w3.org/2000/svg">
  <g transform="matrix(1 0 0 1 -214 -370 )">
    <path d="M 11.7335266601562 10.7158366601562  L 10.0008214257812 8.98257181640625  L 11.7359849804687 7.24682865234375  C 12.0095594921875 6.97315419921875  12.0089599023437 6.529375078125  11.7359849804687 6.25568064453125  C 11.46241046875 5.98200619140625  11.0199904296875 5.98138662109375  10.7451767578125 6.25568064453125  L 9.01003318359375 7.99142380859375  L 7.2779475390625 6.25815896484375  C 7.00437302734375 5.98446453125  6.55947466796875 5.9851041015625  6.2865197265625 6.25815896484375  C 6.01292521484375 6.53183341796875  6.012325625 6.9756125390625  6.2865197265625 7.2499065625  L 8.0192049609375 8.98317140625  L 6.28404140625 10.7189145703125  C 6.011066484375 10.9919694335938  6.0098473046875 11.4370076953125  6.28344181640625 11.7106621679687  C 6.5563967578125 11.98371703125  7.000655546875 11.9843566015625  7.27486962890625 11.710062578125  L 9.0087940234375 9.97553859375  L 10.7414992578125 11.7088234179687  C 11.013854609375 11.9812587109375  11.4587129882813 11.9831174414062  11.733546640625 11.7082038476563  C 12.0064816015625 11.4339298046875  12.0071011914062 10.9901306835937  11.7335266601562 10.7158366601562  Z M 15.1982775585938 2.78297513671875  C 11.7859111523438 -0.63057048828125  6.23105732421875 -0.6317896484375  2.81743177734375 2.78297513671875  C -0.5961937890625 6.197739921875  -0.594974609375 11.7544524804687  2.81743177734375 15.1679980859375  C 6.23105734375 18.5827628710937  11.7846520117187 18.58400203125  15.1988971484375 15.1685976757812  C 18.6125227148437 11.7538129101563  18.6125227148437 6.19835951171875  15.1982775585938 2.78297513671875  Z M 3.591966640625 14.3938030078125  C 0.6047319921875 11.4055690234375  0.6053515625 6.5453642578125  3.5913470703125 3.55774984375  C 6.57920130859375 0.568916269531251  11.4371476171875 0.569515859375001  14.424382265625 3.55715025390625  C 17.4116169140625 6.54536423828125  17.4122165234375 11.4055490429688  14.424382265625 14.394422578125  C 11.4389863671875 17.3820369726563  6.57858171875 17.3820369726563  3.591966640625 14.3938030078125  Z " fill-rule="nonzero" fill="#6468ef" stroke="none" transform="matrix(1 0 0 1 214 370 )" />
  </g>
</svg>