<?xml version="1.0" encoding="utf-8"?>
<svg version="1.1" xmlns:xlink="http://www.w3.org/1999/xlink" width="12px" height="12px" viewBox="318 2982.5  12 12" xmlns="http://www.w3.org/2000/svg">
  <path d="M 324 2982.5  C 327.36 2982.5  330 2985.14  330 2988.5  C 330 2991.86  327.36 2994.5  324 2994.5  C 320.64 2994.5  318 2991.86  318 2988.5  C 318 2985.14  320.64 2982.5  324 2982.5  Z " fill-rule="nonzero" fill="#f0f0f0" stroke="none" />
  <path d="M 324 2983  C 327.08 2983  329.5 2985.42  329.5 2988.5  C 329.5 2991.58  327.08 2994  324 2994  C 320.92 2994  318.5 2991.58  318.5 2988.5  C 318.5 2985.42  320.92 2983  324 2983  Z " stroke-width="1" stroke="#797979" fill="none" />
  <path d="M 324 2991.5  C 322.32 2991.5  321 2990.18  321 2988.5  C 321 2986.82  322.32 2985.5  324 2985.5  C 325.68 2985.5  327 2986.82  327 2988.5  C 327 2990.18  325.68 2991.5  324 2991.5  " fill-rule="nonzero" fill="#797979" stroke="none" />
</svg>