<?xml version="1.0" encoding="utf-8"?>
<svg version="1.1" xmlns:xlink="http://www.w3.org/1999/xlink" width="12px" height="12px" viewBox="744 529  12 12" xmlns="http://www.w3.org/2000/svg">
  <path d="M 750 529  C 753.36 529  756 531.64  756 535  C 756 538.36  753.36 541  750 541  C 746.64 541  744 538.36  744 535  C 744 531.64  746.64 529  750 529  Z " fill-rule="nonzero" fill="#f0f0f0" stroke="none" />
  <path d="M 750 529.5  C 753.08 529.5  755.5 531.92  755.5 535  C 755.5 538.08  753.08 540.5  750 540.5  C 746.92 540.5  744.5 538.08  744.5 535  C 744.5 531.92  746.92 529.5  750 529.5  Z " stroke-width="1" stroke="#797979" fill="none" />
  <path d="M 750 538  C 748.32 538  747 536.68  747 535  C 747 533.32  748.32 532  750 532  C 751.68 532  753 533.32  753 535  C 753 536.68  751.68 538  750 538  " fill-rule="nonzero" fill="#797979" stroke="none" />
</svg>