<?xml version="1.0" encoding="utf-8"?>
<svg version="1.1" xmlns:xlink="http://www.w3.org/1999/xlink" width="12px" height="12px" viewBox="677 374  12 12" xmlns="http://www.w3.org/2000/svg">
  <path d="M 683 374  C 686.36 374  689 376.64  689 380  C 689 383.36  686.36 386  683 386  C 679.64 386  677 383.36  677 380  C 677 376.64  679.64 374  683 374  Z " fill-rule="nonzero" fill="#ffffff" stroke="none" />
  <path d="M 683 374.5  C 686.08 374.5  688.5 376.92  688.5 380  C 688.5 383.08  686.08 385.5  683 385.5  C 679.92 385.5  677.5 383.08  677.5 380  C 677.5 376.92  679.92 374.5  683 374.5  Z " stroke-width="1" stroke="#797979" fill="none" />
  <path d="M 683 383  C 681.32 383  680 381.68  680 380  C 680 378.32  681.32 377  683 377  C 684.68 377  686 378.32  686 380  C 686 381.68  684.68 383  683 383  " fill-rule="nonzero" fill="#797979" stroke="none" />
</svg>