<?xml version="1.0" encoding="utf-8"?>
<svg version="1.1" xmlns:xlink="http://www.w3.org/1999/xlink" width="12px" height="12px" viewBox="677 421  12 12" xmlns="http://www.w3.org/2000/svg">
  <path d="M 683 421  C 686.36 421  689 423.64  689 427  C 689 430.36  686.36 433  683 433  C 679.64 433  677 430.36  677 427  C 677 423.64  679.64 421  683 421  Z " fill-rule="nonzero" fill="#ffffff" stroke="none" />
  <path d="M 683 421.5  C 686.08 421.5  688.5 423.92  688.5 427  C 688.5 430.08  686.08 432.5  683 432.5  C 679.92 432.5  677.5 430.08  677.5 427  C 677.5 423.92  679.92 421.5  683 421.5  Z " stroke-width="1" stroke="#797979" fill="none" />
  <path d="M 683 430  C 681.32 430  680 428.68  680 427  C 680 425.32  681.32 424  683 424  C 684.68 424  686 425.32  686 427  C 686 428.68  684.68 430  683 430  " fill-rule="nonzero" fill="#797979" stroke="none" />
</svg>