<?xml version="1.0" encoding="utf-8"?>
<svg version="1.1" xmlns:xlink="http://www.w3.org/1999/xlink" width="12px" height="12px" viewBox="205 772  12 12" xmlns="http://www.w3.org/2000/svg">
  <path d="M 211 772  C 214.36 772  217 774.64  217 778  C 217 781.36  214.36 784  211 784  C 207.64 784  205 781.36  205 778  C 205 774.64  207.64 772  211 772  Z " fill-rule="nonzero" fill="#ffffff" stroke="none" />
  <path d="M 211 772.5  C 214.08 772.5  216.5 774.92  216.5 778  C 216.5 781.08  214.08 783.5  211 783.5  C 207.92 783.5  205.5 781.08  205.5 778  C 205.5 774.92  207.92 772.5  211 772.5  Z " stroke-width="1" stroke="#797979" fill="none" />
  <path d="M 211 781  C 209.32 781  208 779.68  208 778  C 208 776.32  209.32 775  211 775  C 212.68 775  214 776.32  214 778  C 214 779.68  212.68 781  211 781  " fill-rule="nonzero" fill="#797979" stroke="none" />
</svg>