<?xml version="1.0" encoding="utf-8"?>
<svg version="1.1" xmlns:xlink="http://www.w3.org/1999/xlink" width="12px" height="12px" viewBox="305 772  12 12" xmlns="http://www.w3.org/2000/svg">
  <path d="M 311 772  C 314.36 772  317 774.64  317 778  C 317 781.36  314.36 784  311 784  C 307.64 784  305 781.36  305 778  C 305 774.64  307.64 772  311 772  Z " fill-rule="nonzero" fill="#f0f0f0" stroke="none" />
  <path d="M 311 772.5  C 314.08 772.5  316.5 774.92  316.5 778  C 316.5 781.08  314.08 783.5  311 783.5  C 307.92 783.5  305.5 781.08  305.5 778  C 305.5 774.92  307.92 772.5  311 772.5  Z " stroke-width="1" stroke="#797979" fill="none" />
  <path d="M 311 781  C 309.32 781  308 779.68  308 778  C 308 776.32  309.32 775  311 775  C 312.68 775  314 776.32  314 778  C 314 779.68  312.68 781  311 781  " fill-rule="nonzero" fill="#797979" stroke="none" />
</svg>