<?xml version="1.0" encoding="utf-8"?>
<svg version="1.1" xmlns:xlink="http://www.w3.org/1999/xlink" width="12px" height="12px" viewBox="212 221  12 12" xmlns="http://www.w3.org/2000/svg">
  <path d="M 218 221  C 221.36 221  224 223.64  224 227  C 224 230.36  221.36 233  218 233  C 214.64 233  212 230.36  212 227  C 212 223.64  214.64 221  218 221  Z " fill-rule="nonzero" fill="#ffffff" stroke="none" />
  <path d="M 218 221.5  C 221.08 221.5  223.5 223.92  223.5 227  C 223.5 230.08  221.08 232.5  218 232.5  C 214.92 232.5  212.5 230.08  212.5 227  C 212.5 223.92  214.92 221.5  218 221.5  Z " stroke-width="1" stroke="#797979" fill="none" />
  <path d="M 218 230  C 216.32 230  215 228.68  215 227  C 215 225.32  216.32 224  218 224  C 219.68 224  221 225.32  221 227  C 221 228.68  219.68 230  218 230  " fill-rule="nonzero" fill="#797979" stroke="none" />
</svg>