<?xml version="1.0" encoding="utf-8"?>
<svg version="1.1" xmlns:xlink="http://www.w3.org/1999/xlink" width="12px" height="12px" viewBox="268 1226  12 12" xmlns="http://www.w3.org/2000/svg">
  <path d="M 274 1226  C 277.36 1226  280 1228.64  280 1232  C 280 1235.36  277.36 1238  274 1238  C 270.64 1238  268 1235.36  268 1232  C 268 1228.64  270.64 1226  274 1226  Z " fill-rule="nonzero" fill="#ffffff" stroke="none" />
  <path d="M 274 1226.5  C 277.08 1226.5  279.5 1228.92  279.5 1232  C 279.5 1235.08  277.08 1237.5  274 1237.5  C 270.92 1237.5  268.5 1235.08  268.5 1232  C 268.5 1228.92  270.92 1226.5  274 1226.5  Z " stroke-width="1" stroke="#797979" fill="none" />
  <path d="M 274 1235  C 272.32 1235  271 1233.68  271 1232  C 271 1230.32  272.32 1229  274 1229  C 275.68 1229  277 1230.32  277 1232  C 277 1233.68  275.68 1235  274 1235  " fill-rule="nonzero" fill="#797979" stroke="none" />
</svg>