<?xml version="1.0" encoding="utf-8"?>
<svg version="1.1" xmlns:xlink="http://www.w3.org/1999/xlink" width="12px" height="12px" viewBox="312 221  12 12" xmlns="http://www.w3.org/2000/svg">
  <path d="M 318 221  C 321.36 221  324 223.64  324 227  C 324 230.36  321.36 233  318 233  C 314.64 233  312 230.36  312 227  C 312 223.64  314.64 221  318 221  Z " fill-rule="nonzero" fill="#f0f0f0" stroke="none" />
  <path d="M 318 221.5  C 321.08 221.5  323.5 223.92  323.5 227  C 323.5 230.08  321.08 232.5  318 232.5  C 314.92 232.5  312.5 230.08  312.5 227  C 312.5 223.92  314.92 221.5  318 221.5  Z " stroke-width="1" stroke="#797979" fill="none" />
  <path d="M 318 230  C 316.32 230  315 228.68  315 227  C 315 225.32  316.32 224  318 224  C 319.68 224  321 225.32  321 227  C 321 228.68  319.68 230  318 230  " fill-rule="nonzero" fill="#797979" stroke="none" />
</svg>