<?xml version="1.0" encoding="utf-8"?>
<svg version="1.1" xmlns:xlink="http://www.w3.org/1999/xlink" width="10px" height="8px" preserveAspectRatio="xMinYMid meet" viewBox="1863 758  10 6" xmlns="http://www.w3.org/2000/svg">
  <path d="M 1868.66512916106 758.481584090388  A 3 3 0 0 0 1871.5 760.5 L 2116 760.5  A 5 5 0 0 0 2121.5 755.5 L 2121.5 707  A 5 5 0 0 1 2126.5 702.5 L 2131 702.5  " stroke-width="1" stroke="#ff3399" fill="none" />
  <path d="M 1869.8790930824 757.024412954424  A 3 3 0 0 0 1866.8790930824 760.024412954424 A 3 3 0 0 0 1869.8790930824 763.024412954424 A 3 3 0 0 0 1872.8790930824 760.024412954424 A 3 3 0 0 0 1869.8790930824 757.024412954424 Z " fill-rule="nonzero" fill="#ff3399" stroke="none" />
</svg>