<?xml version="1.0" encoding="utf-8"?>
<svg version="1.1" xmlns:xlink="http://www.w3.org/1999/xlink" width="12px" height="12px" viewBox="266 1249  12 12" xmlns="http://www.w3.org/2000/svg">
  <path d="M 272 1249  C 275.36 1249  278 1251.64  278 1255  C 278 1258.36  275.36 1261  272 1261  C 268.64 1261  266 1258.36  266 1255  C 266 1251.64  268.64 1249  272 1249  Z " fill-rule="nonzero" fill="#f0f0f0" stroke="none" />
  <path d="M 272 1249.5  C 275.08 1249.5  277.5 1251.92  277.5 1255  C 277.5 1258.08  275.08 1260.5  272 1260.5  C 268.92 1260.5  266.5 1258.08  266.5 1255  C 266.5 1251.92  268.92 1249.5  272 1249.5  Z " stroke-width="1" stroke="#797979" fill="none" />
  <path d="M 272 1258  C 270.32 1258  269 1256.68  269 1255  C 269 1253.32  270.32 1252  272 1252  C 273.68 1252  275 1253.32  275 1255  C 275 1256.68  273.68 1258  272 1258  " fill-rule="nonzero" fill="#797979" stroke="none" />
</svg>