<?xml version="1.0" encoding="utf-8"?>
<svg version="1.1" xmlns:xlink="http://www.w3.org/1999/xlink" width="20px" height="20px" xmlns="http://www.w3.org/2000/svg">
  <g transform="matrix(1 0 0 1 -627 -836 )">
    <path d="M 10 0.068965517241395  C 4.51524110512867 0.068965517241395  0.068965517241395 4.51524110512867  0.068965517241395 10  C 0.068965517241395 15.4847588948713  4.51524110512867 19.9310344827586  10 19.9310344827586  C 15.4847588948713 19.9310344827586  19.9310344827586 15.4847588948713  19.9310344827586 10  C 19.9310344827586 4.51524110512867  15.4847588948713 0.068965517241395  10 0.068965517241395  Z M 10 18.5120000000001  C 5.2989522094403 18.5120000000001  1.488 14.7010477905598  1.488 10  C 1.488 5.29895220944024  5.2989522094403 1.48800000000006  10 1.48800000000006  C 14.7010477905597 1.48800000000006  18.512 5.29895220944024  18.512 10  C 18.512 14.7010477905598  14.7010477905597 18.5120000000001  10 18.5120000000001  Z M 10.3553026684161 5.0089279110083  C 10.2364093382521 5.0089279110083  10.1176695700655 5.01746816964203  10 5.0344827586207  C 9.91925143402915 5.02689488619274  9.83819167812214 5.02309469951661  9.75708738283311 5.02309469951661  C 8.32312764065176 5.02309469951661  7.16067358972964 6.18554875043867  7.16067358972964 7.61950849262007  C 7.16067358972964 7.6564205474848  7.16146073300803 7.69332840544837  7.16303448275863 7.73020689655175  L 8.45406896551725 7.73020689655175  C 8.45212585856626 7.69994066151082  8.45115355599154 7.66961991116796  8.45115355599154 7.63929136606316  C 8.45115355599154 6.85558026175158  9.08647693443851 6.22025688330461  9.87018803875014 6.22025688330461  C 9.91352684929933 6.22025688330461  9.9568429091342 6.22224230227016  10 6.22620689655173  C 10.7657931034483 6.22620689655173  11.4190344827586 6.60910344827585  11.4190344827586 7.50289655172412  C 11.4190344827586 8.16937931034488  11.0217931034483 8.48165517241375  10.3828965517241 8.92193103448278  C 9.62179568716692 9.35788074473828  9.14327476820381 10.1593196264981  9.12055172413795 11.0361379310344  L 9.12055172413795 11.5326896551724  L 10.4115862068966 11.5326896551724  L 10.4115862068966 11.1486896551725  C 10.4115862068966 10.3828965517241  10.6951724137931 10.1555862068966  11.4753103448276 9.55972413793108  C 12.2749638733104 9.13568587634541  12.7922972853424 8.32195479631787  12.8369655172414 7.41793103448276  C 12.7970846597127 6.07605353049723  11.6977726749711 5.0089279110083  10.3553026684161 5.0089279110083  Z M 8.92193103448278 13.6535172413793  L 8.92193103448278 13.6524137931035  C 8.93126219094773 14.1942228781668  9.37314505202744 14.6285610618776  9.91503448275864 14.6285610618776  C 10.4635917065438 14.6285610618776  10.9082851998086 14.1838675686128  10.9082851998086 13.6353103448275  C 10.9082851998086 13.6296088783928  10.9082361083975 13.623907517633  10.9081379310345 13.6182068965517  C 10.9082362125052 13.6125450272275  10.9082853560164 13.6068824115829  10.9082853560164 13.6012196893141  C 10.9082853560164 13.0606662293419  10.470080195299 12.6224610686245  9.9295267353267 12.6224610686245  C 9.90554526618683 12.6224610686245  9.88157189816883 12.6233424567182  9.85765517241379 12.6251034482758  C 9.31777177648712 12.6559736423718  8.90182197681236 13.1131260165427  8.92193103448278 13.6535172413793  Z " fill-rule="nonzero" fill="#000000" stroke="none" transform="matrix(1 0 0 1 627 836 )" />
  </g>
</svg>