<?xml version="1.0" encoding="utf-8"?>
<svg version="1.1" xmlns:xlink="http://www.w3.org/1999/xlink" width="12px" height="12px" viewBox="202 1248  12 12" xmlns="http://www.w3.org/2000/svg">
  <path d="M 208 1248  C 211.36 1248  214 1250.64  214 1254  C 214 1257.36  211.36 1260  208 1260  C 204.64 1260  202 1257.36  202 1254  C 202 1250.64  204.64 1248  208 1248  Z " fill-rule="nonzero" fill="#f0f0f0" stroke="none" />
  <path d="M 208 1248.5  C 211.08 1248.5  213.5 1250.92  213.5 1254  C 213.5 1257.08  211.08 1259.5  208 1259.5  C 204.92 1259.5  202.5 1257.08  202.5 1254  C 202.5 1250.92  204.92 1248.5  208 1248.5  Z " stroke-width="1" stroke="#797979" fill="none" />
  <path d="M 208 1257  C 206.32 1257  205 1255.68  205 1254  C 205 1252.32  206.32 1251  208 1251  C 209.68 1251  211 1252.32  211 1254  C 211 1255.68  209.68 1257  208 1257  " fill-rule="nonzero" fill="#797979" stroke="none" />
</svg>