<?xml version="1.0" encoding="utf-8"?>
<svg version="1.1" xmlns:xlink="http://www.w3.org/1999/xlink" width="9px" height="10px" xmlns="http://www.w3.org/2000/svg">
  <g transform="matrix(1 0 0 1 -622 -246 )">
    <path d="M 8.888671875 8.1484375  C 8.962890625 8.24739583333333  9 8.36458333333333  9 8.5  L 9 9.5  C 9 9.63541666666667  8.962890625 9.75260416666667  8.888671875 9.8515625  C 8.814453125 9.95052083333333  8.7265625 10  8.625 10  L 0.375 10  C 0.2734375 10  0.185546875 9.95052083333333  0.111328125 9.8515625  C 0.037109375 9.75260416666667  0 9.63541666666667  0 9.5  L 0 8.5  C 0 8.36458333333333  0.037109375 8.24739583333333  0.111328125 8.1484375  C 0.185546875 8.04947916666667  0.2734375 8  0.375 8  L 8.625 8  C 8.7265625 8  8.814453125 8.04947916666667  8.888671875 8.1484375  Z M 8.888671875 4.1484375  C 8.962890625 4.24739583333333  9 4.36458333333333  9 4.5  L 9 5.5  C 9 5.63541666666667  8.962890625 5.75260416666667  8.888671875 5.8515625  C 8.814453125 5.95052083333333  8.7265625 6  8.625 6  L 0.375 6  C 0.2734375 6  0.185546875 5.95052083333333  0.111328125 5.8515625  C 0.037109375 5.75260416666667  0 5.63541666666667  0 5.5  L 0 4.5  C 0 4.36458333333333  0.037109375 4.24739583333333  0.111328125 4.1484375  C 0.185546875 4.04947916666667  0.2734375 4  0.375 4  L 8.625 4  C 8.7265625 4  8.814453125 4.04947916666667  8.888671875 4.1484375  Z M 8.888671875 0.1484375  C 8.962890625 0.247395833333333  9 0.364583333333333  9 0.5  L 9 1.5  C 9 1.63541666666667  8.962890625 1.75260416666667  8.888671875 1.8515625  C 8.814453125 1.95052083333333  8.7265625 2  8.625 2  L 0.375 2  C 0.2734375 2  0.185546875 1.95052083333333  0.111328125 1.8515625  C 0.037109375 1.75260416666667  0 1.63541666666667  0 1.5  L 0 0.5  C 0 0.364583333333333  0.037109375 0.247395833333333  0.111328125 0.1484375  C 0.185546875 0.0494791666666661  0.2734375 0  0.375 0  L 8.625 0  C 8.7265625 0  8.814453125 0.0494791666666661  8.888671875 0.1484375  Z " fill-rule="nonzero" fill="#000000" stroke="none" transform="matrix(1 0 0 1 622 246 )" />
  </g>
</svg>