<?xml version="1.0" encoding="utf-8"?>
<svg version="1.1" xmlns:xlink="http://www.w3.org/1999/xlink" width="13px" height="13px" xmlns="http://www.w3.org/2000/svg">
  <g transform="matrix(1 0 0 1 -345 -239 )">
    <path d="M 12.7414772727273 4.98579545454546  C 12.9138257575758 5.15814393939394  13 5.36742424242424  13 5.61363636363636  L 13 7.38636363636364  C 13 7.63257575757576  12.9138257575758 7.84185606060606  12.7414772727273 8.01420454545454  C 12.5691287878788 8.18655303030303  12.3598484848485 8.27272727272727  12.1136363636364 8.27272727272727  L 8.27272727272727 8.27272727272727  L 8.27272727272727 12.1136363636364  C 8.27272727272727 12.3598484848485  8.18655303030303 12.5691287878788  8.01420454545454 12.7414772727273  C 7.84185606060606 12.9138257575758  7.63257575757576 13  7.38636363636364 13  L 5.61363636363636 13  C 5.36742424242424 13  5.15814393939394 12.9138257575758  4.98579545454546 12.7414772727273  C 4.81344696969697 12.5691287878788  4.72727272727273 12.3598484848485  4.72727272727273 12.1136363636364  L 4.72727272727273 8.27272727272727  L 0.886363636363636 8.27272727272727  C 0.640151515151515 8.27272727272727  0.430871212121212 8.18655303030303  0.258522727272727 8.01420454545454  C 0.0861742424242424 7.84185606060606  0 7.63257575757576  0 7.38636363636364  L 0 5.61363636363636  C 0 5.36742424242424  0.0861742424242424 5.15814393939394  0.258522727272727 4.98579545454546  C 0.430871212121212 4.81344696969697  0.640151515151515 4.72727272727273  0.886363636363636 4.72727272727273  L 4.72727272727273 4.72727272727273  L 4.72727272727273 0.886363636363637  C 4.72727272727273 0.640151515151515  4.81344696969697 0.430871212121211  4.98579545454546 0.258522727272727  C 5.15814393939394 0.086174242424242  5.36742424242424 0  5.61363636363636 0  L 7.38636363636364 0  C 7.63257575757576 0  7.84185606060606 0.086174242424242  8.01420454545454 0.258522727272727  C 8.18655303030303 0.430871212121211  8.27272727272727 0.640151515151515  8.27272727272727 0.886363636363637  L 8.27272727272727 4.72727272727273  L 12.1136363636364 4.72727272727273  C 12.3598484848485 4.72727272727273  12.5691287878788 4.81344696969697  12.7414772727273 4.98579545454546  Z " fill-rule="nonzero" fill="#000000" stroke="none" transform="matrix(1 0 0 1 345 239 )" />
  </g>
</svg>