<?xml version="1.0" encoding="utf-8"?>
<svg version="1.1" xmlns:xlink="http://www.w3.org/1999/xlink" width="14px" height="14px" xmlns="http://www.w3.org/2000/svg">
  <g transform="matrix(1 0 0 1 -1140 -100 )">
    <path d="M 13.0675 1.8175  L 7.88375 7  L 13.0675 12.1825  C 13.184858296754 12.299858296754  13.2507895013501 12.4590303050735  13.2507895013501 12.625  C 13.2507895013501 12.9706139981999  12.9706139981999 13.2507895013501  12.625 13.2507895013501  C 12.4590303050735 13.2507895013501  12.299858296754 13.184858296754  12.1825 13.0675  L 7 7.88375  L 1.8175 13.0675  C 1.700141703246 13.184858296754  1.54096969492651 13.2507895013501  1.375 13.2507895013501  C 1.02938600180013 13.2507895013501  0.749210498649905 12.9706139981999  0.749210498649905 12.625  C 0.749210498649905 12.4590303050735  0.815141703246002 12.299858296754  0.9325 12.1825  L 6.11625 7  L 0.9325 1.8175  C 0.815141703246002 1.700141703246  0.749210498649905 1.54096969492651  0.749210498649905 1.375  C 0.749210498649905 1.02938600180013  1.02938600180013 0.749210498649905  1.375 0.749210498649905  C 1.54096969492651 0.749210498649905  1.700141703246 0.815141703246002  1.8175 0.9325  L 7 6.11625  L 12.1825 0.9325  C 12.299858296754 0.815141703246003  12.4590303050735 0.749210498649905  12.625 0.749210498649905  C 12.9706139981999 0.749210498649905  13.2507895013501 1.02938600180013  13.2507895013501 1.375  C 13.2507895013501 1.54096969492651  13.184858296754 1.700141703246  13.0675 1.8175  Z " fill-rule="nonzero" fill="#6468ef" stroke="none" transform="matrix(1 0 0 1 1140 100 )" />
  </g>
</svg>