<?xml version="1.0" encoding="utf-8"?>
<svg version="1.1" xmlns:xlink="http://www.w3.org/1999/xlink" width="40px" height="50px" xmlns="http://www.w3.org/2000/svg">
  <defs>
    <filter x="532px" y="265px" width="40px" height="50px" filterUnits="userSpaceOnUse" id="filter939">
      <feOffset dx="1" dy="1" in="SourceAlpha" result="shadowOffsetInner" />
      <feGaussianBlur stdDeviation="2.5" in="shadowOffsetInner" result="shadowGaussian" />
      <feComposite in2="shadowGaussian" operator="atop" in="SourceAlpha" result="shadowComposite" />
      <feColorMatrix type="matrix" values="0 0 0 0 0  0 0 0 0 0  0 0 0 0 0  0 0 0 0.698039215686274 0  " in="shadowComposite" />
    </filter>
    <g id="widget940">
      <path d="M 551 308.036928468354  C 545.2 298.40734059591  536.5 292.629587872444  536.5 283  C 536.5 277.985714285714  539.4 269.5  551 269.5  C 562.6 269.5  565.5 277.985714285714  565.5 283  C 565.5 292.629587872444  556.8 298.40734059591  551 308.036928468354  Z " fill-rule="nonzero" fill="#d9001b" stroke="none" />
      <path d="M 551 309  C 545 299  536 293  536 283  C 536 277.8  539 269  551 269  C 563 269  566 277.8  566 283  C 566 293  557 299  551 309  Z M 551 307.073856936707  C 556.6 297.81468119182  565 292.259175744887  565 283  C 565 278.171428571429  562.2 270  551 270  C 539.8 270  537 278.171428571429  537 283  C 537 292.259175744887  545.4 297.81468119182  551 307.073856936707  Z " fill-rule="nonzero" fill="#ffffff" stroke="none" />
    </g>
  </defs>
  <g transform="matrix(1 0 0 1 -532 -265 )">
    <use xlink:href="#widget940" filter="url(#filter939)" />
    <use xlink:href="#widget940" />
  </g>
</svg>