<?xml version="1.0" encoding="utf-8"?>
<svg version="1.1" xmlns:xlink="http://www.w3.org/1999/xlink" width="12px" height="12px" viewBox="926 2932  12 12" xmlns="http://www.w3.org/2000/svg">
  <path d="M 932 2932  C 935.36 2932  938 2934.64  938 2938  C 938 2941.36  935.36 2944  932 2944  C 928.64 2944  926 2941.36  926 2938  C 926 2934.64  928.64 2932  932 2932  Z " fill-rule="nonzero" fill="#ffffff" stroke="none" />
  <path d="M 932 2932.5  C 935.08 2932.5  937.5 2934.92  937.5 2938  C 937.5 2941.08  935.08 2943.5  932 2943.5  C 928.92 2943.5  926.5 2941.08  926.5 2938  C 926.5 2934.92  928.92 2932.5  932 2932.5  Z " stroke-width="1" stroke="#797979" fill="none" />
  <path d="M 932 2941  C 930.32 2941  929 2939.68  929 2938  C 929 2936.32  930.32 2935  932 2935  C 933.68 2935  935 2936.32  935 2938  C 935 2939.68  933.68 2941  932 2941  " fill-rule="nonzero" fill="#797979" stroke="none" />
</svg>