<?xml version="1.0" encoding="utf-8"?>
<svg version="1.1" xmlns:xlink="http://www.w3.org/1999/xlink" width="12px" height="12px" viewBox="926 1350  12 12" xmlns="http://www.w3.org/2000/svg">
  <path d="M 932 1350  C 935.36 1350  938 1352.64  938 1356  C 938 1359.36  935.36 1362  932 1362  C 928.64 1362  926 1359.36  926 1356  C 926 1352.64  928.64 1350  932 1350  Z " fill-rule="nonzero" fill="#f0f0f0" stroke="none" />
  <path d="M 932 1350.5  C 935.08 1350.5  937.5 1352.92  937.5 1356  C 937.5 1359.08  935.08 1361.5  932 1361.5  C 928.92 1361.5  926.5 1359.08  926.5 1356  C 926.5 1352.92  928.92 1350.5  932 1350.5  Z " stroke-width="1" stroke="#797979" fill="none" />
  <path d="M 932 1359  C 930.32 1359  929 1357.68  929 1356  C 929 1354.32  930.32 1353  932 1353  C 933.68 1353  935 1354.32  935 1356  C 935 1357.68  933.68 1359  932 1359  " fill-rule="nonzero" fill="#797979" stroke="none" />
</svg>