<?xml version="1.0" encoding="utf-8"?>
<svg version="1.1" xmlns:xlink="http://www.w3.org/1999/xlink" width="12px" height="12px" viewBox="1039 1350  12 12" xmlns="http://www.w3.org/2000/svg">
  <path d="M 1045 1350  C 1048.36 1350  1051 1352.64  1051 1356  C 1051 1359.36  1048.36 1362  1045 1362  C 1041.64 1362  1039 1359.36  1039 1356  C 1039 1352.64  1041.64 1350  1045 1350  Z " fill-rule="nonzero" fill="#ffffff" stroke="none" />
  <path d="M 1045 1350.5  C 1048.08 1350.5  1050.5 1352.92  1050.5 1356  C 1050.5 1359.08  1048.08 1361.5  1045 1361.5  C 1041.92 1361.5  1039.5 1359.08  1039.5 1356  C 1039.5 1352.92  1041.92 1350.5  1045 1350.5  Z " stroke-width="1" stroke="#797979" fill="none" />
  <path d="M 1045 1359  C 1043.32 1359  1042 1357.68  1042 1356  C 1042 1354.32  1043.32 1353  1045 1353  C 1046.68 1353  1048 1354.32  1048 1356  C 1048 1357.68  1046.68 1359  1045 1359  " fill-rule="nonzero" fill="#797979" stroke="none" />
</svg>