<?xml version="1.0" encoding="utf-8"?>
<svg version="1.1" xmlns:xlink="http://www.w3.org/1999/xlink" width="15px" height="15px" xmlns="http://www.w3.org/2000/svg">
  <g transform="matrix(1 0 0 1 -164 -157 )">
    <path d="M 14.8757986287683 5.65282802665579  C 14.8263597176181 5.49651436187841  14.6974650615776 5.38286359187865  14.5425992764858 5.35903490820075  L 9.89544835142118 4.66870363298429  L 7.80413243755382 0.278724830681355  C 7.73360592111823 0.131746681336512  7.59051504809915 0.039043966427797  7.43408515417741 0.0389863547758146  C 7.27806945736432 0.0389863547758146  7.13459773298882 0.131415654381433  7.06442987769165 0.281613244480728  L 5.0005539086994 4.68479622829687  L 0.353402983634808 5.40731270864499  C 0.198614588981997 5.43132307098513  0.0697989027787571 5.54490421531096  0.0202036451335061 5.70110582710008  C -0.0287962652885341 5.85749288363029  0.0139316589147143 6.02955992565394  0.127219431524551 6.14138285869712  L 3.49958885099052 9.55507724556871  L 2.71951036692505 14.3894593807516  C 2.69207042204994 14.552448542545  2.75675029112834 14.7154376898318  2.88493404995694 14.8111680275624  C 3.01193913038031 14.9085737710176  3.18068535076584 14.9209179262851  3.3192691955211 14.8429405938619  L 7.46779709905255 12.5470629711229  L 11.6288689612403 14.8173574939934  C 11.6873310376539 14.8489687799998  11.7521087045099 14.8654577745833  11.8178328144299 14.8654577745833  C 12.0446401447461 14.8654577745833  12.2291294786088 14.6731690188468  12.231371796727 14.4344361285643  C 12.2319514831142 14.4009491163322  12.2277224486481 14.3675620339165  12.2188278105082 14.3354047527087  L 11.4152293815676 9.52949413119363  L 14.7656468423773 6.09681873521013  C 14.8848146080965 5.98169474953536  14.9247985254092 5.80962772201822  14.8754066218777 5.65324065098145  Z M 10.6872868079242 9.07271186545174  C 10.5892870008614 9.17174325581399  10.5465590766581 9.31492613083095  10.5708630353144 9.45563323088081  L 11.2709736709733 13.6483745156172  L 7.65752472695954 11.6780625631262  C 7.53661714919724 11.6125568852975  7.39309705579848 11.6125568852975  7.27218947803618 11.6780625631262  L 3.67050050645994 13.6710692016864  L 4.34630719724377 9.47172582619339  C 4.3674751559001 9.33143136497575  4.32513923858741 9.19072426492589  4.22713941774333 9.09169288907025  L 1.30439313695089 6.12817867718392  L 5.33688926098191 5.50263042204998  C 5.47134499224806 5.48034836030644  5.58776876485787 5.39410852713179  5.64578465460811 5.26619298426947  L 7.43722115417742 1.44399413210028  L 9.25335360551253 5.25670247971352  C 9.31450548148146 5.38461802257584  9.43053726098194 5.47044521691827  9.56499299224805 5.49313991749398  L 13.6010171093885 6.09310505825288  L 10.6872868079242 9.07229924112609  Z " fill-rule="nonzero" fill="#000000" stroke="none" transform="matrix(1 0 0 1 164 157 )" />
  </g>
</svg>