<?xml version="1.0" encoding="utf-8"?>
<svg version="1.1" xmlns:xlink="http://www.w3.org/1999/xlink" width="5px" height="5px" xmlns="http://www.w3.org/2000/svg">
  <g transform="matrix(1 0 0 1 -215 -313 )">
    <path d="M 2.44756793362717 0.132405462169118  C 3.79216589058854 0.132405462169118  4.88842982628987 1.19086719319102  4.88842982628987 2.48909970336058  C 4.88842982628987 3.78733221353036  3.79216589058854 4.84579394455227  2.44756793362717 4.84579394455227  C 1.10063566903884 4.84319036412353  0.00940260640857105 3.78958602779085  0.00670604096447391 2.48909970336058  C 0.00670604096447391 1.19086719319102  1.1029699766658 0.132405462169118  2.44756793362717 0.132405462169118  Z M 3.25955478351051 2.48909970336058  C 3.25955478351051 2.05611546613727  2.89601588323774 1.70511239001189  2.44756792325643 1.70511239001189  C 1.99911996327509 1.70511239001189  1.63558106300232 2.05611546613727  1.63558106300232 2.48909970336058  C 1.63558106300232 2.92208394058389  1.99911996327509 3.2730870167095  2.44756792325643 3.2730870167095  C 2.89601588323774 3.2730870167095  3.25955478351051 2.92208394058389  3.25955478351051 2.48909970336058  Z " fill-rule="nonzero" fill="#000000" stroke="none" transform="matrix(1 0 0 1 215 313 )" />
  </g>
</svg>