<?xml version="1.0" encoding="utf-8"?>
<svg version="1.1" xmlns:xlink="http://www.w3.org/1999/xlink" width="20px" height="20px" xmlns="http://www.w3.org/2000/svg">
  <g transform="matrix(1 0 0 1 -212 -310 )">
    <path d="M 7.69107972413792 0.0883395136115723  C 9.62459959830611 0.0837649461584533  10.7514696091954 1.19843610405314  12.3113992788869 2.74006746521468  L 19.2220554724743 9.7727123049001  C 19.6642642661827 10.2042470949789  19.9189155426497 10.8218145722929  19.9189155620085 11.4744537592258  C 19.9189155620085 12.1225183787053  19.6673140036298 12.737036137931  19.2296797580157 13.1594217931035  L 12.9625136164549 19.2786767138537  C 12.0933445807622 20.1219231554749  10.4434482952208 20.1249728735631  9.57122956079854 19.2741021464005  L 1.78225519661223 11.6376135704779  C 0.438855336963087 10.3292854398064  0.0957623133696188 9.80778403387785  0.0957623133696188 8.03437425287348  L 0.0957623133696188 4.67358733938295  C 0.0957623133696188 1.50340768058072  0.739252365396254 0.0883395136115723  4.54834748941317 0.0883395136115723  L 7.69107972413792 0.0883395136115723  Z M 11.9012124960678 18.1777292776769  L 11.8996876273442 18.1792541270418  L 18.1683786376286 12.0645737931034  C 18.3189625217609 11.9057305197916  18.3996863041125 11.6932128009523  18.3925327525711 11.4744537592258  C 18.3986480878366 11.2433815965287  18.3092942236032 11.0199969429475  18.1455057616455 10.8568863012704  L 11.8737650526316 4.45248294252883  L 11.2378992861464 3.83034089776174  C 9.68711877071991 2.29328408469451  8.94298807985481 1.61319745432547  7.6895548554144 1.61319745432547  L 4.54377292196008 1.61319745432547  C 1.81580205686632 1.61319745432547  1.61757053599516 2.03558310949779  1.61757053599516 4.66748790320639  L 1.61757053599516 8.02827481669692  C 1.61757053599516 9.23748715789475  1.65264226497277 9.38234866061703  2.84355631699938 10.538190983666  L 10.6340555499092 18.1777292776769  C 10.786541338173 18.3271653478523  11.0152700399274 18.4110325468844  11.2653467295826 18.4110325468844  C 11.4994200197947 18.4179442912873  11.7271539850896 18.3343872240362  11.9012124960678 18.1777292776769  Z " fill-rule="nonzero" fill="#000000" stroke="none" transform="matrix(1 0 0 1 212 310 )" />
  </g>
</svg>