<?xml version="1.0" encoding="utf-8"?>
<svg version="1.1" xmlns:xlink="http://www.w3.org/1999/xlink" width="20px" height="20px" xmlns="http://www.w3.org/2000/svg">
  <g transform="matrix(1 0 0 1 -108 -310 )">
    <path d="M 9.98854736842105 19.8216421052632  C 4.56291929824562 19.8216421052632  0.149389473684209 15.4082245614036  0.149389473684209 9.98248421052631  C 0.149389473684209 4.55786666666665  4.56291929824562 0.143326315789523  9.98854736842105 0.143326315789523  C 15.4142877192983 0.143326315789523  19.8266947368421 4.55786666666665  19.8266947368421 9.98248421052631  C 19.8266947368421 15.4082245614036  15.4142877192983 19.8216421052632  9.98865964912278 19.8216421052632  Z M 18.8122385964912 9.98248421052631  C 18.8122385964912 5.11680000000001  14.8542315789473 1.15778245614035  9.98854736842105 1.15778245614035  C 5.12185263157897 1.15778245614035  1.16395789473682 5.11680000000001  1.16395789473682 9.98248421052631  C 1.16395789473682 14.8481684210527  5.12185263157897 18.8071859649124  9.98854736842105 18.8071859649124  C 14.8542315789473 18.8071859649124  18.8122385964912 14.8481684210527  18.8122385964912 9.98248421052631  Z M 13.9519438596491 7.82254035087726  C 13.9519438596491 10.0078596491228  12.1738666666666 11.7859368421053  9.98854736842105 11.7859368421053  C 7.80334035087719 11.7859368421053  6.02515087719297 10.0078596491228  6.02515087719297 7.82254035087726  C 6.02515087719297 5.63722105263162  7.80334035087719 3.85903157894734  9.98865964912278 3.85903157894734  C 12.1738666666666 3.85903157894734  13.9519438596491 5.63722105263162  13.9519438596491 7.82254035087726  Z M 12.9374877192982 7.82254035087726  C 12.9374877192982 6.1962666666667  11.6148210526316 4.87371228070174  9.98854736842105 4.87371228070174  C 8.36227368421055 4.87371228070174  7.03971929824559 6.1962666666667  7.03971929824559 7.82254035087726  C 7.03971929824559 9.44881403508771  8.36238596491228 10.7714807017544  9.98854736842105 10.7714807017544  C 11.6149333333333 10.7714807017544  12.9374877192982 9.44881403508771  12.9374877192982 7.82254035087726  Z M 14.9291228070176 15.5677754385965  C 14.7081512460204 15.5672897920116  14.5128316286367 15.4240342232309  14.4459789473684 15.2134175438597  C 13.825403508772 13.2669192982456  12.0341894736842 11.9586245614036  9.98854736842105 11.9586245614036  C 8.06517894736839 11.9586245614036  6.31023157894737 13.1646315789474  5.62037894736841 14.9593263157896  C 5.54588699688611 15.1553678545658  5.35799136926767 15.284974301541  5.14827409384088 15.284974301541  C 5.08581705428827 15.284974301541  5.02390182029296 15.2733892523144  4.96567017543862 15.2508070175439  C 4.76968579366616 15.1758112709718  4.64026106724231 14.9877084007616  4.64026106724231 14.7778650308337  C 4.64026106724231 14.715759047524  4.65168579633468 14.6541828831381  4.67396491228072 14.5962105263159  C 5.51247719298243 12.4120140350877  7.6482807017544 10.9441684210526  9.98865964912284 10.9441684210526  C 12.4764631578947 10.9441684210526  14.6574035087719 12.5374315789473  15.4122666666667 14.9054315789474  C 15.428336943803 14.9555140384452  15.4365188038954 15.0077915317688  15.4365188038954 15.0603891225556  C 15.4365188038954 15.2811889139142  15.2936677156227 15.4766177120073  15.0832842105263 15.5436350877194  C 15.0333185494223 15.5590101993575  14.981397536196 15.5671027680614  14.9291228070176 15.5676631578948  Z " fill-rule="nonzero" fill="#000000" stroke="none" transform="matrix(1 0 0 1 108 310 )" />
  </g>
</svg>