<?xml version="1.0" encoding="utf-8"?>
<svg version="1.1" xmlns:xlink="http://www.w3.org/1999/xlink" width="90px" height="32px" xmlns="http://www.w3.org/2000/svg">
  <defs>
    <mask fill="white" id="clip3">
      <path d="M 0 24  L 0 8  C 0 3.52000000000001  3.51999999999998 0  8 0  L 73.6666666666667 0  L 82 0  C 86.48 0  90 3.52000000000001  90 8  L 90 24  C 90 28.48  86.48 32  82 32  L 8 32  C 3.51999999999998 32  0 28.48  0 24  Z " fill-rule="evenodd" />
    </mask>
  </defs>
  <g transform="matrix(1 0 0 1 -843 -149 )">
    <path d="M 0 24  L 0 8  C 0 3.52000000000001  3.51999999999998 0  8 0  L 73.6666666666667 0  L 82 0  C 86.48 0  90 3.52000000000001  90 8  L 90 24  C 90 28.48  86.48 32  82 32  L 8 32  C 3.51999999999998 32  0 28.48  0 24  Z " fill-rule="nonzero" fill="#ffffff" stroke="none" transform="matrix(1 0 0 1 843 149 )" />
    <path d="M 0 24  L 0 8  C 0 3.52000000000001  3.51999999999998 0  8 0  L 73.6666666666667 0  L 82 0  C 86.48 0  90 3.52000000000001  90 8  L 90 24  C 90 28.48  86.48 32  82 32  L 8 32  C 3.51999999999998 32  0 28.48  0 24  Z " stroke-width="2" stroke="#aaaaaa" fill="none" transform="matrix(1 0 0 1 843 149 )" mask="url(#clip3)" />
  </g>
</svg>