<?xml version="1.0" encoding="utf-8"?>
<svg version="1.1" xmlns:xlink="http://www.w3.org/1999/xlink" width="20px" height="20px" xmlns="http://www.w3.org/2000/svg">
  <g transform="matrix(1 0 0 1 -2733 -1101 )">
    <path d="M 18.6678571428571 2.59642857142857  L 11.2625 10  L 18.6678571428571 17.4035714285714  C 18.8355118525057 17.57122613822  18.929699287643 17.7986147215336  18.929699287643 18.0357142857143  C 18.929699287643 18.529448568857  18.529448568857 18.929699287643  18.0357142857143 18.929699287643  C 17.7986147215336 18.929699287643  17.57122613822 18.8355118525057  17.4035714285714 18.6678571428571  L 10 11.2625  L 2.59642857142857 18.6678571428571  C 2.42877386178 18.8355118525057  2.20138527846644 18.929699287643  1.96428571428571 18.929699287643  C 1.47055143114304 18.929699287643  1.07030071235701 18.529448568857  1.07030071235701 18.0357142857143  C 1.07030071235701 17.7986147215336  1.16448814749429 17.57122613822  1.33214285714286 17.4035714285714  L 8.7375 10  L 1.33214285714286 2.59642857142857  C 1.16448814749429 2.42877386178  1.07030071235701 2.20138527846644  1.07030071235701 1.96428571428571  C 1.07030071235701 1.47055143114304  1.47055143114304 1.07030071235701  1.96428571428571 1.07030071235701  C 2.20138527846644 1.07030071235701  2.42877386178 1.16448814749429  2.59642857142857 1.33214285714286  L 10 8.7375  L 17.4035714285714 1.33214285714286  C 17.57122613822 1.16448814749429  17.7986147215336 1.07030071235701  18.0357142857143 1.07030071235701  C 18.529448568857 1.07030071235701  18.929699287643 1.47055143114304  18.929699287643 1.96428571428571  C 18.929699287643 2.20138527846645  18.8355118525057 2.42877386178  18.6678571428571 2.59642857142857  Z " fill-rule="nonzero" fill="#ffffff" stroke="none" transform="matrix(1 0 0 1 2733 1101 )" />
  </g>
</svg>