<?xml version="1.0" encoding="utf-8"?>
<svg version="1.1" xmlns:xlink="http://www.w3.org/1999/xlink" width="12px" height="12px" viewBox="483 905.5  12 12" xmlns="http://www.w3.org/2000/svg">
  <path d="M 489 905.5  C 492.36 905.5  495 908.14  495 911.5  C 495 914.86  492.36 917.5  489 917.5  C 485.64 917.5  483 914.86  483 911.5  C 483 908.14  485.64 905.5  489 905.5  Z " fill-rule="nonzero" fill="#ffffff" stroke="none" />
  <path d="M 489 906  C 492.08 906  494.5 908.42  494.5 911.5  C 494.5 914.58  492.08 917  489 917  C 485.92 917  483.5 914.58  483.5 911.5  C 483.5 908.42  485.92 906  489 906  Z " stroke-width="1" stroke="#797979" fill="none" />
  <path d="M 489 914.5  C 487.32 914.5  486 913.18  486 911.5  C 486 909.82  487.32 908.5  489 908.5  C 490.68 908.5  492 909.82  492 911.5  C 492 913.18  490.68 914.5  489 914.5  " fill-rule="nonzero" fill="#797979" stroke="none" />
</svg>