<?xml version="1.0" encoding="utf-8"?>
<svg version="1.1" xmlns:xlink="http://www.w3.org/1999/xlink" width="12px" height="12px" viewBox="411 440.5  12 12" xmlns="http://www.w3.org/2000/svg">
  <path d="M 417 440.5  C 420.36 440.5  423 443.14  423 446.5  C 423 449.86  420.36 452.5  417 452.5  C 413.64 452.5  411 449.86  411 446.5  C 411 443.14  413.64 440.5  417 440.5  Z " fill-rule="nonzero" fill="#f0f0f0" stroke="none" />
  <path d="M 417 441  C 420.08 441  422.5 443.42  422.5 446.5  C 422.5 449.58  420.08 452  417 452  C 413.92 452  411.5 449.58  411.5 446.5  C 411.5 443.42  413.92 441  417 441  Z " stroke-width="1" stroke="#797979" fill="none" />
  <path d="M 417 449.5  C 415.32 449.5  414 448.18  414 446.5  C 414 444.82  415.32 443.5  417 443.5  C 418.68 443.5  420 444.82  420 446.5  C 420 448.18  418.68 449.5  417 449.5  " fill-rule="nonzero" fill="#797979" stroke="none" />
</svg>