<?xml version="1.0" encoding="utf-8"?>
<svg version="1.1" xmlns:xlink="http://www.w3.org/1999/xlink" width="12px" height="12px" viewBox="301 440.5  12 12" xmlns="http://www.w3.org/2000/svg">
  <path d="M 307 440.5  C 310.36 440.5  313 443.14  313 446.5  C 313 449.86  310.36 452.5  307 452.5  C 303.64 452.5  301 449.86  301 446.5  C 301 443.14  303.64 440.5  307 440.5  Z " fill-rule="nonzero" fill="#ffffff" stroke="none" />
  <path d="M 307 441  C 310.08 441  312.5 443.42  312.5 446.5  C 312.5 449.58  310.08 452  307 452  C 303.92 452  301.5 449.58  301.5 446.5  C 301.5 443.42  303.92 441  307 441  Z " stroke-width="1" stroke="#797979" fill="none" />
  <path d="M 307 449.5  C 305.32 449.5  304 448.18  304 446.5  C 304 444.82  305.32 443.5  307 443.5  C 308.68 443.5  310 444.82  310 446.5  C 310 448.18  308.68 449.5  307 449.5  " fill-rule="nonzero" fill="#797979" stroke="none" />
</svg>