<?xml version="1.0" encoding="utf-8"?>
<svg version="1.1" xmlns:xlink="http://www.w3.org/1999/xlink" width="12px" height="12px" viewBox="307 2933.5  12 12" xmlns="http://www.w3.org/2000/svg">
  <path d="M 313 2933.5  C 316.36 2933.5  319 2936.14  319 2939.5  C 319 2942.86  316.36 2945.5  313 2945.5  C 309.64 2945.5  307 2942.86  307 2939.5  C 307 2936.14  309.64 2933.5  313 2933.5  Z " fill-rule="nonzero" fill="#f0f0f0" stroke="none" />
  <path d="M 313 2934  C 316.08 2934  318.5 2936.42  318.5 2939.5  C 318.5 2942.58  316.08 2945  313 2945  C 309.92 2945  307.5 2942.58  307.5 2939.5  C 307.5 2936.42  309.92 2934  313 2934  Z " stroke-width="1" stroke="#797979" fill="none" />
  <path d="M 313 2942.5  C 311.32 2942.5  310 2941.18  310 2939.5  C 310 2937.82  311.32 2936.5  313 2936.5  C 314.68 2936.5  316 2937.82  316 2939.5  C 316 2941.18  314.68 2942.5  313 2942.5  " fill-rule="nonzero" fill="#797979" stroke="none" />
</svg>