<?xml version="1.0" encoding="utf-8"?>
<svg version="1.1" xmlns:xlink="http://www.w3.org/1999/xlink" width="12px" height="12px" viewBox="483 2750.5  12 12" xmlns="http://www.w3.org/2000/svg">
  <path d="M 489 2750.5  C 492.36 2750.5  495 2753.14  495 2756.5  C 495 2759.86  492.36 2762.5  489 2762.5  C 485.64 2762.5  483 2759.86  483 2756.5  C 483 2753.14  485.64 2750.5  489 2750.5  Z " fill-rule="nonzero" fill="#f0f0f0" stroke="none" />
  <path d="M 489 2751  C 492.08 2751  494.5 2753.42  494.5 2756.5  C 494.5 2759.58  492.08 2762  489 2762  C 485.92 2762  483.5 2759.58  483.5 2756.5  C 483.5 2753.42  485.92 2751  489 2751  Z " stroke-width="1" stroke="#797979" fill="none" />
  <path d="M 489 2759.5  C 487.32 2759.5  486 2758.18  486 2756.5  C 486 2754.82  487.32 2753.5  489 2753.5  C 490.68 2753.5  492 2754.82  492 2756.5  C 492 2758.18  490.68 2759.5  489 2759.5  " fill-rule="nonzero" fill="#797979" stroke="none" />
</svg>