<?xml version="1.0" encoding="utf-8"?>
<svg version="1.1" xmlns:xlink="http://www.w3.org/1999/xlink" width="12px" height="12px" viewBox="330 2300.5  12 12" xmlns="http://www.w3.org/2000/svg">
  <path d="M 336 2300.5  C 339.36 2300.5  342 2303.14  342 2306.5  C 342 2309.86  339.36 2312.5  336 2312.5  C 332.64 2312.5  330 2309.86  330 2306.5  C 330 2303.14  332.64 2300.5  336 2300.5  Z " fill-rule="nonzero" fill="#ffffff" stroke="none" />
  <path d="M 336 2301  C 339.08 2301  341.5 2303.42  341.5 2306.5  C 341.5 2309.58  339.08 2312  336 2312  C 332.92 2312  330.5 2309.58  330.5 2306.5  C 330.5 2303.42  332.92 2301  336 2301  Z " stroke-width="1" stroke="#797979" fill="none" />
  <path d="M 336 2309.5  C 334.32 2309.5  333 2308.18  333 2306.5  C 333 2304.82  334.32 2303.5  336 2303.5  C 337.68 2303.5  339 2304.82  339 2306.5  C 339 2308.18  337.68 2309.5  336 2309.5  " fill-rule="nonzero" fill="#797979" stroke="none" />
</svg>