<?xml version="1.0" encoding="utf-8"?>
<svg version="1.1" xmlns:xlink="http://www.w3.org/1999/xlink" width="12px" height="12px" viewBox="307 2968.5  12 12" xmlns="http://www.w3.org/2000/svg">
  <path d="M 313 2968.5  C 316.36 2968.5  319 2971.14  319 2974.5  C 319 2977.86  316.36 2980.5  313 2980.5  C 309.64 2980.5  307 2977.86  307 2974.5  C 307 2971.14  309.64 2968.5  313 2968.5  Z " fill-rule="nonzero" fill="#ffffff" stroke="none" />
  <path d="M 313 2969  C 316.08 2969  318.5 2971.42  318.5 2974.5  C 318.5 2977.58  316.08 2980  313 2980  C 309.92 2980  307.5 2977.58  307.5 2974.5  C 307.5 2971.42  309.92 2969  313 2969  Z " stroke-width="1" stroke="#797979" fill="none" />
  <path d="M 313 2977.5  C 311.32 2977.5  310 2976.18  310 2974.5  C 310 2972.82  311.32 2971.5  313 2971.5  C 314.68 2971.5  316 2972.82  316 2974.5  C 316 2976.18  314.68 2977.5  313 2977.5  " fill-rule="nonzero" fill="#797979" stroke="none" />
</svg>