<?xml version="1.0" encoding="utf-8"?>
<svg version="1.1" xmlns:xlink="http://www.w3.org/1999/xlink" width="12px" height="12px" viewBox="440 2300.5  12 12" xmlns="http://www.w3.org/2000/svg">
  <path d="M 446 2300.5  C 449.36 2300.5  452 2303.14  452 2306.5  C 452 2309.86  449.36 2312.5  446 2312.5  C 442.64 2312.5  440 2309.86  440 2306.5  C 440 2303.14  442.64 2300.5  446 2300.5  Z " fill-rule="nonzero" fill="#f0f0f0" stroke="none" />
  <path d="M 446 2301  C 449.08 2301  451.5 2303.42  451.5 2306.5  C 451.5 2309.58  449.08 2312  446 2312  C 442.92 2312  440.5 2309.58  440.5 2306.5  C 440.5 2303.42  442.92 2301  446 2301  Z " stroke-width="1" stroke="#797979" fill="none" />
  <path d="M 446 2309.5  C 444.32 2309.5  443 2308.18  443 2306.5  C 443 2304.82  444.32 2303.5  446 2303.5  C 447.68 2303.5  449 2304.82  449 2306.5  C 449 2308.18  447.68 2309.5  446 2309.5  " fill-rule="nonzero" fill="#797979" stroke="none" />
</svg>