<?xml version="1.0" encoding="utf-8"?>
<svg version="1.1" xmlns:xlink="http://www.w3.org/1999/xlink" width="12px" height="12px" viewBox="1501 2055.5  12 12" xmlns="http://www.w3.org/2000/svg">
  <path d="M 1507 2055.5  C 1510.36 2055.5  1513 2058.14  1513 2061.5  C 1513 2064.86  1510.36 2067.5  1507 2067.5  C 1503.64 2067.5  1501 2064.86  1501 2061.5  C 1501 2058.14  1503.64 2055.5  1507 2055.5  Z " fill-rule="nonzero" fill="#ffffff" stroke="none" />
  <path d="M 1507 2056  C 1510.08 2056  1512.5 2058.42  1512.5 2061.5  C 1512.5 2064.58  1510.08 2067  1507 2067  C 1503.92 2067  1501.5 2064.58  1501.5 2061.5  C 1501.5 2058.42  1503.92 2056  1507 2056  Z " stroke-width="1" stroke="#797979" fill="none" />
  <path d="M 1507 2064.5  C 1505.32 2064.5  1504 2063.18  1504 2061.5  C 1504 2059.82  1505.32 2058.5  1507 2058.5  C 1508.68 2058.5  1510 2059.82  1510 2061.5  C 1510 2063.18  1508.68 2064.5  1507 2064.5  " fill-rule="nonzero" fill="#797979" stroke="none" />
</svg>