<?xml version="1.0" encoding="utf-8"?>
<svg version="1.1" xmlns:xlink="http://www.w3.org/1999/xlink" width="12px" height="12px" viewBox="330 2339.5  12 12" xmlns="http://www.w3.org/2000/svg">
  <path d="M 336 2339.5  C 339.36 2339.5  342 2342.14  342 2345.5  C 342 2348.86  339.36 2351.5  336 2351.5  C 332.64 2351.5  330 2348.86  330 2345.5  C 330 2342.14  332.64 2339.5  336 2339.5  Z " fill-rule="nonzero" fill="#ffffff" stroke="none" />
  <path d="M 336 2340  C 339.08 2340  341.5 2342.42  341.5 2345.5  C 341.5 2348.58  339.08 2351  336 2351  C 332.92 2351  330.5 2348.58  330.5 2345.5  C 330.5 2342.42  332.92 2340  336 2340  Z " stroke-width="1" stroke="#797979" fill="none" />
  <path d="M 336 2348.5  C 334.32 2348.5  333 2347.18  333 2345.5  C 333 2343.82  334.32 2342.5  336 2342.5  C 337.68 2342.5  339 2343.82  339 2345.5  C 339 2347.18  337.68 2348.5  336 2348.5  " fill-rule="nonzero" fill="#797979" stroke="none" />
</svg>