<?xml version="1.0" encoding="utf-8"?>
<svg version="1.1" xmlns:xlink="http://www.w3.org/1999/xlink" width="12px" height="12px" viewBox="301 442  12 12" xmlns="http://www.w3.org/2000/svg">
  <path d="M 307 442  C 310.36 442  313 444.64  313 448  C 313 451.36  310.36 454  307 454  C 303.64 454  301 451.36  301 448  C 301 444.64  303.64 442  307 442  Z " fill-rule="nonzero" fill="#ffffff" stroke="none" />
  <path d="M 307 442.5  C 310.08 442.5  312.5 444.92  312.5 448  C 312.5 451.08  310.08 453.5  307 453.5  C 303.92 453.5  301.5 451.08  301.5 448  C 301.5 444.92  303.92 442.5  307 442.5  Z " stroke-width="1" stroke="#797979" fill="none" />
  <path d="M 307 451  C 305.32 451  304 449.68  304 448  C 304 446.32  305.32 445  307 445  C 308.68 445  310 446.32  310 448  C 310 449.68  308.68 451  307 451  " fill-rule="nonzero" fill="#797979" stroke="none" />
</svg>