<?xml version="1.0" encoding="utf-8"?>
<svg version="1.1" xmlns:xlink="http://www.w3.org/1999/xlink" width="12px" height="12px" viewBox="330 2302  12 12" xmlns="http://www.w3.org/2000/svg">
  <path d="M 336 2302  C 339.36 2302  342 2304.64  342 2308  C 342 2311.36  339.36 2314  336 2314  C 332.64 2314  330 2311.36  330 2308  C 330 2304.64  332.64 2302  336 2302  Z " fill-rule="nonzero" fill="#f0f0f0" stroke="none" />
  <path d="M 336 2302.5  C 339.08 2302.5  341.5 2304.92  341.5 2308  C 341.5 2311.08  339.08 2313.5  336 2313.5  C 332.92 2313.5  330.5 2311.08  330.5 2308  C 330.5 2304.92  332.92 2302.5  336 2302.5  Z " stroke-width="1" stroke="#797979" fill="none" />
  <path d="M 336 2311  C 334.32 2311  333 2309.68  333 2308  C 333 2306.32  334.32 2305  336 2305  C 337.68 2305  339 2306.32  339 2308  C 339 2309.68  337.68 2311  336 2311  " fill-rule="nonzero" fill="#797979" stroke="none" />
</svg>