<?xml version="1.0" encoding="utf-8"?>
<svg version="1.1" xmlns:xlink="http://www.w3.org/1999/xlink" width="12px" height="12px" viewBox="411 481  12 12" xmlns="http://www.w3.org/2000/svg">
  <path d="M 417 481  C 420.36 481  423 483.64  423 487  C 423 490.36  420.36 493  417 493  C 413.64 493  411 490.36  411 487  C 411 483.64  413.64 481  417 481  Z " fill-rule="nonzero" fill="#ffffff" stroke="none" />
  <path d="M 417 481.5  C 420.08 481.5  422.5 483.92  422.5 487  C 422.5 490.08  420.08 492.5  417 492.5  C 413.92 492.5  411.5 490.08  411.5 487  C 411.5 483.92  413.92 481.5  417 481.5  Z " stroke-width="1" stroke="#797979" fill="none" />
  <path d="M 417 490  C 415.32 490  414 488.68  414 487  C 414 485.32  415.32 484  417 484  C 418.68 484  420 485.32  420 487  C 420 488.68  418.68 490  417 490  " fill-rule="nonzero" fill="#797979" stroke="none" />
</svg>