<?xml version="1.0" encoding="utf-8"?>
<svg version="1.1" xmlns:xlink="http://www.w3.org/1999/xlink" width="12px" height="12px" viewBox="315 907  12 12" xmlns="http://www.w3.org/2000/svg">
  <path d="M 321 907  C 324.36 907  327 909.64  327 913  C 327 916.36  324.36 919  321 919  C 317.64 919  315 916.36  315 913  C 315 909.64  317.64 907  321 907  Z " fill-rule="nonzero" fill="#ffffff" stroke="none" />
  <path d="M 321 907.5  C 324.08 907.5  326.5 909.92  326.5 913  C 326.5 916.08  324.08 918.5  321 918.5  C 317.92 918.5  315.5 916.08  315.5 913  C 315.5 909.92  317.92 907.5  321 907.5  Z " stroke-width="1" stroke="#797979" fill="none" />
  <path d="M 321 916  C 319.32 916  318 914.68  318 913  C 318 911.32  319.32 910  321 910  C 322.68 910  324 911.32  324 913  C 324 914.68  322.68 916  321 916  " fill-rule="nonzero" fill="#797979" stroke="none" />
</svg>