<?xml version="1.0" encoding="utf-8"?>
<svg version="1.1" xmlns:xlink="http://www.w3.org/1999/xlink" width="12px" height="12px" viewBox="1333 2057  12 12" xmlns="http://www.w3.org/2000/svg">
  <path d="M 1339 2057  C 1342.36 2057  1345 2059.64  1345 2063  C 1345 2066.36  1342.36 2069  1339 2069  C 1335.64 2069  1333 2066.36  1333 2063  C 1333 2059.64  1335.64 2057  1339 2057  Z " fill-rule="nonzero" fill="#f0f0f0" stroke="none" />
  <path d="M 1339 2057.5  C 1342.08 2057.5  1344.5 2059.92  1344.5 2063  C 1344.5 2066.08  1342.08 2068.5  1339 2068.5  C 1335.92 2068.5  1333.5 2066.08  1333.5 2063  C 1333.5 2059.92  1335.92 2057.5  1339 2057.5  Z " stroke-width="1" stroke="#797979" fill="none" />
  <path d="M 1339 2066  C 1337.32 2066  1336 2064.68  1336 2063  C 1336 2061.32  1337.32 2060  1339 2060  C 1340.68 2060  1342 2061.32  1342 2063  C 1342 2064.68  1340.68 2066  1339 2066  " fill-rule="nonzero" fill="#797979" stroke="none" />
</svg>