<?xml version="1.0" encoding="utf-8"?>
<svg version="1.1" xmlns:xlink="http://www.w3.org/1999/xlink" width="12px" height="12px" viewBox="307 2970  12 12" xmlns="http://www.w3.org/2000/svg">
  <path d="M 313 2970  C 316.36 2970  319 2972.64  319 2976  C 319 2979.36  316.36 2982  313 2982  C 309.64 2982  307 2979.36  307 2976  C 307 2972.64  309.64 2970  313 2970  Z " fill-rule="nonzero" fill="#ffffff" stroke="none" />
  <path d="M 313 2970.5  C 316.08 2970.5  318.5 2972.92  318.5 2976  C 318.5 2979.08  316.08 2981.5  313 2981.5  C 309.92 2981.5  307.5 2979.08  307.5 2976  C 307.5 2972.92  309.92 2970.5  313 2970.5  Z " stroke-width="1" stroke="#797979" fill="none" />
  <path d="M 313 2979  C 311.32 2979  310 2977.68  310 2976  C 310 2974.32  311.32 2973  313 2973  C 314.68 2973  316 2974.32  316 2976  C 316 2977.68  314.68 2979  313 2979  " fill-rule="nonzero" fill="#797979" stroke="none" />
</svg>