<?xml version="1.0" encoding="utf-8"?>
<svg version="1.1" xmlns:xlink="http://www.w3.org/1999/xlink" width="12px" height="12px" viewBox="440 2302  12 12" xmlns="http://www.w3.org/2000/svg">
  <path d="M 446 2302  C 449.36 2302  452 2304.64  452 2308  C 452 2311.36  449.36 2314  446 2314  C 442.64 2314  440 2311.36  440 2308  C 440 2304.64  442.64 2302  446 2302  Z " fill-rule="nonzero" fill="#ffffff" stroke="none" />
  <path d="M 446 2302.5  C 449.08 2302.5  451.5 2304.92  451.5 2308  C 451.5 2311.08  449.08 2313.5  446 2313.5  C 442.92 2313.5  440.5 2311.08  440.5 2308  C 440.5 2304.92  442.92 2302.5  446 2302.5  Z " stroke-width="1" stroke="#797979" fill="none" />
  <path d="M 446 2311  C 444.32 2311  443 2309.68  443 2308  C 443 2306.32  444.32 2305  446 2305  C 447.68 2305  449 2306.32  449 2308  C 449 2309.68  447.68 2311  446 2311  " fill-rule="nonzero" fill="#797979" stroke="none" />
</svg>