<?xml version="1.0" encoding="utf-8"?>
<svg version="1.1" xmlns:xlink="http://www.w3.org/1999/xlink" width="12px" height="12px" viewBox="307 3002  12 12" xmlns="http://www.w3.org/2000/svg">
  <path d="M 313 3002  C 316.36 3002  319 3004.64  319 3008  C 319 3011.36  316.36 3014  313 3014  C 309.64 3014  307 3011.36  307 3008  C 307 3004.64  309.64 3002  313 3002  Z " fill-rule="nonzero" fill="#f0f0f0" stroke="none" />
  <path d="M 313 3002.5  C 316.08 3002.5  318.5 3004.92  318.5 3008  C 318.5 3011.08  316.08 3013.5  313 3013.5  C 309.92 3013.5  307.5 3011.08  307.5 3008  C 307.5 3004.92  309.92 3002.5  313 3002.5  Z " stroke-width="1" stroke="#797979" fill="none" />
  <path d="M 313 3011  C 311.32 3011  310 3009.68  310 3008  C 310 3006.32  311.32 3005  313 3005  C 314.68 3005  316 3006.32  316 3008  C 316 3009.68  314.68 3011  313 3011  " fill-rule="nonzero" fill="#797979" stroke="none" />
</svg>