<?xml version="1.0" encoding="utf-8"?>
<svg version="1.1" xmlns:xlink="http://www.w3.org/1999/xlink" width="12px" height="12px" viewBox="483 907  12 12" xmlns="http://www.w3.org/2000/svg">
  <path d="M 489 907  C 492.36 907  495 909.64  495 913  C 495 916.36  492.36 919  489 919  C 485.64 919  483 916.36  483 913  C 483 909.64  485.64 907  489 907  Z " fill-rule="nonzero" fill="#f0f0f0" stroke="none" />
  <path d="M 489 907.5  C 492.08 907.5  494.5 909.92  494.5 913  C 494.5 916.08  492.08 918.5  489 918.5  C 485.92 918.5  483.5 916.08  483.5 913  C 483.5 909.92  485.92 907.5  489 907.5  Z " stroke-width="1" stroke="#797979" fill="none" />
  <path d="M 489 916  C 487.32 916  486 914.68  486 913  C 486 911.32  487.32 910  489 910  C 490.68 910  492 911.32  492 913  C 492 914.68  490.68 916  489 916  " fill-rule="nonzero" fill="#797979" stroke="none" />
</svg>