<?xml version="1.0" encoding="utf-8"?>
<svg version="1.1" xmlns:xlink="http://www.w3.org/1999/xlink" width="12px" height="12px" viewBox="307 2935  12 12" xmlns="http://www.w3.org/2000/svg">
  <path d="M 313 2935  C 316.36 2935  319 2937.64  319 2941  C 319 2944.36  316.36 2947  313 2947  C 309.64 2947  307 2944.36  307 2941  C 307 2937.64  309.64 2935  313 2935  Z " fill-rule="nonzero" fill="#ffffff" stroke="none" />
  <path d="M 313 2935.5  C 316.08 2935.5  318.5 2937.92  318.5 2941  C 318.5 2944.08  316.08 2946.5  313 2946.5  C 309.92 2946.5  307.5 2944.08  307.5 2941  C 307.5 2937.92  309.92 2935.5  313 2935.5  Z " stroke-width="1" stroke="#797979" fill="none" />
  <path d="M 313 2944  C 311.32 2944  310 2942.68  310 2941  C 310 2939.32  311.32 2938  313 2938  C 314.68 2938  316 2939.32  316 2941  C 316 2942.68  314.68 2944  313 2944  " fill-rule="nonzero" fill="#797979" stroke="none" />
</svg>