<?xml version="1.0" encoding="utf-8"?>
<svg version="1.1" xmlns:xlink="http://www.w3.org/1999/xlink" width="12px" height="12px" viewBox="440 2341  12 12" xmlns="http://www.w3.org/2000/svg">
  <path d="M 446 2341  C 449.36 2341  452 2343.64  452 2347  C 452 2350.36  449.36 2353  446 2353  C 442.64 2353  440 2350.36  440 2347  C 440 2343.64  442.64 2341  446 2341  Z " fill-rule="nonzero" fill="#f0f0f0" stroke="none" />
  <path d="M 446 2341.5  C 449.08 2341.5  451.5 2343.92  451.5 2347  C 451.5 2350.08  449.08 2352.5  446 2352.5  C 442.92 2352.5  440.5 2350.08  440.5 2347  C 440.5 2343.92  442.92 2341.5  446 2341.5  Z " stroke-width="1" stroke="#797979" fill="none" />
  <path d="M 446 2350  C 444.32 2350  443 2348.68  443 2347  C 443 2345.32  444.32 2344  446 2344  C 447.68 2344  449 2345.32  449 2347  C 449 2348.68  447.68 2350  446 2350  " fill-rule="nonzero" fill="#797979" stroke="none" />
</svg>