<?xml version="1.0" encoding="utf-8"?>
<svg version="1.1" xmlns:xlink="http://www.w3.org/1999/xlink" width="12px" height="12px" viewBox="411 442  12 12" xmlns="http://www.w3.org/2000/svg">
  <path d="M 417 442  C 420.36 442  423 444.64  423 448  C 423 451.36  420.36 454  417 454  C 413.64 454  411 451.36  411 448  C 411 444.64  413.64 442  417 442  Z " fill-rule="nonzero" fill="#f0f0f0" stroke="none" />
  <path d="M 417 442.5  C 420.08 442.5  422.5 444.92  422.5 448  C 422.5 451.08  420.08 453.5  417 453.5  C 413.92 453.5  411.5 451.08  411.5 448  C 411.5 444.92  413.92 442.5  417 442.5  Z " stroke-width="1" stroke="#797979" fill="none" />
  <path d="M 417 451  C 415.32 451  414 449.68  414 448  C 414 446.32  415.32 445  417 445  C 418.68 445  420 446.32  420 448  C 420 449.68  418.68 451  417 451  " fill-rule="nonzero" fill="#797979" stroke="none" />
</svg>