<?xml version="1.0" encoding="utf-8"?>
<svg version="1.1" xmlns:xlink="http://www.w3.org/1999/xlink" width="12px" height="12px" viewBox="330 2341  12 12" xmlns="http://www.w3.org/2000/svg">
  <path d="M 336 2341  C 339.36 2341  342 2343.64  342 2347  C 342 2350.36  339.36 2353  336 2353  C 332.64 2353  330 2350.36  330 2347  C 330 2343.64  332.64 2341  336 2341  Z " fill-rule="nonzero" fill="#ffffff" stroke="none" />
  <path d="M 336 2341.5  C 339.08 2341.5  341.5 2343.92  341.5 2347  C 341.5 2350.08  339.08 2352.5  336 2352.5  C 332.92 2352.5  330.5 2350.08  330.5 2347  C 330.5 2343.92  332.92 2341.5  336 2341.5  Z " stroke-width="1" stroke="#797979" fill="none" />
  <path d="M 336 2350  C 334.32 2350  333 2348.68  333 2347  C 333 2345.32  334.32 2344  336 2344  C 337.68 2344  339 2345.32  339 2347  C 339 2348.68  337.68 2350  336 2350  " fill-rule="nonzero" fill="#797979" stroke="none" />
</svg>