<?xml version="1.0" encoding="utf-8"?>
<svg version="1.1" xmlns:xlink="http://www.w3.org/1999/xlink" width="12px" height="12px" viewBox="315 2752  12 12" xmlns="http://www.w3.org/2000/svg">
  <path d="M 321 2752  C 324.36 2752  327 2754.64  327 2758  C 327 2761.36  324.36 2764  321 2764  C 317.64 2764  315 2761.36  315 2758  C 315 2754.64  317.64 2752  321 2752  Z " fill-rule="nonzero" fill="#ffffff" stroke="none" />
  <path d="M 321 2752.5  C 324.08 2752.5  326.5 2754.92  326.5 2758  C 326.5 2761.08  324.08 2763.5  321 2763.5  C 317.92 2763.5  315.5 2761.08  315.5 2758  C 315.5 2754.92  317.92 2752.5  321 2752.5  Z " stroke-width="1" stroke="#797979" fill="none" />
  <path d="M 321 2761  C 319.32 2761  318 2759.68  318 2758  C 318 2756.32  319.32 2755  321 2755  C 322.68 2755  324 2756.32  324 2758  C 324 2759.68  322.68 2761  321 2761  " fill-rule="nonzero" fill="#797979" stroke="none" />
</svg>