<?xml version="1.0" encoding="utf-8"?>
<svg version="1.1" xmlns:xlink="http://www.w3.org/1999/xlink" width="12px" height="12px" viewBox="301 481  12 12" xmlns="http://www.w3.org/2000/svg">
  <path d="M 307 481  C 310.36 481  313 483.64  313 487  C 313 490.36  310.36 493  307 493  C 303.64 493  301 490.36  301 487  C 301 483.64  303.64 481  307 481  Z " fill-rule="nonzero" fill="#ffffff" stroke="none" />
  <path d="M 307 481.5  C 310.08 481.5  312.5 483.92  312.5 487  C 312.5 490.08  310.08 492.5  307 492.5  C 303.92 492.5  301.5 490.08  301.5 487  C 301.5 483.92  303.92 481.5  307 481.5  Z " stroke-width="1" stroke="#797979" fill="none" />
  <path d="M 307 490  C 305.32 490  304 488.68  304 487  C 304 485.32  305.32 484  307 484  C 308.68 484  310 485.32  310 487  C 310 488.68  308.68 490  307 490  " fill-rule="nonzero" fill="#797979" stroke="none" />
</svg>