<?xml version="1.0" encoding="utf-8"?>
<svg version="1.1" xmlns:xlink="http://www.w3.org/1999/xlink" width="28px" height="28px" xmlns="http://www.w3.org/2000/svg">
  <g transform="matrix(1 0 0 1 -1064 -261 )">
    <path d="M 1078 261  C 1085.84 261  1092 267.16  1092 275  C 1092 282.84  1085.84 289  1078 289  C 1070.16 289  1064 282.84  1064 275  C 1064 267.16  1070.16 261  1078 261  Z " fill-rule="nonzero" fill="#ffffff" stroke="none" />
    <path d="M 1078 261.5  C 1085.56 261.5  1091.5 267.44  1091.5 275  C 1091.5 282.56  1085.56 288.5  1078 288.5  C 1070.44 288.5  1064.5 282.56  1064.5 275  C 1064.5 267.44  1070.44 261.5  1078 261.5  Z " stroke-width="1" stroke="#0000ff" fill="none" />
  </g>
</svg>