<?xml version="1.0" encoding="utf-8"?>
<svg version="1.1" xmlns:xlink="http://www.w3.org/1999/xlink" width="28px" height="28px" xmlns="http://www.w3.org/2000/svg">
  <g transform="matrix(1 0 0 1 -1372 -265 )">
    <path d="M 1386 265  C 1393.84 265  1400 271.16  1400 279  C 1400 286.84  1393.84 293  1386 293  C 1378.16 293  1372 286.84  1372 279  C 1372 271.16  1378.16 265  1386 265  Z " fill-rule="nonzero" fill="#ffffff" stroke="none" />
    <path d="M 1386 265.5  C 1393.56 265.5  1399.5 271.44  1399.5 279  C 1399.5 286.56  1393.56 292.5  1386 292.5  C 1378.44 292.5  1372.5 286.56  1372.5 279  C 1372.5 271.44  1378.44 265.5  1386 265.5  Z " stroke-width="1" stroke="#797979" fill="none" />
  </g>
</svg>