<?xml version="1.0" encoding="utf-8"?>
<svg version="1.1" xmlns:xlink="http://www.w3.org/1999/xlink" width="27px" height="9px" xmlns="http://www.w3.org/2000/svg">
  <g transform="matrix(1 0 0 1 -841 -336 )">
    <path d="M 1.17918368638394 8.75828570624998  C 1.07694536432825 8.82903801154885  0.953769602117774 8.86855689762695  0.82653059933034 8.87142855937498  C 0.8238952683256 8.8714638560142  0.821259699904004 8.8714815050152  0.818624097564367 8.8714815050152  C 0.514303934045216 8.8714815050152  0.26760369801076 8.64122795138303  0.26760369801076 8.35719579876525  C 0.26760369801076 8.20118506360438  0.343479933063264 8.05360829827214  0.473877542410719 7.95600000000002  L 6.53510202790176 3.32742855937499  C 6.73742871199505 3.17423664722821  7.0270610580942 3.17423664722821  7.2293877421875 3.32742855937499  L 12.3318367433035 7.13314285312498  L 18.5914285714286 0.303428559374993  C 18.7903273681975 0.0924481210769841  19.1338486289689 0.0695467090597504  19.3628571428571 0.25200000000001  L 26.5261224575893 5.90914285312499  C 26.6228865323289 6.00463655960374  26.6768047037343 6.13108486177077  26.6768047037343 6.26252119840461  C 26.6768047037343 6.54655335102251  26.4301044676999 6.77680690465468  26.1257843041808 6.77680690465468  C 26.0172786305149 6.77680690465468  25.9111880273916 6.74690717116374  25.8208163136161 6.69085714687498  L 19.0763265435268 1.362857146875  L 12.8167346852679 8.18228570625001  C 12.6220390969063 8.38990426719653  12.2864962334809 8.41713673579125  12.0563265435268 8.24400000000003  L 6.88775511495535 4.386857146875  L 1.17918368638394 8.75828570624998  Z " fill-rule="nonzero" fill="#999999" stroke="none" transform="matrix(1 0 0 1 841 336 )" />
  </g>
</svg>