<?xml version="1.0" encoding="utf-8"?>
<svg version="1.1" xmlns:xlink="http://www.w3.org/1999/xlink" width="6px" height="6px" xmlns="http://www.w3.org/2000/svg">
  <g transform="matrix(1 0 0 1 -850 -332 )">
    <path d="M 2.96703297115388 5.78571428125002  C 1.51045781359264 5.78571428125002  0.329670346153847 4.5065278581913  0.329670346153847 2.92857143750001  C 0.329670346153847 1.35061501680872  1.51045781359264 0.0714285937499994  2.96703297115388 0.0714285937499994  C 4.42360812871505 0.0714285937499994  5.60439559615384 1.35061501680872  5.60439559615384 2.92857143750001  C 5.60439559615384 4.5065278581913  4.42360812871505 5.78571428125002  2.96703297115388 5.78571428125002  Z M 4.54945055769232 2.92857143750001  C 4.54945055769232 1.98179757818167  3.84097807206305 1.21428571874998  2.96703297115388 1.21428571874998  C 2.0930878702446 1.21428571874998  1.38461538461536 1.98179757818167  1.38461538461536 2.92857143750001  C 1.38461538461536 3.87534529681835  2.0930878702446 4.64285715625005  2.96703297115388 4.64285715625005  C 3.84097807206305 4.64285715625005  4.54945055769232 3.87534529681835  4.54945055769232 2.92857143750001  Z " fill-rule="nonzero" fill="#999999" stroke="none" transform="matrix(1 0 0 1 850 332 )" />
  </g>
</svg>