<?xml version="1.0" encoding="utf-8"?>
<svg version="1.1" xmlns:xlink="http://www.w3.org/1999/xlink" width="104px" height="104px" xmlns="http://www.w3.org/2000/svg">
  <g transform="matrix(1 0 0 1 -1865 -390 )">
    <path d="M 1866 394  A 3 3 0 0 1 1869 391 L 1965 391  A 3 3 0 0 1 1968 394 L 1968 490  A 3 3 0 0 1 1965 493 L 1869 493  A 3 3 0 0 1 1866 490 L 1866 394  Z " fill-rule="nonzero" fill="#000000" stroke="none" fill-opacity="0.0196078431372549" />
    <path d="M 1865.5 394  A 3.5 3.5 0 0 1 1869 390.5 L 1965 390.5  A 3.5 3.5 0 0 1 1968.5 394 L 1968.5 490  A 3.5 3.5 0 0 1 1965 493.5 L 1869 493.5  A 3.5 3.5 0 0 1 1865.5 490 L 1865.5 394  Z " stroke-width="1" stroke-dasharray="9,4" stroke="#d9d9d9" fill="none" stroke-dashoffset="0.5" />
  </g>
</svg>