<?xml version="1.0" encoding="utf-8"?>
<svg version="1.1" xmlns:xlink="http://www.w3.org/1999/xlink" width="12px" height="12px" viewBox="198 270  12 12" xmlns="http://www.w3.org/2000/svg">
  <path d="M 204 270  C 207.36 270  210 272.64  210 276  C 210 279.36  207.36 282  204 282  C 200.64 282  198 279.36  198 276  C 198 272.64  200.64 270  204 270  Z " fill-rule="nonzero" fill="#ffffff" stroke="none" />
  <path d="M 204 270.5  C 207.08 270.5  209.5 272.92  209.5 276  C 209.5 279.08  207.08 281.5  204 281.5  C 200.92 281.5  198.5 279.08  198.5 276  C 198.5 272.92  200.92 270.5  204 270.5  Z " stroke-width="1" stroke="#797979" fill="none" />
  <path d="M 204 279  C 202.32 279  201 277.68  201 276  C 201 274.32  202.32 273  204 273  C 205.68 273  207 274.32  207 276  C 207 277.68  205.68 279  204 279  " fill-rule="nonzero" fill="#797979" stroke="none" />
</svg>