<?xml version="1.0" encoding="utf-8"?>
<svg version="1.1" xmlns:xlink="http://www.w3.org/1999/xlink" width="12px" height="12px" viewBox="406 270  12 12" xmlns="http://www.w3.org/2000/svg">
  <path d="M 412 270  C 415.36 270  418 272.64  418 276  C 418 279.36  415.36 282  412 282  C 408.64 282  406 279.36  406 276  C 406 272.64  408.64 270  412 270  Z " fill-rule="nonzero" fill="#ffffff" stroke="none" />
  <path d="M 412 270.5  C 415.08 270.5  417.5 272.92  417.5 276  C 417.5 279.08  415.08 281.5  412 281.5  C 408.92 281.5  406.5 279.08  406.5 276  C 406.5 272.92  408.92 270.5  412 270.5  Z " stroke-width="1" stroke="#797979" fill="none" />
  <path d="M 412 279  C 410.32 279  409 277.68  409 276  C 409 274.32  410.32 273  412 273  C 413.68 273  415 274.32  415 276  C 415 277.68  413.68 279  412 279  " fill-rule="nonzero" fill="#797979" stroke="none" />
</svg>