<?xml version="1.0" encoding="utf-8"?>
<svg version="1.1" xmlns:xlink="http://www.w3.org/1999/xlink" width="18px" height="18px" xmlns="http://www.w3.org/2000/svg">
  <g transform="matrix(1 0 0 1 -928 -970 )">
    <path d="M 16.6188616071429 16.6188616071429  C 16.6824776785714 16.5552455357143  16.7142857142857 16.4799107142857  16.7142857142857 16.3928571428571  L 16.7142857142857 5.46428571428572  C 16.7142857142857 5.37723214285714  16.6824776785714 5.30189732142857  16.6188616071429 5.23828125  C 16.5552455357143 5.17466517857143  16.4799107142857 5.14285714285714  16.3928571428571 5.14285714285714  L 5.46428571428571 5.14285714285714  C 5.37723214285714 5.14285714285714  5.30189732142857 5.17466517857143  5.23828125 5.23828125  C 5.17466517857143 5.30189732142857  5.14285714285714 5.37723214285714  5.14285714285714 5.46428571428572  L 5.14285714285714 16.3928571428571  C 5.14285714285714 16.4799107142857  5.17466517857143 16.5552455357143  5.23828125 16.6188616071429  C 5.30189732142857 16.6824776785714  5.37723214285714 16.7142857142857  5.46428571428571 16.7142857142857  L 16.3928571428571 16.7142857142857  C 16.4799107142857 16.7142857142857  16.5552455357143 16.6824776785714  16.6188616071429 16.6188616071429  Z M 17.5279017857143 4.32924107142857  C 17.8426339285714 4.64397321428571  18 5.02232142857143  18 5.46428571428572  L 18 16.3928571428571  C 18 16.8348214285714  17.8426339285714 17.2131696428571  17.5279017857143 17.5279017857143  C 17.2131696428571 17.8426339285714  16.8348214285714 18  16.3928571428571 18  L 5.46428571428571 18  C 5.02232142857143 18  4.64397321428571 17.8426339285714  4.32924107142857 17.5279017857143  C 4.01450892857143 17.2131696428571  3.85714285714286 16.8348214285714  4 16.3928571428571  L 4 5.46428571428572  C 3.85714285714286 5.02232142857143  4.01450892857143 4.64397321428571  4.32924107142857 4.32924107142857  C 4.64397321428571 4.01450892857143  5.02232142857143 3.85714285714286  5.46428571428571 4  L 16.3928571428571 4  C 16.8348214285714 3.85714285714286  17.2131696428571 4.01450892857143  17.5279017857143 4.32924107142857  Z M 13.6707589285714 0.472098214285715  C 13.9854910714286 0.786830357142856  14.1428571428571 1.16517857142857  14.1428571428571 1.60714285714286  L 14.1428571428571 3.21428571428571  L 12.8571428571429 3.21428571428571  L 12.8571428571429 1.60714285714286  C 12.8571428571429 1.52008928571429  12.8253348214286 1.44475446428571  12.76171875 1.38113839285714  C 12.6981026785714 1.31752232142857  12.6227678571429 1.28571428571429  12.5357142857143 1.28571428571429  L 1.60714285714286 1.28571428571429  C 1.52008928571429 1.28571428571429  1.44475446428571 1.31752232142857  1.38113839285714 1.38113839285714  C 1.31752232142857 1.44475446428571  1.28571428571429 1.52008928571429  1.28571428571429 1.60714285714286  L 1.28571428571429 12.5357142857143  C 1.28571428571429 12.6227678571429  1.31752232142857 12.6981026785714  1.38113839285714 12.76171875  C 1.44475446428571 12.8253348214286  1.52008928571429 12.8571428571429  1.60714285714286 12.8571428571429  L 3.21428571428571 12.8571428571429  L 3.21428571428571 14.1428571428571  L 1.60714285714286 14.1428571428571  C 1.16517857142857 14.1428571428571  0.786830357142857 13.9854910714286  0.472098214285714 13.6707589285714  C 0.157366071428571 13.3560267857143  0 12.9776785714286  0 12.5357142857143  L 0 1.60714285714286  C 0 1.16517857142857  0.157366071428571 0.786830357142856  0.472098214285714 0.472098214285715  C 0.786830357142857 0.157366071428572  1.16517857142857 0  1.60714285714286 0  L 12.5357142857143 0  C 12.9776785714286 0  13.3560267857143 0.157366071428572  13.6707589285714 0.472098214285715  Z " fill-rule="nonzero" fill="#000000" stroke="none" transform="matrix(1 0 0 1 928 970 )" />
  </g>
</svg>