<?xml version="1.0" encoding="utf-8"?>
<svg version="1.1" xmlns:xlink="http://www.w3.org/1999/xlink" width="33px" height="33px" xmlns="http://www.w3.org/2000/svg">
  <defs>
    <filter x="517px" y="683px" width="33px" height="33px" filterUnits="userSpaceOnUse" id="filter112">
      <feOffset dx="1" dy="1" in="SourceAlpha" result="shadowOffsetInner" />
      <feGaussianBlur stdDeviation="2.5" in="shadowOffsetInner" result="shadowGaussian" />
      <feComposite in2="shadowGaussian" operator="atop" in="SourceAlpha" result="shadowComposite" />
      <feColorMatrix type="matrix" values="0 0 0 0 0  0 0 0 0 0  0 0 0 0 0  0 0 0 0.698039215686274 0  " in="shadowComposite" />
    </filter>
    <g id="widget113">
      <path d="M 532.5 687  C 538.94 687  544 692.06  544 698.5  C 544 704.94  538.94 710  532.5 710  C 526.06 710  521 704.94  521 698.5  C 521 692.06  526.06 687  532.5 687  Z " fill-rule="nonzero" fill="#d9001b" stroke="none" />
      <path d="M 532.5 687.5  C 538.66 687.5  543.5 692.34  543.5 698.5  C 543.5 704.66  538.66 709.5  532.5 709.5  C 526.34 709.5  521.5 704.66  521.5 698.5  C 521.5 692.34  526.34 687.5  532.5 687.5  Z " stroke-width="1" stroke="#ffffff" fill="none" />
    </g>
  </defs>
  <g transform="matrix(1 0 0 1 -517 -683 )">
    <use xlink:href="#widget113" filter="url(#filter112)" />
    <use xlink:href="#widget113" />
  </g>
</svg>