<?xml version="1.0" encoding="utf-8"?>
<svg version="1.1" xmlns:xlink="http://www.w3.org/1999/xlink" width="13px" height="12px" xmlns="http://www.w3.org/2000/svg">
  <g transform="matrix(1 0 0 1 -828 -1351 )">
    <path d="M 6.5 0.041379310344837  C 2.93490671833363 0.041379310344837  0.0448275862069067 2.7091446630772  0.0448275862069067 6  C 0.0448275862069067 9.2908553369228  2.93490671833363 11.9586206896552  6.5 11.9586206896552  C 10.0650932816664 11.9586206896552  12.9551724137931 9.2908553369228  12.9551724137931 6  C 12.9551724137931 2.7091446630772  10.0650932816664 0.041379310344837  6.5 0.041379310344837  Z M 6.5 11.1072  C 3.4443189361362 11.1072  0.9672 8.82062867433585  0.9672 6  C 0.9672 3.17937132566415  3.4443189361362 0.892800000000034  6.5 0.892800000000034  C 9.5556810638638 0.892800000000034  12.0328 3.17937132566415  12.0328 6  C 12.0328 8.82062867433585  9.5556810638638 11.1072  6.5 11.1072  Z M 6.73094673447048 3.00535674660498  C 6.65366606986386 3.00535674660498  6.57648522054255 3.01048090178522  6.5 3.02068965517242  C 6.44751343211895 3.01613693171564  6.39482459077939 3.01385681970996  6.34210679884152 3.01385681970996  C 5.41003296642365 3.01385681970996  4.65443783332427 3.7113292502632  4.65443783332427 4.57170509557204  C 4.65443783332427 4.59385232849088  4.65494947645522 4.61599704326902  4.65597241379311 4.63812413793105  L 5.49514482758621 4.63812413793105  C 5.49388180806807 4.61996439690649  5.4932498113945 4.60177194670077  5.4932498113945 4.5835748196379  C 5.4932498113945 4.11334815705095  5.90621000738503 3.73215412998277  6.41562222518759 3.73215412998277  C 6.44379245204456 3.73215412998277  6.47194789093723 3.7333453813621  6.5 3.73572413793104  C 6.99776551724139 3.73572413793104  7.42237241379309 3.96546206896551  7.42237241379309 4.50173793103447  C 7.42237241379309 4.90162758620693  7.16416551724137 5.08899310344825  6.74888275862068 5.35315862068967  C 6.2541671966585 5.61472844684297  5.94312859933248 6.09559177589888  5.92835862068967 6.62168275862066  L 5.92835862068967 6.91961379310342  L 6.76753103448277 6.91961379310342  L 6.76753103448277 6.68921379310348  C 6.76753103448277 6.22973793103447  6.95186206896552 6.09335172413796  7.45895172413792 5.73583448275865  C 7.97872651765177 5.48141152580724  8.31499323547255 4.99317287779072  8.34402758620689 4.45075862068966  C 8.31810502881322 3.64563211829834  7.6035522387312 3.00535674660498  6.73094673447048 3.00535674660498  Z M 5.79925517241381 8.1914482758621  C 5.80532042411603 8.51653372690007  6.09254428381784 8.77713663712655  6.44477241379312 8.77713663712655  C 6.80133460925348 8.77713663712655  7.09038537987561 8.51032054116765  7.09038537987561 8.18118620689652  C 7.09038537987561 8.17776532703567  7.09035347045841 8.17434451057982  7.09028965517243 8.170924137931  C 7.09035353812837 8.1675270163365  7.09038548141065 8.16412944694973  7.09038548141065 8.16073181358847  C 7.09038548141065 7.83639973760514  6.80555212694437 7.57347664117469  6.45419237796236 7.57347664117469  C 6.43860442302144 7.57347664117469  6.42302173380974 7.57400547403092  6.40747586206896 7.57506206896549  C 6.05655165471663 7.59358418542308  5.78618428492803 7.86787560992559  5.79925517241381 8.19211034482758  Z " fill-rule="nonzero" fill="#555555" stroke="none" transform="matrix(1 0 0 1 828 1351 )" />
  </g>
</svg>