<?xml version="1.0" encoding="utf-8"?>
<svg version="1.1" xmlns:xlink="http://www.w3.org/1999/xlink" width="12px" height="12px" viewBox="231 3539  12 12" xmlns="http://www.w3.org/2000/svg">
  <path d="M 237 3539  C 240.36 3539  243 3541.64  243 3545  C 243 3548.36  240.36 3551  237 3551  C 233.64 3551  231 3548.36  231 3545  C 231 3541.64  233.64 3539  237 3539  Z " fill-rule="nonzero" fill="#ffffff" stroke="none" />
  <path d="M 237 3539.5  C 240.08 3539.5  242.5 3541.92  242.5 3545  C 242.5 3548.08  240.08 3550.5  237 3550.5  C 233.92 3550.5  231.5 3548.08  231.5 3545  C 231.5 3541.92  233.92 3539.5  237 3539.5  Z " stroke-width="1" stroke="#797979" fill="none" />
  <path d="M 237 3548  C 235.32 3548  234 3546.68  234 3545  C 234 3543.32  235.32 3542  237 3542  C 238.68 3542  240 3543.32  240 3545  C 240 3546.68  238.68 3548  237 3548  " fill-rule="nonzero" fill="#797979" stroke="none" />
</svg>