<?xml version="1.0" encoding="utf-8"?>
<svg version="1.1" xmlns:xlink="http://www.w3.org/1999/xlink" width="12px" height="12px" viewBox="439 3539  12 12" xmlns="http://www.w3.org/2000/svg">
  <path d="M 445 3539  C 448.36 3539  451 3541.64  451 3545  C 451 3548.36  448.36 3551  445 3551  C 441.64 3551  439 3548.36  439 3545  C 439 3541.64  441.64 3539  445 3539  Z " fill-rule="nonzero" fill="#f0f0f0" stroke="none" />
  <path d="M 445 3539.5  C 448.08 3539.5  450.5 3541.92  450.5 3545  C 450.5 3548.08  448.08 3550.5  445 3550.5  C 441.92 3550.5  439.5 3548.08  439.5 3545  C 439.5 3541.92  441.92 3539.5  445 3539.5  Z " stroke-width="1" stroke="#797979" fill="none" />
  <path d="M 445 3548  C 443.32 3548  442 3546.68  442 3545  C 442 3543.32  443.32 3542  445 3542  C 446.68 3542  448 3543.32  448 3545  C 448 3546.68  446.68 3548  445 3548  " fill-rule="nonzero" fill="#797979" stroke="none" />
</svg>