<?xml version="1.0" encoding="utf-8"?>
<svg version="1.1" xmlns:xlink="http://www.w3.org/1999/xlink" width="15px" height="15px" xmlns="http://www.w3.org/2000/svg">
  <g transform="matrix(1 0 0 1 -942 -3674 )">
    <path d="M 14.3181818115234 4.09090908691402  L 14.3181818115234 4  L 0.690082646484356 4  C 0.392561982421867 4.09090908691402  0.0123966943359335 3.70247934082033  0.0123966943359335 3.41322313476564  C 0.00413223632813242 3.10743801269535  0.392561982421867 2.72727272460938  0.690082646484356 2.72727272460938  L 3.41735537109373 2.72727272460938  L 3.41735537109373 1.36363636230465  C 3.40909091308593 0.479338842773444  3.88842975585938 0  4.77272727539062 0  L 10.1859504199219 0  C 11.0619834814453 0  11.5826446289063 0.479338842773444  11.5826446289063 1.36363636230465  L 11.5826446289063 2.72727272460938  L 14.3099173535156 2.72727272460938  C 14.6074380175781 2.72727272460938  14.9876033056641 3.11570247070316  14.9876033056641 3.40495867675784  C 14.9958677636719 3.70247934082033  14.6157024755859 4.09090908691402  14.3181818115234 4.09090908691402  Z M 10.2272727246094 2.04958677246091  C 10.2272727246094 1.75206610839842  9.83884297851564 1.37190082031253  9.54958677246096 1.37190082031253  L 5.45867768554689 1.37190082031253  C 5.16115702148436 1.37190082031253  4.78099173339842 1.76033056640622  4.78099173339842 2.04958677246091  L 4.78099173339842 2.72727272460938  L 10.2355371826172 2.72727272460938  L 10.2272727246094 2.04958677246091  Z M 6.82231404785158 5.45454544921876  L 6.82231404785158 12.2727272607422  L 5.45867768554689 12.2727272753906  L 5.45867768554689 5.45454544921876  L 6.82231404785158 5.45454544921876  Z M 9.54958677246096 5.45454544921876  L 9.54958677246096 12.2727272607422  L 8.18595041015627 12.2727272753906  L 8.18595041015627 5.45454544921876  L 9.54958677246096 5.45454544921876  Z M 2.73140496093751 4.76859503906249  C 3.028925625 4.76859503906249  3.41735537109373 5.15702478515627  3.41735537109373 5.44628099121095  L 3.41735537109373 12.9421487548828  C 3.41735537109373 13.2396694189453  3.80578511718751 13.6198347070313  4.0950413232422 13.6198347070313  L 10.9132231347656 13.6198347070313  C 11.2107437988281 13.6198347070313  11.5909090869141 13.2314049609375  11.5909090869141 12.9421487548828  L 11.5909090869141 5.45454544921876  C 11.5909090869141 5.15702478515627  11.9793388330078 4.77685949707029  12.2685950390625 4.77685949707029  C 12.566115703125 4.77685949707029  12.946280991211 5.16528924316407  12.946280991211 5.45454544921876  L 12.946280991211 13.6363636376954  C 12.946280991211 14.5206611572266  12.4669421484375 15  11.5826446289063 15  L 3.40082644042971 15  C 2.51652892089842 15  2.03719007812502 14.5206611572266  2.03719007812502 13.6363636376954  L 2.03719007812498 5.45454544921876  C 2.04545455078124 5.15702479980465  2.43388429687502 4.76859503906249  2.73140496093751 4.76859503906249  Z " fill-rule="nonzero" fill="#d9001b" stroke="none" transform="matrix(1 0 0 1 942 3674 )" />
  </g>
</svg>