<?xml version="1.0" encoding="utf-8"?>
<svg version="1.1" xmlns:xlink="http://www.w3.org/1999/xlink" width="12px" height="12px" viewBox="439 3004  12 12" xmlns="http://www.w3.org/2000/svg">
  <path d="M 445 3004  C 448.36 3004  451 3006.64  451 3010  C 451 3013.36  448.36 3016  445 3016  C 441.64 3016  439 3013.36  439 3010  C 439 3006.64  441.64 3004  445 3004  Z " fill-rule="nonzero" fill="#ffffff" stroke="none" />
  <path d="M 445 3004.5  C 448.08 3004.5  450.5 3006.92  450.5 3010  C 450.5 3013.08  448.08 3015.5  445 3015.5  C 441.92 3015.5  439.5 3013.08  439.5 3010  C 439.5 3006.92  441.92 3004.5  445 3004.5  Z " stroke-width="1" stroke="#797979" fill="none" />
  <path d="M 445 3013  C 443.32 3013  442 3011.68  442 3010  C 442 3008.32  443.32 3007  445 3007  C 446.68 3007  448 3008.32  448 3010  C 448 3011.68  446.68 3013  445 3013  " fill-rule="nonzero" fill="#797979" stroke="none" />
</svg>