<?xml version="1.0" encoding="utf-8"?>
<svg version="1.1" xmlns:xlink="http://www.w3.org/1999/xlink" width="12px" height="12px" viewBox="231 3004  12 12" xmlns="http://www.w3.org/2000/svg">
  <path d="M 237 3004  C 240.36 3004  243 3006.64  243 3010  C 243 3013.36  240.36 3016  237 3016  C 233.64 3016  231 3013.36  231 3010  C 231 3006.64  233.64 3004  237 3004  Z " fill-rule="nonzero" fill="#ffffff" stroke="none" />
  <path d="M 237 3004.5  C 240.08 3004.5  242.5 3006.92  242.5 3010  C 242.5 3013.08  240.08 3015.5  237 3015.5  C 233.92 3015.5  231.5 3013.08  231.5 3010  C 231.5 3006.92  233.92 3004.5  237 3004.5  Z " stroke-width="1" stroke="#797979" fill="none" />
  <path d="M 237 3013  C 235.32 3013  234 3011.68  234 3010  C 234 3008.32  235.32 3007  237 3007  C 238.68 3007  240 3008.32  240 3010  C 240 3011.68  238.68 3013  237 3013  " fill-rule="nonzero" fill="#797979" stroke="none" />
</svg>