<?xml version="1.0" encoding="utf-8"?>
<svg version="1.1" xmlns:xlink="http://www.w3.org/1999/xlink" width="20px" height="20px" xmlns="http://www.w3.org/2000/svg">
  <g transform="matrix(1 0 0 1 -981 -3030 )">
    <path d="M 13.0372518446181 11.9064851779514  L 11.1120238064236 9.9806353515625  L 13.0399833116319 8.0520318359375  C 13.3439549913194 7.74794911024305  13.3432887803819 7.25486119791667  13.0399833116319 6.95075627170139  C 12.7360116319444 6.64667354600694  12.2444338107639 6.64598513454861  11.9390852864583 6.95075627170139  L 10.0111479817708 8.87935978732639  L 8.08660837673611 6.9535099609375  C 7.78263669704861 6.64940503472222  7.28830518663194 6.65011566840278  6.98502191840278 6.9535099609375  C 6.68102801649306 7.25759268663194  6.68036180555556 7.75068059895833  6.98502191840278 8.05545173611111  L 8.910227734375 9.9813015625  L 6.98226822916667 11.909905078125  C 6.67896276041667 12.2132993706597  6.67760811631944 12.707786328125  6.98160201822917 13.0118468532986  C 7.28488528645833 13.3152411458333  7.77850616319444 13.3159517795139  8.0831884765625 13.0111806423611  L 10.0097711371528 11.0839317708333  L 11.9349991753472 13.0098037977431  C 12.2376162326389 13.3125096788194  12.7319033203125 13.3145749348958  13.0372740451389 13.0091153862847  C 13.3405351128472 12.7043664496528  13.3412235460069 12.2112563151042  13.0372518446181 11.9064851779514  Z M 16.8869750651042 3.09219459635417  C 13.0954568359375 -0.700633875868056  6.92339702690972 -0.701988498263889  3.13047975260417 3.09219459635417  C -0.662437543402778 6.88637769097222  -0.661082899305556 13.0605027560764  3.13047975260417 16.8533312065972  C 6.92339704861111 20.6475143012153  13.0940577907986 20.6488911458333  16.8876634982639 16.8539974175347  C 20.6805807942708 13.0597921223958  20.6805807942708 6.88706612413195  16.8869750651042 3.09219459635417  Z M 3.99107404513889 15.993114453125  C 0.671924435763889 12.6728544704861  0.672612847222222 7.272626953125  3.99038563368056 3.95305538194445  C 7.31022367621528 0.632129188368056  12.707941796875 0.632795399305557  16.02709140625 3.95238917100695  C 19.346241015625 7.27262693142361  19.3469072482639 12.6728322699653  16.02709140625 15.9938028645833  C 12.7099848524306 19.3133744140625  7.30953524305556 19.3133744140625  3.99107404513889 15.993114453125  Z " fill-rule="nonzero" fill="#000000" stroke="none" transform="matrix(1 0 0 1 981 3030 )" />
  </g>
</svg>