<?xml version="1.0" encoding="utf-8"?>
<svg version="1.1" xmlns:xlink="http://www.w3.org/1999/xlink" width="12px" height="12px" viewBox="240 1689  12 12" xmlns="http://www.w3.org/2000/svg">
  <path d="M 246 1689  C 249.36 1689  252 1691.64  252 1695  C 252 1698.36  249.36 1701  246 1701  C 242.64 1701  240 1698.36  240 1695  C 240 1691.64  242.64 1689  246 1689  Z " fill-rule="nonzero" fill="#f0f0f0" stroke="none" />
  <path d="M 246 1689.5  C 249.08 1689.5  251.5 1691.92  251.5 1695  C 251.5 1698.08  249.08 1700.5  246 1700.5  C 242.92 1700.5  240.5 1698.08  240.5 1695  C 240.5 1691.92  242.92 1689.5  246 1689.5  Z " stroke-width="1" stroke="#797979" fill="none" />
  <path d="M 246 1698  C 244.32 1698  243 1696.68  243 1695  C 243 1693.32  244.32 1692  246 1692  C 247.68 1692  249 1693.32  249 1695  C 249 1696.68  247.68 1698  246 1698  " fill-rule="nonzero" fill="#797979" stroke="none" />
</svg>