<?xml version="1.0" encoding="utf-8"?>
<svg version="1.1" xmlns:xlink="http://www.w3.org/1999/xlink" width="20px" height="20px" xmlns="http://www.w3.org/2000/svg">
  <g transform="matrix(1 0 0 1 -115 -107 )">
    <path d="M 19.0909090820313 5.4545454492187  L 0.920110195312475 5.4545454492187  C 0.52341597656249 5.4545454492187  0.0165289257812447 4.93663912109378  0.0165289257812447 4.55096417968753  C 0.0055096484375099 4.14325068359381  0.52341597656249 3.6363636328125  0.920110195312475 3.6363636328125  L 4.55647382812498 3.6363636328125  L 4.55647382812498 1.8181818164062  C 4.54545455078124 0.639118457031259  5.1845730078125 0  6.3636363671875 0  L 13.5812672265625 0  C 14.7493113085937 0  15.443526171875 0.639118457031259  15.443526171875 1.8181818164062  L 15.443526171875 3.6363636328125  L 19.0798898046875 3.6363636328125  C 19.4765840234375 3.6363636328125  19.9834710742188 4.15426996093754  19.9834710742188 4.53994490234379  C 19.9944903515625 4.93663912109378  19.4876033007812 5.4545454492187  19.0909090820313 5.4545454492187  Z M 13.6363636328125 2.73278236328122  C 13.6363636328125 2.33608814453123  13.1184573046875 1.82920109375004  12.7327823632813 1.82920109375004  L 7.27823691406252 1.82920109375004  C 6.88154269531248 1.82920109375004  6.37465564453123 2.34710742187497  6.37465564453123 2.73278236328122  L 6.37465564453123 3.6363636328125  L 13.6473829101562 3.6363636328125  L 13.6363636328125 2.73278236328122  Z M 9.09641873046877 7.27272726562501  L 9.09641873046877 16.3636363476562  L 7.27823691406252 16.3636363671875  L 7.27823691406252 7.27272726562501  L 9.09641873046877 7.27272726562501  Z M 12.7327823632813 7.27272726562501  L 12.7327823632813 16.3636363476562  L 10.914600546875 16.3636363671875  L 10.914600546875 7.27272726562501  L 12.7327823632813 7.27272726562501  Z M 3.64187328125001 6.35812671874999  C 4.0385675 6.35812671874999  4.55647382812498 6.87603304687502  4.55647382812498 7.26170798828127  L 4.55647382812498 17.2561983398438  C 4.55647382812498 17.6528925585937  5.07438015625002 18.1597796093751  5.46005509765627 18.1597796093751  L 14.5509641796875 18.1597796093751  C 14.9476583984375 18.1597796093751  15.4545454492188 17.64187328125  15.4545454492188 17.2561983398438  L 15.4545454492188 7.27272726562501  C 15.4545454492188 6.87603304687502  15.9724517773437 6.36914599609372  16.35812671875 6.36914599609372  C 16.7548209375 6.36914599609372  17.2617079882813 6.88705232421876  17 7.27272726562501  L 17 18.1818181835938  C 17.2617079882813 19.3608815429687  16.62258953125 20  15.443526171875 20  L 4.53443525390628 20  C 3.35537189453123 20  2.71625343750003 19.3608815429687  3 18.1818181835938  L 3 7.27272726562501  C 2.72727273437499 6.87603306640619  3.24517906250003 6.35812671874999  3.64187328125001 6.35812671874999  Z " fill-rule="nonzero" fill="#ffffff" stroke="none" transform="matrix(1 0 0 1 115 107 )" />
  </g>
</svg>