<?xml version="1.0" encoding="utf-8"?>
<svg version="1.1" xmlns:xlink="http://www.w3.org/1999/xlink" width="17px" height="16px" xmlns="http://www.w3.org/2000/svg">
  <g transform="matrix(1 0 0 1 -65 -119 )">
    <path d="M 5.0030622007326 13.0729881781376  L 7.94618578363859 11.1367121341816  L 8.19799657338217 10.9710576595335  L 8.50063331868132 10.9710576595335  L 13.9979451702076 10.9710576595335  C 14.5493060454212 10.9710576595335  14.9982313494505 10.52878104492  14.9982313494505 9.98469071139383  L 14.9982313650794 2.09378663582033  C 14.9982313650794 1.55045385772125  14.5493060610501 1.10819303643729  13.9979451858364 1.10819303643729  L 2.00453863931623 1.10819302101408  C 1.45317776410257 1.10819302101408  1.00502013186813 1.55045384229805  1.00502013186813 2.09378662039713  L 1.00502013186813 9.98470648930014  C 1.00502013186813 10.5287968382494  1.45317776410257 10.9710734374398  2.00453863931623 10.9710734374398  L 4.00355968156289 10.9710734374398  L 5.00307818901099 10.9710734374398  L 5.00307818901099 11.957424607673  L 5.00307818901099 13.0729881781376  Z M 4.00355968156289 14.9157521341817  L 4.00355968156289 11.9574246230963  L 2.00453863931623 11.9574246230963  C 0.901065205372402 11.9574246230963  0.0054856205128317 11.0744181068055  0.0054856205128317 9.98470648930014  L 0.0054856205128317 2.09378663582033  C 0.0054856205128317 1.00484838249471  0.901065205372402 0.121841850780817  2.00453863931623 0.121841850780817  L 13.9979291819292 0.121841850780817  C 15.1021702720391 0.121841850780817  15.9977498725275 1.0048483670715  15.9977498725275 2.09378663582033  L 15.9977498725275 9.98470650472334  C 15.9977498725275 11.0744181068055  15.1021702876679 11.9574246385194  13.9979291819292 11.9574246385194  L 8.50061733040293 11.9574246230963  L 4.00355968156289 14.9157521341817  Z " fill-rule="nonzero" fill="#ffffff" stroke="none" transform="matrix(1 0 0 1 65 119 )" />
  </g>
</svg>