<?xml version="1.0" encoding="utf-8"?>
<svg version="1.1" xmlns:xlink="http://www.w3.org/1999/xlink" width="11px" height="12px" xmlns="http://www.w3.org/2000/svg">
  <g transform="matrix(1 0 0 1 -377 -956 )">
    <path d="M 10.9819672131148 6.00655737295085  C 10.9819672131148 2.7037134919955  8.52760689087566 0.0262295040983815  5.5 0.0262295040983815  C 2.47239310912434 0.0262295040983815  0.0180327868852359 2.7037134919955  0.0180327868852359 6.00655737295085  C 0.0180327868852359 9.30940125390612  2.47239310912434 11.9868852418033  5.5 11.9868852418033  C 8.52760689087566 11.9868852418033  10.9819672131148 9.30940125390612  10.9819672131148 6.00655737295085  Z M 6.15331584323773 5.94864261885249  L 7.86099672131148 7.80663606147542  L 7.23432131147543 8.48860327868854  L 5.52664043340161 6.63050492213114  L 3.81895956659834 8.48849836475407  L 3.19228415676229 7.80653114754102  L 4.89996502356556 5.94864261885249  L 3.19228415676229 4.09075410245902  L 3.81895956659834 3.40878688524589  L 5.52664043340161 5.26688524180329  L 7.23432131147543 3.40889179918037  L 7.86099672131148 4.09085901639341  L 6.15331584323773 5.94864261885249  Z " fill-rule="nonzero" fill="#e4e4e4" stroke="none" transform="matrix(1 0 0 1 377 956 )" />
  </g>
</svg>