<?xml version="1.0" encoding="utf-8"?>
<svg version="1.1" xmlns:xlink="http://www.w3.org/1999/xlink" width="38px" height="20px" xmlns="http://www.w3.org/2000/svg">
  <g transform="matrix(1 0 0 1 -1138 -773 )">
    <path d="M 1139 777  A 3 3 0 0 1 1142 774 L 1172 774  A 3 3 0 0 1 1175 777 L 1175 789  A 3 3 0 0 1 1172 792 L 1142 792  A 3 3 0 0 1 1139 789 L 1139 777  Z " fill-rule="nonzero" fill="#ff3399" stroke="none" fill-opacity="0.0980392156862745" />
    <path d="M 1138.5 777  A 3.5 3.5 0 0 1 1142 773.5 L 1172 773.5  A 3.5 3.5 0 0 1 1175.5 777 L 1175.5 789  A 3.5 3.5 0 0 1 1172 792.5 L 1142 792.5  A 3.5 3.5 0 0 1 1138.5 789 L 1138.5 777  Z " stroke-width="1" stroke-dasharray="9,4" stroke="#ff3399" fill="none" stroke-dashoffset="0.5" />
  </g>
</svg>