<?xml version="1.0" encoding="utf-8"?>
<svg version="1.1" xmlns:xlink="http://www.w3.org/1999/xlink" width="10px" height="15px" preserveAspectRatio="xMidYMin meet" viewBox="1153 793  8 15" xmlns="http://www.w3.org/2000/svg">
  <path d="M 1157.5 794  L 1157.5 798  A 5 5 0 0 1 1152.5 803.5 L 1051.5 803.5  A 1.5 1.5 0 0 1 1050.5 802 A 1.5 1.5 0 0 0 1049 800.5 L 1004 800.5  A 5 5 0 0 0 999.5 805.5 L 999.5 814  " stroke-width="1" stroke="#ff3399" fill="none" />
  <path d="M 1157.5 793  A 3 3 0 0 0 1154.5 796 A 3 3 0 0 0 1157.5 799 A 3 3 0 0 0 1160.5 796 A 3 3 0 0 0 1157.5 793 Z " fill-rule="nonzero" fill="#ff3399" stroke="none" />
</svg>