<?xml version="1.0" encoding="utf-8"?>
<svg version="1.1" xmlns:xlink="http://www.w3.org/1999/xlink" width="38px" height="20px" xmlns="http://www.w3.org/2000/svg">
  <g transform="matrix(1 0 0 1 -1138 -817 )">
    <path d="M 1139 821  A 3 3 0 0 1 1142 818 L 1172 818  A 3 3 0 0 1 1175 821 L 1175 833  A 3 3 0 0 1 1172 836 L 1142 836  A 3 3 0 0 1 1139 833 L 1139 821  Z " fill-rule="nonzero" fill="#ff3399" stroke="none" fill-opacity="0.0980392156862745" />
    <path d="M 1138.5 821  A 3.5 3.5 0 0 1 1142 817.5 L 1172 817.5  A 3.5 3.5 0 0 1 1175.5 821 L 1175.5 833  A 3.5 3.5 0 0 1 1172 836.5 L 1142 836.5  A 3.5 3.5 0 0 1 1138.5 833 L 1138.5 821  Z " stroke-width="1" stroke-dasharray="9,4" stroke="#ff3399" fill="none" stroke-dashoffset="0.5" />
  </g>
</svg>