<?xml version="1.0" encoding="utf-8"?>
<svg version="1.1" xmlns:xlink="http://www.w3.org/1999/xlink" width="18px" height="18px" preserveAspectRatio="xMinYMid meet" viewBox="1148 832  18 16" xmlns="http://www.w3.org/2000/svg">
  <path d="M 1157.5 838  L 1157.5 842  A 5 5 0 0 1 1152.5 847.5 L 1053.5 847.5  A 3.5 3.5 0 0 1 1050.5 844 A 3.5 3.5 0 0 0 1047 840.5 L 1004 840.5  A 5 5 0 0 0 999.5 845.5 L 999.5 858  " stroke-width="1" stroke="#ff3399" fill="none" />
  <path d="M 1157.5 837  A 3 3 0 0 0 1154.5 840 A 3 3 0 0 0 1157.5 843 A 3 3 0 0 0 1160.5 840 A 3 3 0 0 0 1157.5 837 Z " fill-rule="nonzero" fill="#ff3399" stroke="none" />
</svg>