<?xml version="1.0" encoding="utf-8"?>
<svg version="1.1" xmlns:xlink="http://www.w3.org/1999/xlink" width="142px" height="20px" xmlns="http://www.w3.org/2000/svg">
  <g transform="matrix(1 0 0 1 -1312 -817 )">
    <path d="M 1313 821  A 3 3 0 0 1 1316 818 L 1450 818  A 3 3 0 0 1 1453 821 L 1453 833  A 3 3 0 0 1 1450 836 L 1316 836  A 3 3 0 0 1 1313 833 L 1313 821  Z " fill-rule="nonzero" fill="#ff3399" stroke="none" fill-opacity="0.0980392156862745" />
    <path d="M 1312.5 821  A 3.5 3.5 0 0 1 1316 817.5 L 1450 817.5  A 3.5 3.5 0 0 1 1453.5 821 L 1453.5 833  A 3.5 3.5 0 0 1 1450 836.5 L 1316 836.5  A 3.5 3.5 0 0 1 1312.5 833 L 1312.5 821  Z " stroke-width="1" stroke-dasharray="9,4" stroke="#ff3399" fill="none" stroke-dashoffset="0.5" />
  </g>
</svg>