<?xml version="1.0" encoding="utf-8"?>
<svg version="1.1" xmlns:xlink="http://www.w3.org/1999/xlink" width="12px" height="12px" viewBox="364 353  12 12" xmlns="http://www.w3.org/2000/svg">
  <path d="M 370 353  C 373.36 353  376 355.64  376 359  C 376 362.36  373.36 365  370 365  C 366.64 365  364 362.36  364 359  C 364 355.64  366.64 353  370 353  Z " fill-rule="nonzero" fill="#ffffff" stroke="none" />
  <path d="M 370 353.5  C 373.08 353.5  375.5 355.92  375.5 359  C 375.5 362.08  373.08 364.5  370 364.5  C 366.92 364.5  364.5 362.08  364.5 359  C 364.5 355.92  366.92 353.5  370 353.5  Z " stroke-width="1" stroke="#797979" fill="none" />
  <path d="M 370 362  C 368.32 362  367 360.68  367 359  C 367 357.32  368.32 356  370 356  C 371.68 356  373 357.32  373 359  C 373 360.68  371.68 362  370 362  " fill-rule="nonzero" fill="#797979" stroke="none" />
</svg>