<?xml version="1.0" encoding="utf-8"?>
<svg version="1.1" xmlns:xlink="http://www.w3.org/1999/xlink" width="12px" height="12px" viewBox="308 1079  12 12" xmlns="http://www.w3.org/2000/svg">
  <path d="M 314 1079  C 317.36 1079  320 1081.64  320 1085  C 320 1088.36  317.36 1091  314 1091  C 310.64 1091  308 1088.36  308 1085  C 308 1081.64  310.64 1079  314 1079  Z " fill-rule="nonzero" fill="#ffffff" stroke="none" />
  <path d="M 314 1079.5  C 317.08 1079.5  319.5 1081.92  319.5 1085  C 319.5 1088.08  317.08 1090.5  314 1090.5  C 310.92 1090.5  308.5 1088.08  308.5 1085  C 308.5 1081.92  310.92 1079.5  314 1079.5  Z " stroke-width="1" stroke="#797979" fill="none" />
  <path d="M 314 1088  C 312.32 1088  311 1086.68  311 1085  C 311 1083.32  312.32 1082  314 1082  C 315.68 1082  317 1083.32  317 1085  C 317 1086.68  315.68 1088  314 1088  " fill-rule="nonzero" fill="#797979" stroke="none" />
</svg>