<?xml version="1.0" encoding="utf-8"?>
<svg version="1.1" xmlns:xlink="http://www.w3.org/1999/xlink" width="12px" height="12px" viewBox="351 571  12 12" xmlns="http://www.w3.org/2000/svg">
  <path d="M 357 571  C 360.36 571  363 573.64  363 577  C 363 580.36  360.36 583  357 583  C 353.64 583  351 580.36  351 577  C 351 573.64  353.64 571  357 571  Z " fill-rule="nonzero" fill="#f0f0f0" stroke="none" />
  <path d="M 357 571.5  C 360.08 571.5  362.5 573.92  362.5 577  C 362.5 580.08  360.08 582.5  357 582.5  C 353.92 582.5  351.5 580.08  351.5 577  C 351.5 573.92  353.92 571.5  357 571.5  Z " stroke-width="1" stroke="#797979" fill="none" />
  <path d="M 357 580  C 355.32 580  354 578.68  354 577  C 354 575.32  355.32 574  357 574  C 358.68 574  360 575.32  360 577  C 360 578.68  358.68 580  357 580  " fill-rule="nonzero" fill="#797979" stroke="none" />
</svg>