<?xml version="1.0" encoding="utf-8"?>
<svg version="1.1" xmlns:xlink="http://www.w3.org/1999/xlink" width="12px" height="12px" viewBox="278 1177.5  12 12" xmlns="http://www.w3.org/2000/svg">
  <path d="M 284 1177.5  C 287.36 1177.5  290 1180.14  290 1183.5  C 290 1186.86  287.36 1189.5  284 1189.5  C 280.64 1189.5  278 1186.86  278 1183.5  C 278 1180.14  280.64 1177.5  284 1177.5  Z " fill-rule="nonzero" fill="#f0f0f0" stroke="none" />
  <path d="M 284 1178  C 287.08 1178  289.5 1180.42  289.5 1183.5  C 289.5 1186.58  287.08 1189  284 1189  C 280.92 1189  278.5 1186.58  278.5 1183.5  C 278.5 1180.42  280.92 1178  284 1178  Z " stroke-width="1" stroke="#797979" fill="none" />
  <path d="M 284 1186.5  C 282.32 1186.5  281 1185.18  281 1183.5  C 281 1181.82  282.32 1180.5  284 1180.5  C 285.68 1180.5  287 1181.82  287 1183.5  C 287 1185.18  285.68 1186.5  284 1186.5  " fill-rule="nonzero" fill="#797979" stroke="none" />
</svg>