<?xml version="1.0" encoding="utf-8"?>
<svg version="1.1" xmlns:xlink="http://www.w3.org/1999/xlink" width="12px" height="12px" viewBox="1296 1761.5  12 12" xmlns="http://www.w3.org/2000/svg">
  <path d="M 1302 1761.5  C 1305.36 1761.5  1308 1764.14  1308 1767.5  C 1308 1770.86  1305.36 1773.5  1302 1773.5  C 1298.64 1773.5  1296 1770.86  1296 1767.5  C 1296 1764.14  1298.64 1761.5  1302 1761.5  Z " fill-rule="nonzero" fill="#ffffff" stroke="none" />
  <path d="M 1302 1762  C 1305.08 1762  1307.5 1764.42  1307.5 1767.5  C 1307.5 1770.58  1305.08 1773  1302 1773  C 1298.92 1773  1296.5 1770.58  1296.5 1767.5  C 1296.5 1764.42  1298.92 1762  1302 1762  Z " stroke-width="1" stroke="#797979" fill="none" />
  <path d="M 1302 1770.5  C 1300.32 1770.5  1299 1769.18  1299 1767.5  C 1299 1765.82  1300.32 1764.5  1302 1764.5  C 1303.68 1764.5  1305 1765.82  1305 1767.5  C 1305 1769.18  1303.68 1770.5  1302 1770.5  " fill-rule="nonzero" fill="#797979" stroke="none" />
</svg>