<?xml version="1.0" encoding="utf-8"?>
<svg version="1.1" xmlns:xlink="http://www.w3.org/1999/xlink" width="12px" height="12px" viewBox="278 2395.5  12 12" xmlns="http://www.w3.org/2000/svg">
  <path d="M 284 2395.5  C 287.36 2395.5  290 2398.14  290 2401.5  C 290 2404.86  287.36 2407.5  284 2407.5  C 280.64 2407.5  278 2404.86  278 2401.5  C 278 2398.14  280.64 2395.5  284 2395.5  Z " fill-rule="nonzero" fill="#f0f0f0" stroke="none" />
  <path d="M 284 2396  C 287.08 2396  289.5 2398.42  289.5 2401.5  C 289.5 2404.58  287.08 2407  284 2407  C 280.92 2407  278.5 2404.58  278.5 2401.5  C 278.5 2398.42  280.92 2396  284 2396  Z " stroke-width="1" stroke="#797979" fill="none" />
  <path d="M 284 2404.5  C 282.32 2404.5  281 2403.18  281 2401.5  C 281 2399.82  282.32 2398.5  284 2398.5  C 285.68 2398.5  287 2399.82  287 2401.5  C 287 2403.18  285.68 2404.5  284 2404.5  " fill-rule="nonzero" fill="#797979" stroke="none" />
</svg>