<?xml version="1.0" encoding="utf-8"?>
<svg version="1.1" xmlns:xlink="http://www.w3.org/1999/xlink" width="12px" height="12px" viewBox="454 890.5  12 12" xmlns="http://www.w3.org/2000/svg">
  <path d="M 460 890.5  C 463.36 890.5  466 893.14  466 896.5  C 466 899.86  463.36 902.5  460 902.5  C 456.64 902.5  454 899.86  454 896.5  C 454 893.14  456.64 890.5  460 890.5  Z " fill-rule="nonzero" fill="#ffffff" stroke="none" />
  <path d="M 460 891  C 463.08 891  465.5 893.42  465.5 896.5  C 465.5 899.58  463.08 902  460 902  C 456.92 902  454.5 899.58  454.5 896.5  C 454.5 893.42  456.92 891  460 891  Z " stroke-width="1" stroke="#797979" fill="none" />
  <path d="M 460 899.5  C 458.32 899.5  457 898.18  457 896.5  C 457 894.82  458.32 893.5  460 893.5  C 461.68 893.5  463 894.82  463 896.5  C 463 898.18  461.68 899.5  460 899.5  " fill-rule="nonzero" fill="#797979" stroke="none" />
</svg>