<?xml version="1.0" encoding="utf-8"?>
<svg version="1.1" xmlns:xlink="http://www.w3.org/1999/xlink" width="12px" height="12px" viewBox="301 479.5  12 12" xmlns="http://www.w3.org/2000/svg">
  <path d="M 307 479.5  C 310.36 479.5  313 482.14  313 485.5  C 313 488.86  310.36 491.5  307 491.5  C 303.64 491.5  301 488.86  301 485.5  C 301 482.14  303.64 479.5  307 479.5  Z " fill-rule="nonzero" fill="#ffffff" stroke="none" />
  <path d="M 307 480  C 310.08 480  312.5 482.42  312.5 485.5  C 312.5 488.58  310.08 491  307 491  C 303.92 491  301.5 488.58  301.5 485.5  C 301.5 482.42  303.92 480  307 480  Z " stroke-width="1" stroke="#797979" fill="none" />
  <path d="M 307 488.5  C 305.32 488.5  304 487.18  304 485.5  C 304 483.82  305.32 482.5  307 482.5  C 308.68 482.5  310 483.82  310 485.5  C 310 487.18  308.68 488.5  307 488.5  " fill-rule="nonzero" fill="#797979" stroke="none" />
</svg>