<?xml version="1.0" encoding="utf-8"?>
<svg version="1.1" xmlns:xlink="http://www.w3.org/1999/xlink" width="12px" height="12px" viewBox="1304 1450.5  12 12" xmlns="http://www.w3.org/2000/svg">
  <path d="M 1310 1450.5  C 1313.36 1450.5  1316 1453.14  1316 1456.5  C 1316 1459.86  1313.36 1462.5  1310 1462.5  C 1306.64 1462.5  1304 1459.86  1304 1456.5  C 1304 1453.14  1306.64 1450.5  1310 1450.5  Z " fill-rule="nonzero" fill="#f0f0f0" stroke="none" />
  <path d="M 1310 1451  C 1313.08 1451  1315.5 1453.42  1315.5 1456.5  C 1315.5 1459.58  1313.08 1462  1310 1462  C 1306.92 1462  1304.5 1459.58  1304.5 1456.5  C 1304.5 1453.42  1306.92 1451  1310 1451  Z " stroke-width="1" stroke="#797979" fill="none" />
  <path d="M 1310 1459.5  C 1308.32 1459.5  1307 1458.18  1307 1456.5  C 1307 1454.82  1308.32 1453.5  1310 1453.5  C 1311.68 1453.5  1313 1454.82  1313 1456.5  C 1313 1458.18  1311.68 1459.5  1310 1459.5  " fill-rule="nonzero" fill="#797979" stroke="none" />
</svg>