<?xml version="1.0" encoding="utf-8"?>
<svg version="1.1" xmlns:xlink="http://www.w3.org/1999/xlink" width="12px" height="12px" viewBox="301 1695.5  12 12" xmlns="http://www.w3.org/2000/svg">
  <path d="M 307 1695.5  C 310.36 1695.5  313 1698.14  313 1701.5  C 313 1704.86  310.36 1707.5  307 1707.5  C 303.64 1707.5  301 1704.86  301 1701.5  C 301 1698.14  303.64 1695.5  307 1695.5  Z " fill-rule="nonzero" fill="#f0f0f0" stroke="none" />
  <path d="M 307 1696  C 310.08 1696  312.5 1698.42  312.5 1701.5  C 312.5 1704.58  310.08 1707  307 1707  C 303.92 1707  301.5 1704.58  301.5 1701.5  C 301.5 1698.42  303.92 1696  307 1696  Z " stroke-width="1" stroke="#797979" fill="none" />
  <path d="M 307 1704.5  C 305.32 1704.5  304 1703.18  304 1701.5  C 304 1699.82  305.32 1698.5  307 1698.5  C 308.68 1698.5  310 1699.82  310 1701.5  C 310 1703.18  308.68 1704.5  307 1704.5  " fill-rule="nonzero" fill="#797979" stroke="none" />
</svg>