<?xml version="1.0" encoding="utf-8"?>
<svg version="1.1" xmlns:xlink="http://www.w3.org/1999/xlink" width="12px" height="12px" viewBox="411 1734.5  12 12" xmlns="http://www.w3.org/2000/svg">
  <path d="M 417 1734.5  C 420.36 1734.5  423 1737.14  423 1740.5  C 423 1743.86  420.36 1746.5  417 1746.5  C 413.64 1746.5  411 1743.86  411 1740.5  C 411 1737.14  413.64 1734.5  417 1734.5  Z " fill-rule="nonzero" fill="#f0f0f0" stroke="none" />
  <path d="M 417 1735  C 420.08 1735  422.5 1737.42  422.5 1740.5  C 422.5 1743.58  420.08 1746  417 1746  C 413.92 1746  411.5 1743.58  411.5 1740.5  C 411.5 1737.42  413.92 1735  417 1735  Z " stroke-width="1" stroke="#797979" fill="none" />
  <path d="M 417 1743.5  C 415.32 1743.5  414 1742.18  414 1740.5  C 414 1738.82  415.32 1737.5  417 1737.5  C 418.68 1737.5  420 1738.82  420 1740.5  C 420 1742.18  418.68 1743.5  417 1743.5  " fill-rule="nonzero" fill="#797979" stroke="none" />
</svg>