<?xml version="1.0" encoding="utf-8"?>
<svg version="1.1" xmlns:xlink="http://www.w3.org/1999/xlink" width="12px" height="12px" viewBox="278 2328.5  12 12" xmlns="http://www.w3.org/2000/svg">
  <path d="M 284 2328.5  C 287.36 2328.5  290 2331.14  290 2334.5  C 290 2337.86  287.36 2340.5  284 2340.5  C 280.64 2340.5  278 2337.86  278 2334.5  C 278 2331.14  280.64 2328.5  284 2328.5  Z " fill-rule="nonzero" fill="#f0f0f0" stroke="none" />
  <path d="M 284 2329  C 287.08 2329  289.5 2331.42  289.5 2334.5  C 289.5 2337.58  287.08 2340  284 2340  C 280.92 2340  278.5 2337.58  278.5 2334.5  C 278.5 2331.42  280.92 2329  284 2329  Z " stroke-width="1" stroke="#797979" fill="none" />
  <path d="M 284 2337.5  C 282.32 2337.5  281 2336.18  281 2334.5  C 281 2332.82  282.32 2331.5  284 2331.5  C 285.68 2331.5  287 2332.82  287 2334.5  C 287 2336.18  285.68 2337.5  284 2337.5  " fill-rule="nonzero" fill="#797979" stroke="none" />
</svg>