<?xml version="1.0" encoding="utf-8"?>
<svg version="1.1" xmlns:xlink="http://www.w3.org/1999/xlink" width="12px" height="12px" viewBox="278 2363.5  12 12" xmlns="http://www.w3.org/2000/svg">
  <path d="M 284 2363.5  C 287.36 2363.5  290 2366.14  290 2369.5  C 290 2372.86  287.36 2375.5  284 2375.5  C 280.64 2375.5  278 2372.86  278 2369.5  C 278 2366.14  280.64 2363.5  284 2363.5  Z " fill-rule="nonzero" fill="#f0f0f0" stroke="none" />
  <path d="M 284 2364  C 287.08 2364  289.5 2366.42  289.5 2369.5  C 289.5 2372.58  287.08 2375  284 2375  C 280.92 2375  278.5 2372.58  278.5 2369.5  C 278.5 2366.42  280.92 2364  284 2364  Z " stroke-width="1" stroke="#797979" fill="none" />
  <path d="M 284 2372.5  C 282.32 2372.5  281 2371.18  281 2369.5  C 281 2367.82  282.32 2366.5  284 2366.5  C 285.68 2366.5  287 2367.82  287 2369.5  C 287 2371.18  285.68 2372.5  284 2372.5  " fill-rule="nonzero" fill="#797979" stroke="none" />
</svg>