<?xml version="1.0" encoding="utf-8"?>
<svg version="1.1" xmlns:xlink="http://www.w3.org/1999/xlink" width="12px" height="12px" viewBox="454 2145.5  12 12" xmlns="http://www.w3.org/2000/svg">
  <path d="M 460 2145.5  C 463.36 2145.5  466 2148.14  466 2151.5  C 466 2154.86  463.36 2157.5  460 2157.5  C 456.64 2157.5  454 2154.86  454 2151.5  C 454 2148.14  456.64 2145.5  460 2145.5  Z " fill-rule="nonzero" fill="#ffffff" stroke="none" />
  <path d="M 460 2146  C 463.08 2146  465.5 2148.42  465.5 2151.5  C 465.5 2154.58  463.08 2157  460 2157  C 456.92 2157  454.5 2154.58  454.5 2151.5  C 454.5 2148.42  456.92 2146  460 2146  Z " stroke-width="1" stroke="#797979" fill="none" />
  <path d="M 460 2154.5  C 458.32 2154.5  457 2153.18  457 2151.5  C 457 2149.82  458.32 2148.5  460 2148.5  C 461.68 2148.5  463 2149.82  463 2151.5  C 463 2153.18  461.68 2154.5  460 2154.5  " fill-rule="nonzero" fill="#797979" stroke="none" />
</svg>