<?xml version="1.0" encoding="utf-8"?>
<svg version="1.1" xmlns:xlink="http://www.w3.org/1999/xlink" width="12px" height="12px" viewBox="1296 1726.5  12 12" xmlns="http://www.w3.org/2000/svg">
  <path d="M 1302 1726.5  C 1305.36 1726.5  1308 1729.14  1308 1732.5  C 1308 1735.86  1305.36 1738.5  1302 1738.5  C 1298.64 1738.5  1296 1735.86  1296 1732.5  C 1296 1729.14  1298.64 1726.5  1302 1726.5  Z " fill-rule="nonzero" fill="#f0f0f0" stroke="none" />
  <path d="M 1302 1727  C 1305.08 1727  1307.5 1729.42  1307.5 1732.5  C 1307.5 1735.58  1305.08 1738  1302 1738  C 1298.92 1738  1296.5 1735.58  1296.5 1732.5  C 1296.5 1729.42  1298.92 1727  1302 1727  Z " stroke-width="1" stroke="#797979" fill="none" />
  <path d="M 1302 1735.5  C 1300.32 1735.5  1299 1734.18  1299 1732.5  C 1299 1730.82  1300.32 1729.5  1302 1729.5  C 1303.68 1729.5  1305 1730.82  1305 1732.5  C 1305 1734.18  1303.68 1735.5  1302 1735.5  " fill-rule="nonzero" fill="#797979" stroke="none" />
</svg>