<?xml version="1.0" encoding="utf-8"?>
<svg version="1.1" xmlns:xlink="http://www.w3.org/1999/xlink" width="12px" height="12px" viewBox="313 448  12 12" xmlns="http://www.w3.org/2000/svg">
  <path d="M 319 448  C 322.36 448  325 450.64  325 454  C 325 457.36  322.36 460  319 460  C 315.64 460  313 457.36  313 454  C 313 450.64  315.64 448  319 448  Z " fill-rule="nonzero" fill="#ffffff" stroke="none" />
  <path d="M 319 448.5  C 322.08 448.5  324.5 450.92  324.5 454  C 324.5 457.08  322.08 459.5  319 459.5  C 315.92 459.5  313.5 457.08  313.5 454  C 313.5 450.92  315.92 448.5  319 448.5  Z " stroke-width="1" stroke="#797979" fill="none" />
  <path d="M 319 457  C 317.32 457  316 455.68  316 454  C 316 452.32  317.32 451  319 451  C 320.68 451  322 452.32  322 454  C 322 455.68  320.68 457  319 457  " fill-rule="nonzero" fill="#797979" stroke="none" />
</svg>