<?xml version="1.0" encoding="utf-8"?>
<svg version="1.1" xmlns:xlink="http://www.w3.org/1999/xlink" width="12px" height="12px" viewBox="191 1079  12 12" xmlns="http://www.w3.org/2000/svg">
  <path d="M 197 1079  C 200.36 1079  203 1081.64  203 1085  C 203 1088.36  200.36 1091  197 1091  C 193.64 1091  191 1088.36  191 1085  C 191 1081.64  193.64 1079  197 1079  Z " fill-rule="nonzero" fill="#ffffff" stroke="none" />
  <path d="M 197 1079.5  C 200.08 1079.5  202.5 1081.92  202.5 1085  C 202.5 1088.08  200.08 1090.5  197 1090.5  C 193.92 1090.5  191.5 1088.08  191.5 1085  C 191.5 1081.92  193.92 1079.5  197 1079.5  Z " stroke-width="1" stroke="#797979" fill="none" />
  <path d="M 197 1088  C 195.32 1088  194 1086.68  194 1085  C 194 1083.32  195.32 1082  197 1082  C 198.68 1082  200 1083.32  200 1085  C 200 1086.68  198.68 1088  197 1088  " fill-rule="nonzero" fill="#797979" stroke="none" />
</svg>