<?xml version="1.0" encoding="utf-8"?>
<svg version="1.1" xmlns:xlink="http://www.w3.org/1999/xlink" width="12px" height="12px" viewBox="411 1695.5  12 12" xmlns="http://www.w3.org/2000/svg">
  <path d="M 417 1695.5  C 420.36 1695.5  423 1698.14  423 1701.5  C 423 1704.86  420.36 1707.5  417 1707.5  C 413.64 1707.5  411 1704.86  411 1701.5  C 411 1698.14  413.64 1695.5  417 1695.5  Z " fill-rule="nonzero" fill="#f0f0f0" stroke="none" />
  <path d="M 417 1696  C 420.08 1696  422.5 1698.42  422.5 1701.5  C 422.5 1704.58  420.08 1707  417 1707  C 413.92 1707  411.5 1704.58  411.5 1701.5  C 411.5 1698.42  413.92 1696  417 1696  Z " stroke-width="1" stroke="#797979" fill="none" />
  <path d="M 417 1704.5  C 415.32 1704.5  414 1703.18  414 1701.5  C 414 1699.82  415.32 1698.5  417 1698.5  C 418.68 1698.5  420 1699.82  420 1701.5  C 420 1703.18  418.68 1704.5  417 1704.5  " fill-rule="nonzero" fill="#797979" stroke="none" />
</svg>