<?xml version="1.0" encoding="utf-8"?>
<svg version="1.1" xmlns:xlink="http://www.w3.org/1999/xlink" width="15px" height="15px" xmlns="http://www.w3.org/2000/svg">
  <g transform="matrix(1 0 0 1 -441 -729 )">
    <path d="M 7.5 0.0517241379310462  C 3.3864308288465 0.0517241379310462  0.0517241379310462 3.3864308288465  0.0517241379310462 7.5  C 0.0517241379310462 11.6135691711535  3.3864308288465 14.948275862069  7.5 14.948275862069  C 11.6135691711535 14.948275862069  14.948275862069 11.6135691711535  14.948275862069 7.5  C 14.948275862069 3.3864308288465  11.6135691711535 0.0517241379310462  7.5 0.0517241379310462  Z M 7.5 13.884  C 3.97421415708023 13.884  1.116 11.0257858429198  1.116 7.5  C 1.116 3.97421415708018  3.97421415708023 1.11600000000004  7.5 1.11600000000004  C 11.0257858429198 1.11600000000004  13.884 3.97421415708018  13.884 7.5  C 13.884 11.0257858429198  11.0257858429198 13.884  7.5 13.884  Z M 7.7664770013121 3.75669593325622  C 7.67730700368907 3.75669593325622  7.58825217754909 3.76310112723152  7.5 3.77586206896552  C 7.43943857552186 3.77017116464455  7.37864375859161 3.76732102463745  7.31781553712483 3.76732102463745  C 6.24234573048882 3.76732102463745  5.37050519229723 4.639161562829  5.37050519229723 5.71463136946505  C 5.37050519229723 5.7423154106136  5.37109554975602 5.76999630408628  5.37227586206897 5.79765517241381  L 6.34055172413794 5.79765517241381  C 6.3390943939247 5.77495549613312  6.33836516699365 5.75221493337597  6.33836516699365 5.72946852454737  C 6.33836516699365 5.14168519631369  6.81485770082888 4.66519266247846  7.40264102906261 4.66519266247846  C 7.4351451369745 4.66519266247846  7.46763218185065 4.66668172670262  7.5 4.6696551724138  C 8.07434482758622 4.6696551724138  8.56427586206895 4.95682758620688  8.56427586206895 5.62717241379309  C 8.56427586206895 6.12703448275866  8.2663448275862 6.36124137931031  7.78717241379309 6.69144827586209  C 7.21634676537519 7.01841055855371  6.85745607615286 7.6194897198736  6.84041379310347 8.27710344827582  L 6.84041379310347 8.64951724137927  L 7.80868965517243 8.64951724137927  L 7.80868965517243 8.36151724137935  C 7.80868965517243 7.78717241379309  8.02137931034483 7.61668965517245  8.60648275862067 7.16979310344831  C 9.20622290498281 6.85176440725905  9.59422296400679 6.2414660972384  9.62772413793103 5.56344827586207  C 9.59781349478449 4.55704014787293  8.77332950622831 3.75669593325622  7.7664770013121 3.75669593325622  Z M 6.69144827586209 10.2393103448276  C 6.6984466432108 10.6456671586251  7.02985878902058 10.9714207964082  7.43627586206898 10.9714207964082  C 7.84769377990786 10.9714207964082  8.18121389985647 10.6379006764596  8.18121389985647 10.2264827586206  C 8.18121389985647 10.2222066587946  8.18117708129816 10.2179306382248  8.18110344827588 10.2136551724138  C 8.18117715937889 10.2094087704206  8.18121401701229 10.2051618086872  8.18121401701229 10.2009147669856  C 8.18121401701229 9.79549967200643  7.85256014647428 9.46684580146837  7.44714505149503 9.46684580146837  C 7.42915894964013 9.46684580146837  7.41117892362662 9.46750684253865  7.39324137931034 9.46882758620686  C 6.98832883236534 9.49198023177885  6.67636648260927 9.83484451240699  6.69144827586209 10.2401379310345  Z " fill-rule="nonzero" fill="#000000" stroke="none" transform="matrix(1 0 0 1 441 729 )" />
  </g>
</svg>