<?xml version="1.0" encoding="utf-8"?>
<svg version="1.1" xmlns:xlink="http://www.w3.org/1999/xlink" width="12px" height="12px" viewBox="307 3000.5  12 12" xmlns="http://www.w3.org/2000/svg">
  <path d="M 313 3000.5  C 316.36 3000.5  319 3003.14  319 3006.5  C 319 3009.86  316.36 3012.5  313 3012.5  C 309.64 3012.5  307 3009.86  307 3006.5  C 307 3003.14  309.64 3000.5  313 3000.5  Z " fill-rule="nonzero" fill="#ffffff" stroke="none" />
  <path d="M 313 3001  C 316.08 3001  318.5 3003.42  318.5 3006.5  C 318.5 3009.58  316.08 3012  313 3012  C 309.92 3012  307.5 3009.58  307.5 3006.5  C 307.5 3003.42  309.92 3001  313 3001  Z " stroke-width="1" stroke="#797979" fill="none" />
  <path d="M 313 3009.5  C 311.32 3009.5  310 3008.18  310 3006.5  C 310 3004.82  311.32 3003.5  313 3003.5  C 314.68 3003.5  316 3004.82  316 3006.5  C 316 3008.18  314.68 3009.5  313 3009.5  " fill-rule="nonzero" fill="#797979" stroke="none" />
</svg>