<?xml version="1.0" encoding="utf-8"?>
<svg version="1.1" xmlns:xlink="http://www.w3.org/1999/xlink" width="12px" height="12px" viewBox="231 448  12 12" xmlns="http://www.w3.org/2000/svg">
  <path d="M 237 448  C 240.36 448  243 450.64  243 454  C 243 457.36  240.36 460  237 460  C 233.64 460  231 457.36  231 454  C 231 450.64  233.64 448  237 448  Z " fill-rule="nonzero" fill="#f0f0f0" stroke="none" />
  <path d="M 237 448.5  C 240.08 448.5  242.5 450.92  242.5 454  C 242.5 457.08  240.08 459.5  237 459.5  C 233.92 459.5  231.5 457.08  231.5 454  C 231.5 450.92  233.92 448.5  237 448.5  Z " stroke-width="1" stroke="#797979" fill="none" />
  <path d="M 237 457  C 235.32 457  234 455.68  234 454  C 234 452.32  235.32 451  237 451  C 238.68 451  240 452.32  240 454  C 240 455.68  238.68 457  237 457  " fill-rule="nonzero" fill="#797979" stroke="none" />
</svg>