<?xml version="1.0" encoding="utf-8"?>
<svg version="1.1" xmlns:xlink="http://www.w3.org/1999/xlink" width="12px" height="12px" viewBox="238 685  12 12" xmlns="http://www.w3.org/2000/svg">
  <path d="M 244 685  C 247.36 685  250 687.64  250 691  C 250 694.36  247.36 697  244 697  C 240.64 697  238 694.36  238 691  C 238 687.64  240.64 685  244 685  Z " fill-rule="nonzero" fill="#ffffff" stroke="none" />
  <path d="M 244 685.5  C 247.08 685.5  249.5 687.92  249.5 691  C 249.5 694.08  247.08 696.5  244 696.5  C 240.92 696.5  238.5 694.08  238.5 691  C 238.5 687.92  240.92 685.5  244 685.5  Z " stroke-width="1" stroke="#797979" fill="none" />
  <path d="M 244 694  C 242.32 694  241 692.68  241 691  C 241 689.32  242.32 688  244 688  C 245.68 688  247 689.32  247 691  C 247 692.68  245.68 694  244 694  " fill-rule="nonzero" fill="#797979" stroke="none" />
</svg>