<?xml version="1.0" encoding="utf-8"?>
<svg version="1.1" xmlns:xlink="http://www.w3.org/1999/xlink" width="12px" height="12px" viewBox="366 685  12 12" xmlns="http://www.w3.org/2000/svg">
  <path d="M 372 685  C 375.36 685  378 687.64  378 691  C 378 694.36  375.36 697  372 697  C 368.64 697  366 694.36  366 691  C 366 687.64  368.64 685  372 685  Z " fill-rule="nonzero" fill="#f0f0f0" stroke="none" />
  <path d="M 372 685.5  C 375.08 685.5  377.5 687.92  377.5 691  C 377.5 694.08  375.08 696.5  372 696.5  C 368.92 696.5  366.5 694.08  366.5 691  C 366.5 687.92  368.92 685.5  372 685.5  Z " stroke-width="1" stroke="#797979" fill="none" />
  <path d="M 372 694  C 370.32 694  369 692.68  369 691  C 369 689.32  370.32 688  372 688  C 373.68 688  375 689.32  375 691  C 375 692.68  373.68 694  372 694  " fill-rule="nonzero" fill="#797979" stroke="none" />
</svg>