<?xml version="1.0" encoding="utf-8"?>
<svg version="1.1" xmlns:xlink="http://www.w3.org/1999/xlink" width="12px" height="12px" viewBox="-351 406  12 12" xmlns="http://www.w3.org/2000/svg">
  <path d="M -345 406  C -341.64 406  -339 408.64  -339 412  C -339 415.36  -341.64 418  -345 418  C -348.36 418  -351 415.36  -351 412  C -351 408.64  -348.36 406  -345 406  Z " fill-rule="nonzero" fill="#f0f0f0" stroke="none" />
  <path d="M -345 406.5  C -341.92 406.5  -339.5 408.92  -339.5 412  C -339.5 415.08  -341.92 417.5  -345 417.5  C -348.08 417.5  -350.5 415.08  -350.5 412  C -350.5 408.92  -348.08 406.5  -345 406.5  Z " stroke-width="1" stroke="#797979" fill="none" />
  <path d="M -345 415  C -346.68 415  -348 413.68  -348 412  C -348 410.32  -346.68 409  -345 409  C -343.32 409  -342 410.32  -342 412  C -342 413.68  -343.32 415  -345 415  " fill-rule="nonzero" fill="#797979" stroke="none" />
</svg>