<?xml version="1.0" encoding="utf-8"?>
<svg version="1.1" xmlns:xlink="http://www.w3.org/1999/xlink" width="12px" height="12px" viewBox="-241 404.5  12 12" xmlns="http://www.w3.org/2000/svg">
  <path d="M -235 404.5  C -231.64 404.5  -229 407.14  -229 410.5  C -229 413.86  -231.64 416.5  -235 416.5  C -238.36 416.5  -241 413.86  -241 410.5  C -241 407.14  -238.36 404.5  -235 404.5  Z " fill-rule="nonzero" fill="#ffffff" stroke="none" />
  <path d="M -235 405  C -231.92 405  -229.5 407.42  -229.5 410.5  C -229.5 413.58  -231.92 416  -235 416  C -238.08 416  -240.5 413.58  -240.5 410.5  C -240.5 407.42  -238.08 405  -235 405  Z " stroke-width="1" stroke="#797979" fill="none" />
  <path d="M -235 413.5  C -236.68 413.5  -238 412.18  -238 410.5  C -238 408.82  -236.68 407.5  -235 407.5  C -233.32 407.5  -232 408.82  -232 410.5  C -232 412.18  -233.32 413.5  -235 413.5  " fill-rule="nonzero" fill="#797979" stroke="none" />
</svg>