<?xml version="1.0" encoding="utf-8"?>
<svg version="1.1" xmlns:xlink="http://www.w3.org/1999/xlink" width="12px" height="12px" viewBox="315 905.5  12 12" xmlns="http://www.w3.org/2000/svg">
  <path d="M 321 905.5  C 324.36 905.5  327 908.14  327 911.5  C 327 914.86  324.36 917.5  321 917.5  C 317.64 917.5  315 914.86  315 911.5  C 315 908.14  317.64 905.5  321 905.5  Z " fill-rule="nonzero" fill="#f0f0f0" stroke="none" />
  <path d="M 321 906  C 324.08 906  326.5 908.42  326.5 911.5  C 326.5 914.58  324.08 917  321 917  C 317.92 917  315.5 914.58  315.5 911.5  C 315.5 908.42  317.92 906  321 906  Z " stroke-width="1" stroke="#797979" fill="none" />
  <path d="M 321 914.5  C 319.32 914.5  318 913.18  318 911.5  C 318 909.82  319.32 908.5  321 908.5  C 322.68 908.5  324 909.82  324 911.5  C 324 913.18  322.68 914.5  321 914.5  " fill-rule="nonzero" fill="#797979" stroke="none" />
</svg>