<?xml version="1.0" encoding="utf-8"?>
<svg version="1.1" xmlns:xlink="http://www.w3.org/1999/xlink" width="12px" height="12px" viewBox="349 404.5  12 12" xmlns="http://www.w3.org/2000/svg">
  <path d="M 355 404.5  C 358.36 404.5  361 407.14  361 410.5  C 361 413.86  358.36 416.5  355 416.5  C 351.64 416.5  349 413.86  349 410.5  C 349 407.14  351.64 404.5  355 404.5  Z " fill-rule="nonzero" fill="#f0f0f0" stroke="none" />
  <path d="M 355 405  C 358.08 405  360.5 407.42  360.5 410.5  C 360.5 413.58  358.08 416  355 416  C 351.92 416  349.5 413.58  349.5 410.5  C 349.5 407.42  351.92 405  355 405  Z " stroke-width="1" stroke="#797979" fill="none" />
  <path d="M 355 413.5  C 353.32 413.5  352 412.18  352 410.5  C 352 408.82  353.32 407.5  355 407.5  C 356.68 407.5  358 408.82  358 410.5  C 358 412.18  356.68 413.5  355 413.5  " fill-rule="nonzero" fill="#797979" stroke="none" />
</svg>