<?xml version="1.0" encoding="utf-8"?>
<svg version="1.1" xmlns:xlink="http://www.w3.org/1999/xlink" width="12px" height="12px" viewBox="313 481  12 12" xmlns="http://www.w3.org/2000/svg">
  <path d="M 319 481  C 322.36 481  325 483.64  325 487  C 325 490.36  322.36 493  319 493  C 315.64 493  313 490.36  313 487  C 313 483.64  315.64 481  319 481  Z " fill-rule="nonzero" fill="#ffffff" stroke="none" />
  <path d="M 319 481.5  C 322.08 481.5  324.5 483.92  324.5 487  C 324.5 490.08  322.08 492.5  319 492.5  C 315.92 492.5  313.5 490.08  313.5 487  C 313.5 483.92  315.92 481.5  319 481.5  Z " stroke-width="1" stroke="#797979" fill="none" />
  <path d="M 319 490  C 317.32 490  316 488.68  316 487  C 316 485.32  317.32 484  319 484  C 320.68 484  322 485.32  322 487  C 322 488.68  320.68 490  319 490  " fill-rule="nonzero" fill="#797979" stroke="none" />
</svg>