<?xml version="1.0" encoding="utf-8"?>
<svg version="1.1" xmlns:xlink="http://www.w3.org/1999/xlink" width="12px" height="12px" viewBox="313 479.5  12 12" xmlns="http://www.w3.org/2000/svg">
  <path d="M 319 479.5  C 322.36 479.5  325 482.14  325 485.5  C 325 488.86  322.36 491.5  319 491.5  C 315.64 491.5  313 488.86  313 485.5  C 313 482.14  315.64 479.5  319 479.5  Z " fill-rule="nonzero" fill="#ffffff" stroke="none" />
  <path d="M 319 480  C 322.08 480  324.5 482.42  324.5 485.5  C 324.5 488.58  322.08 491  319 491  C 315.92 491  313.5 488.58  313.5 485.5  C 313.5 482.42  315.92 480  319 480  Z " stroke-width="1" stroke="#797979" fill="none" />
  <path d="M 319 488.5  C 317.32 488.5  316 487.18  316 485.5  C 316 483.82  317.32 482.5  319 482.5  C 320.68 482.5  322 483.82  322 485.5  C 322 487.18  320.68 488.5  319 488.5  " fill-rule="nonzero" fill="#797979" stroke="none" />
</svg>