<?xml version="1.0" encoding="utf-8"?>
<svg version="1.1" xmlns:xlink="http://www.w3.org/1999/xlink" width="12px" height="12px" viewBox="422 479.5  12 12" xmlns="http://www.w3.org/2000/svg">
  <path d="M 428 479.5  C 431.36 479.5  434 482.14  434 485.5  C 434 488.86  431.36 491.5  428 491.5  C 424.64 491.5  422 488.86  422 485.5  C 422 482.14  424.64 479.5  428 479.5  Z " fill-rule="nonzero" fill="#f0f0f0" stroke="none" />
  <path d="M 428 480  C 431.08 480  433.5 482.42  433.5 485.5  C 433.5 488.58  431.08 491  428 491  C 424.92 491  422.5 488.58  422.5 485.5  C 422.5 482.42  424.92 480  428 480  Z " stroke-width="1" stroke="#797979" fill="none" />
  <path d="M 428 488.5  C 426.32 488.5  425 487.18  425 485.5  C 425 483.82  426.32 482.5  428 482.5  C 429.68 482.5  431 483.82  431 485.5  C 431 487.18  429.68 488.5  428 488.5  " fill-rule="nonzero" fill="#797979" stroke="none" />
</svg>