<?xml version="1.0" encoding="utf-8"?>
<svg version="1.1" xmlns:xlink="http://www.w3.org/1999/xlink" width="16px" height="16px" xmlns="http://www.w3.org/2000/svg">
  <g transform="matrix(1 0 0 1 -732 -433 )">
    <path d="M 3.15199999999999 12.848  C 4.44380952380948 14.1394285714285  6.05980952380952 14.8091428571428  8 14.8571428571429  C 9.94057142857145 14.8095238095238  11.5565714285714 14.1398095238095  12.848 12.848  C 14.1394285714285 11.5561904761905  14.8091428571428 9.94019047619048  14.8571428571429 8  C 14.8095238095238 6.05942857142855  14.1398095238095 4.44342857142857  12.848 3.15199999999999  C 11.5561904761905 1.86057142857146  9.94019047619048 1.19085714285717  8 1.14285714285711  C 6.05942857142855 1.1904761904762  4.44342857142857 1.8601904761905  3.15199999999999 3.15199999999999  C 1.86057142857146 4.44380952380948  1.19085714285717 6.05980952380952  1.14285714285711 8  C 1.1904761904762 9.94057142857145  1.8601904761905 11.5565714285714  3.15199999999999 12.848  Z M 13.652 13.652  C 12.1460952380953 15.1579047619048  10.2620952380952 15.9405714285714  8 16  C 5.73790476190476 15.9405714285714  3.85390476190474 15.1579047619048  2.34800000000001 13.652  C 0.842095238095226 12.1460952380953  0.0594285714285547 10.2620952380952  0 8  C 0.0594285714285547 5.73790476190476  0.842095238095226 3.85390476190474  2.34800000000001 2.34800000000001  C 3.85390476190474 0.842095238095226  5.73790476190476 0.0594285714285547  8 0  C 10.2620952380952 0.0594285714285547  12.1460952380953 0.842095238095226  13.652 2.34800000000001  C 15.1579047619048 3.85390476190474  15.9405714285714 5.73790476190476  16 8  C 15.9405714285714 10.2620952380952  15.1579047619048 12.1460952380953  13.652 13.652  Z M 7.01771428571431 3.58914285714286  C 7.12476190476195 3.48209523809527  7.26171428571428 3.42857142857139  7.42857142857139 3.42857142857139  C 7.59542857142856 3.42857142857139  7.73238095238094 3.48209523809527  7.83942857142858 3.58914285714286  C 7.94647619047623 3.69619047619045  8 3.83314285714289  8 4  L 8 8.57142857142861  C 8 8.73828571428572  7.94647619047623 8.87523809523805  7.83942857142858 8.98228571428569  C 7.73238095238094 9.08933333333334  7.59542857142856 9.14285714285711  7.42857142857139 9.14285714285711  C 7.26171428571428 9.14285714285711  7.12476190476195 9.08933333333334  7.01771428571431 8.98228571428569  C 6.91066666666666 8.8752380952381  6.85714285714289 8.73828571428572  6.85714285714289 8.57142857142861  L 6.85714285714289 4  C 6.85714285714289 3.83314285714289  6.91066666666666 3.69619047619045  7.01771428571431 3.58914285714286  Z M 6.85714285714289 8.57142857142861  C 6.85714285714289 8.1904761904762  7.04761904761904 8  7.42857142857139 8  L 12 8  C 12.3809523809524 8  12.5714285714286 8.1904761904762  12.5714285714286 8.57142857142861  C 12.5714285714286 8.95238095238096  12.3809523809524 9.14285714285711  12 9.14285714285711  L 7.42857142857139 9.14285714285711  C 7.04761904761904 9.14285714285711  6.85714285714289 8.95238095238096  6.85714285714289 8.57142857142861  Z " fill-rule="nonzero" fill="#999999" stroke="none" transform="matrix(1 0 0 1 732 433 )" />
  </g>
</svg>