<?xml version="1.0" encoding="utf-8"?>
<svg version="1.1" xmlns:xlink="http://www.w3.org/1999/xlink" width="12px" height="12px" viewBox="232 406  12 12" xmlns="http://www.w3.org/2000/svg">
  <path d="M 238 406  C 241.36 406  244 408.64  244 412  C 244 415.36  241.36 418  238 418  C 234.64 418  232 415.36  232 412  C 232 408.64  234.64 406  238 406  Z " fill-rule="nonzero" fill="#f0f0f0" stroke="none" />
  <path d="M 238 406.5  C 241.08 406.5  243.5 408.92  243.5 412  C 243.5 415.08  241.08 417.5  238 417.5  C 234.92 417.5  232.5 415.08  232.5 412  C 232.5 408.92  234.92 406.5  238 406.5  Z " stroke-width="1" stroke="#797979" fill="none" />
  <path d="M 238 415  C 236.32 415  235 413.68  235 412  C 235 410.32  236.32 409  238 409  C 239.68 409  241 410.32  241 412  C 241 413.68  239.68 415  238 415  " fill-rule="nonzero" fill="#797979" stroke="none" />
</svg>