<?xml version="1.0" encoding="utf-8"?>
<svg version="1.1" xmlns:xlink="http://www.w3.org/1999/xlink" width="12px" height="12px" viewBox="422 481  12 12" xmlns="http://www.w3.org/2000/svg">
  <path d="M 428 481  C 431.36 481  434 483.64  434 487  C 434 490.36  431.36 493  428 493  C 424.64 493  422 490.36  422 487  C 422 483.64  424.64 481  428 481  Z " fill-rule="nonzero" fill="#ffffff" stroke="none" />
  <path d="M 428 481.5  C 431.08 481.5  433.5 483.92  433.5 487  C 433.5 490.08  431.08 492.5  428 492.5  C 424.92 492.5  422.5 490.08  422.5 487  C 422.5 483.92  424.92 481.5  428 481.5  Z " stroke-width="1" stroke="#797979" fill="none" />
  <path d="M 428 490  C 426.32 490  425 488.68  425 487  C 425 485.32  426.32 484  428 484  C 429.68 484  431 485.32  431 487  C 431 488.68  429.68 490  428 490  " fill-rule="nonzero" fill="#797979" stroke="none" />
</svg>