<?xml version="1.0" encoding="utf-8"?>
<svg version="1.1" xmlns:xlink="http://www.w3.org/1999/xlink" width="12px" height="12px" viewBox="308 1077.5  12 12" xmlns="http://www.w3.org/2000/svg">
  <path d="M 314 1077.5  C 317.36 1077.5  320 1080.14  320 1083.5  C 320 1086.86  317.36 1089.5  314 1089.5  C 310.64 1089.5  308 1086.86  308 1083.5  C 308 1080.14  310.64 1077.5  314 1077.5  Z " fill-rule="nonzero" fill="#f0f0f0" stroke="none" />
  <path d="M 314 1078  C 317.08 1078  319.5 1080.42  319.5 1083.5  C 319.5 1086.58  317.08 1089  314 1089  C 310.92 1089  308.5 1086.58  308.5 1083.5  C 308.5 1080.42  310.92 1078  314 1078  Z " stroke-width="1" stroke="#797979" fill="none" />
  <path d="M 314 1086.5  C 312.32 1086.5  311 1085.18  311 1083.5  C 311 1081.82  312.32 1080.5  314 1080.5  C 315.68 1080.5  317 1081.82  317 1083.5  C 317 1085.18  315.68 1086.5  314 1086.5  " fill-rule="nonzero" fill="#797979" stroke="none" />
</svg>