<?xml version="1.0" encoding="utf-8"?>
<svg version="1.1" xmlns:xlink="http://www.w3.org/1999/xlink" width="12px" height="12px" viewBox="231 481  12 12" xmlns="http://www.w3.org/2000/svg">
  <path d="M 237 481  C 240.36 481  243 483.64  243 487  C 243 490.36  240.36 493  237 493  C 233.64 493  231 490.36  231 487  C 231 483.64  233.64 481  237 481  Z " fill-rule="nonzero" fill="#ffffff" stroke="none" />
  <path d="M 237 481.5  C 240.08 481.5  242.5 483.92  242.5 487  C 242.5 490.08  240.08 492.5  237 492.5  C 233.92 492.5  231.5 490.08  231.5 487  C 231.5 483.92  233.92 481.5  237 481.5  Z " stroke-width="1" stroke="#797979" fill="none" />
  <path d="M 237 490  C 235.32 490  234 488.68  234 487  C 234 485.32  235.32 484  237 484  C 238.68 484  240 485.32  240 487  C 240 488.68  238.68 490  237 490  " fill-rule="nonzero" fill="#797979" stroke="none" />
</svg>