<?xml version="1.0" encoding="utf-8"?>
<svg version="1.1" xmlns:xlink="http://www.w3.org/1999/xlink" width="12px" height="12px" viewBox="422 448  12 12" xmlns="http://www.w3.org/2000/svg">
  <path d="M 428 448  C 431.36 448  434 450.64  434 454  C 434 457.36  431.36 460  428 460  C 424.64 460  422 457.36  422 454  C 422 450.64  424.64 448  428 448  Z " fill-rule="nonzero" fill="#ffffff" stroke="none" />
  <path d="M 428 448.5  C 431.08 448.5  433.5 450.92  433.5 454  C 433.5 457.08  431.08 459.5  428 459.5  C 424.92 459.5  422.5 457.08  422.5 454  C 422.5 450.92  424.92 448.5  428 448.5  Z " stroke-width="1" stroke="#797979" fill="none" />
  <path d="M 428 457  C 426.32 457  425 455.68  425 454  C 425 452.32  426.32 451  428 451  C 429.68 451  431 452.32  431 454  C 431 455.68  429.68 457  428 457  " fill-rule="nonzero" fill="#797979" stroke="none" />
</svg>