<?xml version="1.0" encoding="utf-8"?>
<svg version="1.1" xmlns:xlink="http://www.w3.org/1999/xlink" width="12px" height="12px" viewBox="278 1073.5  12 12" xmlns="http://www.w3.org/2000/svg">
  <path d="M 284 1073.5  C 287.36 1073.5  290 1076.14  290 1079.5  C 290 1082.86  287.36 1085.5  284 1085.5  C 280.64 1085.5  278 1082.86  278 1079.5  C 278 1076.14  280.64 1073.5  284 1073.5  Z " fill-rule="nonzero" fill="#f0f0f0" stroke="none" />
  <path d="M 284 1074  C 287.08 1074  289.5 1076.42  289.5 1079.5  C 289.5 1082.58  287.08 1085  284 1085  C 280.92 1085  278.5 1082.58  278.5 1079.5  C 278.5 1076.42  280.92 1074  284 1074  Z " stroke-width="1" stroke="#797979" fill="none" />
  <path d="M 284 1082.5  C 282.32 1082.5  281 1081.18  281 1079.5  C 281 1077.82  282.32 1076.5  284 1076.5  C 285.68 1076.5  287 1077.82  287 1079.5  C 287 1081.18  285.68 1082.5  284 1082.5  " fill-rule="nonzero" fill="#797979" stroke="none" />
</svg>