<?xml version="1.0" encoding="utf-8"?>
<svg version="1.1" xmlns:xlink="http://www.w3.org/1999/xlink" width="12px" height="12px" viewBox="278 1140.5  12 12" xmlns="http://www.w3.org/2000/svg">
  <path d="M 284 1140.5  C 287.36 1140.5  290 1143.14  290 1146.5  C 290 1149.86  287.36 1152.5  284 1152.5  C 280.64 1152.5  278 1149.86  278 1146.5  C 278 1143.14  280.64 1140.5  284 1140.5  Z " fill-rule="nonzero" fill="#ffffff" stroke="none" />
  <path d="M 284 1141  C 287.08 1141  289.5 1143.42  289.5 1146.5  C 289.5 1149.58  287.08 1152  284 1152  C 280.92 1152  278.5 1149.58  278.5 1146.5  C 278.5 1143.42  280.92 1141  284 1141  Z " stroke-width="1" stroke="#797979" fill="none" />
  <path d="M 284 1149.5  C 282.32 1149.5  281 1148.18  281 1146.5  C 281 1144.82  282.32 1143.5  284 1143.5  C 285.68 1143.5  287 1144.82  287 1146.5  C 287 1148.18  285.68 1149.5  284 1149.5  " fill-rule="nonzero" fill="#797979" stroke="none" />
</svg>