<?xml version="1.0" encoding="utf-8"?>
<svg version="1.1" xmlns:xlink="http://www.w3.org/1999/xlink" width="12px" height="12px" viewBox="278 1108.5  12 12" xmlns="http://www.w3.org/2000/svg">
  <path d="M 284 1108.5  C 287.36 1108.5  290 1111.14  290 1114.5  C 290 1117.86  287.36 1120.5  284 1120.5  C 280.64 1120.5  278 1117.86  278 1114.5  C 278 1111.14  280.64 1108.5  284 1108.5  Z " fill-rule="nonzero" fill="#ffffff" stroke="none" />
  <path d="M 284 1109  C 287.08 1109  289.5 1111.42  289.5 1114.5  C 289.5 1117.58  287.08 1120  284 1120  C 280.92 1120  278.5 1117.58  278.5 1114.5  C 278.5 1111.42  280.92 1109  284 1109  Z " stroke-width="1" stroke="#797979" fill="none" />
  <path d="M 284 1117.5  C 282.32 1117.5  281 1116.18  281 1114.5  C 281 1112.82  282.32 1111.5  284 1111.5  C 285.68 1111.5  287 1112.82  287 1114.5  C 287 1116.18  285.68 1117.5  284 1117.5  " fill-rule="nonzero" fill="#797979" stroke="none" />
</svg>