<?xml version="1.0" encoding="utf-8"?>
<svg version="1.1" xmlns:xlink="http://www.w3.org/1999/xlink" width="12px" height="12px" viewBox="184 1782.5  12 12" xmlns="http://www.w3.org/2000/svg">
  <path d="M 190 1782.5  C 193.36 1782.5  196 1785.14  196 1788.5  C 196 1791.86  193.36 1794.5  190 1794.5  C 186.64 1794.5  184 1791.86  184 1788.5  C 184 1785.14  186.64 1782.5  190 1782.5  Z " fill-rule="nonzero" fill="#ffffff" stroke="none" />
  <path d="M 190 1783  C 193.08 1783  195.5 1785.42  195.5 1788.5  C 195.5 1791.58  193.08 1794  190 1794  C 186.92 1794  184.5 1791.58  184.5 1788.5  C 184.5 1785.42  186.92 1783  190 1783  Z " stroke-width="1" stroke="#797979" fill="none" />
  <path d="M 190 1791.5  C 188.32 1791.5  187 1790.18  187 1788.5  C 187 1786.82  188.32 1785.5  190 1785.5  C 191.68 1785.5  193 1786.82  193 1788.5  C 193 1790.18  191.68 1791.5  190 1791.5  " fill-rule="nonzero" fill="#797979" stroke="none" />
</svg>