<?xml version="1.0" encoding="utf-8"?>
<svg version="1.1" xmlns:xlink="http://www.w3.org/1999/xlink" width="12px" height="12px" viewBox="182 1728.5  12 12" xmlns="http://www.w3.org/2000/svg">
  <path d="M 188 1728.5  C 191.36 1728.5  194 1731.14  194 1734.5  C 194 1737.86  191.36 1740.5  188 1740.5  C 184.64 1740.5  182 1737.86  182 1734.5  C 182 1731.14  184.64 1728.5  188 1728.5  Z " fill-rule="nonzero" fill="#ffffff" stroke="none" />
  <path d="M 188 1729  C 191.08 1729  193.5 1731.42  193.5 1734.5  C 193.5 1737.58  191.08 1740  188 1740  C 184.92 1740  182.5 1737.58  182.5 1734.5  C 182.5 1731.42  184.92 1729  188 1729  Z " stroke-width="1" stroke="#797979" fill="none" />
  <path d="M 188 1737.5  C 186.32 1737.5  185 1736.18  185 1734.5  C 185 1732.82  186.32 1731.5  188 1731.5  C 189.68 1731.5  191 1732.82  191 1734.5  C 191 1736.18  189.68 1737.5  188 1737.5  " fill-rule="nonzero" fill="#797979" stroke="none" />
</svg>