<?xml version="1.0" encoding="utf-8"?>
<svg version="1.1" xmlns:xlink="http://www.w3.org/1999/xlink" width="12px" height="12px" viewBox="1107 1734.5  12 12" xmlns="http://www.w3.org/2000/svg">
  <path d="M 1113 1734.5  C 1116.36 1734.5  1119 1737.14  1119 1740.5  C 1119 1743.86  1116.36 1746.5  1113 1746.5  C 1109.64 1746.5  1107 1743.86  1107 1740.5  C 1107 1737.14  1109.64 1734.5  1113 1734.5  Z " fill-rule="nonzero" fill="#ffffff" stroke="none" />
  <path d="M 1113 1735  C 1116.08 1735  1118.5 1737.42  1118.5 1740.5  C 1118.5 1743.58  1116.08 1746  1113 1746  C 1109.92 1746  1107.5 1743.58  1107.5 1740.5  C 1107.5 1737.42  1109.92 1735  1113 1735  Z " stroke-width="1" stroke="#797979" fill="none" />
  <path d="M 1113 1743.5  C 1111.32 1743.5  1110 1742.18  1110 1740.5  C 1110 1738.82  1111.32 1737.5  1113 1737.5  C 1114.68 1737.5  1116 1738.82  1116 1740.5  C 1116 1742.18  1114.68 1743.5  1113 1743.5  " fill-rule="nonzero" fill="#797979" stroke="none" />
</svg>