<?xml version="1.0" encoding="utf-8"?>
<svg version="1.1" xmlns:xlink="http://www.w3.org/1999/xlink" width="12px" height="12px" viewBox="1107 1801.5  12 12" xmlns="http://www.w3.org/2000/svg">
  <path d="M 1113 1801.5  C 1116.36 1801.5  1119 1804.14  1119 1807.5  C 1119 1810.86  1116.36 1813.5  1113 1813.5  C 1109.64 1813.5  1107 1810.86  1107 1807.5  C 1107 1804.14  1109.64 1801.5  1113 1801.5  Z " fill-rule="nonzero" fill="#ffffff" stroke="none" />
  <path d="M 1113 1802  C 1116.08 1802  1118.5 1804.42  1118.5 1807.5  C 1118.5 1810.58  1116.08 1813  1113 1813  C 1109.92 1813  1107.5 1810.58  1107.5 1807.5  C 1107.5 1804.42  1109.92 1802  1113 1802  Z " stroke-width="1" stroke="#797979" fill="none" />
  <path d="M 1113 1810.5  C 1111.32 1810.5  1110 1809.18  1110 1807.5  C 1110 1805.82  1111.32 1804.5  1113 1804.5  C 1114.68 1804.5  1116 1805.82  1116 1807.5  C 1116 1809.18  1114.68 1810.5  1113 1810.5  " fill-rule="nonzero" fill="#797979" stroke="none" />
</svg>