<?xml version="1.0" encoding="utf-8"?>
<svg version="1.1" xmlns:xlink="http://www.w3.org/1999/xlink" width="12px" height="12px" viewBox="1115 1510.5  12 12" xmlns="http://www.w3.org/2000/svg">
  <path d="M 1121 1510.5  C 1124.36 1510.5  1127 1513.14  1127 1516.5  C 1127 1519.86  1124.36 1522.5  1121 1522.5  C 1117.64 1522.5  1115 1519.86  1115 1516.5  C 1115 1513.14  1117.64 1510.5  1121 1510.5  Z " fill-rule="nonzero" fill="#f0f0f0" stroke="none" />
  <path d="M 1121 1511  C 1124.08 1511  1126.5 1513.42  1126.5 1516.5  C 1126.5 1519.58  1124.08 1522  1121 1522  C 1117.92 1522  1115.5 1519.58  1115.5 1516.5  C 1115.5 1513.42  1117.92 1511  1121 1511  Z " stroke-width="1" stroke="#797979" fill="none" />
  <path d="M 1121 1519.5  C 1119.32 1519.5  1118 1518.18  1118 1516.5  C 1118 1514.82  1119.32 1513.5  1121 1513.5  C 1122.68 1513.5  1124 1514.82  1124 1516.5  C 1124 1518.18  1122.68 1519.5  1121 1519.5  " fill-rule="nonzero" fill="#797979" stroke="none" />
</svg>