<?xml version="1.0" encoding="utf-8"?>
<svg version="1.1" xmlns:xlink="http://www.w3.org/1999/xlink" width="12px" height="12px" viewBox="1283 1510.5  12 12" xmlns="http://www.w3.org/2000/svg">
  <path d="M 1289 1510.5  C 1292.36 1510.5  1295 1513.14  1295 1516.5  C 1295 1519.86  1292.36 1522.5  1289 1522.5  C 1285.64 1522.5  1283 1519.86  1283 1516.5  C 1283 1513.14  1285.64 1510.5  1289 1510.5  Z " fill-rule="nonzero" fill="#f0f0f0" stroke="none" />
  <path d="M 1289 1511  C 1292.08 1511  1294.5 1513.42  1294.5 1516.5  C 1294.5 1519.58  1292.08 1522  1289 1522  C 1285.92 1522  1283.5 1519.58  1283.5 1516.5  C 1283.5 1513.42  1285.92 1511  1289 1511  Z " stroke-width="1" stroke="#797979" fill="none" />
  <path d="M 1289 1519.5  C 1287.32 1519.5  1286 1518.18  1286 1516.5  C 1286 1514.82  1287.32 1513.5  1289 1513.5  C 1290.68 1513.5  1292 1514.82  1292 1516.5  C 1292 1518.18  1290.68 1519.5  1289 1519.5  " fill-rule="nonzero" fill="#797979" stroke="none" />
</svg>