<?xml version="1.0" encoding="utf-8"?>
<svg version="1.1" xmlns:xlink="http://www.w3.org/1999/xlink" width="12px" height="12px" viewBox="-241 406  12 12" xmlns="http://www.w3.org/2000/svg">
  <path d="M -235 406  C -231.64 406  -229 408.64  -229 412  C -229 415.36  -231.64 418  -235 418  C -238.36 418  -241 415.36  -241 412  C -241 408.64  -238.36 406  -235 406  Z " fill-rule="nonzero" fill="#ffffff" stroke="none" />
  <path d="M -235 406.5  C -231.92 406.5  -229.5 408.92  -229.5 412  C -229.5 415.08  -231.92 417.5  -235 417.5  C -238.08 417.5  -240.5 415.08  -240.5 412  C -240.5 408.92  -238.08 406.5  -235 406.5  Z " stroke-width="1" stroke="#797979" fill="none" />
  <path d="M -235 415  C -236.68 415  -238 413.68  -238 412  C -238 410.32  -236.68 409  -235 409  C -233.32 409  -232 410.32  -232 412  C -232 413.68  -233.32 415  -235 415  " fill-rule="nonzero" fill="#797979" stroke="none" />
</svg>