<?xml version="1.0" encoding="utf-8"?>
<svg version="1.1" xmlns:xlink="http://www.w3.org/1999/xlink" width="70px" height="30px" xmlns="http://www.w3.org/2000/svg">
  <g>
    <path d="M 1 15  A 14 14 0 0 1 15 1 L 55 1  A 14 14 0 0 1 69 15 A 14 14 0 0 1 55 29 L 15 29  A 14 14 0 0 1 1 15 Z " fill-rule="nonzero" fill="#00c260" stroke="none" fill-opacity="0.8" />
    <path d="M 0.5 15  A 14.5 14.5 0 0 1 15 0.5 L 55 0.5  A 14.5 14.5 0 0 1 69.5 15 A 14.5 14.5 0 0 1 55 29.5 L 15 29.5  A 14.5 14.5 0 0 1 0.5 15 Z " stroke-width="1" stroke="#00c260" fill="none" stroke-opacity="0.8" />
  </g>
</svg>