<?xml version="1.0" encoding="utf-8"?>
<svg version="1.1" xmlns:xlink="http://www.w3.org/1999/xlink" width="12px" height="12px" viewBox="344 291.5  12 12" xmlns="http://www.w3.org/2000/svg">
  <path d="M 350 291.5  C 353.36 291.5  356 294.14  356 297.5  C 356 300.86  353.36 303.5  350 303.5  C 346.64 303.5  344 300.86  344 297.5  C 344 294.14  346.64 291.5  350 291.5  Z " fill-rule="nonzero" fill="#ffffff" stroke="none" />
  <path d="M 350 292  C 353.08 292  355.5 294.42  355.5 297.5  C 355.5 300.58  353.08 303  350 303  C 346.92 303  344.5 300.58  344.5 297.5  C 344.5 294.42  346.92 292  350 292  Z " stroke-width="1" stroke="#797979" fill="none" />
  <path d="M 350 300.5  C 348.32 300.5  347 299.18  347 297.5  C 347 295.82  348.32 294.5  350 294.5  C 351.68 294.5  353 295.82  353 297.5  C 353 299.18  351.68 300.5  350 300.5  " fill-rule="nonzero" fill="#797979" stroke="none" />
</svg>