<?xml version="1.0" encoding="utf-8"?>
<svg version="1.1" xmlns:xlink="http://www.w3.org/1999/xlink" width="12px" height="12px" viewBox="471 929.5  12 12" xmlns="http://www.w3.org/2000/svg">
  <path d="M 477 929.5  C 480.36 929.5  483 932.14  483 935.5  C 483 938.86  480.36 941.5  477 941.5  C 473.64 941.5  471 938.86  471 935.5  C 471 932.14  473.64 929.5  477 929.5  Z " fill-rule="nonzero" fill="#ffffff" stroke="none" />
  <path d="M 477 930  C 480.08 930  482.5 932.42  482.5 935.5  C 482.5 938.58  480.08 941  477 941  C 473.92 941  471.5 938.58  471.5 935.5  C 471.5 932.42  473.92 930  477 930  Z " stroke-width="1" stroke="#797979" fill="none" />
  <path d="M 477 938.5  C 475.32 938.5  474 937.18  474 935.5  C 474 933.82  475.32 932.5  477 932.5  C 478.68 932.5  480 933.82  480 935.5  C 480 937.18  478.68 938.5  477 938.5  " fill-rule="nonzero" fill="#797979" stroke="none" />
</svg>