<?xml version="1.0" encoding="utf-8"?>
<svg version="1.1" xmlns:xlink="http://www.w3.org/1999/xlink" width="12px" height="12px" viewBox="349 468.5  12 12" xmlns="http://www.w3.org/2000/svg">
  <path d="M 355 468.5  C 358.36 468.5  361 471.14  361 474.5  C 361 477.86  358.36 480.5  355 480.5  C 351.64 480.5  349 477.86  349 474.5  C 349 471.14  351.64 468.5  355 468.5  Z " fill-rule="nonzero" fill="#f0f0f0" stroke="none" />
  <path d="M 355 469  C 358.08 469  360.5 471.42  360.5 474.5  C 360.5 477.58  358.08 480  355 480  C 351.92 480  349.5 477.58  349.5 474.5  C 349.5 471.42  351.92 469  355 469  Z " stroke-width="1" stroke="#797979" fill="none" />
  <path d="M 355 477.5  C 353.32 477.5  352 476.18  352 474.5  C 352 472.82  353.32 471.5  355 471.5  C 356.68 471.5  358 472.82  358 474.5  C 358 476.18  356.68 477.5  355 477.5  " fill-rule="nonzero" fill="#797979" stroke="none" />
</svg>