<?xml version="1.0" encoding="utf-8"?>
<svg version="1.1" xmlns:xlink="http://www.w3.org/1999/xlink" width="12px" height="12px" viewBox="457 749.5  12 12" xmlns="http://www.w3.org/2000/svg">
  <path d="M 463 749.5  C 466.36 749.5  469 752.14  469 755.5  C 469 758.86  466.36 761.5  463 761.5  C 459.64 761.5  457 758.86  457 755.5  C 457 752.14  459.64 749.5  463 749.5  Z " fill-rule="nonzero" fill="#f0f0f0" stroke="none" />
  <path d="M 463 750  C 466.08 750  468.5 752.42  468.5 755.5  C 468.5 758.58  466.08 761  463 761  C 459.92 761  457.5 758.58  457.5 755.5  C 457.5 752.42  459.92 750  463 750  Z " stroke-width="1" stroke="#797979" fill="none" />
  <path d="M 463 758.5  C 461.32 758.5  460 757.18  460 755.5  C 460 753.82  461.32 752.5  463 752.5  C 464.68 752.5  466 753.82  466 755.5  C 466 757.18  464.68 758.5  463 758.5  " fill-rule="nonzero" fill="#797979" stroke="none" />
</svg>