<?xml version="1.0" encoding="utf-8"?>
<svg version="1.1" xmlns:xlink="http://www.w3.org/1999/xlink" width="12px" height="12px" viewBox="349 436  12 12" xmlns="http://www.w3.org/2000/svg">
  <path d="M 355 436  C 358.36 436  361 438.64  361 442  C 361 445.36  358.36 448  355 448  C 351.64 448  349 445.36  349 442  C 349 438.64  351.64 436  355 436  Z " fill-rule="nonzero" fill="#f0f0f0" stroke="none" />
  <path d="M 355 436.5  C 358.08 436.5  360.5 438.92  360.5 442  C 360.5 445.08  358.08 447.5  355 447.5  C 351.92 447.5  349.5 445.08  349.5 442  C 349.5 438.92  351.92 436.5  355 436.5  Z " stroke-width="1" stroke="#797979" fill="none" />
  <path d="M 355 445  C 353.32 445  352 443.68  352 442  C 352 440.32  353.32 439  355 439  C 356.68 439  358 440.32  358 442  C 358 443.68  356.68 445  355 445  " fill-rule="nonzero" fill="#797979" stroke="none" />
</svg>