<?xml version="1.0" encoding="utf-8"?>
<svg version="1.1" xmlns:xlink="http://www.w3.org/1999/xlink" width="12px" height="12px" viewBox="312 1299.5  12 12" xmlns="http://www.w3.org/2000/svg">
  <path d="M 318 1299.5  C 321.36 1299.5  324 1302.14  324 1305.5  C 324 1308.86  321.36 1311.5  318 1311.5  C 314.64 1311.5  312 1308.86  312 1305.5  C 312 1302.14  314.64 1299.5  318 1299.5  Z " fill-rule="nonzero" fill="#f0f0f0" stroke="none" />
  <path d="M 318 1300  C 321.08 1300  323.5 1302.42  323.5 1305.5  C 323.5 1308.58  321.08 1311  318 1311  C 314.92 1311  312.5 1308.58  312.5 1305.5  C 312.5 1302.42  314.92 1300  318 1300  Z " stroke-width="1" stroke="#797979" fill="none" />
  <path d="M 318 1308.5  C 316.32 1308.5  315 1307.18  315 1305.5  C 315 1303.82  316.32 1302.5  318 1302.5  C 319.68 1302.5  321 1303.82  321 1305.5  C 321 1307.18  319.68 1308.5  318 1308.5  " fill-rule="nonzero" fill="#797979" stroke="none" />
</svg>