<?xml version="1.0" encoding="utf-8"?>
<svg version="1.1" xmlns:xlink="http://www.w3.org/1999/xlink" width="12px" height="12px" viewBox="226 293  12 12" xmlns="http://www.w3.org/2000/svg">
  <path d="M 232 293  C 235.36 293  238 295.64  238 299  C 238 302.36  235.36 305  232 305  C 228.64 305  226 302.36  226 299  C 226 295.64  228.64 293  232 293  Z " fill-rule="nonzero" fill="#f0f0f0" stroke="none" />
  <path d="M 232 293.5  C 235.08 293.5  237.5 295.92  237.5 299  C 237.5 302.08  235.08 304.5  232 304.5  C 228.92 304.5  226.5 302.08  226.5 299  C 226.5 295.92  228.92 293.5  232 293.5  Z " stroke-width="1" stroke="#797979" fill="none" />
  <path d="M 232 302  C 230.32 302  229 300.68  229 299  C 229 297.32  230.32 296  232 296  C 233.68 296  235 297.32  235 299  C 235 300.68  233.68 302  232 302  " fill-rule="nonzero" fill="#797979" stroke="none" />
</svg>