<?xml version="1.0" encoding="utf-8"?>
<svg version="1.1" xmlns:xlink="http://www.w3.org/1999/xlink" width="12px" height="12px" viewBox="344 293  12 12" xmlns="http://www.w3.org/2000/svg">
  <path d="M 350 293  C 353.36 293  356 295.64  356 299  C 356 302.36  353.36 305  350 305  C 346.64 305  344 302.36  344 299  C 344 295.64  346.64 293  350 293  Z " fill-rule="nonzero" fill="#f0f0f0" stroke="none" />
  <path d="M 350 293.5  C 353.08 293.5  355.5 295.92  355.5 299  C 355.5 302.08  353.08 304.5  350 304.5  C 346.92 304.5  344.5 302.08  344.5 299  C 344.5 295.92  346.92 293.5  350 293.5  Z " stroke-width="1" stroke="#797979" fill="none" />
  <path d="M 350 302  C 348.32 302  347 300.68  347 299  C 347 297.32  348.32 296  350 296  C 351.68 296  353 297.32  353 299  C 353 300.68  351.68 302  350 302  " fill-rule="nonzero" fill="#797979" stroke="none" />
</svg>