<?xml version="1.0" encoding="utf-8"?>
<svg version="1.1" xmlns:xlink="http://www.w3.org/1999/xlink" width="12px" height="12px" viewBox="478 292  12 12" xmlns="http://www.w3.org/2000/svg">
  <path d="M 484 292  C 487.36 292  490 294.64  490 298  C 490 301.36  487.36 304  484 304  C 480.64 304  478 301.36  478 298  C 478 294.64  480.64 292  484 292  Z " fill-rule="nonzero" fill="#ffffff" stroke="none" />
  <path d="M 484 292.5  C 487.08 292.5  489.5 294.92  489.5 298  C 489.5 301.08  487.08 303.5  484 303.5  C 480.92 303.5  478.5 301.08  478.5 298  C 478.5 294.92  480.92 292.5  484 292.5  Z " stroke-width="1" stroke="#797979" fill="none" />
  <path d="M 484 301  C 482.32 301  481 299.68  481 298  C 481 296.32  482.32 295  484 295  C 485.68 295  487 296.32  487 298  C 487 299.68  485.68 301  484 301  " fill-rule="nonzero" fill="#797979" stroke="none" />
</svg>