<?xml version="1.0" encoding="utf-8"?>
<svg version="1.1" xmlns:xlink="http://www.w3.org/1999/xlink" width="12px" height="12px" viewBox="224 1138  12 12" xmlns="http://www.w3.org/2000/svg">
  <path d="M 230 1138  C 233.36 1138  236 1140.64  236 1144  C 236 1147.36  233.36 1150  230 1150  C 226.64 1150  224 1147.36  224 1144  C 224 1140.64  226.64 1138  230 1138  Z " fill-rule="nonzero" fill="#f0f0f0" stroke="none" />
  <path d="M 230 1138.5  C 233.08 1138.5  235.5 1140.92  235.5 1144  C 235.5 1147.08  233.08 1149.5  230 1149.5  C 226.92 1149.5  224.5 1147.08  224.5 1144  C 224.5 1140.92  226.92 1138.5  230 1138.5  Z " stroke-width="1" stroke="#797979" fill="none" />
  <path d="M 230 1147  C 228.32 1147  227 1145.68  227 1144  C 227 1142.32  228.32 1141  230 1141  C 231.68 1141  233 1142.32  233 1144  C 233 1145.68  231.68 1147  230 1147  " fill-rule="nonzero" fill="#797979" stroke="none" />
</svg>