<?xml version="1.0" encoding="utf-8"?>
<svg version="1.1" xmlns:xlink="http://www.w3.org/1999/xlink" width="12px" height="12px" viewBox="341 1138  12 12" xmlns="http://www.w3.org/2000/svg">
  <path d="M 347 1138  C 350.36 1138  353 1140.64  353 1144  C 353 1147.36  350.36 1150  347 1150  C 343.64 1150  341 1147.36  341 1144  C 341 1140.64  343.64 1138  347 1138  Z " fill-rule="nonzero" fill="#f0f0f0" stroke="none" />
  <path d="M 347 1138.5  C 350.08 1138.5  352.5 1140.92  352.5 1144  C 352.5 1147.08  350.08 1149.5  347 1149.5  C 343.92 1149.5  341.5 1147.08  341.5 1144  C 341.5 1140.92  343.92 1138.5  347 1138.5  Z " stroke-width="1" stroke="#797979" fill="none" />
  <path d="M 347 1147  C 345.32 1147  344 1145.68  344 1144  C 344 1142.32  345.32 1141  347 1141  C 348.68 1141  350 1142.32  350 1144  C 350 1145.68  348.68 1147  347 1147  " fill-rule="nonzero" fill="#797979" stroke="none" />
</svg>