<?xml version="1.0" encoding="utf-8"?>
<svg version="1.1" xmlns:xlink="http://www.w3.org/1999/xlink" width="12px" height="12px" viewBox="349 470  12 12" xmlns="http://www.w3.org/2000/svg">
  <path d="M 355 470  C 358.36 470  361 472.64  361 476  C 361 479.36  358.36 482  355 482  C 351.64 482  349 479.36  349 476  C 349 472.64  351.64 470  355 470  Z " fill-rule="nonzero" fill="#f0f0f0" stroke="none" />
  <path d="M 355 470.5  C 358.08 470.5  360.5 472.92  360.5 476  C 360.5 479.08  358.08 481.5  355 481.5  C 351.92 481.5  349.5 479.08  349.5 476  C 349.5 472.92  351.92 470.5  355 470.5  Z " stroke-width="1" stroke="#797979" fill="none" />
  <path d="M 355 479  C 353.32 479  352 477.68  352 476  C 352 474.32  353.32 473  355 473  C 356.68 473  358 474.32  358 476  C 358 477.68  356.68 479  355 479  " fill-rule="nonzero" fill="#797979" stroke="none" />
</svg>