<?xml version="1.0" encoding="utf-8"?>
<svg version="1.1" xmlns:xlink="http://www.w3.org/1999/xlink" width="12px" height="12px" viewBox="224 967  12 12" xmlns="http://www.w3.org/2000/svg">
  <path d="M 230 967  C 233.36 967  236 969.64  236 973  C 236 976.36  233.36 979  230 979  C 226.64 979  224 976.36  224 973  C 224 969.64  226.64 967  230 967  Z " fill-rule="nonzero" fill="#ffffff" stroke="none" />
  <path d="M 230 967.5  C 233.08 967.5  235.5 969.92  235.5 973  C 235.5 976.08  233.08 978.5  230 978.5  C 226.92 978.5  224.5 976.08  224.5 973  C 224.5 969.92  226.92 967.5  230 967.5  Z " stroke-width="1" stroke="#797979" fill="none" />
  <path d="M 230 976  C 228.32 976  227 974.68  227 973  C 227 971.32  228.32 970  230 970  C 231.68 970  233 971.32  233 973  C 233 974.68  231.68 976  230 976  " fill-rule="nonzero" fill="#797979" stroke="none" />
</svg>