<?xml version="1.0" encoding="utf-8"?>
<svg version="1.1" xmlns:xlink="http://www.w3.org/1999/xlink" width="12px" height="12px" viewBox="352 562  12 12" xmlns="http://www.w3.org/2000/svg">
  <path d="M 358 562  C 361.36 562  364 564.64  364 568  C 364 571.36  361.36 574  358 574  C 354.64 574  352 571.36  352 568  C 352 564.64  354.64 562  358 562  Z " fill-rule="nonzero" fill="#ffffff" stroke="none" />
  <path d="M 358 562.5  C 361.08 562.5  363.5 564.92  363.5 568  C 363.5 571.08  361.08 573.5  358 573.5  C 354.92 573.5  352.5 571.08  352.5 568  C 352.5 564.92  354.92 562.5  358 562.5  Z " stroke-width="1" stroke="#797979" fill="none" />
  <path d="M 358 571  C 356.32 571  355 569.68  355 568  C 355 566.32  356.32 565  358 565  C 359.68 565  361 566.32  361 568  C 361 569.68  359.68 571  358 571  " fill-rule="nonzero" fill="#797979" stroke="none" />
</svg>