<?xml version="1.0" encoding="utf-8"?>
<svg version="1.1" xmlns:xlink="http://www.w3.org/1999/xlink" width="12px" height="12px" viewBox="205 752  12 12" xmlns="http://www.w3.org/2000/svg">
  <path d="M 211 752  C 214.36 752  217 754.64  217 758  C 217 761.36  214.36 764  211 764  C 207.64 764  205 761.36  205 758  C 205 754.64  207.64 752  211 752  Z " fill-rule="nonzero" fill="#ffffff" stroke="none" />
  <path d="M 211 752.5  C 214.08 752.5  216.5 754.92  216.5 758  C 216.5 761.08  214.08 763.5  211 763.5  C 207.92 763.5  205.5 761.08  205.5 758  C 205.5 754.92  207.92 752.5  211 752.5  Z " stroke-width="1" stroke="#797979" fill="none" />
  <path d="M 211 761  C 209.32 761  208 759.68  208 758  C 208 756.32  209.32 755  211 755  C 212.68 755  214 756.32  214 758  C 214 759.68  212.68 761  211 761  " fill-rule="nonzero" fill="#797979" stroke="none" />
</svg>