<?xml version="1.0" encoding="utf-8"?>
<svg version="1.1" xmlns:xlink="http://www.w3.org/1999/xlink" width="12px" height="12px" viewBox="341 967  12 12" xmlns="http://www.w3.org/2000/svg">
  <path d="M 347 967  C 350.36 967  353 969.64  353 973  C 353 976.36  350.36 979  347 979  C 343.64 979  341 976.36  341 973  C 341 969.64  343.64 967  347 967  Z " fill-rule="nonzero" fill="#f0f0f0" stroke="none" />
  <path d="M 347 967.5  C 350.08 967.5  352.5 969.92  352.5 973  C 352.5 976.08  350.08 978.5  347 978.5  C 343.92 978.5  341.5 976.08  341.5 973  C 341.5 969.92  343.92 967.5  347 967.5  Z " stroke-width="1" stroke="#797979" fill="none" />
  <path d="M 347 976  C 345.32 976  344 974.68  344 973  C 344 971.32  345.32 970  347 970  C 348.68 970  350 971.32  350 973  C 350 974.68  348.68 976  347 976  " fill-rule="nonzero" fill="#797979" stroke="none" />
</svg>