<?xml version="1.0" encoding="utf-8"?>
<svg version="1.1" xmlns:xlink="http://www.w3.org/1999/xlink" width="12px" height="12px" viewBox="228 932  12 12" xmlns="http://www.w3.org/2000/svg">
  <path d="M 234 932  C 237.36 932  240 934.64  240 938  C 240 941.36  237.36 944  234 944  C 230.64 944  228 941.36  228 938  C 228 934.64  230.64 932  234 932  Z " fill-rule="nonzero" fill="#f0f0f0" stroke="none" />
  <path d="M 234 932.5  C 237.08 932.5  239.5 934.92  239.5 938  C 239.5 941.08  237.08 943.5  234 943.5  C 230.92 943.5  228.5 941.08  228.5 938  C 228.5 934.92  230.92 932.5  234 932.5  Z " stroke-width="1" stroke="#797979" fill="none" />
  <path d="M 234 941  C 232.32 941  231 939.68  231 938  C 231 936.32  232.32 935  234 935  C 235.68 935  237 936.32  237 938  C 237 939.68  235.68 941  234 941  " fill-rule="nonzero" fill="#797979" stroke="none" />
</svg>