<?xml version="1.0" encoding="utf-8"?>
<svg version="1.1" xmlns:xlink="http://www.w3.org/1999/xlink" width="12px" height="12px" viewBox="221 1005  12 12" xmlns="http://www.w3.org/2000/svg">
  <path d="M 227 1005  C 230.36 1005  233 1007.64  233 1011  C 233 1014.36  230.36 1017  227 1017  C 223.64 1017  221 1014.36  221 1011  C 221 1007.64  223.64 1005  227 1005  Z " fill-rule="nonzero" fill="#f0f0f0" stroke="none" />
  <path d="M 227 1005.5  C 230.08 1005.5  232.5 1007.92  232.5 1011  C 232.5 1014.08  230.08 1016.5  227 1016.5  C 223.92 1016.5  221.5 1014.08  221.5 1011  C 221.5 1007.92  223.92 1005.5  227 1005.5  Z " stroke-width="1" stroke="#797979" fill="none" />
  <path d="M 227 1014  C 225.32 1014  224 1012.68  224 1011  C 224 1009.32  225.32 1008  227 1008  C 228.68 1008  230 1009.32  230 1011  C 230 1012.68  228.68 1014  227 1014  " fill-rule="nonzero" fill="#797979" stroke="none" />
</svg>