<?xml version="1.0" encoding="utf-8"?>
<svg version="1.1" xmlns:xlink="http://www.w3.org/1999/xlink" width="12px" height="12px" viewBox="319 1113  12 12" xmlns="http://www.w3.org/2000/svg">
  <path d="M 325 1113  C 328.36 1113  331 1115.64  331 1119  C 331 1122.36  328.36 1125  325 1125  C 321.64 1125  319 1122.36  319 1119  C 319 1115.64  321.64 1113  325 1113  Z " fill-rule="nonzero" fill="#f0f0f0" stroke="none" />
  <path d="M 325 1113.5  C 328.08 1113.5  330.5 1115.92  330.5 1119  C 330.5 1122.08  328.08 1124.5  325 1124.5  C 321.92 1124.5  319.5 1122.08  319.5 1119  C 319.5 1115.92  321.92 1113.5  325 1113.5  Z " stroke-width="1" stroke="#797979" fill="none" />
  <path d="M 325 1122  C 323.32 1122  322 1120.68  322 1119  C 322 1117.32  323.32 1116  325 1116  C 326.68 1116  328 1117.32  328 1119  C 328 1120.68  326.68 1122  325 1122  " fill-rule="nonzero" fill="#797979" stroke="none" />
</svg>