<?xml version="1.0" encoding="utf-8"?>
<svg version="1.1" xmlns:xlink="http://www.w3.org/1999/xlink" width="12px" height="12px" viewBox="312 1470.5  12 12" xmlns="http://www.w3.org/2000/svg">
  <path d="M 318 1470.5  C 321.36 1470.5  324 1473.14  324 1476.5  C 324 1479.86  321.36 1482.5  318 1482.5  C 314.64 1482.5  312 1479.86  312 1476.5  C 312 1473.14  314.64 1470.5  318 1470.5  Z " fill-rule="nonzero" fill="#f0f0f0" stroke="none" />
  <path d="M 318 1471  C 321.08 1471  323.5 1473.42  323.5 1476.5  C 323.5 1479.58  321.08 1482  318 1482  C 314.92 1482  312.5 1479.58  312.5 1476.5  C 312.5 1473.42  314.92 1471  318 1471  Z " stroke-width="1" stroke="#797979" fill="none" />
  <path d="M 318 1479.5  C 316.32 1479.5  315 1478.18  315 1476.5  C 315 1474.82  316.32 1473.5  318 1473.5  C 319.68 1473.5  321 1474.82  321 1476.5  C 321 1478.18  319.68 1479.5  318 1479.5  " fill-rule="nonzero" fill="#797979" stroke="none" />
</svg>