<?xml version="1.0" encoding="utf-8"?>
<svg version="1.1" xmlns:xlink="http://www.w3.org/1999/xlink" width="12px" height="12px" viewBox="221 1176  12 12" xmlns="http://www.w3.org/2000/svg">
  <path d="M 227 1176  C 230.36 1176  233 1178.64  233 1182  C 233 1185.36  230.36 1188  227 1188  C 223.64 1188  221 1185.36  221 1182  C 221 1178.64  223.64 1176  227 1176  Z " fill-rule="nonzero" fill="#f0f0f0" stroke="none" />
  <path d="M 227 1176.5  C 230.08 1176.5  232.5 1178.92  232.5 1182  C 232.5 1185.08  230.08 1187.5  227 1187.5  C 223.92 1187.5  221.5 1185.08  221.5 1182  C 221.5 1178.92  223.92 1176.5  227 1176.5  Z " stroke-width="1" stroke="#797979" fill="none" />
  <path d="M 227 1185  C 225.32 1185  224 1183.68  224 1182  C 224 1180.32  225.32 1179  227 1179  C 228.68 1179  230 1180.32  230 1182  C 230 1183.68  228.68 1185  227 1185  " fill-rule="nonzero" fill="#797979" stroke="none" />
</svg>