<?xml version="1.0" encoding="utf-8"?>
<svg version="1.1" xmlns:xlink="http://www.w3.org/1999/xlink" width="12px" height="12px" viewBox="195 1301  12 12" xmlns="http://www.w3.org/2000/svg">
  <path d="M 201 1301  C 204.36 1301  207 1303.64  207 1307  C 207 1310.36  204.36 1313  201 1313  C 197.64 1313  195 1310.36  195 1307  C 195 1303.64  197.64 1301  201 1301  Z " fill-rule="nonzero" fill="#ffffff" stroke="none" />
  <path d="M 201 1301.5  C 204.08 1301.5  206.5 1303.92  206.5 1307  C 206.5 1310.08  204.08 1312.5  201 1312.5  C 197.92 1312.5  195.5 1310.08  195.5 1307  C 195.5 1303.92  197.92 1301.5  201 1301.5  Z " stroke-width="1" stroke="#797979" fill="none" />
  <path d="M 201 1310  C 199.32 1310  198 1308.68  198 1307  C 198 1305.32  199.32 1304  201 1304  C 202.68 1304  204 1305.32  204 1307  C 204 1308.68  202.68 1310  201 1310  " fill-rule="nonzero" fill="#797979" stroke="none" />
</svg>