<?xml version="1.0" encoding="utf-8"?>
<svg version="1.1" xmlns:xlink="http://www.w3.org/1999/xlink" width="12px" height="12px" viewBox="319 1284  12 12" xmlns="http://www.w3.org/2000/svg">
  <path d="M 325 1284  C 328.36 1284  331 1286.64  331 1290  C 331 1293.36  328.36 1296  325 1296  C 321.64 1296  319 1293.36  319 1290  C 319 1286.64  321.64 1284  325 1284  Z " fill-rule="nonzero" fill="#f0f0f0" stroke="none" />
  <path d="M 325 1284.5  C 328.08 1284.5  330.5 1286.92  330.5 1290  C 330.5 1293.08  328.08 1295.5  325 1295.5  C 321.92 1295.5  319.5 1293.08  319.5 1290  C 319.5 1286.92  321.92 1284.5  325 1284.5  Z " stroke-width="1" stroke="#797979" fill="none" />
  <path d="M 325 1293  C 323.32 1293  322 1291.68  322 1290  C 322 1288.32  323.32 1287  325 1287  C 326.68 1287  328 1288.32  328 1290  C 328 1291.68  326.68 1293  325 1293  " fill-rule="nonzero" fill="#797979" stroke="none" />
</svg>