<?xml version="1.0" encoding="utf-8"?>
<svg version="1.1" xmlns:xlink="http://www.w3.org/1999/xlink" width="12px" height="12px" viewBox="319 1778  12 12" xmlns="http://www.w3.org/2000/svg">
  <path d="M 325 1778  C 328.36 1778  331 1780.64  331 1784  C 331 1787.36  328.36 1790  325 1790  C 321.64 1790  319 1787.36  319 1784  C 319 1780.64  321.64 1778  325 1778  Z " fill-rule="nonzero" fill="#ffffff" stroke="none" />
  <path d="M 325 1778.5  C 328.08 1778.5  330.5 1780.92  330.5 1784  C 330.5 1787.08  328.08 1789.5  325 1789.5  C 321.92 1789.5  319.5 1787.08  319.5 1784  C 319.5 1780.92  321.92 1778.5  325 1778.5  Z " stroke-width="1" stroke="#797979" fill="none" />
  <path d="M 325 1787  C 323.32 1787  322 1785.68  322 1784  C 322 1782.32  323.32 1781  325 1781  C 326.68 1781  328 1782.32  328 1784  C 328 1785.68  326.68 1787  325 1787  " fill-rule="nonzero" fill="#797979" stroke="none" />
</svg>