<?xml version="1.0" encoding="utf-8"?>
<svg version="1.1" xmlns:xlink="http://www.w3.org/1999/xlink" width="12px" height="12px" viewBox="195 1472  12 12" xmlns="http://www.w3.org/2000/svg">
  <path d="M 201 1472  C 204.36 1472  207 1474.64  207 1478  C 207 1481.36  204.36 1484  201 1484  C 197.64 1484  195 1481.36  195 1478  C 195 1474.64  197.64 1472  201 1472  Z " fill-rule="nonzero" fill="#ffffff" stroke="none" />
  <path d="M 201 1472.5  C 204.08 1472.5  206.5 1474.92  206.5 1478  C 206.5 1481.08  204.08 1483.5  201 1483.5  C 197.92 1483.5  195.5 1481.08  195.5 1478  C 195.5 1474.92  197.92 1472.5  201 1472.5  Z " stroke-width="1" stroke="#797979" fill="none" />
  <path d="M 201 1481  C 199.32 1481  198 1479.68  198 1478  C 198 1476.32  199.32 1475  201 1475  C 202.68 1475  204 1476.32  204 1478  C 204 1479.68  202.68 1481  201 1481  " fill-rule="nonzero" fill="#797979" stroke="none" />
</svg>