<?xml version="1.0" encoding="utf-8"?>
<svg version="1.1" xmlns:xlink="http://www.w3.org/1999/xlink" width="12px" height="12px" viewBox="312 1472  12 12" xmlns="http://www.w3.org/2000/svg">
  <path d="M 318 1472  C 321.36 1472  324 1474.64  324 1478  C 324 1481.36  321.36 1484  318 1484  C 314.64 1484  312 1481.36  312 1478  C 312 1474.64  314.64 1472  318 1472  Z " fill-rule="nonzero" fill="#f0f0f0" stroke="none" />
  <path d="M 318 1472.5  C 321.08 1472.5  323.5 1474.92  323.5 1478  C 323.5 1481.08  321.08 1483.5  318 1483.5  C 314.92 1483.5  312.5 1481.08  312.5 1478  C 312.5 1474.92  314.92 1472.5  318 1472.5  Z " stroke-width="1" stroke="#797979" fill="none" />
  <path d="M 318 1481  C 316.32 1481  315 1479.68  315 1478  C 315 1476.32  316.32 1475  318 1475  C 319.68 1475  321 1476.32  321 1478  C 321 1479.68  319.68 1481  318 1481  " fill-rule="nonzero" fill="#797979" stroke="none" />
</svg>