<?xml version="1.0" encoding="utf-8"?>
<svg version="1.1" xmlns:xlink="http://www.w3.org/1999/xlink" width="12px" height="12px" viewBox="204 1117  12 12" xmlns="http://www.w3.org/2000/svg">
  <path d="M 210 1117  C 213.36 1117  216 1119.64  216 1123  C 216 1126.36  213.36 1129  210 1129  C 206.64 1129  204 1126.36  204 1123  C 204 1119.64  206.64 1117  210 1117  Z " fill-rule="nonzero" fill="#ffffff" stroke="none" />
  <path d="M 210 1117.5  C 213.08 1117.5  215.5 1119.92  215.5 1123  C 215.5 1126.08  213.08 1128.5  210 1128.5  C 206.92 1128.5  204.5 1126.08  204.5 1123  C 204.5 1119.92  206.92 1117.5  210 1117.5  Z " stroke-width="1" stroke="#797979" fill="none" />
  <path d="M 210 1126  C 208.32 1126  207 1124.68  207 1123  C 207 1121.32  208.32 1120  210 1120  C 211.68 1120  213 1121.32  213 1123  C 213 1124.68  211.68 1126  210 1126  " fill-rule="nonzero" fill="#797979" stroke="none" />
</svg>