<?xml version="1.0" encoding="utf-8"?>
<svg version="1.1" xmlns:xlink="http://www.w3.org/1999/xlink" width="12px" height="12px" viewBox="322 1117  12 12" xmlns="http://www.w3.org/2000/svg">
  <path d="M 328 1117  C 331.36 1117  334 1119.64  334 1123  C 334 1126.36  331.36 1129  328 1129  C 324.64 1129  322 1126.36  322 1123  C 322 1119.64  324.64 1117  328 1117  Z " fill-rule="nonzero" fill="#f0f0f0" stroke="none" />
  <path d="M 328 1117.5  C 331.08 1117.5  333.5 1119.92  333.5 1123  C 333.5 1126.08  331.08 1128.5  328 1128.5  C 324.92 1128.5  322.5 1126.08  322.5 1123  C 322.5 1119.92  324.92 1117.5  328 1117.5  Z " stroke-width="1" stroke="#797979" fill="none" />
  <path d="M 328 1126  C 326.32 1126  325 1124.68  325 1123  C 325 1121.32  326.32 1120  328 1120  C 329.68 1120  331 1121.32  331 1123  C 331 1124.68  329.68 1126  328 1126  " fill-rule="nonzero" fill="#797979" stroke="none" />
</svg>