<?xml version="1.0" encoding="utf-8"?>
<svg version="1.1" xmlns:xlink="http://www.w3.org/1999/xlink" width="12px" height="12px" viewBox="456 1117  12 12" xmlns="http://www.w3.org/2000/svg">
  <path d="M 462 1117  C 465.36 1117  468 1119.64  468 1123  C 468 1126.36  465.36 1129  462 1129  C 458.64 1129  456 1126.36  456 1123  C 456 1119.64  458.64 1117  462 1117  Z " fill-rule="nonzero" fill="#f0f0f0" stroke="none" />
  <path d="M 462 1117.5  C 465.08 1117.5  467.5 1119.92  467.5 1123  C 467.5 1126.08  465.08 1128.5  462 1128.5  C 458.92 1128.5  456.5 1126.08  456.5 1123  C 456.5 1119.92  458.92 1117.5  462 1117.5  Z " stroke-width="1" stroke="#797979" fill="none" />
  <path d="M 462 1126  C 460.32 1126  459 1124.68  459 1123  C 459 1121.32  460.32 1120  462 1120  C 463.68 1120  465 1121.32  465 1123  C 465 1124.68  463.68 1126  462 1126  " fill-rule="nonzero" fill="#797979" stroke="none" />
</svg>