<?xml version="1.0" encoding="utf-8"?>
<svg version="1.1" xmlns:xlink="http://www.w3.org/1999/xlink" width="12px" height="12px" viewBox="219 929  12 12" xmlns="http://www.w3.org/2000/svg">
  <path d="M 225 929  C 228.36 929  231 931.64  231 935  C 231 938.36  228.36 941  225 941  C 221.64 941  219 938.36  219 935  C 219 931.64  221.64 929  225 929  Z " fill-rule="nonzero" fill="#ffffff" stroke="none" />
  <path d="M 225 929.5  C 228.08 929.5  230.5 931.92  230.5 935  C 230.5 938.08  228.08 940.5  225 940.5  C 221.92 940.5  219.5 938.08  219.5 935  C 219.5 931.92  221.92 929.5  225 929.5  Z " stroke-width="1" stroke="#797979" fill="none" />
  <path d="M 225 938  C 223.32 938  222 936.68  222 935  C 222 933.32  223.32 932  225 932  C 226.68 932  228 933.32  228 935  C 228 936.68  226.68 938  225 938  " fill-rule="nonzero" fill="#797979" stroke="none" />
</svg>