<?xml version="1.0" encoding="utf-8"?>
<svg version="1.1" xmlns:xlink="http://www.w3.org/1999/xlink" width="12px" height="12px" viewBox="337 929  12 12" xmlns="http://www.w3.org/2000/svg">
  <path d="M 343 929  C 346.36 929  349 931.64  349 935  C 349 938.36  346.36 941  343 941  C 339.64 941  337 938.36  337 935  C 337 931.64  339.64 929  343 929  Z " fill-rule="nonzero" fill="#f0f0f0" stroke="none" />
  <path d="M 343 929.5  C 346.08 929.5  348.5 931.92  348.5 935  C 348.5 938.08  346.08 940.5  343 940.5  C 339.92 940.5  337.5 938.08  337.5 935  C 337.5 931.92  339.92 929.5  343 929.5  Z " stroke-width="1" stroke="#797979" fill="none" />
  <path d="M 343 938  C 341.32 938  340 936.68  340 935  C 340 933.32  341.32 932  343 932  C 344.68 932  346 933.32  346 935  C 346 936.68  344.68 938  343 938  " fill-rule="nonzero" fill="#797979" stroke="none" />
</svg>