<?xml version="1.0" encoding="utf-8"?>
<svg version="1.1" xmlns:xlink="http://www.w3.org/1999/xlink" width="12px" height="12px" viewBox="851 1117  12 12" xmlns="http://www.w3.org/2000/svg">
  <path d="M 857 1117  C 860.36 1117  863 1119.64  863 1123  C 863 1126.36  860.36 1129  857 1129  C 853.64 1129  851 1126.36  851 1123  C 851 1119.64  853.64 1117  857 1117  Z " fill-rule="nonzero" fill="#ffffff" stroke="none" />
  <path d="M 857 1117.5  C 860.08 1117.5  862.5 1119.92  862.5 1123  C 862.5 1126.08  860.08 1128.5  857 1128.5  C 853.92 1128.5  851.5 1126.08  851.5 1123  C 851.5 1119.92  853.92 1117.5  857 1117.5  Z " stroke-width="1" stroke="#797979" fill="none" />
  <path d="M 857 1126  C 855.32 1126  854 1124.68  854 1123  C 854 1121.32  855.32 1120  857 1120  C 858.68 1120  860 1121.32  860 1123  C 860 1124.68  858.68 1126  857 1126  " fill-rule="nonzero" fill="#797979" stroke="none" />
</svg>