<?xml version="1.0" encoding="utf-8"?>
<svg version="1.1" xmlns:xlink="http://www.w3.org/1999/xlink" width="12px" height="12px" viewBox="733 1117  12 12" xmlns="http://www.w3.org/2000/svg">
  <path d="M 739 1117  C 742.36 1117  745 1119.64  745 1123  C 745 1126.36  742.36 1129  739 1129  C 735.64 1129  733 1126.36  733 1123  C 733 1119.64  735.64 1117  739 1117  Z " fill-rule="nonzero" fill="#ffffff" stroke="none" />
  <path d="M 739 1117.5  C 742.08 1117.5  744.5 1119.92  744.5 1123  C 744.5 1126.08  742.08 1128.5  739 1128.5  C 735.92 1128.5  733.5 1126.08  733.5 1123  C 733.5 1119.92  735.92 1117.5  739 1117.5  Z " stroke-width="1" stroke="#797979" fill="none" />
  <path d="M 739 1126  C 737.32 1126  736 1124.68  736 1123  C 736 1121.32  737.32 1120  739 1120  C 740.68 1120  742 1121.32  742 1123  C 742 1124.68  740.68 1126  739 1126  " fill-rule="nonzero" fill="#797979" stroke="none" />
</svg>