<?xml version="1.0" encoding="utf-8"?>
<svg version="1.1" xmlns:xlink="http://www.w3.org/1999/xlink" width="12px" height="12px" viewBox="985 1117  12 12" xmlns="http://www.w3.org/2000/svg">
  <path d="M 991 1117  C 994.36 1117  997 1119.64  997 1123  C 997 1126.36  994.36 1129  991 1129  C 987.64 1129  985 1126.36  985 1123  C 985 1119.64  987.64 1117  991 1117  Z " fill-rule="nonzero" fill="#f0f0f0" stroke="none" />
  <path d="M 991 1117.5  C 994.08 1117.5  996.5 1119.92  996.5 1123  C 996.5 1126.08  994.08 1128.5  991 1128.5  C 987.92 1128.5  985.5 1126.08  985.5 1123  C 985.5 1119.92  987.92 1117.5  991 1117.5  Z " stroke-width="1" stroke="#797979" fill="none" />
  <path d="M 991 1126  C 989.32 1126  988 1124.68  988 1123  C 988 1121.32  989.32 1120  991 1120  C 992.68 1120  994 1121.32  994 1123  C 994 1124.68  992.68 1126  991 1126  " fill-rule="nonzero" fill="#797979" stroke="none" />
</svg>