<?xml version="1.0" encoding="utf-8"?>
<svg version="1.1" xmlns:xlink="http://www.w3.org/1999/xlink" width="12px" height="12px" viewBox="235 562  12 12" xmlns="http://www.w3.org/2000/svg">
  <path d="M 241 562  C 244.36 562  247 564.64  247 568  C 247 571.36  244.36 574  241 574  C 237.64 574  235 571.36  235 568  C 235 564.64  237.64 562  241 562  Z " fill-rule="nonzero" fill="#ffffff" stroke="none" />
  <path d="M 241 562.5  C 244.08 562.5  246.5 564.92  246.5 568  C 246.5 571.08  244.08 573.5  241 573.5  C 237.92 573.5  235.5 571.08  235.5 568  C 235.5 564.92  237.92 562.5  241 562.5  Z " stroke-width="1" stroke="#797979" fill="none" />
  <path d="M 241 571  C 239.32 571  238 569.68  238 568  C 238 566.32  239.32 565  241 565  C 242.68 565  244 566.32  244 568  C 244 569.68  242.68 571  241 571  " fill-rule="nonzero" fill="#797979" stroke="none" />
</svg>