<?xml version="1.0" encoding="utf-8"?>
<svg version="1.1" xmlns:xlink="http://www.w3.org/1999/xlink" width="12px" height="12px" viewBox="202 1113  12 12" xmlns="http://www.w3.org/2000/svg">
  <path d="M 208 1113  C 211.36 1113  214 1115.64  214 1119  C 214 1122.36  211.36 1125  208 1125  C 204.64 1125  202 1122.36  202 1119  C 202 1115.64  204.64 1113  208 1113  Z " fill-rule="nonzero" fill="#ffffff" stroke="none" />
  <path d="M 208 1113.5  C 211.08 1113.5  213.5 1115.92  213.5 1119  C 213.5 1122.08  211.08 1124.5  208 1124.5  C 204.92 1124.5  202.5 1122.08  202.5 1119  C 202.5 1115.92  204.92 1113.5  208 1113.5  Z " stroke-width="1" stroke="#797979" fill="none" />
  <path d="M 208 1122  C 206.32 1122  205 1120.68  205 1119  C 205 1117.32  206.32 1116  208 1116  C 209.68 1116  211 1117.32  211 1119  C 211 1120.68  209.68 1122  208 1122  " fill-rule="nonzero" fill="#797979" stroke="none" />
</svg>