<?xml version="1.0" encoding="utf-8"?>
<svg version="1.1" xmlns:xlink="http://www.w3.org/1999/xlink" width="12px" height="12px" viewBox="226 291.5  12 12" xmlns="http://www.w3.org/2000/svg">
  <path d="M 232 291.5  C 235.36 291.5  238 294.14  238 297.5  C 238 300.86  235.36 303.5  232 303.5  C 228.64 303.5  226 300.86  226 297.5  C 226 294.14  228.64 291.5  232 291.5  Z " fill-rule="nonzero" fill="#ffffff" stroke="none" />
  <path d="M 232 292  C 235.08 292  237.5 294.42  237.5 297.5  C 237.5 300.58  235.08 303  232 303  C 228.92 303  226.5 300.58  226.5 297.5  C 226.5 294.42  228.92 292  232 292  Z " stroke-width="1" stroke="#797979" fill="none" />
  <path d="M 232 300.5  C 230.32 300.5  229 299.18  229 297.5  C 229 295.82  230.32 294.5  232 294.5  C 233.68 294.5  235 295.82  235 297.5  C 235 299.18  233.68 300.5  232 300.5  " fill-rule="nonzero" fill="#797979" stroke="none" />
</svg>