<?xml version="1.0" encoding="utf-8"?>
<svg version="1.1" xmlns:xlink="http://www.w3.org/1999/xlink" width="12px" height="12px" viewBox="228 930.5  12 12" xmlns="http://www.w3.org/2000/svg">
  <path d="M 234 930.5  C 237.36 930.5  240 933.14  240 936.5  C 240 939.86  237.36 942.5  234 942.5  C 230.64 942.5  228 939.86  228 936.5  C 228 933.14  230.64 930.5  234 930.5  Z " fill-rule="nonzero" fill="#f0f0f0" stroke="none" />
  <path d="M 234 931  C 237.08 931  239.5 933.42  239.5 936.5  C 239.5 939.58  237.08 942  234 942  C 230.92 942  228.5 939.58  228.5 936.5  C 228.5 933.42  230.92 931  234 931  Z " stroke-width="1" stroke="#797979" fill="none" />
  <path d="M 234 939.5  C 232.32 939.5  231 938.18  231 936.5  C 231 934.82  232.32 933.5  234 933.5  C 235.68 933.5  237 934.82  237 936.5  C 237 938.18  235.68 939.5  234 939.5  " fill-rule="nonzero" fill="#797979" stroke="none" />
</svg>