<?xml version="1.0" encoding="utf-8"?>
<svg version="1.1" xmlns:xlink="http://www.w3.org/1999/xlink" width="12px" height="12px" viewBox="205 750.5  12 12" xmlns="http://www.w3.org/2000/svg">
  <path d="M 211 750.5  C 214.36 750.5  217 753.14  217 756.5  C 217 759.86  214.36 762.5  211 762.5  C 207.64 762.5  205 759.86  205 756.5  C 205 753.14  207.64 750.5  211 750.5  Z " fill-rule="nonzero" fill="#f0f0f0" stroke="none" />
  <path d="M 211 751  C 214.08 751  216.5 753.42  216.5 756.5  C 216.5 759.58  214.08 762  211 762  C 207.92 762  205.5 759.58  205.5 756.5  C 205.5 753.42  207.92 751  211 751  Z " stroke-width="1" stroke="#797979" fill="none" />
  <path d="M 211 759.5  C 209.32 759.5  208 758.18  208 756.5  C 208 754.82  209.32 753.5  211 753.5  C 212.68 753.5  214 754.82  214 756.5  C 214 758.18  212.68 759.5  211 759.5  " fill-rule="nonzero" fill="#797979" stroke="none" />
</svg>