<?xml version="1.0" encoding="utf-8"?>
<svg version="1.1" xmlns:xlink="http://www.w3.org/1999/xlink" width="35px" height="35px" xmlns="http://www.w3.org/2000/svg">
  <g transform="matrix(1 0 0 1 -34 -496 )">
    <path d="M 22.8151907280816 20.8363490614149  L 19.4460416612413 17.4661118652344  L 22.8199707953559 14.0910557128906  C 23.351921234809 13.5589109429253  23.3507553656684 12.6960070963542  22.8199707953559 12.1638234754774  C 22.2880203559028 11.6316787055122  21.4277591688368 11.6304739854601  20.8933992513021 12.1638234754774  L 17.519508968099 15.5388796278212  L 14.1515646592882 12.1686424316406  C 13.6196142198351 11.6364588107639  12.7545340766059 11.6377024197049  12.2237883572049 12.1686424316406  C 11.6917990288628 12.7007872016059  11.6906331597222 13.5636910481771  12.2237883572049 14.0970405381944  L 15.5928985351562 17.467277734375  L 12.2189694010417 20.8423338867187  C 11.6881848307292 21.3732738986545  11.685814203559 22.2386260742188  12.217803531901 22.7707319932726  C 12.7485492513021 23.3016720052083  13.6123857855903 23.3029156141493  14.1455798339844 22.7695661241319  L 17.5170994900174 19.3968805989583  L 20.8862485568576 22.7671566460503  C 21.4158284071181 23.296891937934  22.2808308105469 23.3005061360677  22.8152295789931 22.7659519259983  C 23.3459364474826 22.2326412868924  23.3471412055122 21.3696985514323  22.8151907280816 20.8363490614149  Z M 29.5522063639323 5.41134054361979  C 22.9170494628906 -1.2261092827691  12.115944797092 -1.22847987196181  5.47833956705729 5.41134054361979  C -1.15926570095486 12.0511609592014  -1.15689507378472 22.8558798231337  5.47833956705729 29.4933296115451  C 12.1159448350694 36.1331500271267  22.9146011338976 36.1355595052083  29.5534111219618 29.4944954806858  C 36.191016389974 22.8546362141927  36.191016389974 12.0523657172309  29.5522063639323 5.41134054361979  Z M 6.98437957899305 27.9879502929688  C 1.17586776258681 22.1774953233507  1.17707248263889 12.7270971679688  6.98317485894097 6.91784691840278  C 12.7928914333767 1.1062260796441  22.2388981445312 1.10739194878472  28.0474099609375 6.91668104926215  C 33.8559217773437 12.7270971299913  33.8570876844618 22.1774564724392  28.0474099609375 27.9891550130208  C 22.2424734917535 33.7984052246094  12.7916866753472 33.7984052246094  6.98437957899305 27.9879502929688  Z " fill-rule="nonzero" fill="#6468ef" stroke="none" transform="matrix(1 0 0 1 34 496 )" />
  </g>
</svg>