<?xml version="1.0" encoding="utf-8"?>
<svg version="1.1" xmlns:xlink="http://www.w3.org/1999/xlink" width="12px" height="12px" viewBox="230 1367.5  12 12" xmlns="http://www.w3.org/2000/svg">
  <path d="M 236 1367.5  C 239.36 1367.5  242 1370.14  242 1373.5  C 242 1376.86  239.36 1379.5  236 1379.5  C 232.64 1379.5  230 1376.86  230 1373.5  C 230 1370.14  232.64 1367.5  236 1367.5  Z " fill-rule="nonzero" fill="#ffffff" stroke="none" />
  <path d="M 236 1368  C 239.08 1368  241.5 1370.42  241.5 1373.5  C 241.5 1376.58  239.08 1379  236 1379  C 232.92 1379  230.5 1376.58  230.5 1373.5  C 230.5 1370.42  232.92 1368  236 1368  Z " stroke-width="1" stroke="#797979" fill="none" />
  <path d="M 236 1376.5  C 234.32 1376.5  233 1375.18  233 1373.5  C 233 1371.82  234.32 1370.5  236 1370.5  C 237.68 1370.5  239 1371.82  239 1373.5  C 239 1375.18  237.68 1376.5  236 1376.5  " fill-rule="nonzero" fill="#797979" stroke="none" />
</svg>