<?xml version="1.0" encoding="utf-8"?>
<svg version="1.1" xmlns:xlink="http://www.w3.org/1999/xlink" width="12px" height="12px" viewBox="1207 1348.5  12 12" xmlns="http://www.w3.org/2000/svg">
  <path d="M 1213 1348.5  C 1216.36 1348.5  1219 1351.14  1219 1354.5  C 1219 1357.86  1216.36 1360.5  1213 1360.5  C 1209.64 1360.5  1207 1357.86  1207 1354.5  C 1207 1351.14  1209.64 1348.5  1213 1348.5  Z " fill-rule="nonzero" fill="#ffffff" stroke="none" />
  <path d="M 1213 1349  C 1216.08 1349  1218.5 1351.42  1218.5 1354.5  C 1218.5 1357.58  1216.08 1360  1213 1360  C 1209.92 1360  1207.5 1357.58  1207.5 1354.5  C 1207.5 1351.42  1209.92 1349  1213 1349  Z " stroke-width="1" stroke="#797979" fill="none" />
  <path d="M 1213 1357.5  C 1211.32 1357.5  1210 1356.18  1210 1354.5  C 1210 1352.82  1211.32 1351.5  1213 1351.5  C 1214.68 1351.5  1216 1352.82  1216 1354.5  C 1216 1356.18  1214.68 1357.5  1213 1357.5  " fill-rule="nonzero" fill="#797979" stroke="none" />
</svg>