<?xml version="1.0" encoding="utf-8"?>
<svg version="1.1" xmlns:xlink="http://www.w3.org/1999/xlink" width="12px" height="12px" viewBox="2341 282  12 12" xmlns="http://www.w3.org/2000/svg">
  <path d="M 2347 282  C 2350.36 282  2353 284.64  2353 288  C 2353 291.36  2350.36 294  2347 294  C 2343.64 294  2341 291.36  2341 288  C 2341 284.64  2343.64 282  2347 282  Z " fill-rule="nonzero" fill="#ffffff" stroke="none" />
  <path d="M 2347 282.5  C 2350.08 282.5  2352.5 284.92  2352.5 288  C 2352.5 291.08  2350.08 293.5  2347 293.5  C 2343.92 293.5  2341.5 291.08  2341.5 288  C 2341.5 284.92  2343.92 282.5  2347 282.5  Z " stroke-width="1" stroke="#797979" fill="none" />
  <path d="M 2347 291  C 2345.32 291  2344 289.68  2344 288  C 2344 286.32  2345.32 285  2347 285  C 2348.68 285  2350 286.32  2350 288  C 2350 289.68  2348.68 291  2347 291  " fill-rule="nonzero" fill="#797979" stroke="none" />
</svg>