<?xml version="1.0" encoding="utf-8"?>
<svg version="1.1" xmlns:xlink="http://www.w3.org/1999/xlink" width="12px" height="12px" viewBox="2441 282  12 12" xmlns="http://www.w3.org/2000/svg">
  <path d="M 2447 282  C 2450.36 282  2453 284.64  2453 288  C 2453 291.36  2450.36 294  2447 294  C 2443.64 294  2441 291.36  2441 288  C 2441 284.64  2443.64 282  2447 282  Z " fill-rule="nonzero" fill="#f0f0f0" stroke="none" />
  <path d="M 2447 282.5  C 2450.08 282.5  2452.5 284.92  2452.5 288  C 2452.5 291.08  2450.08 293.5  2447 293.5  C 2443.92 293.5  2441.5 291.08  2441.5 288  C 2441.5 284.92  2443.92 282.5  2447 282.5  Z " stroke-width="1" stroke="#797979" fill="none" />
  <path d="M 2447 291  C 2445.32 291  2444 289.68  2444 288  C 2444 286.32  2445.32 285  2447 285  C 2448.68 285  2450 286.32  2450 288  C 2450 289.68  2448.68 291  2447 291  " fill-rule="nonzero" fill="#797979" stroke="none" />
</svg>