<?xml version="1.0" encoding="utf-8"?>
<svg version="1.1" xmlns:xlink="http://www.w3.org/1999/xlink" width="12px" height="12px" viewBox="2341 280.5  12 12" xmlns="http://www.w3.org/2000/svg">
  <path d="M 2347 280.5  C 2350.36 280.5  2353 283.14  2353 286.5  C 2353 289.86  2350.36 292.5  2347 292.5  C 2343.64 292.5  2341 289.86  2341 286.5  C 2341 283.14  2343.64 280.5  2347 280.5  Z " fill-rule="nonzero" fill="#f0f0f0" stroke="none" />
  <path d="M 2347 281  C 2350.08 281  2352.5 283.42  2352.5 286.5  C 2352.5 289.58  2350.08 292  2347 292  C 2343.92 292  2341.5 289.58  2341.5 286.5  C 2341.5 283.42  2343.92 281  2347 281  Z " stroke-width="1" stroke="#797979" fill="none" />
  <path d="M 2347 289.5  C 2345.32 289.5  2344 288.18  2344 286.5  C 2344 284.82  2345.32 283.5  2347 283.5  C 2348.68 283.5  2350 284.82  2350 286.5  C 2350 288.18  2348.68 289.5  2347 289.5  " fill-rule="nonzero" fill="#797979" stroke="none" />
</svg>