<?xml version="1.0" encoding="utf-8"?>
<svg version="1.1" xmlns:xlink="http://www.w3.org/1999/xlink" width="12px" height="12px" viewBox="2434 833  12 12" xmlns="http://www.w3.org/2000/svg">
  <path d="M 2440 833  C 2443.36 833  2446 835.64  2446 839  C 2446 842.36  2443.36 845  2440 845  C 2436.64 845  2434 842.36  2434 839  C 2434 835.64  2436.64 833  2440 833  Z " fill-rule="nonzero" fill="#f0f0f0" stroke="none" />
  <path d="M 2440 833.5  C 2443.08 833.5  2445.5 835.92  2445.5 839  C 2445.5 842.08  2443.08 844.5  2440 844.5  C 2436.92 844.5  2434.5 842.08  2434.5 839  C 2434.5 835.92  2436.92 833.5  2440 833.5  Z " stroke-width="1" stroke="#797979" fill="none" />
  <path d="M 2440 842  C 2438.32 842  2437 840.68  2437 839  C 2437 837.32  2438.32 836  2440 836  C 2441.68 836  2443 837.32  2443 839  C 2443 840.68  2441.68 842  2440 842  " fill-rule="nonzero" fill="#797979" stroke="none" />
</svg>