<?xml version="1.0" encoding="utf-8"?>
<svg version="1.1" xmlns:xlink="http://www.w3.org/1999/xlink" width="12px" height="12px" viewBox="3170 1170.5  12 12" xmlns="http://www.w3.org/2000/svg">
  <path d="M 3176 1170.5  C 3179.36 1170.5  3182 1173.14  3182 1176.5  C 3182 1179.86  3179.36 1182.5  3176 1182.5  C 3172.64 1182.5  3170 1179.86  3170 1176.5  C 3170 1173.14  3172.64 1170.5  3176 1170.5  Z " fill-rule="nonzero" fill="#ffffff" stroke="none" />
  <path d="M 3176 1171  C 3179.08 1171  3181.5 1173.42  3181.5 1176.5  C 3181.5 1179.58  3179.08 1182  3176 1182  C 3172.92 1182  3170.5 1179.58  3170.5 1176.5  C 3170.5 1173.42  3172.92 1171  3176 1171  Z " stroke-width="1" stroke="#797979" fill="none" />
  <path d="M 3176 1179.5  C 3174.32 1179.5  3173 1178.18  3173 1176.5  C 3173 1174.82  3174.32 1173.5  3176 1173.5  C 3177.68 1173.5  3179 1174.82  3179 1176.5  C 3179 1178.18  3177.68 1179.5  3176 1179.5  " fill-rule="nonzero" fill="#797979" stroke="none" />
</svg>