<?xml version="1.0" encoding="utf-8"?>
<svg version="1.1" xmlns:xlink="http://www.w3.org/1999/xlink" width="12px" height="12px" viewBox="3170 1172  12 12" xmlns="http://www.w3.org/2000/svg">
  <path d="M 3176 1172  C 3179.36 1172  3182 1174.64  3182 1178  C 3182 1181.36  3179.36 1184  3176 1184  C 3172.64 1184  3170 1181.36  3170 1178  C 3170 1174.64  3172.64 1172  3176 1172  Z " fill-rule="nonzero" fill="#f0f0f0" stroke="none" />
  <path d="M 3176 1172.5  C 3179.08 1172.5  3181.5 1174.92  3181.5 1178  C 3181.5 1181.08  3179.08 1183.5  3176 1183.5  C 3172.92 1183.5  3170.5 1181.08  3170.5 1178  C 3170.5 1174.92  3172.92 1172.5  3176 1172.5  Z " stroke-width="1" stroke="#797979" fill="none" />
  <path d="M 3176 1181  C 3174.32 1181  3173 1179.68  3173 1178  C 3173 1176.32  3174.32 1175  3176 1175  C 3177.68 1175  3179 1176.32  3179 1178  C 3179 1179.68  3177.68 1181  3176 1181  " fill-rule="nonzero" fill="#797979" stroke="none" />
</svg>