<?xml version="1.0" encoding="utf-8"?>
<svg version="1.1" xmlns:xlink="http://www.w3.org/1999/xlink" width="12px" height="12px" viewBox="3296 1172  12 12" xmlns="http://www.w3.org/2000/svg">
  <path d="M 3302 1172  C 3305.36 1172  3308 1174.64  3308 1178  C 3308 1181.36  3305.36 1184  3302 1184  C 3298.64 1184  3296 1181.36  3296 1178  C 3296 1174.64  3298.64 1172  3302 1172  Z " fill-rule="nonzero" fill="#ffffff" stroke="none" />
  <path d="M 3302 1172.5  C 3305.08 1172.5  3307.5 1174.92  3307.5 1178  C 3307.5 1181.08  3305.08 1183.5  3302 1183.5  C 3298.92 1183.5  3296.5 1181.08  3296.5 1178  C 3296.5 1174.92  3298.92 1172.5  3302 1172.5  Z " stroke-width="1" stroke="#797979" fill="none" />
  <path d="M 3302 1181  C 3300.32 1181  3299 1179.68  3299 1178  C 3299 1176.32  3300.32 1175  3302 1175  C 3303.68 1175  3305 1176.32  3305 1178  C 3305 1179.68  3303.68 1181  3302 1181  " fill-rule="nonzero" fill="#797979" stroke="none" />
</svg>