<?xml version="1.0" encoding="utf-8"?>
<svg version="1.1" xmlns:xlink="http://www.w3.org/1999/xlink" width="16px" height="29px" xmlns="http://www.w3.org/2000/svg">
  <g transform="matrix(1 0 0 1 -739 -1627 )">
    <path d="M 14.796875 27.3857421875  C 15.228125 26.9514973958334  15.228125 26.2340494791666  14.79375 25.7966579861111  L 3.80937499999998 14.7360026041666  C 3.75 14.6762152777778  3.71249999999997 14.5944010416666  3.71249999999997 14.5  C 3.71249999999997 14.4055989583334  3.75 14.3237847222222  3.8125 14.2608506944445  L 14.79375 3.20334201388893  C 15.228125 2.76595052083339  15.228125 2.04850260416661  14.79375 1.61111111111107  C 14.359375 1.17371961805554  13.646875 1.17371961805554  13.2125 1.61111111111107  L 1.20625000000002 13.7038845486111  C 0.771875000000033 14.1412760416666  0.771875000000033 14.8587239583334  1.20625000000002 15.2961154513889  C 1.20937500000003 15.2992621527778  1.20937500000003 15.2992621527778  1.21249999999997 15.2992621527778  L 13.215625 27.3857421875  C 13.65 27.8231336805555  14.3625 27.8231336805555  14.796875 27.3857421875  Z " fill-rule="nonzero" fill="#000000" stroke="none" transform="matrix(1 0 0 1 739 1627 )" />
  </g>
</svg>