<?xml version="1.0" encoding="utf-8"?>
<svg version="1.1" xmlns:xlink="http://www.w3.org/1999/xlink" width="50px" height="42px" xmlns="http://www.w3.org/2000/svg">
  <g transform="matrix(1 0 0 1 -945 -670 )">
    <path d="M 44.0989847715736 6.628125  C 46.0659898477157 6.409375  48.0329949238579 5.86249999999999  50 4.9875  C 48.582910321489 7.13125  46.8697123519459 8.9578125  44.8604060913706 10.4671875  C 44.8815566835871 10.7734375  44.8921319796954 11.2328125  44.8921319796954 11.8453125  C 44.8921319796954 14.6890625  44.4902707275804 17.52734375  43.6865482233503 20.36015625  C 42.8828257191201 23.19296875  41.6613790186125 25.9109375  40.0222081218274 28.5140625  C 38.3830372250423 31.1171875  36.4318950930626 33.41953125  34.1687817258883 35.42109375  C 31.905668358714 37.42265625  29.177241962775 39.01953125  25.9835025380711 40.21171875  C 22.7897631133672 41.40390625  19.3739424703892 42  15.7360406091371 42  C 10.0042301184433 42  4.75888324873096 40.4140625  0 37.2421875  C 0.740270727580373 37.3296875  1.56514382402707 37.3734375  2.4746192893401 37.3734375  C 7.23350253807107 37.3734375  11.4741962774958 35.8640625  15.1967005076142 32.8453125  C 12.9758883248731 32.8015625  10.9877326565144 32.09609375  9.23223350253807 30.72890625  C 7.47673434856176 29.36171875  6.27115059221658 27.6171875  5.61548223350254 25.4953125  C 6.31345177664975 25.6046875  6.9585448392555 25.659375  7.5507614213198 25.659375  C 8.46023688663283 25.659375  9.35913705583756 25.5390625  10.247461928934 25.2984375  C 7.87859560067682 24.7953125  5.91687817258883 23.57578125  4.36230964467005 21.63984375  C 2.80774111675127 19.70390625  2.03045685279188 17.45625  2.03045685279188 14.896875  L 2.03045685279188 14.765625  C 3.46869712351946 15.596875  5.01269035532995 16.0453125  6.66243654822335 16.1109375  C 5.26649746192893 15.1484375  4.15609137055838 13.890625  3.33121827411168 12.3375  C 2.50634517766497 10.784375  2.09390862944162 9.1  2.09390862944162 7.284375  C 2.09390862944162 5.359375  2.55922165820643 3.5765625  3.48984771573604 1.9359375  C 6.04906937394247 5.1953125  9.16349407783418 7.80390625  12.8331218274112 9.76171875  C 16.5027495769882 11.71953125  20.4314720812183 12.8078125  24.6192893401015 13.0265625  C 24.4500846023689 12.1953125  24.3654822335025 11.3859375  24.3654822335025 10.5984375  C 24.3654822335025 7.66718749999999  25.364847715736 5.16796875  27.363578680203 3.10078125  C 29.36230964467 1.03359375  31.7787648054146 0  34.6129441624365 0  C 37.574027072758 0  40.0697969543147 1.115625  42.1002538071066 3.346875  C 44.405668358714 2.8875  46.5736040609137 2.034375  48.6040609137056 0.787500000000002  C 47.8214890016921 3.30312499999999  46.3197969543147 5.25  44.0989847715736 6.628125  Z " fill-rule="nonzero" fill="#000000" stroke="none" transform="matrix(1 0 0 1 945 670 )" />
  </g>
</svg>