<?xml version="1.0" encoding="utf-8"?>
<svg version="1.1" xmlns:xlink="http://www.w3.org/1999/xlink" width="16px" height="29px" xmlns="http://www.w3.org/2000/svg">
  <g transform="matrix(1 0 0 1 -1128 -1627 )">
    <path d="M 15.3535353535354 15.2048611111111  C 15.7575757575758 14.8020833333332  15.7575757575758 14.1979166666668  15.3535353535354 13.7951388888889  L 2.22222222222221 0.704861111111075  C 1.81818181818182 0.302083333333223  1.21212121212121 0.302083333333223  0.80808080808081 0.704861111111075  C 0.404040404040395 1.10763888888893  0.404040404040395 1.7118055555557  0.80808080808081 2.11458333333322  L 13.2323232323232 14.5  L 0.80808080808081 26.8854166666668  C 0.404040404040395 27.2881944444443  0.404040404040395 27.8923611111111  0.80808080808081 28.2951388888889  C 1.01010101010101 28.4965277777779  1.21212121212121 28.5972222222222  1.51515151515152 28.5972222222222  C 1.81818181818182 28.5972222222222  2.02020202020202 28.4965277777779  2.22222222222221 28.2951388888889  L 15.3535353535354 15.2048611111111  Z " fill-rule="nonzero" fill="#000000" stroke="none" transform="matrix(1 0 0 1 1128 1627 )" />
  </g>
</svg>