<?xml version="1.0" encoding="utf-8"?>
<svg version="1.1" xmlns:xlink="http://www.w3.org/1999/xlink" width="12px" height="12px" xmlns="http://www.w3.org/2000/svg">
  <g transform="matrix(1 0 0 1 -901 -1830 )">
    <path d="M 907 1830  C 910.36 1830  913 1832.64  913 1836  C 913 1839.36  910.36 1842  907 1842  C 903.64 1842  901 1839.36  901 1836  C 901 1832.64  903.64 1830  907 1830  Z " fill-rule="nonzero" fill="#ffffff" stroke="none" />
    <path d="M 907 1830.5  C 910.08 1830.5  912.5 1832.92  912.5 1836  C 912.5 1839.08  910.08 1841.5  907 1841.5  C 903.92 1841.5  901.5 1839.08  901.5 1836  C 901.5 1832.92  903.92 1830.5  907 1830.5  Z " stroke-width="1" stroke="#797979" fill="none" />
  </g>
</svg>