<?xml version="1.0" encoding="utf-8"?>
<svg version="1.1" xmlns:xlink="http://www.w3.org/1999/xlink" width="641px" height="733px" xmlns="http://www.w3.org/2000/svg">
  <g transform="matrix(1 0 0 1 -453 -59 )">
    <path d="M 0.5 0  L 0.5 728.522565320665  C 0 730.469928741093  0.499290780142019 732  1.13475177304952 732.5  L 638.86524822695 732.5  C 639.500709219858 732  640 730.469928741093  640.5 728.522565320665  L 640.5 0  L 0.5 0  Z " fill-rule="nonzero" fill="#ffffff" stroke="none" transform="matrix(1 0 0 1 453 59 )" />
    <path d="M 0.5 0  L 0.5 728.522565320665  C 0 730.469928741093  0.499290780142019 732  1.13475177304952 732.5  L 638.86524822695 732.5  C 639.500709219858 732  640 730.469928741093  640.5 728.522565320665  L 640.5 0  " stroke-width="1" stroke="#e9e9e9" fill="none" transform="matrix(1 0 0 1 453 59 )" />
  </g>
</svg>